<svg xmlns="http://www.w3.org/2000/svg" width="250" height="250" viewBox="0 0 250 250"><path fill="#231F20" d="M232.947 117.848c0-28.832-11.23-55.94-31.617-76.328-17.61-17.61-40.23-28.38-64.645-30.99a11.618 11.618 0 0 0-1.92-1.542c-8.646-5.558-15.856-1.428-20.856 1-.36.175-.787.383-1.256.624a107.062 107.062 0 0 0-26.982 6.72 27.98 27.98 0 0 0-3.483-4.245C76.973 7.873 70.036 5 62.66 5 47.433 5 35.045 17.388 35.045 32.617c0 6.382 2.155 12.43 6.113 17.327-15.065 18.558-24.104 42.193-24.104 67.904 0 28.834 11.23 55.944 31.616 76.33 9.958 9.96 21.522 17.727 34.106 23.073-.706 5.706.225 9.577 1.263 11.164-1.586 1.333-2.254 2.167-2.503 3.67-2.503 3.42 3.586 7.758 6.09 9.68 5.14 3.94 7.842 3.25 11.848 3.084 4.944-.205 9.593-6.005 12.264-9.758 5.338-.753 6.34.08 6.508.75 1.667-.25 4.004-.67 7.174-2.005 7.21-3.033 5.173-6.76 4.422-7.424-.193-.17-.354-.413-.504-.706 17.11-.67 33.517-5.312 48.152-13.48a18.786 18.786 0 0 1 1.575 2.006c1.585 2.337 2.42 9.927 2.754 13.85.333 3.92 1 6.592 2.922 12.767 1.917 6.172 2.67 1.667 2.755 0 .08-1.672.413-7.68.163-12.016-.25-4.337-.333-10.596.504-13.265.832-2.67-.667-3.336-1.087-3.838-.418-.5 0-.667-1.084-4.088-.063-.192-.11-.392-.152-.594a109.148 109.148 0 0 0 15.49-12.867c20.388-20.388 31.617-47.497 31.617-76.332"/><path fill="#061922" d="M232.947 117.848c0-28.832-11.23-55.94-31.617-76.328-17.61-17.61-40.23-28.38-64.645-30.99a11.618 11.618 0 0 0-1.92-1.542c-8.646-5.558-15.856-1.428-20.856 1-.36.175-.787.383-1.256.624a107.062 107.062 0 0 0-26.982 6.72 27.98 27.98 0 0 0-3.483-4.245C76.973 7.873 70.036 5 62.66 5 47.433 5 35.045 17.388 35.045 32.617c0 6.382 2.155 12.43 6.113 17.327-15.065 18.558-24.104 42.193-24.104 67.904 0 28.834 11.23 55.944 31.616 76.33 9.958 9.96 21.522 17.727 34.106 23.073-.706 5.706.225 9.577 1.263 11.164-1.586 1.333-2.254 2.167-2.503 3.67-2.503 3.42 3.586 7.758 6.09 9.68 5.14 3.94 7.842 3.25 11.848 3.084 4.944-.205 9.593-6.005 12.264-9.758 5.338-.753 6.34.08 6.508.75 1.667-.25 4.004-.67 7.174-2.005 7.21-3.033 5.173-6.76 4.422-7.424-.193-.17-.354-.413-.504-.706 17.11-.67 33.517-5.312 48.152-13.48a18.786 18.786 0 0 1 1.575 2.006c1.585 2.337 2.42 9.927 2.754 13.85.333 3.92 1 6.592 2.922 12.767 1.917 6.172 2.67 1.667 2.755 0 .08-1.672.413-7.68.163-12.016-.25-4.337-.333-10.596.504-13.265.832-2.67-.667-3.336-1.087-3.838-.418-.5 0-.667-1.084-4.088-.063-.192-.11-.392-.152-.594a109.148 109.148 0 0 0 15.49-12.867c20.388-20.388 31.617-47.497 31.617-76.332"/><path fill="#008248" d="M99.475 218.57c4.004-.17 9.593-1.42 12.137-2.506.337.084.88.418 1.714.752.332-2.67-1.377-8.22-2.34-10.763-.637-1.69-1.25-2.84-2-4.588-2.254-.417-5.048-1.63-7.05-2.463 0 1.587.29 5.716.627 8.468a34.25 34.25 0 0 1-3.422.168c.167 3.006.503 8.426.335 10.93"/><path fill="none" stroke="#008248" stroke-width=".306" d="M99.475 218.57c4.004-.17 9.593-1.42 12.137-2.506.337.084.88.418 1.714.752.332-2.67-1.377-8.22-2.34-10.763-.637-1.69-1.25-2.84-2-4.588-2.254-.417-5.048-1.63-7.05-2.463 0 1.587.29 5.716.627 8.468a34.25 34.25 0 0 1-3.422.168c.167 3.006.503 8.426.335 10.93z"/><path fill="#008248" d="M174.98 209.726c-.75-.75.916-3.086 1.668-7.428.752-4.338.834-11.596-2.337-15.684-1.54-1.99-2.29-3.245-2.55-4.14a78.856 78.856 0 0 1-33.24 14.006 5.186 5.186 0 0 1-.418.645c-1.753 2.252-5.173 5.51-7.676 6.84-2.502 1.335-5.423 2.34-7.008 2.84-.334 2.67-.768 8.623-.082 10.68.25.75 3.336 2.584 4.42 4.587.113.21.215.414.312.615a104.21 104.21 0 0 0 47.122-12.762l-.21-.2"/><path fill="none" stroke="#008248" stroke-width=".306" d="M174.98 209.726c-.75-.75.916-3.086 1.668-7.428.752-4.338.834-11.596-2.337-15.684-1.54-1.99-2.29-3.245-2.55-4.14a78.856 78.856 0 0 1-33.24 14.006 5.186 5.186 0 0 1-.418.645c-1.753 2.252-5.173 5.51-7.676 6.84-2.502 1.335-5.423 2.34-7.008 2.84-.334 2.67-.768 8.623-.082 10.68.25.75 3.336 2.584 4.42 4.587.113.21.215.414.312.615a104.21 104.21 0 0 0 47.122-12.762l-.21-.2z"/><path fill="#008248" d="M199.167 43.685c-16.45-16.448-37.4-26.753-60.072-29.78 1.815 3.593 2.1 7.725 2.26 10.352 3.257-1.42 5.76-2.17 7.095-4.338 1.336-2.17 3.17-1.754 4.338-.168 1.167 1.585 1.167 3.588-1.917 5.505-3.087 1.92-5.34 2.838-6.008 3.172-.668.33-.082.915.668 2.168.75 1.25 2.662 4.342 3.002 10.847.004.06.008.126.008.19 12.268 3.773 23.506 10.504 32.84 19.838 15.063 15.063 23.36 35.09 23.36 56.394 0 12.236-2.742 24.046-7.927 34.743.69.357 1.624 2.778 1.944 5.972.168 1.67.086 3.504-.418 4.672-.5 1.17-4.437 7.076-6.424 8.843-.75.668-2.502.586-3.252-.5-.754-1.083-.836-.5-1.417.082-.588.585-2.59 3.506-3.09 4.255-.503.752-2.17 1.5-1.084 4.506 1.083 3.005 2.335 5.258 1.917 6.93-.416 1.667-.582 2.166 1.67 4.083 2.254 1.92 2.168 4.256 1.168 5.76-.626.938-1.612 3.45-1.995 6.033 26.646-19.035 44.05-50.22 44.05-85.395 0-28.016-10.907-54.355-30.716-74.165"/><path fill="none" stroke="#008248" stroke-width=".306" d="M199.167 43.685c-16.45-16.448-37.4-26.753-60.072-29.78 1.815 3.593 2.1 7.725 2.26 10.352 3.257-1.42 5.76-2.17 7.095-4.338 1.336-2.17 3.17-1.754 4.338-.168 1.167 1.585 1.167 3.588-1.917 5.505-3.087 1.92-5.34 2.838-6.008 3.172-.668.33-.082.915.668 2.168.75 1.25 2.662 4.342 3.002 10.847.004.06.008.126.008.19 12.268 3.773 23.506 10.504 32.84 19.838 15.063 15.063 23.36 35.09 23.36 56.394 0 12.236-2.742 24.046-7.927 34.743.69.357 1.624 2.778 1.944 5.972.168 1.67.086 3.504-.418 4.672-.5 1.17-4.437 7.076-6.424 8.843-.75.668-2.502.586-3.252-.5-.754-1.083-.836-.5-1.417.082-.588.585-2.59 3.506-3.09 4.255-.503.752-2.17 1.5-1.084 4.506 1.083 3.005 2.335 5.258 1.917 6.93-.416 1.667-.582 2.166 1.67 4.083 2.254 1.92 2.168 4.256 1.168 5.76-.626.938-1.612 3.45-1.995 6.033 26.646-19.035 44.05-50.22 44.05-85.395 0-28.016-10.907-54.355-30.716-74.165z"/><path fill="#008248" d="M78.7 195.29c-.297-2.823-.725-7.937 1.254-11.58a80.596 80.596 0 0 1-11.363-9.45c-15.064-15.063-23.36-35.09-23.36-56.393 0-22.81 9.63-43.414 25.032-57.962.144-.308.328-.605.553-.89a27.73 27.73 0 0 1-8.154 1.22c-7.347 0-14.258-2.852-19.467-8.032-14.95 18.56-23.077 41.476-23.077 65.646 0 28.015 10.908 54.354 30.72 74.165 9.496 9.497 20.495 16.94 32.46 22.126.462-2.232 1.154-4.677 2.16-7.335.92-2.42-.5-8.008-2.835-10.93-1.25-.332-2.836-.5-3.92-.586"/><path fill="none" stroke="#008248" stroke-width=".306" d="M78.7 195.29c-.297-2.823-.725-7.937 1.254-11.58a80.596 80.596 0 0 1-11.363-9.45c-15.064-15.063-23.36-35.09-23.36-56.393 0-22.81 9.63-43.414 25.032-57.962.144-.308.328-.605.553-.89a27.73 27.73 0 0 1-8.154 1.22c-7.347 0-14.258-2.852-19.467-8.032-14.95 18.56-23.077 41.476-23.077 65.646 0 28.015 10.908 54.354 30.72 74.165 9.496 9.497 20.495 16.94 32.46 22.126.462-2.232 1.154-4.677 2.16-7.335.92-2.42-.5-8.008-2.835-10.93-1.25-.332-2.836-.5-3.92-.586z"/><path fill="#008248" d="M106.51 14.583a104.008 104.008 0 0 0-19.3 5.37c2.002 3.867 3.07 8.183 3.07 12.663 0 5.94-1.868 11.594-5.316 16.293a79.31 79.31 0 0 1 18.568-7.865c.426-.416.854-.817 1.28-1.187-2.417-4.007-5.672-10.43-2.835-19.107.8-2.447 2.558-4.5 4.534-6.167"/><path fill="none" stroke="#008248" stroke-width=".306" d="M106.51 14.583a104.008 104.008 0 0 0-19.3 5.37c2.002 3.867 3.07 8.183 3.07 12.663 0 5.94-1.868 11.594-5.316 16.293a79.31 79.31 0 0 1 18.568-7.865c.426-.416.854-.817 1.28-1.187-2.417-4.007-5.672-10.43-2.835-19.107.8-2.447 2.558-4.5 4.534-6.167z"/><path fill="#FFF" d="M148.45 46.198c2.334 1.17 4.946 3.708 3.92 8.425-.42 1.92-2.02 3.767-2.168 4.51-.254 1.25-2.88 3.377-3.715 5.044-.827 1.654-.954 3.062-.712 3.777 0 .007 0 .015.004.02 1.334 1.25 4.336 2.92 6.004 3.505 1.306.455 1.214.805.67 1.666.92.084 1.39.65 2.25 1.67.922 1.084 3.338.417 4.842-.335 1.5-.75 3.42-1 4.923.835 1.5 1.837 3.75 5.257 4.84 8.427 1.082 3.17 2.25 5.758 2.583 6.258.334.5-1.167 9.677-1.585 13.35-.418 3.67-.75 5.255-.833 5.84-.084.582 2.334-2.087 2.418 1.084.066 2.528 1.25 10.64 2.614 16.646.344 1.526.703 2.916 1.06 4.045.998.166 1.834 2.17 2.417 5.255.584 3.09 1.835 5.006 1.92 6.51.08 1.502.5 1.752 1 2.002.5.25.335 1-1.17 2.753.335.25.835.75 1.17 1.085.42-.418 1.586-1.753 1.586-1.753s4.588 1.835 5.59 2.17c1.003.333 2.19-2.14 5.173-.835.812.355 1.718 1.487 2.357 2.597 4.676-9.996 7.29-21.14 7.29-32.883 0-20.812-8.104-40.38-22.82-55.095-8.98-8.98-19.767-15.492-31.54-19.21-.03 1.144-.09 2.23-.09 2.636M172.56 177.435c-1.166-.583-1.928.264-2.502-4.337-.168-1.334-1.25-3.087-2.087-3.92-.832-.834-.932-2.397-.498-3.754a15.85 15.85 0 0 0 .75-5.676c-.083-1.667.25-3.756 2.586-4.755-.834-.918-1.25-2.085-1.5-3.003-3.422-1.128-4.104-1.224-4.8-2.88-1.163-2.777-1.882-6.836-2.23-9.048-.175-1.09-.286-2.1-.312-3.006-1.097-2.073-3.53-6.677-5.41-10.136a154.218 154.218 0 0 0-1.766-3.215c-1.67-2.918 0-6.756.836-9.01.83-2.252 1.5-4.253.75-6.508-.75-2.25-.75-2.753-.918-3.67s-.918-2.087-1.92 1.085c-1 3.17-2.922 7.843-4.003 12.68-.62 2.75-1.045 5.744-.902 8.64.11 2.203.547 4.353 1.483 6.295 2.17 4.507 4.756 8.677 4.424 11.18-.336 2.503-.882 2.59-.917 3.003-.418 4.84-2.503 14.102-3.59 16.772-1.084 2.67-5.34 12.346-6.257 16.436-.703 3.13-2.63 9.835-4.28 13.815a77.618 77.618 0 0 0 33.555-15.273c.284-.702.235-1.352-.49-1.715M79.834 67.955c.923 1.2 2.13 2.302 3.706 3.107 4.087 2.085 4.922 3.586 4.922 7.174 0 3.586.667 10.93 1.835 12.18.75-.75 1.585-1.835 1.75-2.167 1.168 2.166 3.52 6.18 7.26 8.674.25.166.137 1.087.75 1.25 1.25.334 9.346 1.586 9.596 3.255 1.67-1.67 4.338-5.842 4.84-7.26.5-1.416 3.42-5.922 5.59-8.425 0-1 0-1.588.083-1.838-.586.5-1.503 1.754-2.838 2.338-1.333.583-6.005 2.586-9.344 4.253-1.167.584-3.252 1.25-4.088-4.837-.833-6.09 0-9.26.584-10.678.585-1.42 1.67-2.67 3.754-2.087 2.088.583 5.424 1.835 6.34 1.835.167-.667.753-1.92-1.5-2.17-1.604-.176-5.783-1.368-8.152-4.607-.958-1.297-1.62-2.94-1.69-4.987-4.758.75-15.69 2.17-18.108 2.754-2.418.584-4.47 1.08-5.255-4.42-.334-2.338-.918-5.59.75-4.423 1.334-1.002 3.184-2.182 6.424-1.668.592.092 1.333.59 1.565 1.05.18.81-.17 2.136-.564 3.37-.72 2.235-2.127 3.837 2.42 2.794 4.76-1.092 10.803-2.003 12.388-2.335.21-1.628 1.543-4.132 3.128-5.97 1.594-1.842 1.837-3.335 1.92-3.92.083-.583-.466-.714-1.252 0-.917.834-3.67 2.503-6.256 1.834-1-.256-2.253-2.17-2.918-3.252.547-1.145 1.93-3.125 3.63-5.12a77.165 77.165 0 0 0-24.59 13.19c-.047.925.075 3.08.684 5.446.407 1.59 1.165 3.748 2.634 5.657M85.626 181.94c3.42-1.333 6.116-1.27 8.76 2.253.75 1.004 1.334 3.924 7.76 1.335-3.42-4.088-5.474-8.933-7.343-15.434-2.955-10.27-9.635-21.942-7.176-27.283-1.417-1.334-3.087-6.508-4.84-5.922-1.176.393-2.835.418-1.502-3.504.602-1.764 1.592-3.898 3.462-6.464 2.287-3.13 5.896-6.893 11.723-11.39.5-.418.585-.75.25-1.084-.582-.585-1.168-1.25-1.752-1.585-.583-.333-1.167-.167-1.67.335-.5.5-1.332 1.085-1.834 1.417-.5.334-4.504-3.586-6.592-6.424-2.085-2.838-4.255-3.755-4.92-4.09.832-.916 2.72-2.907 2-2.668-1.25.416-3.443.696-5.673-1.67-2.753-2.92-1.67-4.42-2.254-4.836-.583-.418-3.586.248-5.84-3.256-2.252-3.502-3.154-5.026-1.334-7.51.918-1.25 1.253-1.834 1-3.42-.25-1.584 0-2.585 2.086-4.588 2.087-2 3.338-3.836 4.256-3.67.728.134-1.38-2.518-2.66-4.524-.33-.538-.606-1.02-.76-1.4-.33-.807-.856-2.196-.976-3.69C55.14 77.57 47.066 97.097 47.066 117.867c0 20.812 8.105 40.378 22.82 55.094a78.874 78.874 0 0 0 11.116 9.24c1.71-1.86 3.74-1.14 4.624-.262"/><path fill="#A63732" d="M41.29 17.392c6.84 1.753 11.963 7.283 14.216 10.37.574.785 1.167.667 1.417.08.532-1.236 1.503-5.254 1.503-8.34 0-7.008.96-9.78 2.713-13.034-8.183.45-15.365 4.655-19.85 10.924"/><path fill="none" stroke="#A63732" stroke-width=".306" d="M41.29 17.392c6.84 1.753 11.963 7.283 14.216 10.37.574.785 1.167.667 1.417.08.532-1.236 1.503-5.254 1.503-8.34 0-7.008.96-9.78 2.713-13.034-8.183.45-15.365 4.655-19.85 10.924z"/><path fill="#A63732" d="M37.16 38.86c12.846 1.168 16.844-6.01 17.678-7.096.833-1.083-.166-1.75-.584-2.336-2.22-3.108-7.195-8.61-14.035-10.362a26.014 26.014 0 0 0-3.805 13.545c0 2.155.252 4.246.744 6.25"/><path fill="none" stroke="#A63732" stroke-width=".306" d="M37.16 38.86c12.846 1.168 16.844-6.01 17.678-7.096.833-1.083-.166-1.75-.584-2.336-2.22-3.108-7.195-8.61-14.035-10.362a26.014 26.014 0 0 0-3.805 13.545c0 2.155.252 4.246.744 6.25z"/><path fill="#A63732" d="M88.138 38.358c-5.423-2.253-11.858-.17-16.446 3.836-4.588 4.004-6.922 7.08-8.51 16.59a26.034 26.034 0 0 1-18.21-6.83c7.843-2 14.453-5.587 21.88-12.595 7.426-7.01 11.096-15.185 12.098-19.023s-.416-1.585-1.166.166c-1.163 2.71-5.005 10.014-12.597 17.107-7.595 7.09-13.43 10.59-21.355 13.26a26.078 26.078 0 0 1-5.95-9.672c2.667.166 11.077-.803 15.29-4.256 5.535-4.54 6.172-9.93 6.926-17.606.75-7.674 1.874-9.957 3.71-12.877 13.898.63 24.973 12.1 24.973 26.155a26.4 26.4 0 0 1-.642 5.746"/><path fill="none" stroke="#A63732" stroke-width=".306" d="M88.138 38.358c-5.423-2.253-11.858-.17-16.446 3.836-4.588 4.004-6.922 7.08-8.51 16.59a26.034 26.034 0 0 1-18.21-6.83c7.843-2 14.453-5.587 21.88-12.595 7.426-7.01 11.096-15.185 12.098-19.023s-.416-1.585-1.166.166c-1.163 2.71-5.005 10.014-12.597 17.107-7.595 7.09-13.43 10.59-21.355 13.26a26.078 26.078 0 0 1-5.95-9.672c2.667.166 11.077-.803 15.29-4.256 5.535-4.54 6.172-9.93 6.926-17.606.75-7.674 1.874-9.957 3.71-12.877 13.898.63 24.973 12.1 24.973 26.155a26.4 26.4 0 0 1-.642 5.746z"/><path fill="#A63732" d="M87.412 40.982c-1.25-1.75-5.713-2.593-12.8 1.837-.667.415-1.128.707-.333 1.5 1.5 1.503 3.757 4.343 5.342 8.182a26.227 26.227 0 0 0 7.79-11.52"/><path fill="none" stroke="#A63732" stroke-width=".306" d="M87.412 40.982c-1.25-1.75-5.713-2.593-12.8 1.837-.667.415-1.128.707-.333 1.5 1.5 1.503 3.757 4.343 5.342 8.182a26.227 26.227 0 0 0 7.79-11.52z"/><path fill="#A63732" d="M77.53 54.122c-1.502-3.67-2.75-6.34-4.17-8.174-.764-.99-.918-1.417-2.336-.166-3.944 3.478-5.465 8.754-6.298 12.925a26.026 26.026 0 0 0 12.803-4.585"/><path fill="none" stroke="#A63732" stroke-width=".306" d="M77.53 54.122c-1.502-3.67-2.75-6.34-4.17-8.174-.764-.99-.918-1.417-2.336-.166-3.944 3.478-5.465 8.754-6.298 12.925a26.026 26.026 0 0 0 12.803-4.585z"/><path fill="#BA9653" d="M109.695 218.233c.543-.25 1.292-.584 1.628-.334.332.25 2.334 1.67 3.586 2.754 1.25 1.085 1.668 1.417.666 2-1 .586-1.92 1.17-1.75.668.165-.5.415-1.25-.253-1.917-.666-.667-2.303-1.933-3.002-2.504-.46-.372-.875-.667-.875-.667"/><path fill="none" stroke="#BA9653" stroke-width=".306" d="M109.695 218.233c.543-.25 1.292-.584 1.628-.334.332.25 2.334 1.67 3.586 2.754 1.25 1.085 1.668 1.417.666 2-1 .586-1.92 1.17-1.75.668.165-.5.415-1.25-.253-1.917-.666-.667-2.303-1.933-3.002-2.504-.46-.372-.875-.667-.875-.667z"/><path fill="#BA9653" d="M104.98 219.61c-.417.376-.5 1.003 0 1.502.5.5 3.295 2.835 3.755 3.296.46.46 1.125.625 1.877.46.75-.167-.875.918-1.5 1.04-.628.128-1.336.128-2.004-.5a4906.65 4906.65 0 0 1-5.173-4.88c-.75-.71.21-.71.875-.792.67-.082 1.252-.04 2.17-.127"/><path fill="none" stroke="#BA9653" stroke-width=".306" d="M104.98 219.61c-.417.376-.5 1.003 0 1.502.5.5 3.295 2.835 3.755 3.296.46.46 1.125.625 1.877.46.75-.167-.875.918-1.5 1.04-.628.128-1.336.128-2.004-.5a4906.65 4906.65 0 0 1-5.173-4.88c-.75-.71.21-.71.875-.792.67-.082 1.252-.04 2.17-.127z"/><path fill="#BA9653" d="M100.308 198.253c.254.764.333 1.46-.833 1.292-1.17-.168-6.09-.626-7.508-.626-.333 0-.208-.835-.71-.5-.5.335-.29 1.084-.29 1.918s-.07 1.335-.043 1.92c.042.876.586 2.086 2.836 2.21 2.253.124 4.38-.124 5.047-.585.668-.457-.042-1.208-.667-1.208-.624 0-4.38.29-5.173 0-.792-.29-1.306-1.205-.75-1.585.667-.46 1.96.127 3.252.127 1.292 0 2.67-.336 3.003-.127.333.208.793.127.793 1.708 0 .336.792.46 1.167.46s.542.625.5 1.46c-.043.832.04 1-1.46 1s-7.966-.082-8.927-.082c-.376 0-.418-.293-.458-1.044-.042-.75-.292-5.964-.376-6.382-.083-.418 1-.46 1.877-.29.874.165 1.96.333 3.377.417 1.42.082 3.588.29 3.588.29s1.085.128 1.21-.208c.127-.335.46-.417.543-.167"/><path fill="none" stroke="#BA9653" stroke-width=".306" d="M100.308 198.253c.254.764.333 1.46-.833 1.292-1.17-.168-6.09-.626-7.508-.626-.333 0-.208-.835-.71-.5-.5.335-.29 1.084-.29 1.918s-.07 1.335-.043 1.92c.042.876.586 2.086 2.836 2.21 2.253.124 4.38-.124 5.047-.585.668-.457-.042-1.208-.667-1.208-.624 0-4.38.29-5.173 0-.792-.29-1.306-1.205-.75-1.585.667-.46 1.96.127 3.252.127 1.292 0 2.67-.336 3.003-.127.333.208.793.127.793 1.708 0 .336.792.46 1.167.46s.542.625.5 1.46c-.043.832.04 1-1.46 1s-7.966-.082-8.927-.082c-.376 0-.418-.293-.458-1.044-.042-.75-.292-5.964-.376-6.382-.083-.418 1-.46 1.877-.29.874.165 1.96.333 3.377.417 1.42.082 3.588.29 3.588.29s1.085.128 1.21-.208c.127-.335.46-.417.543-.167z"/><path fill="#F9B282" d="M70.357 83.41c-1.085-.335-1.92.916-2.42 1.918-.5 1-1.084 2.085.5 4.338 1.586 2.253 2.574 3.594 5.34 3.42 1.335-.082 2.502-1.083 2.92-1.67.417-.582.5.42-.168 1.42-.667 1-1.167 3.336.083 4.923 1.253 1.582 3.838 2.917 7.258.916 3.422-2.003 4.84-4.42 5.425-5.507.583-1.086.583-1.586 0-2.254-.584-.667-2.503-3.843-2.92-10.096-.25-3.754.417-6.175-1.92-7.508-2.335-1.335-7.678-4.496-8.342-10.68-.25-2.335-.084-5.925-2.42-4.006-2.335 1.92-2.335 3.255-2.585 4.673-.252 1.418.917 3.337 1.92 4.67 1 1.335 2.166 4.256 3.085 5.007.917.75 1.5 1.335 2.253 1.417.75.083 3.754.083 4.503.333.75.252 1.168 1.17-.668 1.17-1.835 0-4.67.5-5.923.665-1.252.168-2.42.252-3.003 2.755-.585 2.5-1.42 5.423-1.503 6.34-.082.918-.582 1.42-.582 1.92s1 2.918 3.252.5c2.253-2.42 3.17-4.84 3.588-6.008.418-1.168.917-1.002.5.832-.416 1.837-.542 6.426.333 8.01.942 1.704 2.846 3.46 5.257 2.254.5-.25 1.333-.668 2-.586.67.086-.124 1.253-.707 1.753-.584.502-2.504 2.625-5.882-.416-.835-.75-1.993-2.423-2.253-4.506-.084-.666-1-.918-1.417-.332-.417.583-2.67 2.668-4.255 1.167-1.585-1.5-2.24-2.333-1.333-5.506.166-.58.488-1.204.082-1.33"/><path fill="none" stroke="#F9B282" stroke-width=".306" stroke-linecap="round" d="M70.357 83.41c-1.085-.335-1.92.916-2.42 1.918-.5 1-1.084 2.085.5 4.338 1.586 2.253 2.574 3.594 5.34 3.42 1.335-.082 2.502-1.083 2.92-1.67.417-.582.5.42-.168 1.42-.667 1-1.167 3.336.083 4.923 1.253 1.582 3.838 2.917 7.258.916 3.422-2.003 4.84-4.42 5.425-5.507.583-1.086.583-1.586 0-2.254-.584-.667-2.503-3.843-2.92-10.096-.25-3.754.417-6.175-1.92-7.508-2.335-1.335-7.678-4.496-8.342-10.68-.25-2.335-.084-5.925-2.42-4.006-2.335 1.92-2.335 3.255-2.585 4.673-.252 1.418.917 3.337 1.92 4.67 1 1.335 2.166 4.256 3.085 5.007.917.75 1.5 1.335 2.253 1.417.75.083 3.754.083 4.503.333.75.252 1.168 1.17-.668 1.17-1.835 0-4.67.5-5.923.665-1.252.168-2.42.252-3.003 2.755-.585 2.5-1.42 5.423-1.503 6.34-.082.918-.582 1.42-.582 1.92s1 2.918 3.252.5c2.253-2.42 3.17-4.84 3.588-6.008.418-1.168.917-1.002.5.832-.416 1.837-.542 6.426.333 8.01.942 1.704 2.846 3.46 5.257 2.254.5-.25 1.333-.668 2-.586.67.086-.124 1.253-.707 1.753-.584.502-2.504 2.625-5.882-.416-.835-.75-1.993-2.423-2.253-4.506-.084-.666-1-.918-1.417-.332-.417.583-2.67 2.668-4.255 1.167-1.585-1.5-2.24-2.333-1.333-5.506.166-.58.488-1.204.082-1.33z"/><path fill="#F9B282" d="M72.026 78.737c-.36 1.076-.667 2.503-.833 3.002-.168.5-.917 1.584-1.587.167-.666-1.42-.634-2.538.417-3.588.334-.335.833-1.002 1.17-.67.33.336.915.835.833 1.087"/><path fill="none" stroke="#F9B282" stroke-width=".306" stroke-linecap="round" d="M72.026 78.737c-.36 1.076-.667 2.503-.833 3.002-.168.5-.917 1.584-1.587.167-.666-1.42-.634-2.538.417-3.588.334-.335.833-1.002 1.17-.67.33.336.915.835.833 1.087z"/><path fill="#F9B282" d="M75.78 74.9c-.688.343-2.153.34-2.67 1.5-.333.75-1.67-.084-1.002-1 .67-.92 1.17-.835 1.585-1.084.417-.252.585-1 1.42-.586.833.418 1 1 .667 1.17"/><path fill="none" stroke="#F9B282" stroke-width=".306" stroke-linecap="round" d="M75.78 74.9c-.688.343-2.153.34-2.67 1.5-.333.75-1.67-.084-1.002-1 .67-.92 1.17-.835 1.585-1.084.417-.252.585-1 1.42-.586.833.418 1 1 .667 1.17z"/><path fill="#F9B282" d="M130.76 33.6c-2.334.25-4.503 1.67-6.673 3.17-2.17 1.502-10.01 8.095-11.848 9.428 1.92 1 2.42 3.004 1.752 6.34-.148.743 0 1.002.502.502.5-.5 2.834-3.004 2.752-5.005-.084-2.003-1-3.17-1.17-3.42-.165-.25.668-1.253 1.586.834.917 2.084.668 5.004-2.085 8.258-2.752 3.252-4.92 3.17-6.088 3.754-1.17.583-2.34 1.502-1.255 3.253 1.086 1.753 3.17 1.085 4.005.502.835-.586 2.003-1.25 4.673-1 2.668.25 3.558-1.45 1.75-3.256-.582-.582-2.084-1.918-.25-1.918 1.086 0 2.42 2.42 3.17 3.09.753.666 2.42.916 4.674 1.082 2.25.168 5.755 1 5.755 3.17 0 1.335-.718 1.723-1.667.667-.374-.417-.91.242-1.335.668-1.42 1.42-5.05 5.257-7.636 5.923-2.585.67-3.544-.08-6.964-1.918-3.422-1.835-6.592-3.67-7.51-4.253-.918-.587-2.837-1.92-1.92.75.92 2.668 3.172 5.42 7.677 6.922 4.506 1.503 5.173 2.003 6.175 2.502 1 .502.416 1-.917.835-1.162-.146-2.418-1.168-1.42 1.082 1.002 2.255 2.503 4.674 7.093 4.09 4.587-.583 4.72-1.555 7.592-6.34.5-.836 1-.252.668 1.92 2.252-1.086 3.504-1.42 4.837-1.754 1.337-.333 4.807-1.51 7.093-5.757 1.167-2.168 1.8-2.912 1.585-5.17-.078-.84 1.167-2.502 2.42-3.672 1.25-1.168 4.674-5.59 2.92-8.76s-4.673-1.585-6.09.75c-1.417 2.338-3.002 4.922-3.088 8.927-1-.332-2.022.035-2.503.833-.25.42-3.922-.082-5.173.252-1.25.334-1.67-.417-.333-2.17 1.333-1.753 6.036-8.102 5.755-12.85-.082-1.416.11-1.678.336-2.75.29-1.378.417-1.4-1.295-2.338-1.114-.61-1.18-2.347-1.376-3.67-.21-1.418-.48-1.424-2.087-1.086-1.188.255-3.17-.915-4.09-2.416"/><path fill="none" stroke="#F9B282" stroke-width=".306" d="M130.76 33.6c-2.334.25-4.503 1.67-6.673 3.17-2.17 1.502-10.01 8.095-11.848 9.428 1.92 1 2.42 3.004 1.752 6.34-.148.743 0 1.002.502.502.5-.5 2.834-3.004 2.752-5.005-.084-2.003-1-3.17-1.17-3.42-.165-.25.668-1.253 1.586.834.917 2.084.668 5.004-2.085 8.258-2.752 3.252-4.92 3.17-6.088 3.754-1.17.583-2.34 1.502-1.255 3.253 1.086 1.753 3.17 1.085 4.005.502.835-.586 2.003-1.25 4.673-1 2.668.25 3.558-1.45 1.75-3.256-.582-.582-2.084-1.918-.25-1.918 1.086 0 2.42 2.42 3.17 3.09.753.666 2.42.916 4.674 1.082 2.25.168 5.755 1 5.755 3.17 0 1.335-.718 1.723-1.667.667-.374-.417-.91.242-1.335.668-1.42 1.42-5.05 5.257-7.636 5.923-2.585.67-3.544-.08-6.964-1.918-3.422-1.835-6.592-3.67-7.51-4.253-.918-.587-2.837-1.92-1.92.75.92 2.668 3.172 5.42 7.677 6.922 4.506 1.503 5.173 2.003 6.175 2.502 1 .502.416 1-.917.835-1.162-.146-2.418-1.168-1.42 1.082 1.002 2.255 2.503 4.674 7.093 4.09 4.587-.583 4.72-1.555 7.592-6.34.5-.836 1-.252.668 1.92 2.252-1.086 3.504-1.42 4.837-1.754 1.337-.333 4.807-1.51 7.093-5.757 1.167-2.168 1.8-2.912 1.585-5.17-.078-.84 1.167-2.502 2.42-3.672 1.25-1.168 4.674-5.59 2.92-8.76s-4.673-1.585-6.09.75c-1.417 2.338-3.002 4.922-3.088 8.927-1-.332-2.022.035-2.503.833-.25.42-3.922-.082-5.173.252-1.25.334-1.67-.417-.333-2.17 1.333-1.753 6.036-8.102 5.755-12.85-.082-1.416.11-1.678.336-2.75.29-1.378.417-1.4-1.295-2.338-1.114-.61-1.18-2.347-1.376-3.67-.21-1.418-.48-1.424-2.087-1.086-1.188.255-3.17-.915-4.09-2.416z"/><path fill="#F9B282" d="M121 59.715c-.46 1.042-1.72 2.043-4.63 1.71-1.46-.167-2.888-.188-3.127.958-.168.793-.832.75-1.753.71-.96-.043-2-.295-2.046.04-.04.335 4.09 2.795 5.466 3.42 1.377.627 3.384 2.118 5.005 1.962 2.17-.208 4.058-1.283 7.26-4.673 1.32-1.397 2.378-2.127 1.124-2.71-.848-.396-1.71-.502-2.835-.502-1.13 0-3.548-.165-4.465-.915"/><path fill="none" stroke="#F9B282" stroke-width=".306" d="M121 59.715c-.46 1.042-1.72 2.043-4.63 1.71-1.46-.167-2.888-.188-3.127.958-.168.793-.832.75-1.753.71-.96-.043-2-.295-2.046.04-.04.335 4.09 2.795 5.466 3.42 1.377.627 3.384 2.118 5.005 1.962 2.17-.208 4.058-1.283 7.26-4.673 1.32-1.397 2.378-2.127 1.124-2.71-.848-.396-1.71-.502-2.835-.502-1.13 0-3.548-.165-4.465-.915z"/><path fill="#F9B282" d="M105.44 59.756c-1.126-.04-1.252-.876-.5-2.128.75-1.252 1.458-2.417 2.46-3.17.166.542.5 1.208 1 1.502-.667.708-1.548 1.598-1.38 3.35"/><path fill="none" stroke="#F9B282" stroke-width=".306" d="M105.44 59.756c-1.126-.04-1.252-.876-.5-2.128.75-1.252 1.458-2.417 2.46-3.17.166.542.5 1.208 1 1.502-.667.708-1.548 1.598-1.38 3.35l-1.58.446z"/><path fill="#061922" d="M124.17 47.45c.208-1.168.042-2.128-1.67-.75-1.584-1.168-3-2.587-3.503-2.92-.5-.334-.75-.834-.166-1.418.585-.586 1.626.442 1.376-1.295-.082-.583 1.293-.208 1.627-.374.334-.167-.152-.978 1.42-.583.5.124.29-.835 1.292-.667 1 .166 1.5.542 1.71-.252.208-.79.44-1.287 1.712-.5.874.543 1.208.21 1.292-.208.083-.416.873-.166 1.584.25.71.42 2.474 1.294 4.55 3.715.5.582.748 1.207.415 1.29-.333.085-.712 0-.794.67-.084.666-.418 1.25-.795.5-.373-.75-.457.125-.748-.667-.29-.793-.668.292-.875-.25-.27-.704-.527.118-.792-.5-.127-.293-.918.373-1.172-.085-.25-.458-.79.5-1.208-.042-.416-.542-.416.585-1.084.333-.666-.25-.373.626-1.04.334s-.462.835-1.087.667c-.626-.166-.582.126-.708.836-.126.708-.417 3.46-.376 4.127.042.67 1.416.502 3.505.208 2.085-.29 5.81-1.445 7.676-3.002.75-.625 1.42-.583 1.544-.375.126.21-.207.878-.752 1.336-.54.46-1.962 1.92-5.17 2.545-3.215.626-5.886 1.128-6.426 1.002-.543-.126.21.793 1.167.583.506-.11 1.585 1.877 3.336 1.877 1.42 0 3.545-1.585 4.13-2.043.582-.46 2.712-1.42 1.293 0-1.418 1.418-2.92 2.96-4.42 3-1.503.043-3.8-.457-5.38-1.542-1.588-1.083-2.17-1.667-1.88-3.336.29-1.67.335-2.003.417-2.46"/><path fill="none" stroke="#F9B282" stroke-width=".306" d="M124.17 47.45c.208-1.168.042-2.128-1.67-.75-1.584-1.168-3-2.587-3.503-2.92-.5-.334-.75-.834-.166-1.418.585-.586 1.626.442 1.376-1.295-.082-.583 1.293-.208 1.627-.374.334-.167-.152-.978 1.42-.583.5.124.29-.835 1.292-.667 1 .166 1.5.542 1.71-.252.208-.79.44-1.287 1.712-.5.874.543 1.208.21 1.292-.208.083-.416.873-.166 1.584.25.71.42 2.474 1.294 4.55 3.715.5.582.748 1.207.415 1.29-.333.085-.712 0-.794.67-.084.666-.418 1.25-.795.5-.373-.75-.457.125-.748-.667-.29-.793-.668.292-.875-.25-.27-.704-.527.118-.792-.5-.127-.293-.918.373-1.172-.085-.25-.458-.79.5-1.208-.042-.416-.542-.416.585-1.084.333-.666-.25-.373.626-1.04.334s-.462.835-1.087.667c-.626-.166-.582.126-.708.836-.126.708-.417 3.46-.376 4.127.042.67 1.416.502 3.505.208 2.085-.29 5.81-1.445 7.676-3.002.75-.625 1.42-.583 1.544-.375.126.21-.207.878-.752 1.336-.54.46-1.962 1.92-5.17 2.545-3.215.626-5.886 1.128-6.426 1.002-.543-.126.21.793 1.167.583.506-.11 1.585 1.877 3.336 1.877 1.42 0 3.545-1.585 4.13-2.043.582-.46 2.712-1.42 1.293 0-1.418 1.418-2.92 2.96-4.42 3-1.503.043-3.8-.457-5.38-1.542-1.588-1.083-2.17-1.667-1.88-3.336.29-1.67.335-2.003.417-2.46z"/><path fill="#061922" d="M148.45 52.706c-.97.685-1.504.917-1.586 2.085-.082 1.17-.316 3.162-.75 3.34-.57.23-.49-1.082-.667-.667-.25.583-.96.333-1.168-.21-.09-.232-2.172-.208-.504-2.63 1.51-2.19 2.67-3.336 3.756-3.836 1.085-.5 2.92.5.917 1.92"/><path fill="none" stroke="#F9B282" stroke-width=".306" d="M148.45 52.706c-.97.685-1.504.917-1.586 2.085-.082 1.17-.316 3.162-.75 3.34-.57.23-.49-1.082-.667-.667-.25.583-.96.333-1.168-.21-.09-.232-2.172-.208-.504-2.63 1.51-2.19 2.67-3.336 3.756-3.836 1.085-.5 2.92.5.917 1.92z"/><path fill="#F9B282" d="M189.29 151.863c-.39-.978.292-2.625 2.376-1.458 2.085 1.167 3.67 2.17 2.167 6.76-1.5 4.586-2.584 7.257-3.166 9.176-.586 1.92-2.84 4.34-2.09 1.084.755-3.252 1.152-7.184.837-9.177-.586-3.672.593-3.455.21-5.132-.12-.515-.194-.894-.335-1.252"/><path fill="none" stroke="#F9B282" stroke-width=".306" stroke-linecap="round" d="M189.29 151.863c-.39-.978.292-2.625 2.376-1.458 2.085 1.167 3.67 2.17 2.167 6.76-1.5 4.586-2.584 7.257-3.166 9.176-.586 1.92-2.84 4.34-2.09 1.084.755-3.252 1.152-7.184.837-9.177-.586-3.672.593-3.455.21-5.132-.12-.515-.194-.894-.335-1.252z"/><path fill="#F9B282" d="M197.172 155.828c.6 1.804 1.253 5.923.25 7.593-1 1.668-4.088 6.257-5.256 7.425-1.167 1.17-2.085.667-1.335-.584.755-1.25 1.754-2.917 1.754-3.503 0-.584-.082-1.252.918-3.17 1.003-1.918 2.752-8.344 2.92-8.844s.586.586.75 1.085"/><path fill="none" stroke="#F9B282" stroke-width=".306" stroke-linecap="round" d="M197.172 155.828c.6 1.804 1.253 5.923.25 7.593-1 1.668-4.088 6.257-5.256 7.425-1.167 1.17-2.085.667-1.335-.584.755-1.25 1.754-2.917 1.754-3.503 0-.584-.082-1.252.918-3.17 1.003-1.918 2.752-8.344 2.92-8.844s.586.586.75 1.085z"/><path fill="#F9B282" d="M175.647 171.263c-.5-1.502-.75-3.67-1.586-4.922.67-1.834 2.867-6.77 6.592-8.26.418-.167.67-.585.502-.916-.168-.336.502-.586.833.58.334 1.17.918 4.507.918 4.507.168.753-.166 1.338-.334 2.338-.167 1-.583 3.254-.333 4.422.252 1.167.668 2.003 3.005 1.503 1.167-.252 1.085-.586 1.417-1.587.335-1 1.25-3.838 1.586-5.424.332-1.583.04-5.464-.293-6.463-.33-1.005.125-4.382-.125-5.05-.25-.667-.417-1.667-2.502-2.34-2.087-.662-2.67-.83-4.088.587-1.42 1.417-1.92 2.003-2.587 2.67-.667.668-2.336.083-.917-1.253a134.45 134.45 0 0 0 3.17-3.084l-.417-1.085h-.752c-2.252 2.252-5.255 3.588-7.258 4.002-.754.16-2.17.253-1.167 1.59.25.33.333 1.248.916.916.584-.336 1.502-1.84 2.337-1.167.834.664-.168 2.253-1.17 3.002-1 .75-2.084 1.5-2.834 1.917-.753.42-1.17.836-1.086 2.17.082 1.337.166 3.757-.584 5.59-.752 1.838-.336 2.337.332 3.587.667 1.253 1.753 2.338 2.087 4.34.333 2.002.498 2.502 1.834 2.336 1.335-.168 1.835-.75 2.337-1.585"/><path fill="none" stroke="#F9B282" stroke-width=".306" stroke-linecap="round" d="M175.647 171.263c-.5-1.502-.75-3.67-1.586-4.922.67-1.834 2.867-6.77 6.592-8.26.418-.167.67-.585.502-.916-.168-.336.502-.586.833.58.334 1.17.918 4.507.918 4.507.168.753-.166 1.338-.334 2.338-.167 1-.583 3.254-.333 4.422.252 1.167.668 2.003 3.005 1.503 1.167-.252 1.085-.586 1.417-1.587.335-1 1.25-3.838 1.586-5.424.332-1.583.04-5.464-.293-6.463-.33-1.005.125-4.382-.125-5.05-.25-.667-.417-1.667-2.502-2.34-2.087-.662-2.67-.83-4.088.587-1.42 1.417-1.92 2.003-2.587 2.67-.667.668-2.336.083-.917-1.253a134.45 134.45 0 0 0 3.17-3.084l-.417-1.085h-.752c-2.252 2.252-5.255 3.588-7.258 4.002-.754.16-2.17.253-1.167 1.59.25.33.333 1.248.916.916.584-.336 1.502-1.84 2.337-1.167.834.664-.168 2.253-1.17 3.002-1 .75-2.084 1.5-2.834 1.917-.753.42-1.17.836-1.086 2.17.082 1.337.166 3.757-.584 5.59-.752 1.838-.336 2.337.332 3.587.667 1.253 1.753 2.338 2.087 4.34.333 2.002.498 2.502 1.834 2.336 1.335-.168 1.835-.75 2.337-1.585l.167-2.92z"/><path fill="#A63732" d="M176.148 175.1c-.583 1.002-1.585 2.585-1.585 4.007 0 1.417-1.42 2.918-1.25 3.586.165.667 2 2.42 3.085 4.258 1.084 1.836 2.503 4.588 2.503 9.176s-1.5 10.847-1.668 11.682c-.166.834-.584 1.5.667 2.67 1.253 1.168 3.254 3.337 4.003 8.26.752 4.92 1.254 7.507 1.586 7.76.334.247.248.664.248 1.582s.836 6.175 1.42 7.176c.585 1.004.502-5.673.418-7.592s.084-11.096.417-12.432c.334-1.335.666-2.836-.5-4.503-1.17-1.67-3.172-4.593-1.67-9.43 1.503-4.842 3.92-4.756 3.172-6.677-.752-1.917-2.09-3.253-3.09-4.338s-.202-3.666-.25-4.756c-.082-2.004-1.668-2.335-1.834-4.59-.164-2.253-.332-4.088 1.337-6.34 1.667-2.252-.586-2.168-1.336-3.587-.75-1.418-1.154-3.315-.498-6.257.334-1.503.166-1.92-.252-2.087-.418-.167-2.17-.5-2.17-.5l-2.586 5.173c.418 1 .584 2.502.584 3.502"/><path fill="none" stroke="#A63732" stroke-width=".306" d="M176.148 175.1c-.583 1.002-1.585 2.585-1.585 4.007 0 1.417-1.42 2.918-1.25 3.586.165.667 2 2.42 3.085 4.258 1.084 1.836 2.503 4.588 2.503 9.176s-1.5 10.847-1.668 11.682c-.166.834-.584 1.5.667 2.67 1.253 1.168 3.254 3.337 4.003 8.26.752 4.92 1.254 7.507 1.586 7.76.334.247.248.664.248 1.582s.836 6.175 1.42 7.176c.585 1.004.502-5.673.418-7.592s.084-11.096.417-12.432c.334-1.335.666-2.836-.5-4.503-1.17-1.67-3.172-4.593-1.67-9.43 1.503-4.842 3.92-4.756 3.172-6.677-.752-1.917-2.09-3.253-3.09-4.338s-.202-3.666-.25-4.756c-.082-2.004-1.668-2.335-1.834-4.59-.164-2.253-.332-4.088 1.337-6.34 1.667-2.252-.586-2.168-1.336-3.587-.75-1.418-1.154-3.315-.498-6.257.334-1.503.166-1.92-.252-2.087-.418-.167-2.17-.5-2.17-.5l-2.586 5.173c.418 1 .584 2.502.584 3.502l-.75 4.256z"/><path fill="#FFF" d="M152.037 73.564c-2.056 2.74-5.255 9.677-6.758 14.018-1.504 4.338-4.925 14.683-2.504 21.526 2.42 6.84 7.172 2.5 8.258-.084 1.085-2.588 2.753-7.01 3.252-8.177.504-1.17.754-1.837 1.67.917.92 2.752 2.254 9.344 2.254 9.928 0 .585-.917 2.253-1.917 4.84-1.003 2.586-1.59 4.42-.585 6.006 1 1.587 4.923 8.344 6.174 11.262.752 1.754 1.418 2.087 3.42 1.588 2.004-.5 6.84-2.17 8.26-2.837 1.418-.667.75-1.836.332-3.253-.632-2.157-3.168-14.185-3.168-15.768 0-1.586.426-3.665-1.67-1.336-.75.833-1.75 0-1.5-1.167.25-1.17 2.752-17.438 2.92-19.44-1.42-3.09-5.59-12.85-6.758-14.602-1.168-1.75-1.586-1.835-3.34-.917-1.75.917-5.664 2.325-7.09-1-.25-.585-.67-1.92.335-2.086l-.75-.252s-.586.5-.836.834M173.894 133.55c-1.554.89-6.838 3.17-9.007 3.507-2.23.34-1.67.917-1.253 2.584.417 1.67 1.67 6.678 2.336 8.427.668 1.753 1.586 1.724 3.34 1.67 2.667-.085 7.173-1.252 10.425-4.254-.917-1.086-2.523-6.284-3.002-8.512-.503-2.334-.503-4.753-2.84-3.42M126.09 85.41c-.168.337-.75 1.336-2.087 1.336-1.333 0-2.42-.417-3.252.75-.834 1.168-5.422 6.76-6.423 10.18 1 2.085 2.336 5.84 3.336 8.51 3.254-2.753 13.64-12.89 15.602-14.85.75-.752.835-1.42-.248-2.17-1.085-.75-5.09-3.253-5.76-3.67-.668-.417-1-.417-1.168-.086M99.808 100.095c-.643 2.573-1.92 7.09-4.006 10.597.836 1.333 1.503 2.503 2.503 2.918 2.336-1.667 6.76-5.757 8.01-7.26 1.25-1.5 2.836-3.75 2.836-4.252 0-.502-.582-.668-1.332-.502-.75.168-3.842-1.067-6.842-1.667-.834-.17-1.084-.17-1.168.165M97.973 97.592c-.916-.182-4.088-3.588-5.173-5.423-1.083-1.836-1.25-1.67-1.67-.333-.415 1.333-2 4.254-3.085 5.67-1.083 1.42-3.92 5.092-4.672 5.926s0 1.167.667 1.833c.668.67 4.09 4.84 4.84 5.76.75.917 1.583 2.584 3.586.75s4.423-5.17 5.507-8.594c1.085-3.42 1.167-5.213 2.085-5.005l.042-.71-.25-.416-.5-.417c.125.292.125.542-.083.875-.208.336-.878.168-1.294.084M149.03 20.836c-2.244 2.657-6.754 5.005-14.348 6.924-7.592 1.92-14.852 7.258-17.938 9.846-3.086 2.584-10.867 8.956-14.6 10.51-1 .418-3.13 1.83-.417 2.17 2 .25 3.42-.917 7.76-4.09 4.338-3.17 7.704-5.457 11.013-8.674 3.086-3.005 8.675-5.84 14.682-7.51 6.01-1.668 13.897-4.292 16.188-6.757 1.085-1.167 1.167-1.753.164-2.754-1-1-1.586-.75-2.503.336M110.74 47.075c-.657.358-.918.75-1.673 3.17-.75 2.418-.666 3.836-.04 4.42.454.423 1.124.46 1.46.46.25 0 .5.085.458-.626-.04-.71-.09-3.735 2.17-5.09.416-.25-.057-2-1.543-1.75-.5.08 0-1.043-.833-.585M84.957 56.626c1.167 0 1.92 0 1.836 1.336-.082 1.335-.668 3.17-.75 4.422-.087 1.25-.087 1.753.668 1.753.75 0-1.085.75-2.087.917-1 .166-2.543.742-3.338-3.504-.25-1.335-.166-3.42-.332-3.922 1.084-.5 2.577-1.002 4.004-1.002M107.135 60.19c.306 1.684.765 1.652.432 1.902-.332.25-.684-.636-2.043-.42-1.293.212-11.806 1.84-12.558 1.923-2.334.248-2.46-.125-.292-.585 2.168-.458 10.106-1.903 12.473-2.38M94.47 187.78c1.082.67 3.67 1.42 8.093-.413 4.42-1.84 9.344-.585 10.093 2.585.752 3.17.78 7.255-.583 9.012-1.167 1.5-2.25 1.335-3.59.917-2.416-.756-8.007-3.337-9.592-4.087-1.584-.753-4.254-1.585-6.174-1.585-.75-1.59-.667-4.342-.166-5.34.5-1 .5-2.004.917-1.754.418.253 1.002.667 1.002.667M111.99 202.548c1.084 0 3.05.455 3.67 2.42.5 1.586 3.755 2.004 5.172 1.922 1.42-.086 1.17.663 1.085 1.5-.084.834-.334 3.337-.334 4.34 0 1 .25 4.504.418 5.17.167.67-.417 1.002-1.168 1.335-.75.336-3.504 1.17-5.255-.082-.923-.66-2.003-1.585-.917-1.67 1.083-.083-1.333-9.512-2.003-11.18-.666-1.67-2.588-3.755-.666-3.755M83.288 182.858c.45.15.667.585 1 1.17.335.58.45 1.087-.083 1.668-.917 1-2.003 5.587-1.835 8.844-.584-.168-1.835-.418-2.503-.25-.25-1.835-.084-7.594.75-9.43.836-1.834 1.67-2.334 2.67-2.002M83.454 233.753c2.08 2.337 6.008 5.925 8.928 7.175 2.92 1.253 4.84 1.667 7.426 1.417 2.09-.2 1.67.667 0 .917s-5.505.25-8.008-1.08c-2.504-1.336-6.477-3.804-9.012-7.43-.585-.833 0-1.75.666-1M126.923 227.912c-1.7.77-4.837 2.337-7.842 3.087.335 1.502.42 2.167.42 2.585 1.834 0 5.37-1.28 8.257-3.086.67-.42.92-.92.67-1.504-.253-.582-.586-1.5-1.504-1.084M107.15 221.07c-.418-.416 1.96-.918 2.46-.918.584.375 1.648 1.315 2.044 1.71.252.25.128.418-.124.586-.253.168-1.71.54-2.38.582-.748-.668-1.792-1.75-2-1.96M111.573 186.362c-.668-.5-.587-.75-.25-1.25.332-.503.667-.835 1-1.003.333-.167.835-.25 1.42.585.583.833 3.753 6.093 4.42 7.51s1.502.5 1.168-.336c-.333-.832-1-2.254-1.25-2.67.917-2.838 1.835-7.176 1.835-10.012 0-2.837-.667-5.674-1.167-6.675 2.253.084 7.174 0 9.094-.584 1.92-.584.333-.752-.416-.668-.752.084-6.146.066-10.097-.418-6.842-.834-13.56-4.684-15.686-7.343-.333-.414-2.336-.248-.667 1.087s5.927 5.32 12.183 6.425c1.417.25 3.67.665 4.004 5.84.334 5.172-.168 8.51-.168 9.01s-.332.67-.75.082c-.418-.582-1.835-2.5-2.587-2.918-.75-.416-1.252-.334-1.92.168-.667.5-1.67 1.5-2.086 2M98.14 202.675c-.625 0-4.38.29-5.174 0-.792-.29-1.306-1.205-.75-1.585.667-.46 1.96.127 3.252.127 1.293 0 2.67-.336 3.004-.127.333.208.793.127.793 1.708M89.046 225.575c-1.085-.665-2.34-3.758-2.586-9.927-.085-2.087.75-5.59 1.42-7.258.665-1.67-.418-1.006-.668-.418-.25.584-1.086 2.92-1.336 4.672-.25 1.753-.667 4.34 0 8.094.67 3.754 1.002 4.92 1.168 5.59"/><path fill="#BA9653" d="M123.21 20.668c.157-.406.293-.85.464-1.21-.614.323-1.195.636-1.75.943.37.522.873 1.344 1.287.268"/><path fill="none" stroke="#BA9653" stroke-width=".306" d="M123.21 20.668c.157-.406.293-.85.464-1.21-.614.323-1.195.636-1.75.943.37.522.873 1.344 1.287.268z"/><path fill="#BA9653" d="M138.27 21.502c-.25-.875-1.043.5-2.086 1.753-1.042 1.25-2.543.5-2.71-.126-.17-.626-.458-1.334-1.378-2.545-.917-1.21.877-2.876 1.627-3.086.753-.21 1.71-.377 1.962-.585.21-.173-.166-1.405-.367-2.355-3 .854-6.66 2.42-9.888 4.013.983.375.69 2.286.575 2.554-.126.294-.458 1.96.29.96.75-1 1.046-1.376 1.836-1.626.796-.25 1.673-.21 1.714.96.04 1.167-.5 1.083-.668 1.835-.166.75 0 .71.377.875.375.166.624.667.332 1.46-.29.793-1.543.876-2.67.75-1.126-.123-1.25.043-.876.418.306.307.714.972.858 1.67 2.72-1.314 6-2.414 11.088-3.458.14-.96.192-2.74-.015-3.468"/><path fill="none" stroke="#BA9653" stroke-width=".306" d="M138.27 21.502c-.25-.875-1.043.5-2.086 1.753-1.042 1.25-2.543.5-2.71-.126-.17-.626-.458-1.334-1.378-2.545-.917-1.21.877-2.876 1.627-3.086.753-.21 1.71-.377 1.962-.585.21-.173-.166-1.405-.367-2.355-3 .854-6.66 2.42-9.888 4.013.983.375.69 2.286.575 2.554-.126.294-.458 1.96.29.96.75-1 1.046-1.376 1.836-1.626.796-.25 1.673-.21 1.714.96.04 1.167-.5 1.083-.668 1.835-.166.75 0 .71.377.875.375.166.624.667.332 1.46-.29.793-1.543.876-2.67.75-1.126-.123-1.25.043-.876.418.306.307.714.972.858 1.67 2.72-1.314 6-2.414 11.088-3.458.14-.96.192-2.74-.015-3.468z"/><path fill="#BA9653" d="M111.907 37.98c-.375-.75-.92-.875-1.125-.292-.21.584-.627 2.545-1.92 3.086a8.63 8.63 0 0 1-.98.348c.447.484.947.917 1.523 1.324 1.02-1.08 1.975-2.063 2.892-2.976a3.954 3.954 0 0 0-.39-1.49"/><path fill="none" stroke="#BA9653" stroke-width=".306" d="M111.907 37.98c-.375-.75-.92-.875-1.125-.292-.21.584-.627 2.545-1.92 3.086a8.63 8.63 0 0 1-.98.348c.447.484.947.917 1.523 1.324 1.02-1.08 1.975-2.063 2.892-2.976a3.954 3.954 0 0 0-.39-1.49z"/><path fill="#BA9653" d="M124.378 28.01c-.458-.168-.834.542-1.125 1.042-.292.502-.917 1.337-2.003 1.21-1.083-.125-1.335-.5-1.625-1.418-.293-.917-.96-1.21-1.753-1.21-.793 0-1.335-.958-.5-1.958.834-1 1.67-.544 2.335-.544.668 0 1-.71.46-1.085-.432-.297-1.19-1.15-1.322-1.805-2.378 1.564-5.79 3.986-8.767 6.668a5.306 5.306 0 0 1 1.454.352c.375.166 1.04.667.96 1.42-.085.75.165.916.624.415.458-.5-.084-2 1.46-2.586 1.542-.583 1.752.586 1.668 1.376-.084.796 0 1.545.793 1.88.792.333 1.71 1.627-.044 2.38-1.75.75-2.71.915-3.42 1.124-.708.208-.542.917.042 1.375.355.28.61.553.82.76 2.206-2.046 4.29-3.722 6.648-5.307 1.288-.865 2.468-1.648 3.692-2.368.2-.75.272-1.478-.397-1.72"/><path fill="none" stroke="#BA9653" stroke-width=".306" d="M124.378 28.01c-.458-.168-.834.542-1.125 1.042-.292.502-.917 1.337-2.003 1.21-1.083-.125-1.335-.5-1.625-1.418-.293-.917-.96-1.21-1.753-1.21-.793 0-1.335-.958-.5-1.958.834-1 1.67-.544 2.335-.544.668 0 1-.71.46-1.085-.432-.297-1.19-1.15-1.322-1.805-2.378 1.564-5.79 3.986-8.767 6.668a5.306 5.306 0 0 1 1.454.352c.375.166 1.04.667.96 1.42-.085.75.165.916.624.415.458-.5-.084-2 1.46-2.586 1.542-.583 1.752.586 1.668 1.376-.084.796 0 1.545.793 1.88.792.333 1.71 1.627-.044 2.38-1.75.75-2.71.915-3.42 1.124-.708.208-.542.917.042 1.375.355.28.61.553.82.76 2.206-2.046 4.29-3.722 6.648-5.307 1.288-.865 2.468-1.648 3.692-2.368.2-.75.272-1.478-.397-1.72z"/><path fill="#BA9653" d="M108.026 35.81c.042-.832-.583-1.125-1-1.25-.307-.093-.878-.685-1.13-1.194a14.834 14.834 0 0 0-1.082 1.652c.185.563.364 1.082.544 1.57 1.045-.023 2.633-.078 2.668-.777"/><path fill="none" stroke="#BA9653" stroke-width=".306" d="M108.026 35.81c.042-.832-.583-1.125-1-1.25-.307-.093-.878-.685-1.13-1.194a14.834 14.834 0 0 0-1.082 1.652c.185.563.364 1.082.544 1.57 1.045-.023 2.633-.078 2.668-.777z"/><path fill="#BA9653" d="M143.276 74.73c-2.73-.173-5.98.383-9.09 1.58.543.323 1.12 1.06 2.247.674 1.587-.542 2.13 1.127 1.38 1.585-.753.46-1.003 1.626.414.75 1.42-.875 2.67.376 2.087 1.292-.583.92-1.335.21-1.17 1.504.17 1.292-.124 2.46-1.29 2.668-1.17.21-1.42-1.544-1.96-1.417-.544.125.12 3.086-.128 3.128-.814.136-1.594.844-2.013 1.27.03.02.063.04.094.065 4.595 3.296 5.76 1.5 6.426-.084.668-1.585 2.147-6.283 2.585-8.76.25-1.418.586-2.92.418-4.255"/><path fill="none" stroke="#BA9653" stroke-width=".306" d="M143.276 74.73c-2.73-.173-5.98.383-9.09 1.58.543.323 1.12 1.06 2.247.674 1.587-.542 2.13 1.127 1.38 1.585-.753.46-1.003 1.626.414.75 1.42-.875 2.67.376 2.087 1.292-.583.92-1.335.21-1.17 1.504.17 1.292-.124 2.46-1.29 2.668-1.17.21-1.42-1.544-1.96-1.417-.544.125.12 3.086-.128 3.128-.814.136-1.594.844-2.013 1.27.03.02.063.04.094.065 4.595 3.296 5.76 1.5 6.426-.084.668-1.585 2.147-6.283 2.585-8.76.25-1.418.586-2.92.418-4.255z"/><path fill="#BA9653" d="M133.307 83.825c.25-.623-.416-1.167-1.127-.71-.71.46-1.753 1.128-2.463-.08-.707-1.212.794-1.336.878-1.92.082-.584-.5-.668-.21-1.627.292-.96 1.327-.673 2.088-.166.875.583.62-.8.5-1.335-.09-.408-.16-.815-.078-1.135-.906.408-1.788.868-2.634 1.385-4.284 2.623-4.422 4.84-3.42 5.673.895.748 2.728 1.098 5.852 3.13.033-1.082.42-2.73.615-3.215"/><path fill="none" stroke="#BA9653" stroke-width=".306" d="M133.307 83.825c.25-.623-.416-1.167-1.127-.71-.71.46-1.753 1.128-2.463-.08-.707-1.212.794-1.336.878-1.92.082-.584-.5-.668-.21-1.627.292-.96 1.327-.673 2.088-.166.875.583.62-.8.5-1.335-.09-.408-.16-.815-.078-1.135-.906.408-1.788.868-2.634 1.385-4.284 2.623-4.422 4.84-3.42 5.673.895.748 2.728 1.098 5.852 3.13.033-1.082.42-2.73.615-3.215z"/><path fill="#BA9653" d="M119.665 81.322c-1.773-.886-3.504-2.837-4.67-5.087 0 0 .08-.334-.42-.334s-2.335-.167-5.423-1.252c-3.086-1.083-3.502-.416-3.92.917-.418 1.337-.75 3.756-.835 7.76-.082 4.005 1.67 6.51 2.754 6.09.53-.203 1.893-.882 3.352-1.593.02-.795.067-2.175.154-2.828.126-.96-.876-.587-1.294-.084-.418.5-1.21 1.335-1.96 1.21-.753-.127-1.252-1.46-1.126-2.712.124-1.25-1.335-1.753-.418-3.42.917-1.67 1.667.416 2.46.25.794-.168.376-.584 0-1.877-.375-1.292 1.18-1.676 2.17-.75.626.583.918-.71 1.836-.543.92.166 1.46.793.92 1.71-.42.708-.71 2.378.083 1.502.79-.878 1.583-1.42 2.334-.837.753.584.25 1.795.043 2.42-.208.626 1.335 1.376.25 2.13-1.083.75-2.295-.543-2.92-.377-.625.168-.75.917.084 1.5.543.382 1.117.68 1.534.85 1.737-.59 3.774-1.73 4.432-2.144l1.085.084c.083-1.415 0-2.334-.502-2.584"/><path fill="none" stroke="#BA9653" stroke-width=".306" d="M119.665 81.322c-1.773-.886-3.504-2.837-4.67-5.087 0 0 .08-.334-.42-.334s-2.335-.167-5.423-1.252c-3.086-1.083-3.502-.416-3.92.917-.418 1.337-.75 3.756-.835 7.76-.082 4.005 1.67 6.51 2.754 6.09.53-.203 1.893-.882 3.352-1.593.02-.795.067-2.175.154-2.828.126-.96-.876-.587-1.294-.084-.418.5-1.21 1.335-1.96 1.21-.753-.127-1.252-1.46-1.126-2.712.124-1.25-1.335-1.753-.418-3.42.917-1.67 1.667.416 2.46.25.794-.168.376-.584 0-1.877-.375-1.292 1.18-1.676 2.17-.75.626.583.918-.71 1.836-.543.92.166 1.46.793.92 1.71-.42.708-.71 2.378.083 1.502.79-.878 1.583-1.42 2.334-.837.753.584.25 1.795.043 2.42-.208.626 1.335 1.376.25 2.13-1.083.75-2.295-.543-2.92-.377-.625.168-.75.917.084 1.5.543.382 1.117.68 1.534.85 1.737-.59 3.774-1.73 4.432-2.144l1.085.084c.083-1.415 0-2.334-.502-2.584z"/><path fill="#BA9653" d="M113.492 99.677c-.668-1.5-.9-.348-2.753 2.587-.94 1.485-3.308 4.234-6.268 7.345 2.05.413 6.475 1.502 3.846 3.67-2.836 2.334-1.585 2.166-.334 2 1.25-.167 3.34.584 1.754 3.42-1.586 2.838-2.67 4.84-4.172 5.757-1.503.917-3.672.835-4.172-1.335-.502-2.17-1.92 0-2.003 1.42-.083 1.416-.25 3.837-.083 4.67l-3.168-.167c-.085-1.334-.085-4.004.165-5.255.252-1.25.166-2.752-1.75-2.17-1.256.383-2.114.06-2.563-.193-3.726 3.315-5.61 5.608-6.876 7.63.958.847 2.478 1.485 4.1.823 1.832-.75 4.836.168 3 3.005-1.834 2.834-1.752 4.254.085 2.503 1.836-1.754 4.785-4.764 5.674-1.588.584 2.087-1.335 2.757-1.25 4.424.08 1.667 1.75 3.34-.584 5.34-2.337 2-3.338-1.42-4.923-.916-.958.3-1.15 1.18-1.096 1.962 2.076 2.938 5.1 7.092 6.187 8.88 1.67 2.757 1.67 6.093 2.337 5.594.666-.502 2.25-2.005 2.752-2.423.5-.413 1-.917.75-1.834-.25-.918-1.208-5.837-.916-9.262.332-3.92 2.17-8.216 3.504-10.676 1.282-2.366 5.172-9.93 6.09-11.934.917-2 2.587-4.336 3.004-6.173.416-1.834 2-6.088 2.67-8.09-.17-1.67-1.245-5.047-3.006-9.013"/><path fill="none" stroke="#BA9653" stroke-width=".306" d="M113.492 99.677c-.668-1.5-.9-.348-2.753 2.587-.94 1.485-3.308 4.234-6.268 7.345 2.05.413 6.475 1.502 3.846 3.67-2.836 2.334-1.585 2.166-.334 2 1.25-.167 3.34.584 1.754 3.42-1.586 2.838-2.67 4.84-4.172 5.757-1.503.917-3.672.835-4.172-1.335-.502-2.17-1.92 0-2.003 1.42-.083 1.416-.25 3.837-.083 4.67l-3.168-.167c-.085-1.334-.085-4.004.165-5.255.252-1.25.166-2.752-1.75-2.17-1.256.383-2.114.06-2.563-.193-3.726 3.315-5.61 5.608-6.876 7.63.958.847 2.478 1.485 4.1.823 1.832-.75 4.836.168 3 3.005-1.834 2.834-1.752 4.254.085 2.503 1.836-1.754 4.785-4.764 5.674-1.588.584 2.087-1.335 2.757-1.25 4.424.08 1.667 1.75 3.34-.584 5.34-2.337 2-3.338-1.42-4.923-.916-.958.3-1.15 1.18-1.096 1.962 2.076 2.938 5.1 7.092 6.187 8.88 1.67 2.757 1.67 6.093 2.337 5.594.666-.502 2.25-2.005 2.752-2.423.5-.413 1-.917.75-1.834-.25-.918-1.208-5.837-.916-9.262.332-3.92 2.17-8.216 3.504-10.676 1.282-2.366 5.172-9.93 6.09-11.934.917-2 2.587-4.336 3.004-6.173.416-1.834 2-6.088 2.67-8.09-.17-1.67-1.245-5.047-3.006-9.013z"/><path fill="#BA9653" d="M149.867 136.72c-2.167-3.585-2.585-5.005-2.92-8.675-.212-2.315-.022-5.33.313-8.22-.643-.053-1.513.07-1.563 1.044-.086 1.584-.836 3.837-1.336 5.006-.498 1.167-2.17 1.083-3.17 1.167-1.003.084-1.003-.586-.335-2.087.668-1.5.922-2.17.754-3.502-.17-1.335-.837-.168-1.423 1-.58 1.17-2.252 3.504-4.172 3.254-1.917-.25-1.417-3.17-1.25-4.17.167-1.003-.417-1.17-1.168-1.335-.75-.167-2.253-.5-1.418-2.92.835-2.42 1.75-2.17 2.918-1.753 1.167.418 1.335-.332.252-.75-1.086-.418-2.253-1.335-2.17-2.503.22-3.09 2.17-2.836 3.67-2.504 1.307.29 2.96-.494 4.073-1.69-.02-.077-.05-.153-.068-.23-2.226-8.495 2.003-18.938 3.17-21.858 1.172-2.92 5.674-11.137 7.218-13.598a469.176 469.176 0 0 1-4.254-2.17c-1.21-.625-1.88-.918-2.21-.46-.337.46-.755.71-1.336 1.544-1.172 1.674-.168 1.418.168 1.418.33 0 1.75 1.837 2 2.255.253.416 0 .75-.583 2.085-.767 1.745-1.254 5.757-1.922 8.177-2.02 7.325-5.173 6.592-6.59 5.673-1.42-.917-1.836.5-3.255 2.502-.338.478-1.19 1.387-2.31 2.515 1.354.61 3.197 2.357.977 4.078-2.587 2-3.09 3.084-1.836 2.834 1.25-.248 2.503-2.17 3.92-.833 1.418 1.335-.5 2.836-1.25 3.252-.753.417-2.254 1.17-1.836 2.755.416 1.586.666 3.755-1.42 4.256-2.084.5-2.92-.42-3.504-1.503-.583-1.083-1.167-.332-1.417 1-.25 1.336-.417 2.338-.417 2.837 0 .5-1.5-.25-2.17-.917s-1.5 1.167-2.252.25c-.75-.917.917-3.754 1.5-4.755.552-.944.323-2.25-2.994-.72-1.074 1.796-1.925 4.405-3.262 8.48-1.835 5.59-5.993 13.204-7.72 15.98-4.493 7.22-5.296 14.057-4.63 18.312.665 4.23 1.252 3.92 2.17 3.92s3.17 2.836 4.674 4.587c1.5 1.753 2.086 1.002 2.835.418 2.41-1.876 7.26-5.005 14.1-8.262 2.918-1.386 6.807-2.863 10.596-4.076.06-1.57.44-3.47.584-4.182.168-.835-.666-1.085-1.502 0-.833 1.086-3.084 3.753-4.587 3.09-1.503-.67-2.752-2.34-1.918-3.757.833-1.417-.334-1.835-.918-2.585-.586-.754-.586-3.674 1.252-3.924 1.835-.25 2.418 1.334 3.67 1.752 1.25.418 2.253.332.667-1.417-1.585-1.755-3.504-1.086-2.502-3.506 1.002-2.42 2.42-2.254 4.09-1.754 1.668.5 2.5-.416 3.587-1.168 1.085-.75 3.252-1.753 4.755 0 1.504 1.753-1.085 3.336-1.667 3.922-1.128 1.13-1.335 3.255-.086 2 1.253-1.25 3.39-5.773 4.84-2 .832 2.17-.753 3.005-.5 4.34.25 1.335 2.504 3.17.665 4.838-1.835 1.67-4.42.25-5.506-.75-1.086-1-2.253-1.503-1.754.336.37 1.347.557 2.77.563 3.646 3.645-1.008 6.83-1.622 8.448-1.48 2.38.214 4.174.918 4.088-1.253-.08-2.165-1.25-3.668-3.42-7.256m-29.616 14.934c-2.003.586-2.337-.33-3.672-.83-1.335-.5-1.42.663-.5 2.084.916 1.417 1.92 2.752.834 2.752s-1.92.168-2.087 1c-.166.837-1.917-.164-2.334-1.917-.417-1.753-.835-5.092-1.75-3.42-.918 1.667-1.754 4.42-4.09 3.17-2.335-1.253-.75-2.92-1.918-4.088-1.17-1.167-2.252-2.67-1.085-4.756 1.167-2.086 2.17-.336 3.254-.336s1.252-1 .25-1.75c-1-.753-2.252-4.34 2.338-4.09 1.768.096 3.67-.5 5.172-1.587 1.5-1.08 5.423-.5 3.838 2.257-1.585 2.753-1.083 3.335-.168 2.335.917-1.004 2.087-2.84 3.838-2.336 1.753.5 1 1.83-.082 3.335-1.085 1.502-.418 2.5.416 3.087.835.582 2.37 3.74-2.252 5.087m8.51-19.69c-1.503.085-3.338-.333-3.338-.333-.168 1.587-1.708 3.857-3.254 6.176-.166.25-1.083.25-1.5-.082-.417-.335-1.586-.917-.668-1.92.917-1.002 2.42-3.087 2.17-4.005-.25-.918-.918-1.752-1.918-.502-1.003 1.253-2.59 3.838-4.34 3.924-1.75.082-3.504-1.506-2.668-3.09.833-1.584 1.083-2.418-.084-3.837s-.732-3.233 1.75-4.34c.752-.33 2.086 0 3.005.752.917.75 1.417 0 .166-.75-1.25-.75-2.252-1.668-2.418-3.337-.158-1.585.834-3.252 3.002-2.337 2.17.92 3.504.168 4.422-.583.917-.75 4.83-1.686 4.256 1.753-.418 2.503-1.585 2.587-1.92 3.92-.333 1.335.668.502 1.252-.5s1.92-5.1 4.672-2.003c.667.75.418 2.003-.416 3.42-.834 1.42-.168 2.253.334 3.005.5.75 1.664 4.44-2.504 4.67"/><path fill="none" stroke="#BA9653" stroke-width=".306" d="M128.76 131.965c-1.503.084-3.338-.334-3.338-.334-.168 1.587-1.708 3.857-3.254 6.176-.166.25-1.083.25-1.5-.082-.417-.335-1.586-.917-.668-1.92.917-1.002 2.42-3.087 2.17-4.005-.25-.918-.918-1.752-1.918-.502-1.003 1.253-2.59 3.838-4.34 3.924-1.75.082-3.504-1.506-2.668-3.09.833-1.584 1.083-2.418-.084-3.837s-.732-3.233 1.75-4.34c.752-.33 2.086 0 3.005.752.917.75 1.417 0 .166-.75-1.25-.75-2.252-1.668-2.418-3.337-.158-1.585.834-3.252 3.002-2.337 2.17.92 3.504.168 4.422-.583.917-.75 4.83-1.686 4.256 1.753-.418 2.503-1.585 2.587-1.92 3.92-.333 1.335.668.502 1.252-.5s1.92-5.1 4.672-2.003c.667.75.418 2.003-.416 3.42-.834 1.42-.168 2.253.334 3.005.5.75 1.664 4.44-2.504 4.67zM120.25 151.654c-2.003.586-2.337-.33-3.672-.83-1.335-.5-1.42.663-.5 2.084.916 1.417 1.92 2.752.834 2.752s-1.92.168-2.087 1c-.166.837-1.917-.164-2.334-1.917-.417-1.753-.835-5.092-1.75-3.42-.917 1.667-1.754 4.42-4.09 3.17-2.335-1.253-.75-2.92-1.918-4.088-1.17-1.167-2.252-2.67-1.085-4.756 1.167-2.086 2.17-.336 3.254-.336s1.252-1 .25-1.75c-1-.753-2.252-4.34 2.34-4.09 1.766.096 3.67-.5 5.17-1.587 1.5-1.08 5.423-.5 3.838 2.257-1.585 2.753-1.083 3.335-.168 2.335.917-1.004 2.087-2.84 3.838-2.336 1.753.5 1 1.83-.082 3.335-1.085 1.502-.418 2.5.416 3.087.835.582 2.37 3.74-2.252 5.087z"/><path fill="none" stroke="#BA9653" stroke-width=".306" d="M149.867 136.72c-2.167-3.585-2.585-5.005-2.92-8.675-.212-2.315-.022-5.33.313-8.22-.643-.053-1.513.068-1.563 1.044-.086 1.584-.836 3.837-1.336 5.006-.498 1.167-2.17 1.083-3.17 1.167-1.003.084-1.003-.586-.335-2.087.668-1.5.922-2.17.754-3.502-.17-1.335-.837-.168-1.423 1-.58 1.17-2.252 3.504-4.172 3.254-1.917-.25-1.417-3.17-1.25-4.17.167-1.003-.417-1.17-1.168-1.335-.75-.167-2.253-.5-1.418-2.92.835-2.42 1.75-2.17 2.918-1.753 1.167.418 1.335-.332.252-.75-1.086-.418-2.253-1.335-2.17-2.503.22-3.09 2.17-2.836 3.67-2.504 1.307.29 2.96-.494 4.073-1.69-.02-.077-.05-.153-.068-.23-2.226-8.496 2.003-18.938 3.17-21.86 1.172-2.917 5.674-11.135 7.218-13.596a469.176 469.176 0 0 1-4.254-2.17c-1.21-.625-1.88-.918-2.21-.46-.337.46-.755.71-1.336 1.544-1.172 1.674-.168 1.418.168 1.418.33 0 1.75 1.837 2 2.255.253.416 0 .75-.583 2.085-.767 1.745-1.254 5.757-1.922 8.176-2.02 7.326-5.173 6.593-6.59 5.674-1.42-.917-1.836.5-3.255 2.502-.338.478-1.19 1.387-2.31 2.515 1.356.61 3.197 2.357.977 4.078-2.587 2-3.09 3.084-1.836 2.834 1.25-.248 2.503-2.17 3.92-.833 1.418 1.335-.5 2.836-1.25 3.252-.753.417-2.254 1.17-1.836 2.754.416 1.586.666 3.755-1.42 4.256-2.084.5-2.92-.42-3.504-1.503-.583-1.083-1.167-.332-1.417 1-.25 1.336-.417 2.338-.417 2.837 0 .5-1.5-.25-2.17-.917s-1.5 1.167-2.252.25c-.75-.917.917-3.754 1.5-4.755.552-.944.323-2.252-2.994-.72-1.074 1.796-1.925 4.405-3.262 8.48-1.835 5.59-5.993 13.204-7.72 15.98-4.493 7.22-5.296 14.057-4.63 18.312.665 4.23 1.252 3.92 2.17 3.92s3.17 2.834 4.675 4.587c1.5 1.753 2.085 1.002 2.834.418 2.41-1.876 7.26-5.005 14.1-8.262 2.918-1.386 6.807-2.863 10.596-4.076.06-1.57.44-3.47.584-4.182.17-.835-.666-1.085-1.502 0-.833 1.086-3.084 3.753-4.587 3.09-1.503-.67-2.752-2.34-1.918-3.757.833-1.417-.334-1.835-.918-2.585-.586-.754-.586-3.674 1.252-3.924 1.835-.25 2.418 1.334 3.67 1.752 1.25.418 2.253.332.667-1.417-1.585-1.755-3.504-1.088-2.502-3.506 1.002-2.42 2.42-2.254 4.09-1.754s2.5-.416 3.587-1.168c1.085-.75 3.252-1.753 4.755 0 1.504 1.753-1.085 3.336-1.667 3.922-1.128 1.13-1.335 3.255-.086 2 1.253-1.25 3.39-5.773 4.84-2 .832 2.17-.753 3.005-.5 4.34.25 1.335 2.504 3.17.665 4.838-1.835 1.67-4.42.25-5.506-.75-1.086-1-2.253-1.503-1.754.336.37 1.347.557 2.77.563 3.646 3.645-1.008 6.83-1.622 8.448-1.48 2.38.214 4.174.918 4.088-1.253-.08-2.165-1.25-3.668-3.42-7.256z"/><path fill="#008248" d="M127.214 26.34c1.128.127 2.38.043 2.67-.75.293-.793.044-1.294-.33-1.46-.378-.166-.544-.124-.378-.875.168-.75.71-.667.668-1.835-.04-1.17-.918-1.21-1.713-.96-.79.25-1.084.626-1.834 1.628-.75 1-.417-.667-.29-.96.118-.273.417-2.194-.607-2.54-.586.29-1.157.578-1.705.864-.184.366-.322.795-.484 1.217-.417 1.084-.924.268-1.292-.25-.002-.005-.006-.007-.01-.01a45.936 45.936 0 0 0-2.827 1.678l-.25.164c.1.66.894 1.49 1.336 1.795.542.376.208 1.085-.46 1.085-.666 0-1.5-.458-2.336.544-.833 1-.292 1.96.5 1.96.793 0 1.46.29 1.754 1.208.29.917.542 1.293 1.625 1.42 1.084.125 1.71-.71 2.002-1.212.292-.5.667-1.21 1.125-1.042.68.248.595.963.387 1.726.785-.46 1.583-.896 2.44-1.31-.14-.71-.557-1.357-.867-1.667-.373-.377-.248-.543.877-.42"/><path fill="none" stroke="#00A55C" stroke-width=".306" d="M127.214 26.34c1.128.127 2.38.043 2.67-.75.293-.793.044-1.294-.33-1.46-.378-.166-.544-.124-.378-.875.168-.75.71-.667.668-1.835-.04-1.17-.918-1.21-1.713-.96-.79.25-1.084.626-1.834 1.628-.75 1-.417-.667-.29-.96.118-.273.417-2.194-.607-2.54-.586.29-1.157.578-1.705.864-.184.366-.322.795-.484 1.217-.417 1.084-.924.268-1.292-.25-.002-.005-.006-.007-.01-.01a45.936 45.936 0 0 0-2.827 1.678l-.25.164c.1.66.894 1.49 1.336 1.795.542.376.208 1.085-.46 1.085-.666 0-1.5-.458-2.336.544-.833 1-.292 1.96.5 1.96.793 0 1.46.29 1.754 1.208.29.917.542 1.293 1.625 1.42 1.084.125 1.71-.71 2.002-1.212.292-.5.667-1.21 1.125-1.042.68.248.595.963.387 1.726.785-.46 1.583-.896 2.44-1.31-.14-.71-.557-1.357-.867-1.667-.373-.377-.248-.543.877-.42z"/><path fill="#008248" d="M136.518 14.244c-.387.09-.79.197-1.206.315.2.955.586 2.18.373 2.354-.252.208-1.21.376-1.96.584-.752.21-2.546 1.877-1.63 3.086.92 1.21 1.21 1.92 1.38 2.544.166.627 1.667 1.377 2.71.126 1.042-1.25 1.836-2.628 2.086-1.753.21.737.155 2.517.013 3.473.215-.046.43-.09.656-.134.416-4.673-.752-8.01-2.422-10.596"/><path fill="none" stroke="#00A55C" stroke-width=".306" d="M136.518 14.244c-.387.09-.79.197-1.206.315.2.955.586 2.18.373 2.354-.252.208-1.21.376-1.96.584-.752.21-2.546 1.877-1.63 3.086.92 1.21 1.21 1.92 1.38 2.544.166.627 1.667 1.377 2.71.126 1.042-1.25 1.836-2.628 2.086-1.753.21.737.155 2.517.013 3.473.215-.046.43-.09.656-.134.416-4.673-.752-8.01-2.422-10.596z"/><path fill="#008248" d="M113.616 36.645c-.583-.458-.75-1.167-.042-1.376.71-.21 1.67-.376 3.42-1.126 1.753-.75.835-2.046.044-2.38-.793-.333-.877-1.083-.793-1.88.084-.79-.126-1.958-1.67-1.374-1.542.585-1 2.087-1.458 2.586-.46.502-.71.334-.625-.416.082-.752-.584-1.253-.96-1.42-.29-.13-.936-.282-1.48-.325-1.598 1.44-3.06 2.95-4.165 4.444.248.51.832 1.086 1.14 1.18.417.124 1.042.416 1 1.25-.035.705-1.625.756-2.668.78.737 1.992 1.484 3.407 2.53 4.54a8.78 8.78 0 0 0 .973-.356c1.292-.542 1.71-2.502 1.92-3.086.206-.583.75-.458 1.125.292a3.85 3.85 0 0 1 .394 1.485 83.546 83.546 0 0 1 2.15-2.072 8.756 8.756 0 0 0-.836-.748"/><path fill="none" stroke="#00A55C" stroke-width=".306" d="M113.616 36.645c-.583-.458-.75-1.167-.042-1.376.71-.21 1.67-.376 3.42-1.126 1.753-.75.835-2.046.044-2.38-.793-.333-.877-1.083-.793-1.88.084-.79-.126-1.958-1.67-1.374-1.542.585-1 2.087-1.458 2.586-.46.502-.71.334-.625-.416.082-.752-.584-1.253-.96-1.42-.29-.13-.936-.282-1.48-.325-1.598 1.44-3.06 2.95-4.165 4.444.248.51.832 1.086 1.14 1.18.417.124 1.042.416 1 1.25-.035.705-1.625.756-2.668.78.737 1.992 1.484 3.407 2.53 4.54a8.78 8.78 0 0 0 .973-.356c1.292-.542 1.71-2.502 1.92-3.086.206-.583.75-.458 1.125.292a3.85 3.85 0 0 1 .394 1.485 83.546 83.546 0 0 1 2.15-2.072 8.756 8.756 0 0 0-.836-.748z"/><path fill="#008248" d="M135.767 86.495c.25-.04-.416-3.002.127-3.127.54-.127.79 1.626 1.96 1.417 1.167-.21 1.46-1.376 1.292-2.67-.166-1.292.586-.583 1.17-1.502.583-.916-.668-2.167-2.088-1.29-1.417.874-1.167-.293-.415-.753.75-.458.206-2.127-1.38-1.585-1.145.395-1.723-.35-2.275-.664-.42.165-.843.34-1.26.53-.093.323-.02.716.075 1.136.12.536.375 1.92-.5 1.335-.76-.507-1.796-.793-2.09.167-.288.96.294 1.043.212 1.627-.084.583-1.585.708-.878 1.92.71 1.208 1.753.54 2.463.08.71-.457 1.375.088 1.125.71-.195.488-.59 2.132-.62 3.213.337.22.687.455 1.052.715.414-.422 1.203-1.118 2.03-1.257"/><path fill="none" stroke="#00A55C" stroke-width=".306" d="M135.767 86.495c.25-.04-.416-3.002.127-3.127.54-.127.79 1.626 1.96 1.417 1.167-.21 1.46-1.376 1.292-2.67-.166-1.292.586-.583 1.17-1.502.583-.916-.668-2.167-2.088-1.29-1.417.874-1.167-.293-.415-.753.75-.458.206-2.127-1.38-1.585-1.145.395-1.723-.35-2.275-.664-.42.165-.843.34-1.26.53-.093.323-.02.716.075 1.136.12.536.375 1.92-.5 1.335-.76-.507-1.796-.793-2.09.167-.288.96.294 1.043.212 1.627-.084.583-1.585.708-.878 1.92.71 1.208 1.753.54 2.463.08.71-.457 1.375.088 1.125.71-.195.488-.59 2.132-.62 3.213.337.22.687.455 1.052.715.414-.422 1.203-1.118 2.03-1.257z"/><path fill="#008248" d="M113.032 83.617c.625-.165 1.837 1.127 2.92.376 1.085-.75-.458-1.5-.25-2.13.208-.623.71-1.834-.042-2.418-.75-.583-1.545-.042-2.334.836-.793.876-.504-.793-.084-1.502.54-.916 0-1.543-.92-1.71-.916-.165-1.21 1.126-1.834.543-.992-.924-2.546-.54-2.17.753.375 1.293.793 1.71 0 1.877-.793.166-1.543-1.92-2.46-.25-.918 1.667.54 2.17.417 3.42-.126 1.25.374 2.584 1.125 2.71.75.126 1.543-.71 1.96-1.21.418-.5 1.42-.874 1.295.085-.086.662-.134 2.037-.154 2.83 1.534-.75 3.177-1.53 4.075-1.83.038-.012.076-.027.113-.04a7.836 7.836 0 0 1-1.572-.834c-.833-.585-.71-1.334-.084-1.503"/><path fill="none" stroke="#00A55C" stroke-width=".306" d="M113.032 83.617c.625-.165 1.837 1.127 2.92.376 1.085-.75-.458-1.5-.25-2.13.208-.623.71-1.834-.042-2.418-.75-.583-1.545-.042-2.334.836-.793.876-.504-.793-.084-1.502.54-.916 0-1.543-.92-1.71-.916-.165-1.21 1.126-1.834.543-.992-.924-2.546-.54-2.17.753.375 1.293.793 1.71 0 1.877-.793.166-1.543-1.92-2.46-.25-.918 1.667.54 2.17.417 3.42-.126 1.25.374 2.584 1.125 2.71.75.126 1.543-.71 1.96-1.21.418-.5 1.42-.874 1.295.085-.086.662-.134 2.037-.154 2.83 1.534-.75 3.177-1.53 4.075-1.83.038-.012.076-.027.113-.04a7.836 7.836 0 0 1-1.572-.834c-.833-.585-.71-1.334-.084-1.503z"/><path fill="#008248" d="M94.553 121.62c1.917-.582 2.003.918 1.75 2.17-.25 1.25-.25 3.92-.165 5.255l3.168.168c-.166-.834 0-3.254.084-4.672.084-1.418 1.5-3.587 2.003-1.418.5 2.17 2.668 2.252 4.172 1.335 1.5-.917 2.586-2.918 4.172-5.757 1.585-2.836-.502-3.588-1.754-3.42-1.25.166-2.502.334.334-2 2.64-2.177-1.8-3.268-3.842-3.675-3.363 3.53-7.495 7.53-11.176 10.68-.47.402-.91.786-1.33 1.162.445.252 1.31.56 2.583.174"/><path fill="none" stroke="#00A55C" stroke-width=".306" d="M94.553 121.62c1.917-.582 2.003.918 1.75 2.17-.25 1.25-.25 3.92-.165 5.255l3.168.168c-.166-.834 0-3.254.084-4.672.084-1.418 1.5-3.587 2.003-1.418.5 2.17 2.668 2.252 4.172 1.335 1.5-.917 2.586-2.918 4.172-5.757 1.585-2.836-.502-3.588-1.754-3.42-1.25.166-2.502.334.334-2 2.64-2.177-1.8-3.268-3.842-3.675-3.363 3.53-7.495 7.53-11.176 10.68-.47.402-.91.786-1.33 1.162.445.252 1.31.56 2.583.174z"/><path fill="#008248" d="M91.215 142.647c1.585-.504 2.586 2.916 4.923.917 2.335-2.002.666-3.674.583-5.34-.082-1.668 1.836-2.336 1.252-4.425-.89-3.177-3.838-.167-5.673 1.59-1.838 1.748-1.92.33-.085-2.506 1.835-2.837-1.17-3.756-3.002-3.005-1.634.667-3.13.015-4.09-.84-.704 1.128-1.222 2.17-1.752 3.26-1.584 3.253-.5 3.338.668 3.338 1.167 0 3.67 4.92 4.005 5.838.117.323.975 1.577 2.106 3.178-.065-.79.09-1.7 1.065-2.007"/><path fill="none" stroke="#00A55C" stroke-width=".306" d="M91.215 142.647c1.585-.504 2.586 2.916 4.923.917 2.335-2.002.666-3.674.583-5.34-.082-1.668 1.836-2.336 1.252-4.425-.89-3.177-3.838-.167-5.673 1.59-1.838 1.748-1.92.33-.085-2.506 1.835-2.837-1.17-3.756-3.002-3.005-1.634.667-3.13.015-4.09-.84-.704 1.128-1.222 2.17-1.752 3.26-1.584 3.253-.5 3.338.668 3.338 1.167 0 3.67 4.92 4.005 5.838.117.323.975 1.577 2.106 3.178-.065-.79.09-1.7 1.065-2.007z"/><path fill="#008248" d="M115.66 120.62c-.157-1.586.835-3.253 3.003-2.338 2.17.92 3.504.168 4.422-.583.917-.75 4.83-1.687 4.256 1.752-.417 2.503-1.584 2.587-1.918 3.92-.334 1.335.667.502 1.25-.5s1.92-5.1 4.673-2.003c.667.75.418 2.002-.416 3.42-.835 1.418-.17 2.252.333 3.004.5.75 1.665 4.44-2.503 4.67-1.503.085-3.338-.333-3.338-.333-.168 1.587-1.708 3.857-3.254 6.176-.166.25-1.083.25-1.5-.082-.417-.335-1.586-.917-.668-1.92.917-1.002 2.42-3.087 2.17-4.005-.25-.918-.918-1.752-1.918-.502-1.003 1.253-2.59 3.838-4.34 3.922s-3.504-1.504-2.668-3.087c.833-1.585 1.083-2.42-.084-3.838s-.732-3.233 1.75-4.34c.752-.33 2.086 0 3.005.752.917.75 1.417 0 .166-.75-1.252-.75-2.253-1.67-2.42-3.338"/><path fill="none" stroke="#00A55C" stroke-width=".306" d="M115.66 120.62c-.157-1.586.835-3.253 3.003-2.338 2.17.92 3.504.168 4.422-.583.917-.75 4.83-1.687 4.256 1.752-.417 2.503-1.584 2.587-1.918 3.92-.334 1.335.667.502 1.25-.5s1.92-5.1 4.673-2.003c.667.75.418 2.002-.416 3.42-.835 1.418-.17 2.252.333 3.004.5.75 1.665 4.44-2.503 4.67-1.503.085-3.338-.333-3.338-.333-.168 1.587-1.708 3.857-3.254 6.176-.166.25-1.083.25-1.5-.082-.417-.335-1.586-.917-.668-1.92.917-1.002 2.42-3.087 2.17-4.005-.25-.918-.918-1.752-1.918-.502-1.003 1.253-2.59 3.838-4.34 3.922s-3.504-1.504-2.668-3.087c.833-1.585 1.083-2.42-.084-3.838s-.732-3.233 1.75-4.34c.752-.33 2.086 0 3.005.752.917.75 1.417 0 .166-.75-1.252-.75-2.253-1.67-2.42-3.338z"/><path fill="#008248" d="M136.854 109.773c-1.503-.332-3.453-.585-3.672 2.504-.084 1.167 1.083 2.085 2.17 2.503 1.082.418.914 1.167-.253.75-1.168-.417-2.084-.667-2.92 1.753-.835 2.42.668 2.753 1.418 2.92.75.166 1.335.332 1.167 1.335-.166 1-.666 3.92 1.25 4.17 1.92.25 3.592-2.085 4.173-3.254.586-1.167 1.254-2.334 1.422-1 .168 1.333-.086 2-.754 3.502-.668 1.5-.668 2.17.336 2.087 1-.084 2.67 0 3.17-1.167.5-1.17 1.25-3.422 1.336-5.007.05-.993.92-1.102 1.562-1.046a92.19 92.19 0 0 1 .69-4.793c-3.273.493-6.06-3.51-7.033-6.972-1.115 1.21-2.75 2.007-4.063 1.715"/><path fill="none" stroke="#00A55C" stroke-width=".306" d="M136.854 109.773c-1.503-.332-3.453-.585-3.672 2.504-.084 1.167 1.083 2.085 2.17 2.503 1.082.418.914 1.167-.253.75-1.168-.417-2.084-.667-2.92 1.753-.835 2.42.668 2.753 1.418 2.92.75.166 1.335.332 1.167 1.335-.166 1-.666 3.92 1.25 4.17 1.92.25 3.592-2.085 4.173-3.254.586-1.167 1.254-2.334 1.422-1 .168 1.333-.086 2-.754 3.502-.668 1.5-.668 2.17.336 2.087 1-.084 2.67 0 3.17-1.167.5-1.17 1.25-3.422 1.336-5.007.05-.993.92-1.102 1.562-1.046a92.19 92.19 0 0 1 .69-4.793c-3.273.493-6.06-3.51-7.033-6.972-1.115 1.21-2.75 2.007-4.063 1.715z"/><path fill="#008248" d="M121.25 109.19c-.584 1-2.253 3.837-1.5 4.754.75.917 1.584-.917 2.252-.25s2.17 1.417 2.17.917.165-1.5.416-2.835c.25-1.333.834-2.085 1.417-1 .584 1.082 1.42 2.002 3.505 1.502 2.085-.5 1.835-2.67 1.42-4.255-.42-1.585 1.082-2.338 1.834-2.755.752-.416 2.67-1.917 1.25-3.252-1.416-1.335-2.67.585-3.92.833-1.252.25-.75-.833 1.837-2.834 2.23-1.73.363-3.457-.997-4.058-3.592 3.616-9.955 9.48-11.352 10.815-.5.48-.933 1.043-1.334 1.72 3.355-1.566 3.557-.25 3.004.7"/><path fill="none" stroke="#00A55C" stroke-width=".306" d="M121.25 109.19c-.584 1-2.253 3.837-1.5 4.754.75.917 1.584-.917 2.252-.25s2.17 1.417 2.17.917.165-1.5.416-2.835c.25-1.333.834-2.085 1.417-1 .584 1.082 1.42 2.002 3.505 1.502 2.085-.5 1.835-2.67 1.42-4.255-.42-1.585 1.082-2.338 1.834-2.755.752-.416 2.67-1.917 1.25-3.252-1.416-1.335-2.67.585-3.92.833-1.252.25-.75-.833 1.837-2.834 2.23-1.73.363-3.457-.997-4.058-3.592 3.616-9.955 9.48-11.352 10.815-.5.48-.933 1.043-1.334 1.72 3.355-1.566 3.557-.25 3.004.7z"/><path fill="#008248" d="M141.94 142.73c1.086.998 3.67 2.42 5.506.75 1.84-1.67-.414-3.504-.664-4.84-.254-1.334 1.33-2.17.5-4.337-1.452-3.775-3.588.75-4.842 2-1.25 1.253-1.042-.873.086-2 .582-.588 3.17-2.17 1.667-3.924s-3.67-.75-4.755 0c-1.086.75-1.92 1.668-3.588 1.167-1.67-.5-3.087-.666-4.088 1.753-1.002 2.42.917 1.753 2.502 3.506 1.586 1.75.584 1.835-.667 1.417-1.252-.418-1.835-2.003-3.67-1.753-1.838.25-1.838 3.17-1.252 3.924.584.75 1.75 1.168.918 2.585-.834 1.416.415 3.087 1.92 3.755 1.502.664 3.753-2.003 4.586-3.09.835-1.084 1.67-.834 1.5 0-.142.718-.53 2.607-.585 4.183 1.27-.405 2.528-.78 3.736-1.116-.003-.873-.19-2.282-.563-3.646-.5-1.84.668-1.337 1.753-.337"/><path fill="none" stroke="#00A55C" stroke-width=".306" d="M141.94 142.73c1.086.998 3.67 2.42 5.506.75 1.84-1.67-.414-3.504-.664-4.84-.254-1.334 1.33-2.17.5-4.337-1.452-3.775-3.588.75-4.842 2-1.25 1.253-1.042-.873.086-2 .582-.588 3.17-2.17 1.667-3.924s-3.67-.75-4.755 0c-1.086.75-1.92 1.668-3.588 1.167-1.67-.5-3.087-.666-4.088 1.753-1.002 2.42.917 1.753 2.502 3.506 1.586 1.75.584 1.835-.667 1.417-1.252-.418-1.835-2.003-3.67-1.753-1.838.25-1.838 3.17-1.252 3.924.584.75 1.75 1.168.918 2.585-.834 1.416.415 3.087 1.92 3.755 1.502.664 3.753-2.003 4.586-3.09.835-1.084 1.67-.834 1.5 0-.142.718-.53 2.607-.585 4.183 1.27-.405 2.528-.78 3.736-1.116-.003-.873-.19-2.282-.563-3.646-.5-1.84.668-1.337 1.753-.337z"/><path fill="#008248" d="M109.488 139.474c1.767.097 3.67-.5 5.17-1.586 1.502-1.08 5.424-.5 3.84 2.257-1.586 2.753-1.084 3.335-.17 2.335.918-1.003 2.088-2.84 3.84-2.335 1.752.5 1 1.83-.083 3.335-1.085 1.503-.418 2.502.416 3.088.836.582 2.372 3.74-2.25 5.087-2.003.586-2.337-.33-3.672-.83-1.335-.5-1.42.663-.5 2.084.916 1.416 1.92 2.75.834 2.75s-1.92.17-2.087 1c-.166.838-1.917-.163-2.334-1.916-.417-1.753-.835-5.092-1.75-3.42-.917 1.667-1.754 4.42-4.09 3.17-2.335-1.253-.75-2.92-1.918-4.088-1.17-1.167-2.252-2.67-1.085-4.756 1.167-2.085 2.17-.335 3.254-.335s1.252-1 .25-1.75c-1-.753-2.253-4.34 2.338-4.09"/><path fill="none" stroke="#00A55C" stroke-width=".306" d="M109.488 139.474c1.767.097 3.67-.5 5.17-1.586 1.502-1.08 5.424-.5 3.84 2.257-1.586 2.753-1.084 3.335-.17 2.335.918-1.003 2.088-2.84 3.84-2.335 1.752.5 1 1.83-.083 3.335-1.085 1.503-.418 2.502.416 3.088.836.582 2.372 3.74-2.25 5.087-2.003.586-2.337-.33-3.672-.83-1.335-.5-1.42.663-.5 2.084.916 1.416 1.92 2.75.834 2.75s-1.92.17-2.087 1c-.166.838-1.917-.163-2.334-1.916-.417-1.753-.835-5.092-1.75-3.42-.917 1.667-1.754 4.42-4.09 3.17-2.335-1.253-.75-2.92-1.918-4.088-1.17-1.167-2.252-2.67-1.085-4.756 1.167-2.085 2.17-.335 3.254-.335s1.252-1 .25-1.75c-1-.753-2.253-4.34 2.338-4.09z"/><path fill="#BA9653" d="M126.005 81.072c-.5 1.335-1.167 3.005-1.5 3.84-.334.834-1.872.51-1.754-.085.25-1.252-1.532-.423-1.332-1.418.166-.837-.168-2.17.75-2.17s2.67-.168 3.837-.168"/><path fill="none" stroke="#BA9653" stroke-width=".306" d="M126.005 81.072c-.5 1.335-1.167 3.005-1.5 3.84-.334.834-1.872.51-1.754-.085.25-1.252-1.532-.423-1.332-1.418.166-.837-.168-2.17.75-2.17s2.67-.168 3.837-.168z"/><path fill="#BA9653" d="M123.21 20.668c.157-.406.293-.85.464-1.21-.614.323-1.195.636-1.75.943.37.522.873 1.344 1.287.268M138.27 21.502c-.25-.875-1.043.5-2.086 1.753-1.042 1.25-2.543.5-2.71-.126-.17-.626-.458-1.334-1.378-2.545-.917-1.21.877-2.876 1.627-3.086.753-.21 1.71-.377 1.962-.585.21-.173-.166-1.405-.367-2.355-3 .854-6.66 2.42-9.888 4.013.983.375.69 2.286.575 2.554-.126.294-.458 1.96.29.96.75-1 1.046-1.376 1.836-1.626.796-.25 1.673-.21 1.714.96.04 1.167-.5 1.083-.668 1.835-.166.75 0 .71.377.875.375.166.624.667.332 1.46-.29.793-1.543.876-2.67.75-1.126-.123-1.25.043-.876.418.306.307.714.972.858 1.67 2.72-1.314 6-2.414 11.088-3.458.14-.96.192-2.74-.015-3.468M111.907 37.98c-.375-.75-.92-.875-1.125-.292-.21.584-.627 2.545-1.92 3.086a8.63 8.63 0 0 1-.98.348c.447.484.947.917 1.523 1.324 1.02-1.08 1.975-2.063 2.892-2.976a3.954 3.954 0 0 0-.39-1.49M124.378 28.01c-.458-.168-.834.542-1.125 1.042-.292.502-.917 1.337-2.003 1.21-1.083-.125-1.335-.5-1.625-1.418-.293-.917-.96-1.21-1.753-1.21-.793 0-1.335-.958-.5-1.958.834-1 1.67-.544 2.335-.544.668 0 1-.71.46-1.085-.432-.297-1.19-1.15-1.322-1.805-2.378 1.564-5.79 3.986-8.767 6.668a5.306 5.306 0 0 1 1.454.352c.375.166 1.04.667.96 1.42-.085.75.165.916.624.415.458-.5-.084-2 1.46-2.586 1.542-.583 1.752.586 1.668 1.376-.084.796 0 1.545.793 1.88.792.333 1.71 1.627-.044 2.38-1.75.75-2.71.915-3.42 1.124-.708.208-.542.917.042 1.375.355.28.61.553.82.76 2.206-2.046 4.29-3.722 6.648-5.307 1.288-.865 2.468-1.648 3.692-2.368.2-.75.272-1.478-.397-1.72M108.026 35.81c.042-.832-.583-1.125-1-1.25-.307-.093-.878-.685-1.13-1.194a14.834 14.834 0 0 0-1.082 1.652c.185.563.364 1.082.544 1.57 1.045-.023 2.633-.078 2.668-.777M143.276 74.73c-2.73-.173-5.98.383-9.09 1.58.543.323 1.12 1.06 2.247.674 1.587-.542 2.13 1.127 1.38 1.585-.753.46-1.003 1.626.414.75 1.42-.875 2.67.376 2.087 1.292-.583.92-1.335.21-1.17 1.504.17 1.292-.124 2.46-1.29 2.668-1.17.21-1.42-1.544-1.96-1.417-.544.125.12 3.086-.128 3.128-.814.136-1.594.844-2.013 1.27.03.02.063.04.094.065 4.595 3.296 5.76 1.5 6.426-.084.668-1.585 2.147-6.283 2.585-8.76.25-1.418.586-2.92.418-4.255M133.307 83.825c.25-.623-.416-1.167-1.127-.71-.71.46-1.753 1.128-2.463-.08-.707-1.212.794-1.336.878-1.92.082-.584-.5-.668-.21-1.627.292-.96 1.327-.673 2.088-.166.875.583.62-.8.5-1.335-.09-.408-.16-.815-.078-1.135-.906.408-1.788.868-2.634 1.385-4.284 2.623-4.422 4.84-3.42 5.673.895.748 2.728 1.098 5.852 3.13.033-1.082.42-2.73.615-3.215M119.665 81.322c-1.773-.886-3.504-2.837-4.67-5.087 0 0 .08-.334-.42-.334s-2.335-.167-5.423-1.252c-3.086-1.083-3.502-.416-3.92.917-.418 1.337-.75 3.756-.835 7.76-.082 4.005 1.67 6.51 2.754 6.09.53-.203 1.893-.882 3.352-1.593.02-.795.067-2.175.154-2.828.126-.96-.876-.587-1.294-.084-.418.5-1.21 1.335-1.96 1.21-.753-.127-1.252-1.46-1.126-2.712.124-1.25-1.335-1.753-.418-3.42.917-1.67 1.667.416 2.46.25.794-.168.376-.584 0-1.877-.375-1.292 1.18-1.676 2.17-.75.626.583.918-.71 1.836-.543.92.166 1.46.793.92 1.71-.42.708-.71 2.378.083 1.502.79-.878 1.583-1.42 2.334-.837.753.584.25 1.795.043 2.42-.208.626 1.335 1.376.25 2.13-1.083.75-2.295-.543-2.92-.377-.625.168-.75.917.084 1.5.543.382 1.117.68 1.534.85 1.737-.59 3.774-1.73 4.432-2.144l1.085.084c.083-1.415 0-2.334-.502-2.584M113.492 99.677c-.668-1.5-.9-.348-2.753 2.587-.94 1.485-3.308 4.234-6.268 7.345 2.05.413 6.475 1.502 3.846 3.67-2.836 2.334-1.585 2.166-.334 2 1.25-.167 3.34.584 1.754 3.42-1.586 2.838-2.67 4.84-4.172 5.757-1.503.917-3.672.835-4.172-1.335-.502-2.17-1.92 0-2.003 1.42-.083 1.416-.25 3.837-.083 4.67l-3.168-.167c-.085-1.334-.085-4.004.165-5.255.252-1.25.166-2.752-1.75-2.17-1.256.383-2.114.06-2.563-.193-3.726 3.315-5.61 5.608-6.876 7.63.958.847 2.478 1.485 4.1.823 1.832-.75 4.836.168 3 3.005-1.834 2.834-1.752 4.254.085 2.503 1.836-1.754 4.785-4.764 5.674-1.588.584 2.087-1.335 2.757-1.25 4.424.08 1.667 1.75 3.34-.584 5.34-2.337 2-3.338-1.42-4.923-.916-.958.3-1.15 1.18-1.096 1.962 2.076 2.938 5.1 7.092 6.187 8.88 1.67 2.757 1.67 6.093 2.337 5.594.666-.502 2.25-2.005 2.752-2.423.5-.413 1-.917.75-1.834-.25-.918-1.208-5.837-.916-9.262.332-3.92 2.17-8.216 3.504-10.676 1.282-2.366 5.172-9.93 6.09-11.934.917-2 2.587-4.336 3.004-6.173.416-1.834 2-6.088 2.67-8.09-.17-1.67-1.245-5.047-3.006-9.013"/><path fill="#BA9653" d="M149.867 136.72c-2.167-3.585-2.585-5.005-2.92-8.675-.212-2.315-.022-5.33.313-8.22-.643-.053-1.513.07-1.563 1.044-.086 1.584-.836 3.837-1.336 5.006-.498 1.167-2.17 1.083-3.17 1.167-1.003.084-1.003-.586-.335-2.087.668-1.5.922-2.17.754-3.502-.17-1.335-.837-.168-1.423 1-.58 1.17-2.252 3.504-4.172 3.254-1.917-.25-1.417-3.17-1.25-4.17.167-1.003-.417-1.17-1.168-1.335-.75-.167-2.253-.5-1.418-2.92.835-2.42 1.75-2.17 2.918-1.753 1.167.418 1.335-.332.252-.75-1.086-.418-2.253-1.335-2.17-2.503.22-3.09 2.17-2.836 3.67-2.504 1.307.29 2.96-.494 4.073-1.69-.02-.077-.05-.153-.068-.23-2.226-8.495 2.003-18.938 3.17-21.858 1.172-2.92 5.674-11.137 7.218-13.598a469.176 469.176 0 0 1-4.254-2.17c-1.21-.625-1.88-.918-2.21-.46-.337.46-.755.71-1.336 1.544-1.172 1.674-.168 1.418.168 1.418.33 0 1.75 1.837 2 2.255.253.416 0 .75-.583 2.085-.767 1.745-1.254 5.757-1.922 8.177-2.02 7.325-5.173 6.592-6.59 5.673-1.42-.917-1.836.5-3.255 2.502-.338.478-1.19 1.387-2.31 2.515 1.354.61 3.197 2.357.977 4.078-2.587 2-3.09 3.084-1.836 2.834 1.25-.248 2.503-2.17 3.92-.833 1.418 1.335-.5 2.836-1.25 3.252-.753.417-2.254 1.17-1.836 2.755.416 1.586.666 3.755-1.42 4.256-2.084.5-2.92-.42-3.504-1.503-.583-1.083-1.167-.332-1.417 1-.25 1.336-.417 2.338-.417 2.837 0 .5-1.5-.25-2.17-.917s-1.5 1.167-2.252.25c-.75-.917.917-3.754 1.5-4.755.552-.944.323-2.25-2.994-.72-1.074 1.796-1.925 4.405-3.262 8.48-1.835 5.59-5.993 13.204-7.72 15.98-4.493 7.22-5.296 14.057-4.63 18.312.665 4.23 1.252 3.92 2.17 3.92s3.17 2.836 4.674 4.587c1.5 1.753 2.086 1.002 2.835.418 2.41-1.876 7.26-5.005 14.1-8.262 2.918-1.386 6.807-2.863 10.596-4.076.06-1.57.44-3.47.584-4.182.168-.835-.666-1.085-1.502 0-.833 1.086-3.084 3.753-4.587 3.09-1.503-.67-2.752-2.34-1.918-3.757.833-1.417-.334-1.835-.918-2.585-.586-.754-.586-3.674 1.252-3.924 1.835-.25 2.418 1.334 3.67 1.752 1.25.418 2.253.332.667-1.417-1.585-1.755-3.504-1.086-2.502-3.506 1.002-2.42 2.42-2.254 4.09-1.754 1.668.5 2.5-.416 3.587-1.168 1.085-.75 3.252-1.753 4.755 0 1.504 1.753-1.085 3.336-1.667 3.922-1.128 1.13-1.335 3.255-.086 2 1.253-1.25 3.39-5.773 4.84-2 .832 2.17-.753 3.005-.5 4.34.25 1.335 2.504 3.17.665 4.838-1.835 1.67-4.42.25-5.506-.75-1.086-1-2.253-1.503-1.754.336.37 1.347.557 2.77.563 3.646 3.645-1.008 6.83-1.622 8.448-1.48 2.38.214 4.174.918 4.088-1.253-.08-2.165-1.25-3.668-3.42-7.256m-29.616 14.934c-2.003.586-2.337-.33-3.672-.83-1.335-.5-1.42.663-.5 2.084.916 1.417 1.92 2.752.834 2.752s-1.92.168-2.087 1c-.166.837-1.917-.164-2.334-1.917-.417-1.753-.835-5.092-1.75-3.42-.918 1.667-1.754 4.42-4.09 3.17-2.335-1.253-.75-2.92-1.918-4.088-1.17-1.167-2.252-2.67-1.085-4.756 1.167-2.086 2.17-.336 3.254-.336s1.252-1 .25-1.75c-1-.753-2.252-4.34 2.338-4.09 1.768.096 3.67-.5 5.172-1.587 1.5-1.08 5.423-.5 3.838 2.257-1.585 2.753-1.083 3.335-.168 2.335.917-1.004 2.087-2.84 3.838-2.336 1.753.5 1 1.83-.082 3.335-1.085 1.502-.418 2.5.416 3.087.835.582 2.37 3.74-2.252 5.087m8.51-19.69c-1.503.085-3.338-.333-3.338-.333-.168 1.587-1.708 3.857-3.254 6.176-.166.25-1.083.25-1.5-.082-.417-.335-1.586-.917-.668-1.92.917-1.002 2.42-3.087 2.17-4.005-.25-.918-.918-1.752-1.918-.502-1.003 1.253-2.59 3.838-4.34 3.924-1.75.082-3.504-1.506-2.668-3.09.833-1.584 1.083-2.418-.084-3.837s-.732-3.233 1.75-4.34c.752-.33 2.086 0 3.005.752.917.75 1.417 0 .166-.75-1.25-.75-2.252-1.668-2.418-3.337-.158-1.585.834-3.252 3.002-2.337 2.17.92 3.504.168 4.422-.583.917-.75 4.83-1.686 4.256 1.753-.418 2.503-1.585 2.587-1.92 3.92-.333 1.335.668.502 1.252-.5s1.92-5.1 4.672-2.003c.667.75.418 2.003-.416 3.42-.834 1.42-.168 2.253.334 3.005.5.75 1.664 4.44-2.504 4.67"/><path fill="#FFF" d="M205.547 60.424l-2.472 1.752 5.685 8.034-3.252 2.307-5.522-8.202-2.548 1.805 5.05 7.65-3.253 2.307-8.15-11.594 14.78-10.476 8.988 12.597-3.255 2.306M209.628 85.133l3.33 7.232-4.837 2.237-5.22-11.764 15.994-6.955 2.055 4.53M211.508 106.71l-.503-4.46 10.732-1.262-.417-6.486 4.808-.358 1.337 15.603-4.806.355-.42-4.653M211.61 122.786l-.067-5.318 15.782-.048.065 5.318M219.938 144.367c1.492-.888 2.136-2.02 2.35-3.326.54-3.275-1.17-6.027-4.173-6.47-2.828-.415-5.144.866-5.987 3.722-.436 1.476-.27 2.935.135 3.896l-4.17 1.396c-.574-1.98-.84-4.247-.512-5.976.52-2.72 1.442-4.224 3.41-5.718 2.19-1.663 5.32-2.1 7.965-1.59 2.43.464 4.724 1.684 6.077 4.06 1.392 2.438 2.104 4.51 1.528 7.512-.344 1.782-1.938 4.32-4.04 5.605M211.68 158.188c-2.406 2.267-6.582 4.98-8.24 5.133-2.156.2-2.824-1.015-3.187-2.928-.283-1.478-.012-3.81.664-5.798.582-1.724 1.995-3.436 3.264-4.498l2.61 1.16c-1.41.95-2.314 2.422-2.906 4.178-.405 1.202-.772 3.037.432 3.447 1.345.454 4.262-2.486 5.098-3.29 1.444-1.39 4.446-3.81 6.648-3.243 1.452.373 4.14 3.395 3.108 8.36-.43 2.06-1.184 4.26-2.642 5.72l-3.563-2.39c1-.713 1.604-2.638 2.026-3.892.32-.944.378-2.444-.503-2.932-.545-.3-1.59-.174-2.807.975M192.182 48.31c-.195-1.73-.63-2.906-1.73-3.64-2.768-1.84-5.873-1.313-7.657 1.144-1.43 1.97-1.323 5.043.93 6.99 1.165 1.002 2.564 1.452 3.61 1.478l-.446 4.374c-2.043-.292-4.218-.98-5.656-1.99-2.27-1.596-3.26-3.05-3.81-5.458-.616-2.68.274-5.715 1.822-7.916 1.427-2.022 3.95-3.766 6.658-4.12 2.673-.346 5.19.148 7.312 1.99 1.372 1.19 2.723 4 3.03 6.446M31.078 137.264c.082-4.658 2.39-6.974 3.686-7.247 2.12-.448 3.218-.113 4.676 1.182 1.513 1.344 2.167 2.792 2.602 4.844.378 1.778.548 3.86-.002 5.424l-3.362.35c.73-1.537.22-2.946-.164-4.756-.264-1.246-1.085-2.454-2.33-2.19-1.294.273-1.226 2.456-1.34 3.646-.372 3.824-1.624 6.313-4.006 6.575-2.23.242-4.973-1.238-5.936-5.77-.434-2.053-.235-4.855.272-6.855l3.52.018c-.497 1.123-.87 3.97-.596 5.267.204.973.952 2.173 1.96 2.12.794-.04 1.004-1.73 1.02-2.61M40.208 115.335l.06 3.915-12.458.154.05 5.643-3.988.044-.16-14.866 3.988-.044.05 5.312M49.14 71.163L38.427 64.44l2.37-3.692 15.698 9.05-3.04 4.69-12.735.213-.026.05 9.617 5.545-2.37 4.19-15.446-8.966 2.037-3.94M25.087 94.422c0-5.325 4.318-9.644 9.645-9.644 5.325 0 9.644 4.318 9.644 9.644 0 5.326-4.318 9.643-9.644 9.643-5.327 0-9.645-4.317-9.645-9.643m9.645 5.024a5.023 5.023 0 0 0 5.022-5.024 5.023 5.023 0 1 0-5.022 5.024M31.304 157.87c0-5.325 4.316-9.644 9.644-9.644 5.327 0 9.643 4.318 9.643 9.644 0 5.328-4.314 9.646-9.642 9.646-5.328 0-9.644-4.318-9.644-9.646m9.644 5.026a5.024 5.024 0 1 0-.004-10.048 5.024 5.024 0 0 0 .004 10.048M51.752 175.428c-1.395-2.11-.682-5.23.8-6.54 2.992-2.65 8.02 3.44 9.84 5.727l5.184 6.03-12.807 10.59-4.82-4.757c-3.455-3.45-7.665-7.81-4.195-10.823 1.407-1.222 4.476-.967 5.997-.227m9.953 2.776l-.416-.5c-.964-1.16-4.38-5.497-5.734-4.22-1.485 1.397 2.11 5.198 3.173 6.477l.33.4 2.645-2.156zm-6.19 5.222c-.473-.567-4.282-5.21-5.825-3.758-1.625 1.53 2.175 4.512 3.445 6.04l2.38-2.282z"/></svg>