<svg xmlns="http://www.w3.org/2000/svg" version="1" width="204.077" height="205.512"><g fill-rule="evenodd"><path d="M186.026 79.17c-.615-12.307-6.152-23.588-9.435-30.152l-1.844-3.69.205 3.28c.41 4.308 1.436 19.485-3.075 28.1-5.744 11.69-22.15 10.665-27.69 10.255h-.41c-8.82-.615-37.74-1.64-46.762-1.64-11.692 0-24.613 1.025-35.073 1.845-5.127.41-9.434.615-12.51.82h-1.027c-14.56 1.436-23.79-2.87-27.483-12.716-2.257-6.153-2.052-18.05-2.052-23.79v-4.104l-1.23 2.05c-2.666 5.13-7.794 14.564-9.435 30.15-1.025 18.665 8.615 25.23 15.794 28.51 7.59 3.69 15.587 4.102 18.05 4.307h.203c.41 0 1.026 0 1.642.205.82 0 1.64 0 2.46.205-1.23.205-3.076.617-4.718.822-1.64.203-3.28.613-4.1.82-1.847.205-9.026 2.05-13.127 3.28-3.282 1.232-6.974 2.872-6.974 2.872l-.615.41.41.614s1.23 1.64 2.46 2.87c2.668 2.67 9.846 7.18 18.46 6.155 6.974-1.026 10.665-2.462 12.1-3.282.616 1.436 1.642 4.922 2.667 7.587 3.077 7.795 10.255 22.768 12.922 27.895 2.256 4.103 4.307 7.795 5.743 10.256l.615.82c-.41 1.64-1.64 2.666-2.46 3.487-.206.204-.41.204-.616.41l-.206.204v.208c0 1.435-.41 14.356 8.41 23.79l.204.206c4.512 1.64 10.05 3.282 19.28 3.282 9.433 0 17.227-2.05 20.098-3.486v-.205h.207c6.152-7.18 8.818-18.05 9.023-22.15v-.205l-.205-.205c-.204-.205-.41-.205-.614-.41-.82-1.028-2.05-2.053-2.666-4.72.615-1.23 2.05-4.306 3.28-6.768.82-1.435 1.23-2.667 1.643-3.282 2.46-5.126 10.048-21.33 13.126-28.92 1.845-4.92 2.87-7.382 3.485-8.202 1.23.615 4.923 2.256 11.69 2.87 8.616 1.026 17.025-4.92 19.28-8.204l1.23-1.23.41-.615-.614-.41c-.204 0-.41 0-1.64-.616l-9.844-3.076c-1.23-.616-7.18-1.848-11.486-2.668l-3.28-.82 1.024-.206c10.05-1.64 36.714-6.357 35.072-32.815z" fill="#1c2524"/><path d="M17.638 52.506c-.205 6.973-.205 14.357 1.436 20.92-1.436-1.23-3.077-2.87-4.512-4.102-1.436 1.436-2.666 3.077-4.102 4.513 1.436-7.384 3.897-14.563 7.178-21.33zM183.36 70.76l.41 1.846-3.487-2.462c-1.64.616-3.076 1.642-4.716 2.462 1.23-6.564 1.434-13.537 1.024-20.51 3.078 5.947 4.924 12.306 6.77 18.664zM97.218 135.778c3.692 5.74 10.665 7.382 16.817 5.74 2.462-.41 4.72-1.434 6.77-2.254-1.846 5.948-3.282 12.716-3.078 19.485 0 5.945 1.027 11.69 2.667 17.022-.82-.41-1.64-1.027-2.667-1.437-12.716-6.357-30.354-6.152-42.866.41.617-2.05 1.233-4.1 1.643-6.15 2.05-9.64.615-19.69-2.667-28.306 6.768 2.87 16.408 3.485 21.945-2.872.618-.41.823-1.025 1.438-1.64zM69.12 140.494c-.412 2.87-1.232 5.744-4.103 6.77-2.256.614-4.513-.617-5.948-2.257-.617-.822-1.232-1.642-1.437-2.667 3.486 2.255 8.204.41 11.28-1.846h.206zM136.8 140.904c-.82 2.46-2.87 4.924-5.535 5.334-1.846.41-3.487-.616-4.717-2.258-.616-.82-.82-1.844-1.026-2.87 3.077 2.46 7.998 1.845 11.28-.206z" fill="#d2153a"/><path d="M129.83 147.878c1.23.205 2.665 0 3.895-.41-3.486 8.82-7.793 17.432-12.305 26.047-1.436-4.306-1.23-9.025-.82-13.74.614-5.745 2.05-11.28 3.69-16.615 1.027 2.257 3.077 4.308 5.54 4.718zM73.63 173.515c-5.332-8.203-9.433-16.817-13.536-25.637 1.846.82 4.718 1.64 6.564.205 1.845-1.23 2.87-3.076 3.486-5.128 4.513 8.82 5.538 20.51 3.486 30.56zM124.29 180.49c-1.025 7.588-3.69 14.357-8.614 20.304-11.075 4.513-26.252 4.923-37.328.205-5.538-6.153-7.59-13.743-8-21.946 11.897-8.615 30.56-10.46 44.097-4.31 3.488 1.643 6.77 3.283 9.845 5.745zM170.232 118.754c-9.226-3.692-21.33-5.744-31.378-5.95-1.026-11.484-2.258-18.457-4.514-24.816-5.126-.41-28.508-1.23-37.327-1.23-9.025 0-31.79 1.435-37.124 1.64-2.052 6.154-4.513 13.742-5.538 25.024-10.255.613-24.203 3.486-33.432 6.972-1.436.615-2.052 1.025-2.052 1.025 1.436 1.64 6.564 7.794 16.204 8 3.076 0 8.82-.41 12.716-2.052 1.025-.615 3.076-1.435 3.076-1.435s.615 1.23 1.026 2.255c1.025 2.87 2.257 6.973 3.077 8.82 1.436 2.666 3.486 4.716 7.178 4.922 3.077 0 5.333-2.666 5.743-3.076-9.025-.616-12.716-5.334-13.33-12.716-2.257-.41-2.873-.615-3.08-1.643-.204-1.23.207-2.46 1.028-3.896 1.025-1.23 2.666-2.667 6.973-1.23 2.87.82 5.127 2.665 6.562 4.1 2.05 1.642 7.384 7.18 10.666 9.23 3.486 2.05 10.05 3.898 14.356-.41 4.308-4.102 4.717-7.59 5.334-9.64-7.384-.205-14.153-1.026-20.51-1.846-1.848-.205-1.027-2.05.41-1.64 0 0 11.895 1.64 20.305 1.64v-4.51c-4.923-.206-13.128-.616-20.92-2.26-1.643-.407-1.436-2.255.204-1.844 1.026.41 13.947 2.257 20.92 2.257v-5.744c-4.512.206-11.28-.41-20.715-1.845-1.64-.205-1.435-1.64 0-1.64 0 0 11.896 1.845 20.716 1.64v-4.513c0-1.64 1.435-1.846 1.435 0 0 .616.205 2.257.205 4.513 8.41-.205 15.997-1.23 19.485-1.846 2.05-.41 1.846 1.23.82 1.436-1.23.205-11.075 2.05-20.51 2.255 0 1.64.205 3.897.205 5.537 6.358-.205 13.537-.41 19.896-1.845 2.255-.41 2.46 1.435.41 1.64-6.154 1.027-14.974 2.053-20.306 2.258 0 1.435 0 3.28.206 4.51 10.05-.204 19.485-1.64 21.125-1.844 1.64-.412 2.05 1.434.204 1.64-1.64.204-13.538 1.845-21.125 1.845.82 2.667.82 6.36 4.51 9.434 3.693 3.075 9.64 2.87 13.948.41 3.28-1.846 8.408-7.59 10.255-9.23 1.64-1.436 5.332-4.717 10.255-4.717 4.717 0 4.922 2.666 5.127 3.28.205.822.41 2.26-.615 2.872-.82.617-1.64.412-2.46.822-.616 3.897-1.846 8.408-5.13 10.87-3.28 2.462-8.614 2.872-8.614 2.872l1.025 1.024c.413.41 2.26 1.435 4.72 1.23 2.05-.205 4.716-1.845 5.74-3.076 1.644-2.05 3.08-6.564 4.31-9.434.41-1.026 1.435-2.87 1.64-3.692 1.027.41 1.437.616 3.282 1.436 3.898 1.435 8.82 2.05 11.896 2.05 4.922-.205 10.665-3.28 14.153-6.358.616-.616 1.64-2.05 1.64-2.05s-3.28-1.23-4.308-1.436z" fill="#d2153a"/><path d="M116.293 181.515c.82 1.845.203 3.897-.822 5.332-2.05 2.257-4.92 3.282-7.792 2.46-1.642-.408-3.282-1.434-4.308-3.28-.615 1.435.616 2.667.41 3.897-.205.41-.615.41-.82.205-1.64-2.257-2.256-5.54-.82-8 1.846-3.076 5.126-4.513 8.82-4.103 2.05.412 4.306 1.437 5.333 3.49zM91.475 182.745c1.435 2.257.82 5.538-.616 7.59-.206.41-.41.82-.82.41-.616-.616.204-1.23.204-2.05.205-.617.41-1.233.205-1.848-2.052 2.667-4.923 3.897-8 3.282-2.256-.41-4.307-2.052-5.127-4.308-.41-1.437-.205-3.077.615-4.307 2.05-2.666 5.947-3.488 9.23-2.256 1.64.41 3.486 1.844 4.307 3.485zM116.088 198.334c-.207.41-.412.41-.822 1.025-1.026-.412-2.256-.822-3.486-1.232-10.255-4.102-23.382-2.87-33.022 1.23-.205-.41-.41-.615-.615-1.024 11.28-4.924 26.663-5.54 37.945 0zM117.933 143.775c-1.845 8.205-6.974 17.434-15.383 19.69-6.77 1.847-14.562.41-19.075-5.127-3.28-4.103-4.92-9.024-5.537-14.358.41-.204.82-.204 1.23-.204.616 7.588 4.718 16.203 12.307 18.664 6.563 2.05 14.56 0 19.28-5.742 3.075-3.898 5.127-8.615 6.152-13.333.41 0 .616 0 1.026.41zM17.023 2.256C15.587.82 13.33 0 11.073 0 8.82.205 0 3.076 0 16.202c0 12.923 7.998 17.23 12.716 17.23 4.717 0 9.435-3.692 11.075-10.05.207-.82.002-1.026-.82-1.436l-3.075-1.23c-.82-.206-.82-.206-1.232 1.025-.41.82-1.64 4.718-4.922 4.718-3.075 0-4.512-4.717-4.512-9.64 0-4.922.82-9.435 4.718-9.435 4.102 0 4.717 4.103 5.128 5.743 0 .616.205.616.82.616h2.872c.615 0 .615 0 .615-1.436V1.846c0-.82 0-.82-1.23-.82h-2.46c-.617 0-.617.205-1.027.82-.205.615-.82 1.025-1.64.41zM134.135 7.383l5.95 18.87c.204.82.204.82.614.82h1.025c1.025 0 1.025 0 1.025.82v3.693c0 1.025 0 1.23-.82 1.23h-11.69c-1.026 0-1.026-.205-1.026-.82v-3.693c0-1.23.205-1.23.82-1.23h1.23c.616 0 .616 0 .41-.82l-1.025-2.872c-.206-.614-.41-.614-1.026-.614h-7.18l1.436-4.307h4.514c.615 0 .82 0 .615-.617L126.34 9.64c-.205-.615-.41-.615-.615 0l-2.667 8.203c0 .616 0 .616.82.616l-1.435 4.306c-.82 0-.82 0-1.025.615l-1.026 2.872c-.205.82-.205.82.41.82h1.23c.82 0 .82.206.82 1.23v3.694c0 .615 0 .82-1.024.82h-8.205c-.615 0-.615-.205-.615-1.23v-3.692c0-.82 0-.82 1.025-.82h.822c.41 0 .615-.206.82-.617l5.948-19.074c.205-.41.205-.614-.616-.614h-1.23c-.82 0-1.026 0-1.026-.823v-3.69c0-1.232.205-1.232 1.435-1.232h15.792c.82 0 .82.205.82 1.23v3.487c0 .82 0 .82-1.23.82h-1.232c-.41 0-.41.207-.205.82zM162.44 21.536h2.052c1.025 0 1.025.205 1.025.82 0 1.64-1.437 4.1-4.718 4.1-3.283.002-4.513-4.715-4.513-9.638 0-4.922.82-9.435 4.718-9.435 3.282 0 4.512 2.257 4.922 3.897.205.616.205.616 1.025.616h2.87c.617 0 .617 0 .617-1.436V1.846c0-.82-.207-.82-1.437-.82h-2.46c-.616 0-.616.204-.82.82-.206.615-1.026 1.025-1.848.41C162.44.82 160.185 0 158.133 0c-2.46.205-11.076 3.076-11.076 16.202 0 12.923 7.795 17.23 12.51 17.23 7.18 0 12.718-5.538 12.718-15.794 0-1.026 0-1.026-1.435-1.026h-8.615c-.82 0-.82 0-.82.822v3.486c0 .616 0 .616 1.025.616zM190.128 1.025c-7.793 0-14.15 7.18-14.15 16.204 0 9.022 6.357 16.2 14.15 16.2 7.59 0 13.95-7.178 13.95-16.2 0-9.026-6.36-16.205-13.95-16.205l-.205 5.744c2.872 0 5.334 4.716 5.334 10.46 0 5.74-2.462 10.46-5.334 10.46-2.87 0-5.126-4.72-5.126-10.46 0-5.744 2.255-10.46 5.126-10.46l.205-5.745zM32.61 26.457V7.587c0-.613-.204-.818-.82-.818h-.82c-1.026 0-1.026 0-1.026-.618V1.846c0-.616 0-.82 1.025-.82h11.076c.82 0 1.025.204 1.025 1.025v3.692c0 .82 0 .82-1.024.82h-.617c-.41 0-.41 0-.41.82v5.334c0 1.436 0 1.436 1.026 1.436h5.947c1.23 0 1.23 0 1.23-1.436V7.383c0-.82-.204-.82-.615-.82h-.615c-1.025 0-1.025 0-1.025-.82V2.05c0-.82.205-1.025 1.025-1.025H59.07c1.23 0 1.23.205 1.23.82v4.307c0 .617-.206.617-1.026.617h-1.026c-.615 0-.615 0-.615.818v18.87c0 .615 0 .615.82.615h1.026c.82 0 .82 0 .82 1.23v3.693c0 .615 0 .82-1.026.82h-11.69c-.82 0-.82 0-.82-1.23v-3.692c0-.82 0-.82 1.024-.82h.615c.616 0 .616 0 .616-.822V20.51c0-1.435 0-1.435-1.027-1.435h-5.947c-.822 0-1.027.205-1.027 1.435v5.742c0 .82 0 .82.82.82h.41c1.026 0 1.026 0 1.026.822v3.692c0 1.025 0 1.23-.82 1.23H30.968c-1.026 0-1.026 0-1.026-.82v-3.693c0-1.23 0-1.23.82-1.23h.822c1.025 0 1.025 0 1.025-.616zM68.503 7.383c0-.82 0-.82-.41-.82h-1.23c-.82 0-1.026 0-1.026-.82V2.05c0-.82.205-1.025 1.026-1.025h11.075c1.23 0 1.23.205 1.23.82v4.307c0 .617 0 .617-1.025.617h-.41c-.82 0-.82 0-.82.818v18.87c0 .615 0 .615.82.615h.82c.82 0 .82 0 .82 1.23v3.693c0 .615 0 .82-1.025.82h-11.69c-.616 0-.82 0-.82-1.23v-3.692c0-.82 0-.82 1.025-.82h1.025c.615 0 .615 0 .615-.822V7.382zM100.5 2.256C99.063.82 97.012 0 94.755 0 92.5.205 83.682 3.076 83.682 16.202c0 12.923 7.793 17.23 12.51 17.23 4.923 0 9.64-3.692 11.075-10.05.41-.82.206-1.026-.82-1.436l-3.077-1.23c-.615-.206-.615-.206-1.23 1.025-.205.82-1.64 4.718-4.717 4.718-3.28 0-4.513-4.717-4.513-9.64 0-4.922.82-9.435 4.718-9.435 3.897 0 4.717 4.103 4.922 5.743.205.616.205.616 1.026.616h2.87c.617 0 .617 0 .617-1.436V1.846c0-.82-.205-.82-1.23-.82h-2.668c-.41 0-.41.205-.82.82-.205.615-.82 1.025-1.846.41zM30.764 47.583v18.664c0 .616-.205.82-.82.82h-1.026c-.615 0-.82 0-.82.82v3.9c0 .82.205.82 1.025.82h17.23l-5.95-5.95c-1.024 0-1.23 0-1.23-1.23v-5.332c0-1.026.206-1.232 1.23-1.232v-4.716c-1.23 0-1.23-.205-1.23-1.23v-5.334c0-1.23 0-1.23 1.23-1.23 1.026 0 5.54.205 5.54 4.1 0 3.694-4.102 3.694-5.54 3.694v4.716c1.23 0 5.54.206 5.54 4.103s-4.102 3.692-5.54 3.692l5.95 5.948c4.306 0 7.384-3.898 7.384-8.204 0-4.513-2.668-6.154-4.924-7.794 1.436-1.436 4.308-3.077 4.308-7.59 0-4.92-4.922-7.998-7.793-7.998H29.534c-1.23 0-1.436 0-1.436 1.026v3.896c0 .616 0 .82 1.025.82h1.026c.614 0 .614 0 .614.82zM83.065 47.378V63.58c0 4.103-2.05 10.052-10.255 10.052-7.998 0-11.896-5.95-11.896-10.05V47.377c0-.615-.205-.615-.82-.615H59.07c-.822 0-.822-.205-.822-1.026V42.25c0-1.23 0-1.23 1.23-1.23h10.87c.822 0 1.027 0 1.027 1.026v3.69c0 .822 0 .822-1.23.822h-.82c-.616 0-.616 0-.616.615v15.793c0 1.64 1.434 4.512 4.717 4.512 4.1 0 4.92-3.076 4.92-4.512V47.378c0-.82-.204-.82-.82-.82h-.82c-1.025 0-1.025 0-1.025-.82v-3.692c0-1.026 0-1.026.82-1.026h8.205c1.436 0 1.436 0 1.436 1.026v3.69c0 .822 0 1.027-1.026 1.027h-1.23c-.617 0-.822 0-.822.615zM121.42 67.068h-1.026c-.82 0-.82 0-.82 1.025v3.693c0 .82 0 .82.82.82H140.7c.82 0 1.025 0 1.025-1.232V62.35c0-.82 0-1.024-1.026-1.024h-2.872c-1.026 0-1.026.205-1.026 1.23v3.28c0 1.232 0 1.232-1.025 1.232h-4.307c-1.436 0-1.436-.205-1.436-1.026V47.788c0-1.23 0-1.23.615-1.23h1.23c.82 0 .82-.206.82-.82v-3.692c0-1.026 0-1.026-1.025-1.026h-10.87c-1.23 0-1.23 0-1.23 1.026v3.69c0 .822 0 1.027.82 1.027h1.025c.615 0 .82 0 .82 1.025v18.254c0 .82-.205 1.026-.82 1.026zM168.388 63.787c0 6.768-6.358 9.64-9.025 9.64-2.05 0-4.306-.82-5.743-2.053-1.025-.82-1.845 0-2.05.412-.616.82-.616.82-1.026.82h-1.23c-1.436 0-1.436 0-1.436-.615v-8.82c0-1.23.205-1.23.616-1.23h2.05c.82 0 .82 0 1.026.616.41 1.846 2.46 4.307 5.537 4.307 1.64 0 2.872-.41 2.872-1.846 0-2.87-1.642-3.486-4.718-5.128-3.077-1.642-7.794-3.487-7.794-10.255 0-6.564 6.152-9.435 8.82-9.435 2.05 0 4.1.82 5.537 2.05 1.025.82 1.845 0 2.05-.41.412-1.025.412-1.025.822-1.025h1.435c1.23 0 1.23 0 1.23.82v8.614c0 1.436 0 1.436-.615 1.436h-1.845c-.822 0-.822 0-1.027-.616-.615-1.846-2.665-4.307-5.947-4.307-1.436 0-2.256.82-2.256 2.05 0 1.847 2.05 3.488 5.743 5.13 3.487 1.64 6.973 4.305 6.973 9.844zM93.32 67.068h-1.025c-.82 0-.82 0-.82 1.025v3.693c0 .82 0 .82.82.82H112.6c.82 0 1.025 0 1.025-1.232V62.35c0-.82 0-1.024-1.025-1.024h-2.87c-1.026 0-1.026.205-1.026 1.23v3.28c0 1.232 0 1.232-1.026 1.232h-4.308c-1.435 0-1.435-.205-1.435-1.026V47.788c0-1.23 0-1.23.615-1.23h1.23c.82 0 .82-.206.82-.82v-3.692c0-1.026 0-1.026-1.024-1.026h-10.87c-1.23 0-1.23 0-1.23 1.026v3.69c0 .822 0 1.027.82 1.027h1.024c.616 0 .822 0 .822 1.025v18.254c0 .82-.206 1.026-.822 1.026z" fill="#1c2524"/><path d="M20.92 78.758c4.307 8.41 13.332 11.28 22.356 10.87 5.127 0 10.05-.614 14.972-1.025v.41c-2.46 7.18-4.306 14.562-5.333 22.15-13.126.41-26.457-.614-36.302-9.433-6.564-6.563-8.205-15.793-6.77-24.817 1.643-1.846 3.283-3.487 4.72-5.332 2.255 2.257 5.74 4.102 6.357 7.178zM184.182 74.862c.41 1.436.41 2.666.615 3.896.615 10.256-3.692 19.485-12.512 24.614-9.435 5.742-20.305 7.792-31.79 7.997-.206-1.026-.41-2.46-.41-3.487-1.026-6.77-2.257-13.536-4.103-19.895 12.306 0 27.483 3.28 35.688-8.204 1.025-1.64 2.05-3.076 3.077-4.717 1.845-.82 3.69-2.05 5.33-2.87 1.437.614 2.668 1.845 4.105 2.665zM137.21 126.138c0 3.896-1.23 7.792-4.715 9.64-1.64.82-3.486 1.23-5.334 1.23a1.307 1.307 0 0 1 .002-1.23c2.667 0 5.538-1.028 6.973-3.283 1.027-1.64 1.437-3.69 1.437-5.742.41-.41 1.025-.615 1.64-.615zM67.273 136.598c-.615 0-.82.205-1.846 0-4.513 0-9.23-3.692-9.024-9.845.615-.205 1.23-.205 1.64 0 0 3.486 1.436 8.408 9.025 8.408.41.822 0 .822.205 1.438z" fill="#fff"/></g></svg>