<svg xmlns="http://www.w3.org/2000/svg" xmlns:xlink="http://www.w3.org/1999/xlink" width="360" height="230" viewBox="0 0 360 230"><path d="M170.546 218.716c56.33 0 101.993-46.352 101.993-103.533 0-57.173-45.664-103.53-101.994-103.53-56.317 0-101.98 46.356-101.98 103.53 0 57.18 45.663 103.533 101.98 103.533" fill="#fdb827"/><path d="M217.038 125.776c-9.525 11.56-14.928 15.515-24.605 15.515-3.294 0-5.01-.74-4.083-2.335l11.476-23.083h4.376c4.888 0 4.212 4.12 2.882 9.692-.235.78.355.823.935.147l10.91-19.175c.535-1.21-.844-1.445-1.516-.53-5.465 7.418-11.22 6.867-13.643 6.867h-1.978l12.263-23.395h4.94c6.223.385 9.122 5.67 7.32 18.41h2.59l9.01-17.763c.73-1.5-.805-2.875-2.504-2.875l-61.165.016c-3.54 0-3.7 2.72-.302 2.72 2.75 0 2.605 3.945.133 5.854l-25.965 20.618 5.247 24.342c.382 1.837 1.567 2.712 3.594 2.712h50.578c2.086 0 2.947-.848 3.62-1.716l9.156-15.818c1.268-2.277-1.67-2.13-3.266-.202m-35.23-11.115l-4.454-.024a.558.558 0 0 0-.56.558c0 .31.253.563.56.563l4.514-.043c1.53 0 2.93.195 2.54.873L172.71 138.92c-1.45 2.66-4.525 1.98-5.013-.147l-5.792-29.93 20.37-15.794c2.018-1.738 5.916-4.57 7.905-4.54l4.437-.025c2.7-.018 3.666 1.247 3.024 2.884l-.783 1.51c-.51.846-2.103.948-3.462.948l-2.562.013a.562.562 0 0 0-.567.568.56.56 0 0 0 .567.563h2.527c1.092 0 2.462.03 1.96.848l-9.448 18.012c-.438.704-2.4.83-4.064.83" fill="#552582"/><path d="M139.82 140.793a2.775 2.775 0 0 1-2.56-1.894c-.435-1.3-.395-3.61.127-4.633l23.6-41.846c.383-.773 1.34-2.386 2.512-2.386 2.084.003 2.984-2.74-.547-2.74h-18.9c-3.533 0-3.568 2.69-.184 2.69 1.38 0 1.93 1.354 1.536 2.18l-5.218 9.464c-.653 1.038-2.1 1.118-3.623 1.118l-4.502-.018a.57.57 0 0 0 0 1.142h4.463c1.207 0 2.17.365 1.474 1.766l-17.418 31.73c-1.254 1.747-3.753 2.137-3.61-1.21l6.193-46.47c.244-1.45-.137-2.435-1.69-2.435l-9.337.018c-1.118 0-1.805.542-2.342 1.265l-3.337 4.197c-.44.435-1.377.432-2.415.432L96.2 93.15a.562.562 0 0 0-.563.562c0 .318.25.572.563.572h6.403c1.136 0 2.463.262 1.982.797L95.6 106.386c-.27.31-1.14.395-1.677.395l-2.537-.004a.566.566 0 0 0-.57.563c0 .31.253.562.57.562l2.116.008c.657 0 .662.32.4.618l-8.45 10.612c-.435.41-1.277.495-2.098.495l-7.46-.01a.565.565 0 0 0 0 1.13l6.4.002c.973 0 1.723.173 1.21.827L71.5 136.644c-2.257 2.874-13.124 4.337-15.24 4.337l40.6-75.966c.386-.873 1.898-2.206 3.452-2.206h8.62c4.07 0 3.95-2.707.42-2.707H66.008c-3.53 0-3.67 2.708.39 2.708h8.027c2.277 0 3.01 1.376 2.427 2.503L75.7 67.4c-.376.68-.918.95-3.118.95L58.4 68.344a.564.564 0 0 0 0 1.128l14.146.004c.767 0 1.917.2 1.194 1.58l-1.99 3.68c-.335.56-1.202.827-2.2.827l-6.426-.013a.566.566 0 0 0-.567.562c0 .32.248.57.567.57l6.395.008c.914 0 .94.597.41 1.445l-4.57 8.49c-.39.723-1.13.82-2.582.82l-2.56-.012a.567.567 0 0 0-.57.568c0 .31.256.563.57.563l2.526.005c.962 0 1.216.537.784 1.456l-3.75 6.97c-.558.99-1.353 1.385-3.847 1.385l-14.18-.014a.568.568 0 0 0 0 1.135l14.143.004c1.597.025 2.186.724 1.562 1.87L50.13 115.13c-.433.608-1.627.7-3.664.7l-14.18-.016a.566.566 0 0 0 0 1.13l14.147.005c1.692 0 2.726.07 2.21.962l-4.21 7.935c-.778 1.21-2.95 1.21-3.8 1.21l-4.498-.013c-.31 0-.563.25-.563.567 0 .313.253.564.563.564l4.46.004c1.578 0 2.408.272 1.996 1.118l-5.635 10.592c-.507.943-2.71.99-4.406.99l-21.923-.02a.575.575 0 0 0-.568.572c0 .304.26.563.567.563l21.89.005c1.452 0 3.284.177 2.6 1.338l-3.585 6.76c-.34.56-1.567.606-3.337.606l-4.493-.008a.563.563 0 0 0 0 1.126h4.463c1.083 0 2.414.125 1.948.953l-2.25 4.316c-.724 1.075-1.447 2.028-3.186 2.028h-11c-4.07 0-3.927 2.708-.395 2.708l64.6.04c1.888 0 1.948-.253 2.838-1.648l9.582-16.702 48.964.004c3.537.007 2.627-2.658.555-2.727m-38.408-4.974c-.48 2.754-3.252 4.574-6.74 5.502l-3.595.893 2.955-5.32c.777-1.45-.928-2.302-2.787-.15-12.5 14.57-16.493 21.54-35.776 21.59l-5.184.01c-1.567 0-3.288-.61-2.224-2.11l6.82-12.71 25.916.005c3.536 0 2.628-2.666.55-2.735-1.37-.047-2.87-.832-3.93-2.51-.3-.462-.944-2.308.065-3.73l9.924-13.19h16.498l-2.493 14.454zm3.732-16.678h-16.09l20.356-26.85-4.266 26.85zM350.015 127.445c-.265-1.326-.742-.52-1.617 1.153-.268.503-1.117.52-1.967.52l-2.582.01a.57.57 0 0 0-.57.57c0 .304.254.556.57.556h2.548c.96 0 .983.646.528 1.617-1.785 3.797-3.618 6.34-6.058 9.392-.382.477-1.36.894-2.136.894l-2.605.017a.562.562 0 0 0-.563.568c0 .308.25.563.563.563h2.548c1.282 0-.018.785-.235 1.075-4.516 6.028-7.63 8.72-10.946 11.42-.39.312-2.262.2-3.575.19l-2.566.01a.572.572 0 0 0 0 1.144h2.537c1.932 0 .476 1.11.19 1.346-7.046 5.868-17.526 7.753-22.326 7.155-15.57-1.95-18.782-13.772-19.934-18.497-.233-.988-.984-3.016-1.23-4.264-.482-2.47 6.543-3.172 8.485-1.872 2.938 1.967 9.803 3.988 15.203 4.004 4.993.02 15.215-3.61 18.17-12.186 3.03-8.775-4.57-18.517-7.943-21.876-4.28-4.29-8.34-11.116-6.626-16.126 1.286-3.78 3.437-5.494 8.048-5.494 5.958 0 10.287 3.83 10.287 9.265 0 .49-.29 1.062-.685 1.062l-2.106.007a.57.57 0 0 0 0 1.14l1.975-.006c.56 0 .91.422.762 1.105-.38 1.815-.51 3.094-.905 4.918-.238 1.055 1.314 1.788 1.85 1.018l9.366-16.72c.68-1.26-.83-1.6-1.937-1.206-2.565.882-6.734 1.504-8.212.437-3.502-2.51-6.696-4.12-11.575-4.12-8.33 0-14.158 2.044-17.898 8.896-.29.537-1.11.53-1.808.53h-1.6a.563.563 0 0 0 0 1.126l1.362-.014c.58 0 .97.165.68.843-.256.617-.49 1.26-.706 1.935-.945 2.968-.637 7.13.848 10.836.095.248-.224.363-.797.363h-2.544a.57.57 0 0 0-.567.57c0 .314.252.564.568.564h2.545c1.152.005 1.43.126 1.907.796 1.318 1.85 2.66 3.222 4.35 5.376.538.67-1.737.86-2.946.853l-10.088-.005c-.32 0-.563.26-.563.567a.56.56 0 0 0 .563.568l10.214-.014c1.643 0 4.46-.022 4.776.337 2.465 2.857 5.455 7.247 5.968 10.944.143 1.07-.257 1.516-1.57 1.516h-1.37a.56.56 0 0 0-.563.563.56.56 0 0 0 .563.563h1.21c1.043 0 1.608.172 1.364.953-1.326 4.23-3.31 7.293-11.397 7.25-8.476-.048-10.2-8.36-7.72-17.03.484-1.72-.023-2.467-.8-1.106l-5.902 9.268c-.142.22-.71.75-1.61.75l-.833-.005a.565.565 0 0 0 0 1.13c.746 0 1.04.4.746.816l-2.154 3.37c-3.576-8.154-9.548-18.2-12.733-21.856l.056-.177c7.865-.48 19.458-7.842 21.365-14.427 3.294-11.42-7.8-15.642-13.85-15.642l-26.58.005c-3.53 0-3.79 2.68-.4 2.68 1.83 0 3.43 1.6 2.625 3.22l-5.885 10.61c-.485.87-2.318.817-4.69.817H236.3a.568.568 0 0 0-.563.575c0 .31.257.564.563.564h2.536c1.695 0 3.562.097 2.93 1.312l-6.96 12.564c-.334.585-1.24.632-3.605.632l-2.565.005a.58.58 0 0 0-.57.58c0 .298.254.562.57.562h2.504c1.87 0 2.565.247 2.028 1.21l-9.296 16.818c-1.11 1.204-2.432 1.434-4.702 1.434-3.39 0-3.355 2.686.18 2.686h22.76c3.538 0 2.64-2.734.547-2.734-1.218 0-2.518-2.253-1.698-3.6l11.617-22.012h1.183c5.166 0 6.418 8.48 7.385 17.734.073.667-1.187.694-3.766.694l-6.458.022a.563.563 0 0 0-.567.563.57.57 0 0 0 .567.568h6.384c1.703 0 4.073.017 4.135.554.443 4.065.776 7.64 1.56 10.898.24 1.015-1.572.855-3.51.855l-8.23.008a.57.57 0 0 0-.566.564c0 .32.252.572.567.572l8.223.01c2.582 0 3.917 0 4.064.527 3.536 12.985 18.722 23.207 33.482 22.643 12.67-.48 23.375-7.374 28.844-11.766 7.298-5.85 17.997-18.097 22.362-27 .787-1.63 2.077-3.723 1.78-5.175m-85.16-17.282c-1.777 1.45-4.57 3.134-5.113 2.6-.758-.75-3.112-2.375-4.373-2.955l10.552-19.282c.434-.678.936-1.047 2.098-1.047 4.104 0 5.447 4.45 3.52 9.996-1.354 3.887-3.547 8.1-6.684 10.687" fill="#552582"/><path d="M136.68 70.116c-2.142 2.76-4.97 3.467-8.145 3.467h-.895l5.598-11.086c.267-.51.858-.91 1.592-.91.7 0 .61-1.4-.305-1.4h-8.83c-.75 0-1.01 1.4-.31 1.4.75 0 .886.834.528 1.54l-5.014 9.88c-.343.532-.898.673-1.51.838-.745.19-1.255 1.522-.413 1.522h14.09c1.09 0 1.345-.4 1.633-.79l2.836-4.39c.406-.526-.45-.6-.857-.07M179.124 60.58c-.43.24-1.438.36-1.88-.01-1.12-.93-3.33-1.65-4.488-1.65-3.32 0-5.725.657-7.172 3.79-1.23 2.677.032 4.914 2.96 6.266 1.27.59 2.95 1.358 2.306 2.88-.47 1.122-1.77 1.235-2.942 1.23-1.57-.02-3.94-1.202-4.303-3.42-.125-.726-.968-.556-1.21-.17l-2.007 3.996c-.315.53.515 1.118.842.772.675-.725 2.147-.903 2.872-.416 1.004.666 3.578 1.834 5.098 1.818 3.37-.026 5.593-.887 7.44-3.78 1.68-2.632.647-5.245-2.427-6.697-1.625-.758-3.014-2.113-2.29-3.603.48-.967 1.917-.76 2.634-.64 1.377.236 3.134 1.528 3.337 2.663.088.483.7.58.977.147l1.056-2.467c.243-.477-.535-.85-.802-.71M276.895 64.552l1.23-2.257c.54-.995-.337-2.126-1.745-2.126h-16.452c-1.182 0-.844 1.232-.36 1.232 1.058 0 1.37 1.292.728 2.384l-4.944 9.096c-.737.875-1.21 1.25-2.266 1.25-.85 0-1.153 1.236.035 1.236h16.676c.675 0 .98-.24 1.217-.58l2.267-3.01c.55-.722-.642-.722-1.005-.363-2.874 2.877-5.955 2.8-8.192 2.8h-1.94l2.275-5.102h.494c1.46 0 3.15-.02 3.6 1.1.12.265.833.48 1.128 0l1.947-3.897c.315-.576-.56-.677-.8-.262-.764 1.372-4.15 1.004-5.03 1.004h-.493l2.847-5.608h3.168c1.967 0 3.66 1.39 4.222 2.91.133.362 1.186.654 1.395.192M234.802 60.17h-5.854c-1.187 0-.833 1.232-.356 1.232 1.257 0 2.393 1.47 1.708 2.83l-2.428 4.436-5.347-7.828c-.356-.48-1.195-.715-1.924-.715h-5.758c-1.184 0-.91 1.23-.43 1.23 1.223 0 .91.916.608 1.568l-4.594 8.838c-.295.707-1.54.805-1.933-.092l-3.546-11.577c-.147-.456-2.227-.43-2.755 0l-8.902 7.344h-4.62c-.91 0-1.273.384-1.273.867 0 .488.347.933 1.31.933l2.408-.008-2.41 1.99c-1.334.99-2.703 2.37-3.627 2.37h-.55c-.876 0-1.37.144-1.37.844s.372.94 1.196.94h7.18c1.357 0 1.09-1.765.412-1.765-.746 0-1.976-.945-.832-2.275l2.193-2.096h4.32c2.562 0 4.356 2.97 2.826 3.893l-1.18.652c-.557.288-.8 1.592 0 1.592h14.03c1.048 0 .832-1.37.346-1.37-1.43 0-.754-2.073-.477-2.623l3.684-6.987 5.183 10.038c.333.63.642.942 1.248.942h1.984c.625 0 .842-.364 1.127-.847l5.893-10.654c.954-1.904 1.68-2.45 2.877-2.45.485-.005.824-1.25-.368-1.25m-39.25 7.262l5.49-4.477.024 4.477h-5.513zM151.678 59.504c-4.936 0-10.017 2.43-11.037 7.61-.88 4.51 2.238 9.18 7.753 9.18 5.243 0 10.087-3.434 11.06-8.405.974-4.997-2.744-8.386-7.775-8.386m1.402 9.494c-1.572 3.117-4.19 4.98-5.86 4.14-1.666-.838-1.746-4.046-.18-7.17 1.56-3.118 4.18-4.98 5.853-4.14 1.664.84 1.744 4.048.187 7.17M251.486 67.06h-6.335c-1.183 0-.836 1.24-.36 1.24.504 0 .97.26.97 1.063 0 2.56-1.083 3.547-3.292 3.547-2.41 0-3.285-2.93-1.655-6.52 1.035-2.296 3.783-4.443 7.036-4.443 2.002 0 3.683.43 3.93 2.303.062.46.758.46.99.026l1.51-2.698c.17-.288-.094-.63-.554-.66-.385-.026-1.257.474-1.82.054-1.274-.944-4.03-1.862-6.118-1.862-3.41 0-8.165.77-11.37 6.348-2.9 5.04 1.325 10.37 5.25 10.374 2.176.008 4.708-1.605 6.155-2.22l1.62 1.106c.233.283.745.647 1.227.647h.602c.563 0 .78-.757.997-1.24l2.483-6.027c.32-.603.142-1.04-1.267-1.04M338.354 60.58c-.425.24-1.438.36-1.872-.01-1.123-.93-3.332-1.65-4.49-1.65-3.32 0-5.73.657-7.172 3.79-1.24 2.677.03 4.914 2.96 6.266 1.275.59 2.96 1.358 2.314 2.88-.476 1.122-1.785 1.235-2.956 1.23-1.565-.02-3.935-1.202-4.303-3.42-.118-.726-.962-.556-1.2-.17l-2.01 3.996c-.317.53.51 1.118.84.772.68-.725 2.153-.903 2.882-.416.996.666 3.557 1.834 5.1 1.818 3.356-.026 5.583-.887 7.42-3.78 1.69-2.632.652-5.245-2.417-6.697-1.63-.758-3.017-2.113-2.29-3.603.47-.967 1.925-.76 2.644-.64 1.36.236 3.13 1.528 3.33 2.663.085.483.696.58.97.147l1.056-2.467c.233-.477-.538-.85-.806-.71M294.263 70.116c-2.128 2.76-4.966 3.467-8.148 3.467h-.893l5.607-11.086c.268-.51.85-.91 1.585-.91.7 0 .616-1.4-.308-1.4h-8.826c-.75 0-1.014 1.4-.313 1.4.755 0 .894.834.53 1.54l-5.014 9.88c-.343.532-.89.673-1.51.838-.744.19-1.25 1.522-.406 1.522h14.09c1.086 0 1.35-.4 1.637-.79l2.826-4.39c.417-.526-.445-.6-.857-.07M315.516 61.448c1.962 0 3.665 1.39 4.22 2.91.126.364 1.18.656 1.4.194l1.227-2.257c.528-.995-.347-2.126-1.75-2.126h-16.45c-1.19 0-.843 1.232-.358 1.232 1.062 0 1.38 1.292.733 2.384l-4.944 9.096c-.737.875-1.22 1.25-2.272 1.25-.848 0-1.147 1.236.043 1.236h16.667c.676 0 .98-.24 1.218-.58l2.267-3.01c.555-.722-.642-.722-1.006-.363-2.876 2.877-5.962 2.8-8.19 2.8h-1.945l2.284-5.102h.484c1.465 0 3.156-.02 3.598 1.1.12.265.84.48 1.135 0l1.942-3.897c.32-.576-.56-.677-.794-.262-.777 1.372-4.148 1.004-5.04 1.004h-.482l2.847-5.608h3.166z" fill="#552582"/><g transform="translate(5.348 -.705) scale(1.16058)"><defs><path d="M142.34 189.06c48.537 0 87.882-39.937 87.882-89.207 0-49.262-39.345-89.205-87.88-89.205-48.526 0-87.87 39.942-87.87 89.205 0 49.27 39.344 89.208 87.87 89.208" id="a"/></defs><clipPath id="b"><use overflow="visible" xlink:href="#a" width="300" height="200"/></clipPath><path d="M182.4 108.98c-8.207 9.96-12.863 13.37-21.2 13.37-2.84 0-4.317-.64-3.52-2.014l9.89-19.89h3.77c4.212 0 3.63 3.55 2.483 8.352-.202.672.306.71.806.127l9.4-16.523c.46-1.043-.727-1.245-1.306-.458-4.71 6.393-9.667 5.918-11.755 5.918h-1.707l10.567-20.158h4.257c5.36.332 7.86 4.886 6.307 15.864h2.232l7.763-15.306c.627-1.292-.695-2.478-2.16-2.478l-52.702.015c-3.05 0-3.19 2.342-.26 2.342 2.37 0 2.244 3.4.114 5.045l-22.372 17.765 4.52 20.974c.33 1.583 1.35 2.337 3.097 2.337h43.58c1.796 0 2.538-.73 3.117-1.48l7.89-13.628c1.093-1.962-1.44-1.835-2.814-.174m-30.356-9.576l-3.837-.022a.48.48 0 0 0-.484.48c0 .268.22.486.484.486l3.89-.037c1.317 0 2.523.17 2.187.753l-10.078 19.243c-1.25 2.293-3.9 1.707-4.32-.127l-4.99-25.79 17.55-13.608c1.74-1.497 5.098-3.938 6.812-3.91l3.823-.023c2.327-.016 3.16 1.074 2.607 2.484l-.676 1.3c-.437.73-1.81.82-2.982.82l-2.207.01a.485.485 0 0 0-.488.49c0 .27.217.484.49.484h2.176c.94 0 2.12.024 1.688.73l-8.14 15.52c-.377.606-2.068.716-3.502.716" clip-path="url(#b)" fill="#552582"/><path d="M115.867 121.92a2.39 2.39 0 0 1-2.207-1.632c-.375-1.12-.34-3.11.11-3.99l20.335-36.057c.33-.666 1.154-2.056 2.164-2.056 1.795.003 2.57-2.36-.472-2.36h-16.286c-3.043 0-3.073 2.317-.157 2.317 1.19 0 1.663 1.168 1.324 1.88l-4.497 8.154c-.563.894-1.81.963-3.122.963l-3.878-.015a.492.492 0 0 0 0 .984h3.846c1.04 0 1.87.314 1.27 1.52l-15.008 27.34c-1.08 1.506-3.234 1.842-3.112-1.04l5.337-40.04c.21-1.252-.118-2.1-1.456-2.1l-8.046.015c-.963 0-1.555.468-2.018 1.09l-2.875 3.617c-.378.375-1.185.372-2.08.372l-6.76-.012a.484.484 0 0 0-.484.485c0 .274.216.493.485.493H83.8c.98 0 2.123.226 1.708.687l-7.742 9.74c-.233.267-.982.34-1.445.34l-2.187-.003a.487.487 0 0 0-.49.485c0 .267.217.485.49.485l1.824.007c.566 0 .57.276.344.532l-7.28 9.143c-.374.352-1.1.426-1.807.426l-6.428-.008a.487.487 0 0 0 0 .974H66.3c.838 0 1.484.15 1.043.713l-10.345 12.975c-1.944 2.476-11.307 3.737-13.13 3.737L78.85 56.626c.333-.752 1.635-1.9 2.974-1.9h7.43c3.505 0 3.402-2.333.36-2.333H52.267c-3.04 0-3.163 2.332.336 2.332h6.917c1.963 0 2.594 1.186 2.092 2.157l-.993 1.8c-.326.585-.793.82-2.69.82l-12.22-.008a.486.486 0 0 0 0 .972l12.19.003c.66 0 1.652.172 1.03 1.36l-1.715 3.173c-.29.482-1.036.71-1.897.71l-5.536-.01a.488.488 0 0 0 0 .976l5.51.006c.788 0 .81.515.353 1.245l-3.936 7.316c-.337.624-.976.708-2.226.708l-2.205-.01a.488.488 0 0 0 0 .974l2.174.003c.83 0 1.048.464.676 1.255L46.9 84.18c-.482.854-1.167 1.194-3.316 1.194l-12.22-.01a.49.49 0 0 0 0 .977l12.187.004c1.377.02 1.885.624 1.347 1.61l-6.31 11.853c-.374.525-1.403.605-3.158.605l-12.22-.015a.488.488 0 0 0 0 .974l12.19.005c1.458 0 2.35.062 1.904.83l-3.627 6.837c-.67 1.042-2.543 1.042-3.273 1.042l-3.877-.01a.486.486 0 0 0-.485.488c0 .27.218.485.485.485l3.842.003c1.36 0 2.075.235 1.72.964l-4.856 9.126c-.437.813-2.335.852-3.797.852l-18.89-.016c-.262 0-.488.22-.488.493 0 .26.225.484.488.484l18.862.004c1.25 0 2.83.153 2.24 1.153l-3.09 5.826c-.292.48-1.35.522-2.874.522l-3.872-.007a.485.485 0 0 0 0 .97h3.846c.933 0 2.08.11 1.678.822l-1.938 3.72c-.624.926-1.247 1.747-2.746 1.747H7.176c-3.506 0-3.383 2.333-.34 2.333l55.66.033c1.63 0 1.68-.217 2.447-1.42l8.256-14.39 42.19.004c3.046.006 2.262-2.29.477-2.35m-33.095-4.286c-.413 2.374-2.802 3.942-5.808 4.742l-3.097.77 2.546-4.586c.67-1.247-.8-1.982-2.4-.127C63.24 130.987 59.8 136.99 43.185 137.036l-4.466.008c-1.35 0-2.833-.527-1.916-1.818l5.877-10.952 22.33.004c3.047 0 2.265-2.297.475-2.356-1.182-.04-2.474-.717-3.387-2.162-.258-.4-.813-1.99.056-3.215l8.55-11.366H84.92l-2.148 12.454zm3.216-14.37H72.124l17.54-23.134-3.676 23.135zM296.978 110.42c-.228-1.144-.64-.448-1.393.992-.23.434-.963.448-1.695.448l-2.226.008a.49.49 0 0 0-.492.493c0 .262.22.48.492.48h2.196c.828 0 .847.556.455 1.392-1.538 3.27-3.118 5.463-5.22 8.092-.33.41-1.173.77-1.84.77l-2.245.015a.484.484 0 0 0-.485.488c0 .265.216.485.485.485h2.195c1.105 0-.015.676-.202.926-3.89 5.193-6.575 7.512-9.432 9.838-.335.27-1.948.172-3.08.165l-2.21.007a.493.493 0 0 0 0 .986h2.185c1.665 0 .41.956.164 1.16-6.072 5.057-15.102 6.68-19.238 6.166-13.416-1.68-16.184-11.867-17.177-15.938-.2-.85-.848-2.6-1.06-3.674-.415-2.128 5.638-2.733 7.31-1.613 2.532 1.695 8.447 3.436 13.1 3.45 4.302.016 13.11-3.11 15.657-10.5 2.61-7.56-3.94-15.955-6.845-18.85-3.69-3.696-7.185-9.577-5.71-13.894 1.11-3.258 2.962-4.734 6.935-4.734 5.134 0 8.864 3.3 8.864 7.982 0 .422-.25.915-.59.915l-1.814.007a.49.49 0 0 0 0 .982l1.702-.004c.482 0 .784.364.657.952-.327 1.564-.44 2.666-.78 4.238-.204.91 1.133 1.54 1.596.877l8.07-14.407c.585-1.087-.715-1.378-1.67-1.04-2.21.76-5.803 1.296-7.076.377-3.018-2.164-5.77-3.55-9.974-3.55-7.177 0-12.2 1.76-15.42 7.665-.252.463-.957.456-1.56.456h-1.377a.485.485 0 0 0 0 .97l1.172-.01c.5 0 .836.142.586.726-.22.532-.422 1.087-.608 1.667-.814 2.558-.55 6.144.73 9.337.083.214-.192.313-.686.313h-2.192a.49.49 0 0 0-.49.493c0 .27.218.485.49.485h2.192c.993.005 1.232.11 1.643.687 1.136 1.594 2.293 2.776 3.75 4.632.462.577-1.498.74-2.54.734l-8.692-.004a.485.485 0 0 0-.485.49c0 .268.21.488.485.488l8.8-.012c1.416 0 3.843-.02 4.116.29 2.125 2.462 4.7 6.245 5.143 9.43.123.922-.22 1.307-1.353 1.307h-1.18a.482.482 0 0 0-.485.485c0 .27.217.485.485.485h1.042c.9 0 1.386.15 1.176.822-1.143 3.644-2.853 6.284-9.82 6.247-7.304-.042-8.79-7.203-6.653-14.675.418-1.482-.02-2.125-.688-.952l-5.086 7.986c-.122.19-.61.647-1.388.647l-.717-.004a.487.487 0 0 0 0 .974c.643 0 .896.344.643.702l-1.856 2.904c-3.08-7.027-8.226-15.683-10.97-18.833l.048-.15c6.777-.414 16.766-6.758 18.41-12.432 2.837-9.84-6.723-13.478-11.936-13.478l-22.9.004c-3.043 0-3.267 2.31-.347 2.31 1.58 0 2.957 1.38 2.263 2.776l-5.07 9.14c-.42.75-1.998.705-4.04.705h-2.223a.49.49 0 0 0 0 .98h2.185c1.46 0 3.07.085 2.524 1.132l-5.997 10.825c-.288.504-1.068.545-3.107.545l-2.21.004a.5.5 0 0 0-.493.5c0 .26.22.486.492.486h2.158c1.613 0 2.21.213 1.748 1.042l-8.01 14.492c-.956 1.037-2.095 1.235-4.05 1.235-2.922 0-2.892 2.315.155 2.315h19.61c3.048 0 2.274-2.356.47-2.356-1.048 0-2.168-1.94-1.462-3.103l10.012-18.964h1.02c4.45 0 5.53 7.307 6.362 15.28.063.575-1.023.598-3.245.598l-5.564.02a.485.485 0 0 0-.49.484c0 .265.218.49.49.49h5.5c1.468 0 3.51.014 3.563.477.38 3.503.667 6.583 1.343 9.39.206.875-1.355.737-3.024.737l-7.092.007a.49.49 0 0 0-.49.484c0 .276.218.493.49.493l7.084.008c2.225 0 3.375 0 3.502.455 3.047 11.188 16.13 19.996 28.85 19.51 10.917-.414 20.14-6.354 24.853-10.138 6.288-5.04 15.507-15.593 19.268-23.263.678-1.406 1.79-3.21 1.533-4.46m-73.376-14.892c-1.53 1.25-3.94 2.7-4.406 2.24-.653-.646-2.68-2.046-3.768-2.546l9.092-16.614c.374-.584.807-.902 1.808-.902 3.536 0 4.693 3.835 3.032 8.614-1.166 3.35-3.055 6.98-5.758 9.208" clip-path="url(#b)" fill="#552582"/><path d="M113.16 61.022c-1.845 2.38-4.283 2.987-7.018 2.987h-.77l4.823-9.553c.23-.44.74-.784 1.37-.784.604 0 .527-1.205-.26-1.205h-7.61c-.645 0-.87 1.205-.268 1.205.648 0 .765.72.456 1.327l-4.32 8.512c-.295.46-.773.58-1.3.723-.642.164-1.082 1.31-.356 1.31h12.14c.94 0 1.16-.343 1.407-.68l2.444-3.782c.35-.453-.387-.518-.738-.06M149.732 52.806c-.37.207-1.24.31-1.62-.008-.966-.803-2.87-1.422-3.867-1.422-2.86 0-4.933.565-6.18 3.265-1.06 2.307.028 4.235 2.55 5.4 1.094.508 2.543 1.17 1.988 2.48-.405.968-1.525 1.065-2.535 1.06-1.354-.016-3.395-1.035-3.708-2.947-.108-.624-.834-.478-1.043-.146l-1.73 3.444c-.27.457.445.964.727.666.58-.625 1.85-.778 2.474-.358.865.573 3.083 1.58 4.393 1.566 2.904-.022 4.82-.764 6.41-3.256 1.45-2.27.56-4.52-2.09-5.77-1.4-.654-2.597-1.82-1.973-3.105.413-.833 1.652-.654 2.27-.55 1.186.202 2.7 1.315 2.875 2.293.076.416.604.5.842.127l.91-2.126c.208-.41-.462-.732-.692-.61M233.975 56.228l1.06-1.945c.464-.857-.29-1.832-1.504-1.832h-14.174c-1.02 0-.728 1.064-.31 1.064.91 0 1.18 1.113.627 2.054l-4.26 7.837c-.635.754-1.042 1.076-1.953 1.076-.73 0-.993 1.067.03 1.067h14.368c.582 0 .844-.206 1.05-.5l1.952-2.593c.474-.622-.553-.622-.866-.313-2.476 2.48-5.13 2.415-7.058 2.415h-1.673l1.96-4.397h.427c1.258 0 2.714-.017 3.103.948.1.228.717.413.97 0l1.678-3.358c.273-.497-.48-.584-.69-.226-.656 1.182-3.573.865-4.33.865h-.427l2.453-4.832h2.73c1.694 0 3.154 1.197 3.637 2.507.115.312 1.022.564 1.202.166M197.706 52.45h-5.044c-1.023 0-.718 1.064-.307 1.064 1.083 0 2.062 1.266 1.472 2.437l-2.092 3.824-4.607-6.745c-.307-.414-1.03-.617-1.658-.617h-4.962c-1.02 0-.784 1.06-.37 1.06 1.053 0 .784.79.523 1.35l-3.957 7.616c-.254.608-1.326.692-1.666-.08l-3.055-9.976c-.127-.394-1.92-.372-2.374 0l-7.67 6.327h-3.98c-.784 0-1.098.332-1.098.748 0 .42.3.803 1.128.803l2.076-.006-2.076 1.716c-1.15.853-2.33 2.042-3.126 2.042h-.474c-.755 0-1.18.123-1.18.726 0 .605.32.81 1.03.81h6.187c1.17 0 .938-1.52.355-1.52-.643 0-1.703-.814-.717-1.96l1.89-1.806h3.722c2.207 0 3.753 2.558 2.435 3.354l-1.016.562c-.48.25-.69 1.373 0 1.373h12.087c.905 0 .72-1.18.3-1.18-1.232 0-.65-1.786-.41-2.26l3.174-6.02 4.466 8.65c.287.543.553.81 1.075.81h1.71c.538 0 .725-.313.97-.73l5.08-9.18c.82-1.64 1.448-2.11 2.478-2.11.418-.005.71-1.08-.317-1.08m-33.818 6.26l4.728-3.858.022 3.857h-4.75zM126.083 51.878c-4.253 0-8.63 2.095-9.51 6.557-.76 3.885 1.928 7.91 6.68 7.91 4.517 0 8.69-2.96 9.53-7.242.84-4.305-2.365-7.225-6.7-7.225m1.208 8.18c-1.353 2.686-3.608 4.292-5.05 3.57-1.433-.724-1.502-3.488-.152-6.18 1.342-2.687 3.6-4.29 5.042-3.567 1.434.724 1.503 3.49.16 6.18M212.082 58.388h-5.46c-1.02 0-.72 1.068-.31 1.068.434 0 .837.226.837.917 0 2.207-.935 3.056-2.84 3.056-2.075 0-2.83-2.525-1.425-5.62.892-1.977 3.26-3.827 6.063-3.827 1.726 0 3.174.372 3.387 1.985.053.397.653.397.852.022l1.303-2.325c.146-.248-.082-.543-.478-.57-.332-.02-1.083.41-1.568.048-1.098-.813-3.473-1.604-5.272-1.604-2.938 0-7.035.662-9.798 5.468-2.498 4.344 1.143 8.935 4.525 8.94 1.874.006 4.055-1.384 5.302-1.913l1.396.952c.2.244.642.558 1.057.558h.52c.484 0 .67-.653.858-1.07l2.14-5.192c.276-.52.123-.895-1.09-.895M286.93 52.806c-.366.207-1.24.31-1.613-.008-.967-.803-2.87-1.422-3.868-1.422-2.86 0-4.938.565-6.18 3.265-1.07 2.307.025 4.235 2.55 5.4 1.098.508 2.55 1.17 1.993 2.48-.41.968-1.538 1.065-2.547 1.06-1.348-.016-3.39-1.035-3.707-2.947-.103-.624-.83-.478-1.035-.146l-1.733 3.444c-.272.457.44.964.725.666.586-.625 1.855-.778 2.483-.358.858.573 3.065 1.58 4.395 1.566 2.89-.022 4.81-.764 6.393-3.256 1.456-2.27.56-4.52-2.083-5.77-1.404-.654-2.6-1.82-1.972-3.105.403-.833 1.657-.654 2.277-.55 1.173.202 2.696 1.315 2.868 2.293.074.416.6.5.836.127l.91-2.126c.202-.41-.463-.732-.694-.61M248.94 61.022c-1.834 2.38-4.28 2.987-7.02 2.987h-.77l4.83-9.553c.233-.44.733-.784 1.368-.784.604 0 .53-1.205-.266-1.205h-7.605c-.646 0-.874 1.205-.27 1.205.65 0 .77.72.456 1.327l-4.32 8.512c-.295.46-.766.58-1.3.723-.642.164-1.08 1.31-.35 1.31h12.14c.936 0 1.163-.343 1.41-.68l2.435-3.782c.36-.453-.383-.518-.738-.06M267.252 53.553c1.69 0 3.158 1.197 3.637 2.507.107.314 1.015.566 1.205.168l1.057-1.945c.455-.857-.3-1.832-1.51-1.832H257.47c-1.024 0-.726 1.064-.308 1.064.915 0 1.188 1.113.63 2.054l-4.26 7.837c-.634.754-1.05 1.076-1.956 1.076-.73 0-.99 1.067.037 1.067h14.36c.583 0 .845-.206 1.05-.5l1.953-2.593c.48-.622-.553-.622-.866-.313-2.48 2.48-5.138 2.415-7.058 2.415h-1.676l1.968-4.397h.418c1.262 0 2.72-.017 3.1.948.104.228.724.413.978 0l1.673-3.358c.276-.497-.48-.584-.683-.226-.67 1.182-3.574.865-4.343.865h-.415l2.453-4.832h2.727z" clip-path="url(#b)" fill="#552582"/></g><path d="M250.72 48.135c-1.266-1.46-3.013-4.56-15.557-15.493-18.457-16.082-42.904-23.42-65.87-23.42-16.924 0-31.746 3.802-48.156 12.833-20.906 11.51-29.566 24.738-31.705 27.432-1.586 1.976-1.812 3.133-.787 3.73.732.414 2.14-1.124 3.456-2.86 6.22-8.213 14.397-16.36 23.006-21.154 2.677.39 6.423 4.12 7.877 6.098-5.5 3.003-14.634 9.96-18.09 12.637-2.984 2.31-4.016 3.61-3.21 4.55.676.78 2.957-.754 4.87-2.32 3.304-2.717 13.13-9.68 17.992-12.297 3.312 3.874 2.243 11.03 1.075 12.585-.63.834-.724 1.72 0 2.13.674.385 1.42-.597 2.384-1.99 2.25-3.257 1.348-11.142-.587-13.983 5.93-3.683 14.445-6.145 19.605-7.308.436.825 6.69 19.087 7.88 22.405.647 1.814 1.295 3.988 2.62 3.58.89-.265.303-2.26-.434-4.255-.915-2.477-5.645-17.82-7.098-22.362 1.702-.923 11.97-3.007 14.54-2.902-1.26 6.68 3.47 9.414 8.804 12.924 2.844 1.864 20.886 12.234 24.663 14.563 2.15 1.335 3.823 2.18 4.278 1.553.534-.72-.927-2.227-2.916-3.39-1.587-.928-18.376-10.668-25.39-15.1-5.024-3.173-7.728-6.574-6.526-11.037 1.656-.482 6.715-.52 11.974-.482 35.793.29 64.498 20.81 67.706 24.098 1.628 1.67 3.89 3.1 4.766 2.427.554-.426-.404-2.313-1.17-3.19m-124.812-14.14c-.962-1.61-5.513-5.764-7.974-6.58 5.742-4.26 19.068-10.348 24.127-11.423.87 1.452 3.21 7.65 3.985 10.264-4.472.966-16.343 5.222-20.137 7.74m39.103-11.52c-4.662.296-13.13 2.13-16.144 3.004-.78-2.03-2.914-8.33-3.596-10.357 8.585-2.437 18.573-3.284 26.265-2.615-2.144 1.642-5.737 8.13-6.524 9.967m23.254-.288c-7.766-.545-14.106-.767-19.654-.19 1.61-4.048 4.814-7.833 7.305-9.49 5.284.216 10.745.988 15.075 1.843 13.845 2.73 35.374 11.174 44.658 23.62-12.37-8.252-32.91-14.75-47.384-15.783M258.468 170.695c1.327-2.436 2.405-3.823 1.265-4.455-1.04-.572-2.045 1.68-3.306 3.87-4.183 7.268-8.75 13.256-19.07 22.653-11.427 10.413-24.56 16.46-29.137 18.006-3.887-10.94-18.722-57.525-19.116-58.856-.58-1.99-1.08-2.557-1.75-2.327-.755.272-.29 1.366.1 3.103s18.05 56.878 18.63 58.81c-3.51 1.74-17.733 5.722-27.68 6.042-8.857.295-19.263 0-24.517-1.21-6.16-4.97-20.164-24.747-25.485-35.283-6.263-12.404-10.412-23.814-11.48-28.663-.515-2.318-1.172-3.99-2.338-3.76-1.252.238-.533 2.066.2 4.554 1.88 6.38 4.955 15.42 11.48 28.31 6.914 13.65 19.258 29.662 22.857 34.025-11.28-2.375-24.987-7.644-38.01-17.37-11.222-8.354-20.86-19.01-25.712-26.772-.825-1.333-1.807-3.216-3.01-2.417-.542.355.126 1.872.968 3.384 7.043 12.65 24.212 30.547 46.214 40.367 25.64 11.45 53.597 10.84 78.602 1.16 21.87-8.47 40.895-25.89 50.296-43.172" fill="#231f20"/></svg>