<svg xmlns="http://www.w3.org/2000/svg" width="250" height="187" viewBox="0 0 250 187"><path fill="#010101" d="M155.45 127.902c0 1.606 1.155 3.112 2.562 3.112 1.407 0 2.56-1.506 2.56-3.112 0-1.612-1.152-3.12-2.56-3.12-1.407 0-2.56 1.508-2.56 3.12M82.46 148.728c-.074-1.888-.682-2.46-1.566-2.656v5.445c.328-.104.646-.26.9-.498.485-.46.71-1.232.667-2.292M87.347 155.422c1.304 1.086 2.307 2.462 2.9 3.776l-.042-8.938c-.5 2.238-1.723 3.994-2.858 5.162M107.7 142.045l-.61 4.375-.41 2.943-2.24-1.95-2.197-1.91-3.394-.034c.02 1.69.057 4.437.08 6.103h8.558l-1.075 2.29-2.38 5.09-.62 1.323-1.377-.486-3.107-1.092-.084 8.126 2.693-.042 4.428-3.005 2.52-1.705v8.406l.49-1.082-.174-25.016-1.104-2.335zM159.228 147.205c-.017 0-.163.048-.39.313-.978 1.12-2.042 4.38-2.042 8.912 0 6.117 1.807 9.322 2.432 9.322.287 0 .574-.273.726-.44.822-.94 1.706-4.73 1.706-8.882 0-4.533-1.053-7.798-2.032-8.906-.232-.268-.378-.32-.4-.32M117.555 169.61l1.176 2.425.48.985.33-.867.808-2.077-2.908-5.878zM117.752 145.854a2017.74 2017.74 0 0 0-.156 5.698c1.045-.565 1.625-1.78 1.71-3.66.022-.426-.184-1.225-.704-1.67-.11-.094-.35-.297-.85-.368M81.683 160.034a2.863 2.863 0 0 0-.907-.434v7.085c.37-.078.72-.208.957-.408.61-.52 1.31-1.355 1.392-3.247.05-1.344-.75-2.456-1.442-2.996M47.99 142.63l-1.513-1.916-.882-1.117-.484.886-1.184 2.184v25.538l.104.318z"/><path fill="#010101" d="M236.524 167.975c-.41 1.624-1.648 6.55-7.676 8.03-5.712 1.404-9.85-2.133-11.075-3.353v1.685H197.66l.636-2.085 1.282-4.213-.112-22.956-8.02 30.044-.338 1.274h-2.447l-.33-1.292-8.364-32.365-1.503-1.798-.93 1.742v24.108l.283-.01 4.44-3.013 2.515-1.705v12.265H167.04l.68-2.107 1.284-3.982c-.006-.537-.006-1.936-.017-3.79-.647 2.792-1.717 5.107-3.214 6.81-1.81 2.04-4.112 3.12-6.674 3.12-2.565 0-4.867-1.08-6.668-3.117-2.477-2.817-3.816-7.27-3.912-12.89l-3.32 16.643-.27 1.38h-2.42l-.405-1.157-3.213-9.13-3.225 9.13-.4 1.156h-2.408l-.286-1.365-5.58-27.15c0 .905-.063 1.904-.23 2.99-.452 2.958-2.142 5.004-3.29 6.1l7.22 15.064 1.108 2.308h-25.063l.005-.01H88.375l.633-2.086 1.29-4.213-.007-.688c-.515 1.503-1.288 2.873-2.316 3.945-3.33 3.47-8.622 3.256-12.122 3.118-.594-.025-1.147-.05-1.61-.05h-1.568v-.02h-8.552l-.147-1.448-1.023-10.166-3.305 12.397-.346 1.274h-2.436l-.338-1.29-3.068-11.887-.97 9.674-.15 1.45H40.026l.01-.012h-6.6l.684-2.107 1.282-3.98-.124-25.585-.245-.45-.082.67-.39 2.89-2.238-1.866-3.126-2.594-.248 28.054 1.564 4.85.683 2.106H18.26l.68-2.102 1.54-4.81-.12-28.332-.082.003-3.405 2.826-2.24 1.866-.386-2.89-.995-7.452-.24-1.826H36.18l-.242 1.826-.357 2.67h20.934l.23 1.338 1.532 8.81 1.562-8.815.234-1.33h8.936c-.003-.003-.006-.012-.006-.012l2.513-.074.96-.028c1.99-.063 5.317-.166 7.393-.076 2.112.084 8.848.962 10.324 8.054l-.017-1.852-1.57-3.776-.934-2.234H108.25l-.008.048h9.181c2.238 0 4.29.518 5.728 1.4l-1.204-1.336H134.316l.197 1.39 1.503 10.696 1.312-5.142 1.406-5.534 1.688 5.45 1.604 5.17 1.125-10.587.158-1.444h12.168l-2.313 2.668-1.502 1.73-.31 1.56c.63-1.262 1.345-2.373 2.14-3.28 1.653-1.87 3.59-2.857 5.603-2.857 4.514 0 8.273 4.983 9.826 12.215l-.017-5.79-.022-1.664-1.644-2.08-2.06-2.613h23.14l.22 1.348 1.53 9.267 1.56-9.272.225-1.342h25.679l-.26 1.832v.03c1.222-3.26 3.568-5.444 6.782-6.227 6.708-1.653 11.267 3.52 11.458 3.746l.692.808-.468.957-3.562 7.204-1.802 3.65-1.188-3.893-1.282-4.21c-.22-.21-.664-.54-1.222-.553-.884-.022-1.316.27-1.57 1.04-.388 1.223-.096 3.037.293 3.8.71 1.407 2.082 2.698 3.68 4.198 1.863 1.753 3.974 3.73 5.64 6.49 1.502 2.468 3.06 5.955 1.8 11M26.58 117.91l10.397-17.814-3.493-.785 11.652-21.433 6.99 21.77-3.615.48 5.792 17.814-12.096-.014-3.64 10.608H24.658l5.957-10.62-4.035-.004zm31.272 4.477h.02l2.828 6.45 2.907-6.45h.02l2.386 10.842h-2.238l-.767-4.88h-.028l-2.348 5.063h-.03l-2.14-5.054h-.024l-.77 4.87h-2.276l2.46-10.843zm8.996-42.202l5.323 16.57-2.75.366 4.767 13.584h-3.67l1.55 7.17h-3.162l-8.823-14.853s.51-.066 1.167-.224c.62-.152 1.38-.392 1.965-.74l-2.637-4.854.058-.104-.134-.036-1.41-2.598 7.756-14.28zm10.33 52.976h-2.222v-10.65h2.222v10.65zm9.837-10.773h.03l5.86 5.896v-5.77h2.22v10.9h-.024l-5.86-6.017v5.766h-2.224v-10.775zm-8.79-23.063s.39-.045.89-.17c.475-.114 1.05-.297 1.497-.567l-2.324-4.28 6.118-11.255 4.37 13.6-2.26.3L90.43 108.1h-3.01l2.11 9.777h-4.45l-2.63-4.972.125-.022c.498-.082 2.383-.42 3.178-.895l-7.528-12.664zM75.167 75.65s2.376-12.36 11.842-19.713c0 0 1.742-.74-8.45-.93 0 0 4.386-5.795 11.592-9.048 0 0-4.523-.792-8.477-.372 0 0 3.192-6.137 14.217-7.83l.882-.145c-.712-1.26-2.482-.74-3.184-1.967-.38-.67 9.7-3.096 9.327-3.754-.443-.785-8.966-2.88-9.41-3.647-.25-.444 3.073-1.846 2.822-2.29-.234-.403-2.093-1.41-3.773-2.553-1.667-1.13-3.154-2.397-3.313-2.355-1.46.357.458 14.534.536 15.293.008.08-1.46.377-1.46.377-.805-.8-7.357-20.465-5.917-23.93.208-.505 1.075-.232 4.236 2.182 13.3 10.154 24.863 12.684 24.863 12.684.334-2.673 0-6.345 0-6.345 5.177 2.005 8.18 7.68 8.18 7.68l.173-.5c.778-2.354.998-5.678.998-5.678 2.503 1.503 4.927 5.543 4.927 5.543s.813 8.14-1.27 12.474c-1.182 2.464-5.12 4.01-8.663 3.806 0 0 .957 1.277 2.43 2.34.89.648 2.593 1.3 2.593 1.3s-3.115 2.252-10.22.693c-.637.066 3.524 4.155 9.535 6.713 2.878 1.227 4.292 5.906.544 5.94 0 0 3.073 3.51 3.356 6.058l.476 2.542c-1.144-1.61-2.818-2.14-4.156-2.282a8.32 8.32 0 0 0-.88-.05h-.105a7.2 7.2 0 0 0-.68.036c0 .002-.01.002-.01.002-.15.014-.286.048-.425.073-.088.023-.187.032-.267.055-.144.037-.27.084-.4.135-.064.023-.136.042-.193.068a3.823 3.823 0 0 0-.415.21c-.025.015-.058.026-.083.046-.747.445-1.096.977-1.104.988h.005c1.047-.158 1.663-.29 3.464.313 5.77 1.944 5.023 9.837 5.383 11.11.005-.023-1.484-1.073-3.527-1.073-.185 0-.36.03-.54.064-.2.03-.4.084-.59.155-.022.01-.046.015-.066.023a3.71 3.71 0 0 0-.515.25c-.035.02-.07.037-.1.062-.152.09-.29.19-.425.304-.05.04-.096.08-.142.12-.11.104-.22.21-.322.327-.06.067-.116.14-.17.214-.075.096-.15.195-.215.3-.07.112-.128.224-.184.342-.042.08-.085.152-.117.23-.073.17-.124.344-.167.52-.01.033-.024.064-.032.098a3.225 3.225 0 0 0-.072.653c0 .906.29 1.668.66 2.29.35.58.775 1.04 1.1 1.37.418.413.83.877.835 1.113.01.155-.144.21-.56.107l-.004-.003h-.003c-2.53-.633-5.4-3.352-5.59-7.62-.156-3.47.746-5.262 1.893-5.675.087-.028.184-.057.29-.08.01.004.025.012.034.012 2.016-.476 4.616 1.2 4.616 1.2l-.002-.006v.006s-.288-.58-.936-1.232a6.205 6.205 0 0 0-3.095-1.71 4.128 4.128 0 0 0-1.78-.01c-1.673.378-3.006 1.86-3.91 3.938-.382.867-.68 1.93-.8 3.126-.04.4-.066.81-.063 1.238.014 1.033.165 2.145.514 3.315.84 2.82 1.723 6.16 2.73 8.198 3.823 7.704 3.996 12.566 3.765 17.05-.008.157.003.292.006.436.003.155-.002.318.01.465.01.125.037.24.054.36.024.156.046.316.08.463.027.11.065.205.1.31a3.185 3.185 0 0 0 .28.684c.065.132.134.26.214.383.05.076.104.146.16.22.085.118.175.233.273.34.057.063.12.124.178.184.107.104.217.202.335.3.06.05.124.103.187.147.124.097.257.178.39.263a4.52 4.52 0 0 0 .642.348c.058.03.113.063.173.088.176.073.357.144.536.21.045.016.083.035.125.047a10.595 10.595 0 0 0 1.63.407c.143.025.28.05.42.07.115.018.23.03.345.043l.308.04c.13.01.257.02.384.032.08.003.16.012.24.018.14.008.277.017.41.02.332.014.648.022.93.022 4.668 0 6.3-2.716 6.57-6.356.31-4.2-.4-9.28 3.765-16.674 1.582-2.797-1.328 2.17-1.514 10.16-.186 7.62-.034 15.976-9.722 16.164v.003c-.488.01-.978.017-1.514-.014 0 0-3.726-.05-5.858-2.964a8.78 8.78 0 0 1-.974-1.765c-1.666-3.894-1.158-9.178-2.136-12.425-.927-3.082-2.296-5.884-3.32-7.747-.783-1.435-1.362-2.313-1.368-2.33v.025c-.058 1.475.006 3.773 1.21 6.33 1.275 2.717 1.4 5.8 1.413 6.727l.003.132c0 .113-.003.17-.003.17-1.078-1.017-2.722-1.287-2.725-1.287.025.057.053.14.08.21.383.998.803 3.038 1.227 5.92.063.438.13.896.194 1.375.302 2.273 1.077 4.238 1.655 5.476.124.27.245.52.346.712h-.002s.003 0 .003.003h-11.51l-4.22-7.968h.004c.008 0 .05-.006.102-.017.408-.067 1.956-.347 2.604-.734l-6.175-10.39s.316-.043.73-.142c.392-.093.864-.242 1.23-.462l-11.3-20.792L76.74 91.47l-2.018-3.722-1.196-2.372s.71-6.492 1.64-9.725m62.563 49.987c0-2.08 1.643-3.25 3.263-3.25 1.03 0 2.077.447 2.87 1.207l-1.22 1.82c-.508-.525-.89-.8-1.582-.8-.394 0-.978.274-.978.828 0 1.675 4.007.59 4.007 4.452 0 2.363-1.57 3.518-3.44 3.518-1.107 0-2.256-.38-3.1-1.24l1.328-2.005c.416.574 1.02.848 1.683.848.462 0 1.183-.26 1.183-.932 0-1.65-4.014-.667-4.014-4.446m4.187-67.753l1.44-.99s1.137 2.476-1.44 4.426c-2.702 2.042-4.436-.903-4.436-.903l1.178-.816s.996.91 2.358.274c1.356-.63.9-1.99.9-1.99m-13.096 52.36c2.06-.193 1.374-3.393 1.374-3.393.394.485.98 1.368.98 2.933 0 2.556-1.374 3.242-1.66 3.242-.3 0-1.02-.492-1.02-1.67 0-1.177.326-1.11.326-1.11m-8.462-18.822c.27-.636 1.808-.275 2.168.45.72-.726 1.72-.366 2.17.09.453-.456 1.445-.816 2.17-.09.353-.726 1.892-1.086 2.173-.45 0 0 0 1.44-.912 2.344 0 0-.542-1.173-.998-1.267 0 0-.897 1.18-1.26 1.632l-1.175-1.45-1.17 1.45c-.364-.453-1.272-1.632-1.272-1.632-.45.093-.996 1.267-.996 1.267-.9-.903-.9-2.344-.9-2.344m-.943 15.43s-.687 3.198 1.37 3.393c0 0 .324-.067.324 1.11 0 1.178-.715 1.67-1.012 1.67-.29 0-1.666-.687-1.666-3.242 0-1.565.59-2.448.984-2.932m-1.245-10.356s-1.355-.815-1.355-3.252c0-3.17 1.354-3.802 1.354-3.802.54-.18.815.096 1.27.456.45.36.63 1.266.63 1.266s-.985.273-1.717 1.44c-.723 1.177-.184 3.892-.184 3.892m9.175 17.7c-.483.593-1.175 0-1.175 0s-.583.492-1.372.098c-.777.395-1.368-.1-1.368-.1s-.687.595-1.176 0c-.933-1.115-.297-2.838-.297-2.838s.2 1.857 1.377 1.96l.784-1.377.68 1.473.687-1.474.787 1.375c1.175-.102 1.372-1.96 1.372-1.96s.636 1.724-.3 2.84m-2.456-6.398v-.036c-3.61-.18-5.054-3.79-5.235-6.86-.18-3.07.45-4.242 2.164-4.333 1.717-.093 2.53 2.074 2.62 2.978.092.906.452 1.717.452 1.717v.036s.36-.816.448-1.722c.093-.896.906-3.062 2.623-2.972 1.717.084 2.342 1.26 2.167 4.327-.18 3.07-1.627 6.68-5.24 6.867m6.145-15.192c-.72-1.168-1.716-1.44-1.716-1.44s.186-.907.636-1.267c.45-.36.726-.636 1.26-.456 0 0 1.357.63 1.357 3.802 0 2.437-1.357 3.252-1.357 3.252s.546-2.715-.18-3.89m-17.995 29.905v10.902h-.026l-5.87-6.017v5.766h-2.21v-10.773h.02l5.862 5.896v-5.77h2.224zm14.366 4.177v2.23h-2.312v2.022h3.514l-.546 2.228h-5.187v-10.535h5.07l.388 2.23h-3.238v1.825h2.312zm9.21-78.744c.226 1.314.653 2.656.907 2.243.676-1.123 4.937-3.228 4.937-3.228s-1.52 2.645-.855 2.246c.923-.552 3.15.583 3.15.583-6.29 2.45-11.26 5.28-13.202 9.007-.22-1.756 4.846-12.165 5.065-10.85m26.18 79.955c0 3.07-2.172 5.512-4.783 5.512s-4.777-2.442-4.777-5.513 2.166-5.514 4.777-5.514 4.784 2.443 4.784 5.513m4.176-20.592l-2.843.188-1.042 10.377H151.76l3.545-6.693 1.778-3.363-2.69-.422 4.312-7.248 2.088-3.543-2.285-.296 7.198-13.245 2.172 13.023-2.307.304 1.402 10.918zm-22.45-79.293c8.148-2.715 20.49-11.706 20.575-11.77 3.787-3.12 5.025-4.095 5.745-3.757.5.236.676.712.676 1.052 0 0-2.864 15.046-8.914 24.427 0 0 5.313 1.925 8.03 6.337 0 0-5.64-.118-8.43.447 2.893 1.734 9.73 8.03 11.65 11.425-5.65-.906-11.505-.51-11.505-.51.45.403 3.286 3.425 3.78 3.85 5.488 4.675 10.38 11.81 10.16 23.238l-.52-3.16c-2.813-10.068-7.906-15.825-12.83-20.02-.906-.772-5.7-4.565-6.444-5.263 0 0 3.455-.473 4.693-.675 2.036-.34 6.083-.115 8.143-.06-3.563-3.868-12.026-9.566-12.1-9.617l-.687-.338c3.404-1.13 9.714-.81 9.955-.788 0 0-2.424-2.606-6.268-4.412 6.46-9.716 8.71-22.852 8.762-22.85-.04-.002.788-1.468-2.932 1.923-.377.278-4.16 3.51-9.11 8.205l1.912 3.005a86.064 86.064 0 0 1-10.822 1.97l4.89 4.82c-4.53-1.975-8.424-5.09-13.24-5.66 1.735-.645 3.22-1.247 4.83-1.818m26.9 97.01l.57-2.394h6.11v2.396h-2.16v8.135h-2.218v-8.134h-2.3zm11.848-44.84l3.326 16.205-2.814.37 2.116 13.722-3.46.23-.716 7.164H168.78l1.81-3.424 2.168-4.098-3.28-.51 5.25-8.835 2.55-4.312-2.786-.366 8.778-16.147zm12.482 52.976h-2.25l-.913-2.008h-3.41l-.9 2.01h-2.156l4.783-10.775h.022l4.822 10.774zm1.356-33.59l-3.658-.48 11.53-21.214 7.857 21.77-3.41.454c1.846 3.935 6.077 13.54 7.8 16.715l-3.574.712 5.33 11.253c-2.442.95-4.227 3.928-4.227 3.928l-4.83.073-5.728-14.842-17.092-.065 10.002-18.304zm39.862 49.723s6.005-12.605 6.02-12.646c-.027-.04-.09-.118-.09-.118l-.27-.35c-.236-.296-5.808-7.227-12.572-8.084l-.776-.076-3.687-6.965 1.104-.24c1.366-.283 2.413-.626 2.965-.958 0 0 .13-.076.202-.12-.045-.068-9.798-16.487-9.798-16.487l1.074-.304c.782-.22 1.396-.437 1.772-.628 0 0 .146-.07.22-.11-.063-.123-18.29-33.637-18.358-33.77-.13.223-12.05 22.146-12.05 22.146s-9.538-17.55-9.617-17.683c-.066.13-3.065 5.643-3.065 5.643l-.383-2.513c-.35-2.308-1.002-4.463-1.925-6.402-1.126-2.358-2.915-5.073-5.33-8.07l-1.53-1.908 2.387.532c2.12.476 3.753 1.22 3.944 1.312 0 0 2.16 1.047 2.308 1.117-.05-.27-.5-2.515-.5-2.515-.732-3.7-2.65-7.175-5.713-10.33l-2.07-2.104 4.062.955 3.017.887a1290.28 1290.28 0 0 0-1.554-2.744c-2.59-4.567-5.37-7.094-7.254-8.408l-.558-.39.26-.634c4.39-10.76 6.612-19.008 6.612-24.512 0-4.508-1.503-5.86-2.155-6.233l-.344-.196s-.057-.034-.08-.05c-.033.01-.483.11-.49.11-1.23.275-4.304 2.31-11.058 6.9-3.613 2.466-7.704 5.257-10.63 7.005-3.855 2.312-6.687 3.316-8.386 3.752l-.76.19-.254-.736c-.528-1.47-.838-3.652-.91-5.16 0 0-.097-2.06-.108-2.2l-1.857 1.18c-1.192.767-2.712 2.486-4.395 4.984l-.682 1.02-.72-1.003c-2.24-3.118-4.84-5.16-4.94-5.242l-2.92-2.268c.1.388.893 3.587.893 3.587l.015.01.032.596-.115 2.63-1.3-.98c-2.483-1.872-5.403-3.588-5.728-3.78l-2.18-1.28c.027.273.127 1.193.127 1.193l.324 3.11-1.518-1.02c-3.47-2.324-7.406-3.568-7.853-3.703 0 0-2.372-.706-2.53-.757.104.268.983 2.454.983 2.454.366.923.677 2.215.905 3.73l.23 1.6-1.452-.702c-5.84-2.83-16.618-9.514-20.563-12.378-2.274-1.657-4.028-2.116-5.356-1.404-1.76.942-1.76 3.444-1.76 4.266l.017.725c.344 7.803 4.545 19.404 6.334 24.028l.255.664-.6.374c-5.585 3.48-9.282 8.496-9.68 9.05 0 0-1.44 2.05-1.54 2.196l2.668-.186 3.815-.034-1.908 1.545c-4.795 3.873-7.166 8.43-7.192 8.48 0 0-1.308 2.498-1.402 2.67.31-.094 2.897-.862 2.897-.862a23.257 23.257 0 0 1 3.813-.788l2.123-.265-1.357 1.655c-2.558 3.112-4.394 6.857-5.463 11.12a29.054 29.054 0 0 0-.647 3.518l-.335 2.64L67 72.9c-.07.133-9.617 17.684-9.617 17.684L45.34 68.44c-.118.22-18.317 33.695-18.36 33.77.124.063.222.11.222.11.375.192.988.406 1.77.626l1.076.304s-9.755 16.42-9.802 16.486c.115.07.21.12.21.12.54.33 1.593.673 2.957.96l1.11.24-3.773 7.12H7.004c.014.097 4.046 25.98 4.066 26.108l4.927-3.27.15 17.227s-4.33 12.418-4.365 12.525h26.57c-.055-.178-.67-2.074-.67-2.074h181.554l.175.08c1.295.6 5.938 2.496 11.11 1.874 2.915-.352 12.432-2.643 12.432-17.354 0-6.452-3.93-11.644-5.61-13.574l-.372-.423z"/><path fill="#010101" d="M189.72 129.202h2.368l-1.182-2.577zM217.773 169.27l2.954-5.99 1.8-3.644 1.19 3.89 1.276 4.164c.248.214.732.537 1.368.607.598.068 1.734-.773 2-1.26.882-1.607.19-3.447-.598-5.04-.535-1.07-2.19-2.837-3.793-4.547-2.078-2.22-4.43-4.736-5.78-7.137-.88-1.556-1.447-3.424-1.64-5.194l-.173 1.3-.41 2.942-2.24-1.95-2.2-1.91-3.395-.034c.028 1.69.057 4.438.08 6.104h8.558l-1.075 2.29-2.38 5.09-.62 1.323-1.378-.486-3.106-1.093-.078 8.126 2.695-.042 4.43-3.004 2.516-1.705v7.201zM71.892 143.922l-1.775-3.577s-.063-.13-.16-.317l-.312.52-1.188 1.974 4.083 26.71-.648-25.31z"/><path fill="#A8AAAD" d="M242.952 163.295c0 14.705-9.512 16.996-12.427 17.348-5.178.622-9.82-1.27-11.114-1.87l-.174-.077H37.682s.613 1.894.674 2.07H11.78l4.366-12.523-.15-17.23s-4.752 3.155-4.926 3.273c-.02-.127-4.052-26.012-4.066-26.11h13.744l3.772-7.12-1.11-.238c-1.36-.29-2.415-.63-2.956-.96 0 0-.096-.053-.208-.12.044-.07 9.8-16.483 9.8-16.483l-1.07-.307c-.788-.22-1.398-.437-1.777-.625l-.222-.112c.042-.072 18.24-33.55 18.36-33.77.075.133 12.046 22.15 12.046 22.15L67 72.904c.07.132 3.08 5.667 3.08 5.667l.334-2.643a29.21 29.21 0 0 1 .648-3.518c1.07-4.266 2.904-8.008 5.463-11.12l1.36-1.656-2.127.262a23.88 23.88 0 0 0-3.81.79s-2.588.766-2.894.862c.092-.17 1.4-2.667 1.4-2.667.025-.05 2.397-4.606 7.192-8.484l1.907-1.546-3.812.04-2.67.18 1.538-2.192c.4-.557 4.094-5.572 9.678-9.05l.6-.374-.253-.664c-1.787-4.626-5.988-16.225-6.333-24.028l-.018-.726c0-.82 0-3.323 1.76-4.266 1.33-.715 3.084-.253 5.357 1.404 3.944 2.865 14.723 9.545 20.56 12.378l1.456.704-.233-1.6c-.228-1.518-.54-2.81-.905-3.73l-.983-2.457a435.5 435.5 0 0 0 2.532.757c.445.138 4.38 1.382 7.85 3.703l1.522 1.02-.327-3.11s-.1-.92-.126-1.193c.14.084 2.18 1.28 2.18 1.28.324.188 3.243 1.905 5.727 3.78l1.3.978.114-2.63-.03-.595-.016-.01-.892-3.586c.184.146 2.914 2.268 2.914 2.268.112.082 2.707 2.127 4.952 5.245l.71 1 .69-1.02c1.68-2.5 3.198-4.218 4.39-4.986 0 0 1.66-1.056 1.858-1.18.012.142.107 2.2.107 2.2.074 1.507.384 3.688.912 5.162l.254.737.76-.194c1.7-.435 4.53-1.442 8.385-3.75 2.928-1.752 7.014-4.543 10.632-7.003 6.754-4.598 9.82-6.632 11.06-6.908.005 0 .45-.1.488-.108l.08.05.343.198c.652.372 2.155 1.725 2.155 6.233 0 5.504-2.223 13.75-6.612 24.51l-.26.635.558.39c1.88 1.318 4.67 3.842 7.254 8.41a817 817 0 0 0 1.554 2.743l-3.017-.886-4.063-.95 2.07 2.1c3.063 3.153 4.98 6.628 5.713 10.33 0 0 .45 2.247.5 2.517-.145-.072-2.307-1.116-2.307-1.116-.19-.093-1.823-.836-3.944-1.31l-2.387-.537 1.53 1.91c2.415 2.995 4.21 5.713 5.33 8.068.923 1.945 1.57 4.097 1.925 6.407l.383 2.51s3-5.513 3.066-5.64c.08.133 9.62 17.68 9.62 17.68s11.92-21.925 12.043-22.144c.072.132 18.3 33.646 18.363 33.77-.073.036-.22.112-.22.112-.377.186-.99.405-1.772.625l-1.075.307s9.752 16.413 9.797 16.483c-.067.042-.202.12-.202.12-.552.333-1.6.673-2.96.96l-1.11.24 3.688 6.964.776.072c6.764.863 12.335 7.79 12.57 8.09-.005-.01.272.346.272.346s.062.076.09.118c-.017.04-6.02 12.646-6.02 12.646l.37.425c1.687 1.93 5.61 7.123 5.61 13.578m2.048-26.87l-1.024-1.31c-.253-.32-6.185-7.68-13.602-8.7-.146-.274-1.582-2.97-2.234-4.205 1.013-.273 1.868-.56 2.403-.887l1.67-.993-.995-1.672c0-.005-6.602-11.114-8.554-14.398a8.36 8.36 0 0 0 1.02-.405c0-.003 1.806-.903 1.806-.903l-.963-1.78-19.753-36.314s-9.573 17.604-12.044 22.14c-.033-.064-9.612-17.68-9.612-17.68s-1.992 3.66-2.273 4.18c-.394-1.62-.878-3.178-1.56-4.607-.905-1.904-2.223-4.015-3.916-6.3.618.23 1.023.412 1.102.454-.01-.008 1.863.9 1.863.9l3.534 1.71-.767-3.843-.405-2.047c-.636-3.202-2.11-6.23-4.327-9.044.48.14 5.522 1.628 5.522 1.628l-3.642-6.43c-2.516-4.438-5.223-7.063-7.215-8.563 4.306-10.66 6.5-18.923 6.5-24.54 0-5.208-1.885-7.074-3.016-7.718 0-.003-1.015-.577-1.015-.577l-1.125.253c-1.548.343-4.26 2.127-11.61 7.133-3.63 2.476-7.704 5.25-10.586 6.978-3.253 1.947-5.66 2.87-7.142 3.32a20.502 20.502 0 0 1-.58-3.89l-.084-1.785-.17-3.37-4.338 2.775c-1.232.785-2.65 2.327-4.204 4.505-2.14-2.715-4.305-4.446-4.563-4.654-.006-.003-6.842-5.315-6.842-5.315l1.96 7.82c-2.124-1.477-4.156-2.676-4.426-2.84l-5.106-2.99.435 4.12c-3.12-1.807-6.137-2.79-6.786-2.983-.017-.008-5.95-1.775-5.95-1.775l2.302 5.743c.178.447.34 1.027.483 1.67-5.903-3.07-15.276-8.914-18.76-11.443-2.867-2.08-5.21-2.58-7.178-1.525-2.665 1.427-2.665 4.7-2.665 5.774l.022.8c.343 7.727 4.276 18.887 6.203 23.94-5.53 3.625-9.173 8.54-9.58 9.108l-3.61 5.133 4.08-.272 1.054-.07c-3.842 3.635-5.72 7.243-5.806 7.415.002-.01-1.136 2.158-1.136 2.158l-2.14 4.09 6.773-2.007c.465-.138.96-.19 1.44-.298-2.02 2.918-3.54 6.24-4.468 9.96-.108.41-.158.868-.242 1.295-.178-.332-2.16-3.973-2.16-3.973S58.638 84.692 57.385 87c-.41-.75-12.045-22.143-12.045-22.143l-1.713 3.15-18.998 34.94 1.807.904c.262.137.613.274 1.016.41-.977 1.64-9.552 16.07-9.552 16.07l1.67.998c.536.32 1.394.607 2.4.878 0 .003-1.855 3.518-2.25 4.26H5l.35 2.25 4.437 28.473s3.654-2.424 4.522-3.004c.02 2.524.12 13.515.123 13.77-.093.273-5.06 14.52-5.06 14.52h31.343s-.54-1.64-.677-2.07h178.836c1.582.706 6.416 2.595 11.853 1.938 3.27-.394 13.938-2.935 13.938-19.05 0-6.63-3.726-11.93-5.678-14.267.41-.848 6.01-12.6 6.01-12.6"/><path fill="#A8AAAD" d="M76.74 91.47l7.665-14.096L95.702 98.16c-.37.223-.838.372-1.23.465-.41.1-.728.138-.728.138l6.174 10.395c-.65.388-2.195.67-2.607.734a.722.722 0 0 1-.098.017h-.003l4.22 7.968h11.506v-.003h-4.342c-2.838-4.412-1.894-14.077-5.878-22.376a47.753 47.753 0 0 1-2.65-6.655c-1.245 1.02-2.29 2.14-2.29 2.14-1.21-5.16-.128-9.262.437-10.892-3.066 1.208-5.004 4.227-5.004 4.227s-1.906-4.17.93-10.786c1.954-4.56 5.753-6.956 8.467-7.865-2.527-1.155-3.602-3.608-3.938-5.462-.655-3.627 1.886-9.452 1.886-9.452 4.176 4 9.662 5.828 13.552 8.822 3.734 2.864 4.57 5.515 4.57 5.515s-.02-.01-.032-.02c.978 1.168 1.626 2.274 1.795 2.87h-.03c1.336.144 3.01.673 4.155 2.283l-.476-2.54c-.284-2.55-3.36-6.06-3.36-6.06 3.75-.033 2.336-4.712-.545-5.937-6.008-2.562-10.17-6.647-9.532-6.717 7.106 1.56 10.222-.692 10.222-.692s-1.704-.655-2.594-1.3c-1.47-1.062-2.428-2.34-2.428-2.34 3.542.203 7.48-1.345 8.66-3.807 2.084-4.33 1.27-12.474 1.27-12.474s-2.42-4.042-4.928-5.544c0 0-.215 3.323-.994 5.68l-.173.5s-3.002-5.676-8.18-7.683c0 0 .33 3.672 0 6.348 0 0-11.564-2.532-24.865-12.687-3.16-2.414-4.028-2.687-4.238-2.18-1.438 3.463 5.114 23.13 5.915 23.928 0 0 1.472-.297 1.463-.38-.08-.756-1.998-14.932-.536-15.29.155-.042 1.645 1.227 3.313 2.355 1.677 1.142 3.536 2.15 3.772 2.552.248.445-3.074 1.846-2.824 2.29.44.764 8.967 2.863 9.41 3.645.376.66-9.707 3.087-9.327 3.757.705 1.226 2.473.705 3.185 1.966l-.882.146c-11.026 1.688-14.22 7.83-14.22 7.83 3.954-.42 8.48.37 8.48.37-7.206 3.253-11.59 9.047-11.59 9.047 10.19.19 8.446.93 8.446.93-9.465 7.353-11.843 19.714-11.843 19.714-.93 3.233-1.642 9.725-1.642 9.725l1.196 2.37 2.02 3.72z"/><path fill="#A8AAAD" d="M120.78 76.22l.002.005s-2.6-1.674-4.62-1.2c1.65.316 3.753 2.925 4.477 4.89-.004 0-.007 0-.013.002.18-.034.355-.064.542-.064 2.04 0 3.53 1.05 3.523 1.072-.36-1.272.39-9.165-5.383-11.11-1.798-.602-2.417-.47-3.46-.312 5.274 1.117 4.933 6.677 4.93 6.717M125.49 117.514c-.02.9-.777 1.81-.783 1.812 9.69-.188 9.54-8.543 9.72-16.163.19-7.99 3.1-12.958 1.52-10.164-4.165 7.397-3.456 12.476-3.766 16.677-.27 3.64-1.9 6.356-6.568 6.356-.28 0-.6-.01-.93-.022a.774.774 0 0 0 .086.007s.735.76.723 1.497M144.753 49.783s-2.23-1.128-3.15-.583c-.67.405.854-2.24.854-2.24s-4.26 2.1-4.936 3.222c-.247.42-.68-.926-.91-2.24-.215-1.31-5.28 9.097-5.06 10.848 1.942-3.728 6.917-6.553 13.203-9.007"/><path fill="#005183" d="M148.045 30.677a86.008 86.008 0 0 0 10.822-1.975l-1.913-3.005c4.952-4.693 8.734-7.924 9.117-8.205 3.72-3.385 2.894-1.922 2.927-1.92-.045-.002-2.302 13.13-8.762 22.847 3.844 1.808 6.27 4.414 6.27 4.414-.248-.022-6.552-.343-9.956.788l.686.338c.08.05 8.537 5.746 12.1 9.618-2.06-.06-6.106-.28-8.144.06-1.238.202-4.693.677-4.693.677.742.695 5.537 4.485 6.448 5.26 4.925 4.194 10.012 9.952 12.826 20.02l.523 3.157c.22-11.424-4.677-18.563-10.164-23.237-.495-.425-3.332-3.444-3.776-3.847 0 0 5.848-.394 11.498.51-1.925-3.397-8.763-9.692-11.65-11.425 2.792-.568 8.43-.45 8.43-.45-2.717-4.412-8.03-6.334-8.03-6.334 6.05-9.382 8.915-24.43 8.915-24.43 0-.338-.18-.814-.676-1.05-.72-.338-1.964.64-5.745 3.756-.086.062-12.428 9.055-20.576 11.77-1.604.572-3.102 1.17-4.83 1.824 4.813.565 8.713 3.68 13.237 5.656l-4.885-4.82z"/><path fill="#FDD51D" d="M141.01 59.874c-1.355.636-2.346-.273-2.346-.273l-1.177.82s1.728 2.94 4.43.897c2.577-1.947 1.44-4.423 1.44-4.423l-1.44.99s.45 1.362-.906 1.99"/><path fill="#FFF" d="M120.07 91.164s-.18-.906-.63-1.266c-.455-.36-.728-.636-1.27-.456 0 0-1.355.63-1.355 3.802 0 2.437 1.354 3.255 1.354 3.255s-.543-2.72.185-3.895c.728-1.17 1.716-1.44 1.716-1.44M120.096 113.025c.297 0 1.012-.49 1.012-1.67s-.325-1.107-.325-1.107c-2.054-.2-1.37-3.396-1.37-3.396-.395.484-.98 1.37-.98 2.935 0 2.552 1.374 3.238 1.663 3.238M132.57 93.244c0-3.168-1.357-3.804-1.357-3.804-.535-.175-.81.095-1.26.456-.457.36-.632 1.27-.632 1.27s.992.27 1.712 1.442c.727 1.174.18 3.89.18 3.89s1.357-.817 1.357-3.254M122.253 92.5s.907 1.18 1.27 1.632l1.17-1.45 1.176 1.45c.362-.453 1.264-1.632 1.264-1.632.456.093.995 1.267.995 1.267.91-.903.91-2.344.91-2.344-.275-.636-1.816-.275-2.174.45-.726-.726-1.718-.366-2.172.09-.45-.456-1.45-.816-2.17-.09-.356-.726-1.898-1.086-2.166-.45 0 0 0 1.44.898 2.344 0 0 .548-1.173.997-1.267M126.272 113.315l-.79-1.376-.683 1.473-.68-1.474-.788 1.375c-1.176-.102-1.375-1.96-1.375-1.96s-.637 1.724.294 2.84c.493.594 1.178 0 1.178 0s.59.493 1.37.1c.783.394 1.37-.1 1.37-.1s.69.594 1.174 0c.936-1.116.3-2.84.3-2.84s-.196 1.86-1.37 1.96M129.513 113.025c.287 0 1.66-.687 1.66-3.24 0-1.563-.585-2.45-.98-2.934 0 0 .688 3.197-1.373 3.397 0 0-.326-.073-.326 1.108 0 1.18.72 1.67 1.02 1.67"/><path fill="#A8AAAD" d="M128.325 124.86l-.387-2.225h-5.063v10.532h5.18l.55-2.23h-3.514v-2.025h2.317v-2.225h-2.316v-1.827zM104.954 122.387h-.024v10.774h2.213v-5.764l5.87 6.016h.026v-10.9h-2.23v5.77zM140.56 131.015c-.663 0-1.266-.273-1.682-.848l-1.328 2.004c.844.862 1.997 1.242 3.1 1.242 1.87 0 3.44-1.157 3.44-3.518 0-3.863-4.014-2.777-4.014-4.452 0-.554.59-.827.985-.827.688 0 1.075.273 1.588.797l1.216-1.818c-.794-.76-1.84-1.207-2.865-1.207-1.627 0-3.27 1.17-3.27 3.25 0 3.78 4.006 2.797 4.006 4.446 0 .673-.715.932-1.175.932M89.238 127.396l5.86 6.016h.027v-10.898h-2.22v5.77l-5.86-5.894h-.03v10.77h2.223zM160.572 127.902c0 1.606-1.147 3.112-2.56 3.112-1.407 0-2.562-1.506-2.562-3.112 0-1.612 1.154-3.12 2.56-3.12 1.415 0 2.562 1.508 2.562 3.12m-7.338 0c0 3.064 2.166 5.51 4.777 5.51s4.785-2.445 4.785-5.51c0-3.073-2.173-5.516-4.784-5.516s-4.776 2.443-4.776 5.516M58.437 128.358h.027l2.137 5.05h.03l2.35-5.06h.028l.766 4.88h2.24l-2.387-10.838h-.02l-2.907 6.444-2.83-6.444h-.02l-2.457 10.84h2.273zM175.947 133.16v-8.134h2.157v-2.39h-6.113l-.567 2.39h2.307v8.135zM74.958 122.51h2.222v10.65h-2.222zM192.088 129.205h-2.37l1.19-2.58 1.18 2.58zm-5.965 3.956h2.155l.9-2.008h3.41l.912 2.01h2.257l-4.83-10.775h-.02l-4.784 10.774z"/><path fill="#FFF" d="M118.645 65.07a22.55 22.55 0 0 0-2.643-1.395c-.85-.372-1.732-.658-2.363-.633-1.68.07-2.738 1.89-6.914.392-3.47-1.238-3.648-4.882-3.412-6.93.087-.738-.827-1.675-1.397-2.522-.753-1.117-1.282-2.955-1.35-3.185-.008-.028-.01-.042-.01-.042s-2.544 5.822-1.89 9.455c.34 1.85 1.414 4.305 3.938 5.46-2.714.908-6.512 3.308-8.466 7.86-2.836 6.622-.934 10.79-.934 10.79s1.94-3.022 5.004-4.23c-.564 1.636-1.645 5.733-.438 10.896 0 0 1.048-1.12 2.293-2.14a47.825 47.825 0 0 0 2.647 6.653c3.99 8.3 3.043 17.963 5.88 22.375h4.344c-.102-.193-.223-.44-.346-.712-.58-1.237-1.352-3.202-1.658-5.476-.063-.48-.126-.937-.192-1.376-.424-2.88-.844-4.92-1.227-5.916-.027-.073-.052-.155-.082-.214.004 0 1.65.272 2.728 1.29 0 0 .003-.058.003-.17l-.002-.133c-.01-.926-.136-4.007-1.413-6.726-1.202-2.557-1.268-4.853-1.21-6.33v-.025c.008.017.585.895 1.37 2.33 1.022 1.863 2.39 4.663 3.318 7.744.977 3.25.47 8.533 2.136 12.428.267.63.577 1.227.973 1.765 2.13 2.915 5.857 2.963 5.857 2.963.536.03 1.026.022 1.517.014v-.003c.006-.003.763-.914.78-1.812.012-.737-.722-1.5-.722-1.5-.03 0-.058 0-.087-.003-.132-.006-.27-.012-.412-.02-.078-.006-.155-.015-.24-.02l-.382-.03c-.104-.013-.204-.023-.308-.04a6.95 6.95 0 0 1-.346-.043c-.138-.02-.277-.046-.415-.07a10.376 10.376 0 0 1-1.633-.407c-.042-.013-.08-.032-.122-.047a10.57 10.57 0 0 1-.538-.21c-.058-.026-.116-.06-.173-.088a4.547 4.547 0 0 1-.45-.233 1.902 1.902 0 0 1-.194-.115 4.887 4.887 0 0 1-.388-.262c-.063-.045-.124-.102-.187-.146a7.46 7.46 0 0 1-.334-.3 3.973 3.973 0 0 1-.452-.524 4.22 4.22 0 0 1-.16-.224c-.077-.12-.145-.25-.216-.38-.042-.087-.09-.17-.13-.262a4.11 4.11 0 0 1-.148-.422c-.035-.104-.07-.2-.098-.31-.034-.144-.055-.307-.08-.462-.02-.12-.044-.236-.056-.362-.01-.146-.006-.31-.008-.465-.003-.143-.016-.28-.006-.435.23-4.483.058-9.343-3.764-17.05-1.01-2.037-1.894-5.375-2.732-8.197a12.158 12.158 0 0 1-.51-3.315c-.002-.428.023-.835.064-1.238.118-1.2.415-2.26.795-3.126.908-2.078 2.24-3.56 3.91-3.938a4.117 4.117 0 0 1 1.78.008 6.22 6.22 0 0 1 3.096 1.708c.648.656.94 1.235.94 1.235v-.003c0-.037.342-5.603-4.934-6.717h-.005c.01-.01.358-.543 1.107-.988.024-.017.055-.03.082-.045a3.49 3.49 0 0 1 .414-.208c.058-.028.13-.047.192-.07.13-.048.256-.098.4-.135.084-.022.182-.03.268-.054.14-.025.274-.06.426-.073.003 0 .006 0 .01-.002.18-.02.416-.03.68-.034h.105c.27 0 .563.014.88.048h.03c-.165-.597-.81-1.703-1.79-2.87"/><path fill="#FFF" d="M116.166 75.026c-.01-.002-.02-.008-.03-.01-.105.02-.204.05-.292.078-1.147.414-2.05 2.206-1.894 5.675.19 4.268 3.06 6.986 5.594 7.62.003 0 .003.002.003.002.417.104.57.045.56-.107-.004-.234-.416-.698-.834-1.114-.325-.33-.75-.784-1.1-1.367-.37-.622-.66-1.384-.66-2.29 0-.22.025-.437.072-.654.008-.035.022-.065.03-.102.045-.172.1-.343.168-.515.033-.082.075-.155.116-.233.057-.116.114-.23.186-.34.063-.102.14-.2.214-.3.058-.072.112-.143.173-.216.1-.113.207-.223.32-.324.045-.04.092-.082.14-.12.136-.113.274-.212.423-.305l.1-.062c.166-.093.34-.18.518-.25.02-.008.042-.014.066-.022.19-.07.388-.123.59-.157.007 0 .007-.002.012-.002-.725-1.96-2.828-4.565-4.476-4.884"/><path fill="#010101" d="M105.76 56.894l1.446.99s-.453 1.362.907 1.99c1.348.636 2.346-.273 2.346-.273l1.178.82s-1.726 2.94-4.432.897c-2.582-1.947-1.446-4.423-1.446-4.423m-3.842-2.913c.57.845 1.483 1.782 1.395 2.522-.233 2.048-.055 5.692 3.412 6.933 4.177 1.497 5.232-.326 6.913-.394.634-.024 1.515.263 2.362.634a22.486 22.486 0 0 1 2.645 1.396c.013.006.032.02.032.02s-.836-2.654-4.57-5.513c-3.89-2.994-9.376-4.826-13.552-8.827l.014.042c.063.232.593 2.075 1.348 3.19"/><path fill="#FDD51D" d="M107.206 61.317c2.703 2.043 4.432-.9 4.432-.9l-1.182-.816s-.993.91-2.343.274c-1.36-.63-.907-1.987-.907-1.987l-1.446-.996s-1.136 2.48 1.446 4.427"/><path fill="#DA5E5B" d="M130.126 100.93c.175-3.065-.45-4.242-2.166-4.33-1.717-.086-2.53 2.08-2.622 2.976-.09.905-.45 1.72-.45 1.72v-.034s-.36-.813-.453-1.717c-.09-.906-.902-3.067-2.62-2.975-1.714.09-2.34 1.264-2.163 4.33.18 3.07 1.625 6.684 5.235 6.86v.037c3.613-.186 5.06-3.793 5.24-6.868"/><path fill="#005183" d="M159.953 165.31c-.15.17-.438.442-.726.442-.625 0-2.432-3.205-2.432-9.322 0-4.528 1.064-7.795 2.043-8.912.226-.265.372-.313.39-.313.027 0 .168.054.398.318.98 1.108 2.032 4.373 2.032 8.906 0 4.153-.883 7.943-1.705 8.88m-.73-19.714c-.553 0-1.098.287-1.594.855-1.48 1.687-2.448 5.604-2.448 9.98 0 5.69 1.626 10.938 4.04 10.938.698 0 1.368-.344 1.93-.99 1.346-1.528 2.122-6.054 2.122-9.947 0-4.375-.962-8.292-2.442-9.978-.5-.57-1.047-.856-1.61-.856M117.595 151.553c.043-1.702.113-4.192.156-5.695.506.064.745.27.854.363.522.448.726 1.244.707 1.675-.09 1.876-.665 3.095-1.715 3.658m-1.282-7.224l-.135.027-.003.14-.242 8.86-.005.185h.187c4.097-.062 4.73-3.92 4.803-5.58.043-.866-.335-2.166-1.265-2.966-.84-.72-1.96-.942-3.34-.667"/><path fill="#005183" d="M234.96 167.583c-.646 2.572-1.997 5.755-6.494 6.857-5.83 1.433-9.854-3.235-9.854-3.235l3.563-7.206 1.39 4.562s.985 1.16 2.623 1.337c1.413.153 3.09-1.194 3.585-2.086 1.29-2.35.28-4.83-.568-6.53-1.367-2.75-7.266-7.576-9.606-11.758-1.29-2.293-1.734-5.118-1.38-6.967.428-2.207 1.728-6.157 6.225-7.267 5.836-1.43 9.854 3.24 9.854 3.24l-3.564 7.205-1.384-4.57s-.98-1.3-2.628-1.336c-2.01-.048-2.82 1.153-3.135 2.158-.524 1.62-.204 3.866.382 5.025 1.738 3.444 6.393 5.858 9.38 10.79 1.603 2.654 2.644 5.636 1.608 9.778m-19.702-3.807l-4.43 3.005-2.695.043.08-8.126 3.105 1.092 1.38.485.618-1.322 2.38-5.087 1.075-2.294h-8.558l-.08-6.104 3.395.034 2.2 1.91 2.234 1.95.418-2.94.18-1.303c.186 1.77.754 3.64 1.632 5.193 1.35 2.4 3.703 4.916 5.78 7.137 1.598 1.71 3.258 3.475 3.793 4.544.788 1.596 1.48 3.436.597 5.04-.27.486-1.4 1.328-1.998 1.263-.636-.07-1.114-.394-1.373-.607l-1.273-4.165-1.188-3.886-1.802 3.64-2.954 5.99v-7.199l-2.516 1.706zm.9 8.946h-16.326l1.356-4.45-.118-24.49-1.424-3.408-1.02 1.618-8.74 32.717-8.446-32.718-1.902-2.28h7.423l3.103 18.807 3.162-18.807h6.844v.006h15.616l-.906 6.477-2.646-2.296-5.425-.053-.215-.045.006.22.12 8.993v.17h7.62l-2.382 5.09-5.233-1.842-.124 12.03 4.835-.076 4.823-3.278v7.612zm-37.824-4.336l4.834-3.278v7.614h-13.912l1.362-4.22-.102-24.01v-.047l-.028-2.212-1.986-2.516h8.796l-1.378 2.57v26.173l2.414-.074zm-13.77 1.814c-1.492 1.686-3.378 2.575-5.466 2.575-2.082 0-3.973-.89-5.458-2.575-2.308-2.622-3.523-6.922-3.523-12.445 0-6.522 1.756-12.575 4.592-15.798 1.333-1.514 2.847-2.315 4.39-2.315 4.952 0 8.992 8.13 8.992 18.113 0 5.523-1.228 9.823-3.53 12.445m-20.94 4.51l-4.733-13.45-4.74 13.45-6.748-32.83-1.84-2.053h7.357l2.644 18.8 3.326-13.07 3.917 12.626 1.953-18.355h7.187l-1.778 2.052-6.548 32.83zm-18.455-24.077c-.588 3.844-3.692 5.912-3.692 5.912l7.762 16.193h-8.188l1.06-2.743-5.548-11.208-.844.152.234 11.055 1.325 2.743h-8.048l1.36-2.996-.18-25.73-2.01-4.252h9.027c2.324 0 4.408.625 5.49 1.612 1.35 1.23 3.062 3.9 2.25 9.26m-5.625 21.52l-.335.867-.478-.982-1.173-2.43-.115-5.407 2.907 5.876-.808 2.077zm-11.056-1.673v-8.408l-2.52 1.705-4.428 3.005-2.694.042.083-8.126 3.106 1.092 1.377.486.62-1.322 2.382-5.087 1.072-2.294h-8.558c-.023-1.666-.06-4.412-.08-6.104l3.394.033 2.195 1.91 2.243 1.95.408-2.94.612-4.378 1.103 2.335.174 25.016-.488 1.083zm-1.61 2.242h-16.33l1.363-4.45-.122-24.49-1.698-4.063h16.31l-.905 6.477-2.642-2.296-5.425-.053-.214-.045v.22l.12 8.993.006.17h7.613l-2.383 5.09-5.227-1.842-.13 12.03 4.83-.076 4.833-3.278v7.612zm-19.527-17.297c1.133-1.17 2.353-2.927 2.856-5.16l.043 8.934c-.594-1.32-1.597-2.69-2.9-3.775m-.535 14.753c-3.357 3.5-9.43 2.578-12.57 2.578l-.75-29.236-1.937-3.895c1.552-.04 5.832-.208 8.238-.104 2.656.113 8.15 1.205 8.966 7.612.687 5.28-3.83 8.248-3.875 8.273l-.274.163.28.135c2.46 1.252 4.036 3.866 4.33 5.53.568 3.216-.345 6.8-2.408 8.945m-21.236 2.56l-1.903-18.945-5.587 20.915-5.33-20.63-1.876 18.66h-7.416l.014-.017H35.65l1.36-4.22-.124-26.242-1.355-2.54h8.164l-1.376 2.54v26.202l1.318 4.075 1.726-2.074 4.325-28.278-1.944-2.465h7.41l3.11 17.862 3.158-17.863h6.844l-1.49 2.468 4.322 28.276 1.902 2.277h-7.42zm-21.653-30.07l1.185-2.185.484-.887.88 1.117 1.51 1.916-3.958 25.893-.102-.315v-25.54zm25.718-2.117l.31-.522c.096.186.158.317.158.317l1.778 3.58.65 25.308-4.086-26.715 1.19-1.967zm-36.298 2.12l-3.838-3.19-1.912-.05-.265 30.185 1.647 5.093h-8.51l1.622-5.05-.128-30.228-2.282.05-3.838 3.19-.993-7.454h19.49l-.993 7.453zm195.744 7.813c-1.598-1.5-2.97-2.79-3.68-4.198-.39-.763-.687-2.577-.293-3.802.254-.768.687-1.06 1.57-1.04.558.014 1.002.343 1.227.554l1.283 4.212 1.182 3.89 1.8-3.648 3.558-7.206.473-.957-.69-.81c-.192-.222-4.75-5.395-11.46-3.744-3.213.782-5.56 2.966-6.78 6.228v-.025l.26-1.836h-25.675l-.23 1.342-1.554 9.272-1.53-9.264-.225-1.35H165.178l2.065 2.61 1.644 2.082.022 1.663c0 .013.005 2.467.02 5.79-1.558-7.234-5.323-12.215-9.83-12.215-2.016 0-3.95.987-5.6 2.86-.8.904-1.52 2.013-2.145 3.276l.31-1.558 1.502-1.73 2.32-2.67H143.31l-.158 1.445-1.12 10.586-1.61-5.17-1.692-5.45-1.4 5.535-1.313 5.142-1.503-10.695-.196-1.394h-12.37l1.205 1.34c-1.438-.883-3.49-1.4-5.728-1.4h-9.18l.006-.048H87.67l.935 2.234 1.567 3.773.017 1.853c-1.474-7.092-8.21-7.97-10.325-8.054-2.072-.09-5.402.013-7.39.075l-.96.03-2.513.073s0 .01.005.012H60.07l-.234 1.33-1.562 8.816-1.53-8.813-.232-1.334H35.58l.357-2.672.242-1.826H13.01l.243 1.826.995 7.45.383 2.892 2.243-1.866 3.402-2.825.082-.006.124 28.333-1.545 4.812-.68 2.1h12.933l-.683-2.106-1.564-4.85.25-28.053 3.126 2.595 2.238 1.866.387-2.89.086-.666.242.447.124 25.587-1.283 3.982-.68 2.1H40.035l-.012.015H52.34l.148-1.45.97-9.673 3.07 11.89.337 1.288H59.3l.35-1.274 3.304-12.396 1.02 10.166.15 1.45h8.548v.017h1.57c.46 0 1.017.027 1.61.05 3.5.14 8.793.353 12.12-3.117 1.03-1.072 1.802-2.442 2.318-3.945l.006.685-1.286 4.216-.636 2.083h18.363l-.007.014h25.067l-1.107-2.307-7.218-15.065c1.146-1.095 2.836-3.144 3.288-6.098a18.77 18.77 0 0 0 .228-2.99l5.582 27.15.28 1.364h2.41l.404-1.155 3.225-9.13 3.213 9.13.405 1.156h2.42l.27-1.378 3.32-16.642c.096 5.617 1.436 10.07 3.912 12.89 1.8 2.038 4.103 3.12 6.668 3.12 2.562 0 4.863-1.082 6.675-3.122 1.497-1.708 2.566-4.02 3.214-6.813.006 1.854.01 3.253.017 3.79l-1.283 3.985-.68 2.102H184.772V162.07l-2.516 1.705-4.44 3.014-.28.008V142.69l.934-1.743 1.498 1.798 8.363 32.368.333 1.29h2.442l.343-1.275 8.02-30.044.112 22.952-1.282 4.216-.637 2.082h20.116V172.652c1.226 1.22 5.362 4.755 11.074 3.354 6.027-1.48 7.266-6.407 7.676-8.03 1.26-5.046-.298-8.532-1.795-11-1.667-2.758-3.777-4.74-5.64-6.493"/><path fill="#005183" d="M81.735 166.28c-.236.197-.588.327-.957.405v-7.088c.325.102.646.24.905.44.692.536 1.493 1.65 1.44 2.995-.08 1.893-.78 2.723-1.388 3.248m.93-7.52c-1.397-1.08-3.495-1-3.495-1v10.62s2.29.256 3.616-.884c1.13-.965 1.858-2.3 1.943-4.398.076-1.964-1.05-3.554-2.065-4.34M80.895 146.068c.885.203 1.493.77 1.564 2.66.042 1.06-.183 1.828-.67 2.29-.252.24-.57.394-.895.498v-5.448zm3.18 2.595c-.166-4.122-2.77-4.25-4.22-4.334-.136-.006-.26-.015-.378-.023l-.193-.01v8.992s4.996.56 4.792-4.627"/><path fill="#FFF" d="M161.152 166.376c-.563.645-1.232.99-1.93.99-2.415 0-4.04-5.247-4.04-10.937 0-4.377.96-8.294 2.446-9.98.496-.568 1.04-.855 1.593-.855.57 0 1.105.287 1.616.855 1.48 1.686 2.442 5.603 2.442 9.98 0 3.893-.78 8.42-2.126 9.946m-2.054-26.73c-1.542 0-3.05.798-4.384 2.312-2.836 3.223-4.598 9.272-4.598 15.795 0 5.526 1.21 9.826 3.528 12.448 1.48 1.684 3.37 2.573 5.453 2.573 2.088 0 3.974-.89 5.465-2.572 2.302-2.62 3.523-6.92 3.523-12.447 0-9.982-4.034-18.108-8.987-18.108M151.945 139.827h-7.186l-1.948 18.356-3.923-12.623-3.327 13.07-2.645-18.803h-7.357l1.838 2.05 6.752 32.834 4.74-13.446 4.732 13.447 6.545-32.834zM66.775 142.188l1.49-2.47H61.42l-3.157 17.86-3.108-17.86h-7.412l1.945 2.465-4.326 28.28-1.724 2.076-1.32-4.08v-26.204l1.377-2.538h-8.163l1.354 2.538.124 26.245-1.36 4.22h7.83l-.013.018h7.416l1.877-18.66 5.33 20.633 5.588-20.92 1.9 18.948H73l-1.9-2.276zM82.787 167.496c-1.328 1.143-3.62.887-3.62.887v-10.625s2.1-.076 3.5 1.004c1.01.782 2.14 2.372 2.06 4.34-.084 2.095-.81 3.43-1.94 4.394m-3.503-23.017v-.184l.193.01c.118.01.245.02.377.026 1.452.082 4.055.21 4.222 4.328.204 5.188-4.792 4.632-4.792 4.632v-8.813zm5.61 11.223l-.28-.135.274-.16c.046-.028 4.562-2.997 3.876-8.276-.82-6.407-6.312-7.5-8.968-7.61-2.41-.105-6.684.063-8.238.103l1.936 3.897.753 29.233c3.137 0 9.208.923 12.565-2.575 2.067-2.147 2.98-5.73 2.41-8.948-.292-1.663-1.868-4.274-4.328-5.53M206.5 168.46l.125-12.028 5.233 1.84 2.38-5.087h-7.613l-.006-.174-.12-8.99-.005-.222.22.048 5.42.05 2.644 2.296.9-6.477h-15.617l.005-.003h-6.85l-3.155 18.806-3.102-18.806h-7.422l1.897 2.276 8.453 32.72 8.74-32.72 1.018-1.612 1.43 3.402.117 24.49-1.36 4.45h16.325v-7.608l-4.83 3.273zM97.215 168.46l.127-12.028 5.23 1.84 2.38-5.087H97.34l-.004-.174-.12-8.99v-.222l.21.048 5.424.05 2.647 2.296.9-6.477H90.09l1.696 4.063.124 24.49-1.362 4.45h16.326v-7.608l-4.83 3.273zM175.92 142.29l1.378-2.572h-8.796l1.986 2.512.023 2.215v.045l.108 24.01-1.362 4.222h13.912v-7.612l-4.834 3.276-2.414.075zM116.115 153.542l-.187.003.005-.186.242-8.862.003-.14.136-.03c1.376-.274 2.5-.052 3.34.668.93.8 1.305 2.1 1.264 2.97-.075 1.656-.706 5.514-4.803 5.576m6.8-12.173c-1.08-.985-3.164-1.607-5.49-1.607H108.4l2.013 4.25.178 25.73-1.358 2.992h8.048l-1.328-2.74-.23-11.053.843-.158 5.543 11.21-1.06 2.74h8.195l-7.768-16.187s3.103-2.074 3.69-5.915c.816-5.357-.895-8.033-2.25-9.263M223.97 147.014c-.586-1.16-.906-3.398-.383-5.022.32-1.005 1.125-2.203 3.135-2.158 1.643.036 2.622 1.337 2.622 1.337l1.39 4.567 3.563-7.206s-4.023-4.667-9.86-3.235c-4.49 1.11-5.79 5.063-6.218 7.27-.355 1.842.083 4.673 1.378 6.963 2.347 4.182 8.24 9.01 9.606 11.76.85 1.696 1.862 4.182.568 6.525-.495.895-2.167 2.245-3.585 2.088-1.638-.18-2.622-1.333-2.622-1.333l-1.39-4.564-3.558 7.204s4.02 4.665 9.85 3.233c4.496-1.104 5.847-4.28 6.493-6.855 1.036-4.142-.005-7.124-1.61-9.777-2.988-4.933-7.642-7.347-9.38-10.794M15.846 142.67l3.837-3.186 2.282-.053.128 30.23-1.622 5.048h8.51l-1.646-5.096.265-30.18 1.91.052 3.837 3.185.992-7.452H14.853z"/><path fill="#0EA94E" d="M60.636 97.1l-.06.103 2.636 4.854c-.584.35-1.34.588-1.964.74-.657.16-1.167.225-1.167.225l8.827 14.852h3.16l-1.55-7.172h3.67L69.42 97.118l2.752-.363-5.323-16.57-7.76 14.28 1.414 2.598.132.036zM38.567 128.532l3.64-10.605 12.092.014-5.79-17.81 3.617-.484-6.99-21.772L33.485 99.31l3.492.783-10.396 17.82 4.035.006-5.957 10.612zM82.452 112.904h-.003l2.627 4.972h4.452l-2.11-9.778h3.01l-3.915-11.146 2.258-.3-4.367-13.6-6.118 11.254 2.32 4.28c-.442.27-1.02.453-1.494.568-.5.124-.89.17-.89.17l7.526 12.662c-.795.475-2.677.813-3.178.895-.062.016-.106.02-.12.024M177.275 96.7l-2.548 4.31-5.25 8.836 3.28.508-2.167 4.098-1.812 3.42h12.944l.715-7.16 3.46-.23-2.116-13.724 2.816-.368-3.326-16.205-8.78 16.148zM165.705 83.063l-7.198 13.245 2.29.296-2.093 3.542-4.31 7.25 2.695.42-1.785 3.36-3.545 6.697h11.328l1.04-10.377 2.844-.188-1.402-10.918 2.302-.304zM209.928 132.78l4.83-.07s1.783-2.976 4.226-3.93l-5.33-11.253 3.574-.712c-1.723-3.174-5.954-12.78-7.8-16.715l3.41-.455-7.856-21.77-11.53 21.22 3.657.475-10.002 18.304 17.092.065 5.728 14.84z"/></svg>