<svg xmlns="http://www.w3.org/2000/svg" width="715.748" height="527.244"><path d="M430.002 138.312l2.338.157 4.99 22.572 61.355 5.46v10.428l-68.683-5.736v-32.882zm282.203 93.735V133.51l-.142-.047c-.72-.243-56.17-19.646-88.478-26.92-38.006-8.55-48.975 20.698-50.583 25.9V95.277S468.862 75.2 394.475 76.33c-12.836.195-32.13 4.832-38.25 31.806V75.458s-71.514 2.04-98.073 4.472c-6.59.612-35.18 3.092-44.267 35.503l.016-31.525s-94.26 11.298-178.667 38.508c-12.255 3.954-31.69 18.226-31.69 39.67v216.618l70.912-22.628v-37.362l64.643-15.3.008 37.206s16.476-3.468 31.838-6.654c-32.647 27.853-59.205 63.01-75.627 101.81 42.902-36.853 85.576-72.615 149.003-89.766l-14.374 33.408c50.457-27.626 118.207-28.512 172.11-11.173l-4.074 8.93c-33.306-14.06-71.358-15.78-109.482-9.934 37.276 12.837 68.652 22.738 99.91 43.318-2.08 58.147 45.64 113.72 107.145 113.202 98.898-.754 144.428-116.662 89.192-188.248 5.657 4.354 12.554 7.438 22.997 10.608 34.9 9.79 104.46 30.363 104.46 30.363V283.98l-53.11-15.857-5.805 25.837c-3.484-1.138-8.49-1.35-8.576-3.9-.047-1.27-.016-69.703-.024-104.445l4.214 26.935 63.3 19.497z" fill="#c4ced4"/><path d="M648.512 169.82l5.908 37.77 51.14 15.746v-.008l.118.03V137.98s-50.936-17.865-83.732-25.303c-11.236-3.115-44.36-5.06-45.107 36.695v144.295c0 24.864 13.126 41.45 37.958 47.978 37.786 9.925 90.88 26.19 90.88 26.19V288.67l-42.03-12.547-5.784 25.735a505.33 505.33 0 0 0-13.142-3.617c-5.17-1.348-6.268-4.118-6.48-6.872v-124.43c.698.19 8.81 2.45 10.27 2.88M504.886 91.05v229.916l11.494.997c3.452.423 31.078 4.99 34.412 5.688l15.7 3.98V100.557c.118-.353-38.414-6.716-61.606-9.51M431.172 222.96v42.744c-1.185-.078-6.89.385-7.533-3.397v-39.904l7.532.557zm6.19-90.574l5.014 22.69 50.896 4.535V89.446s-74.12-7.03-94.857-7.03c-12.405 0-36.076 4.535-36.947 36.044v150.17c0 25.98 15.025 41.498 41.215 42.59 0 0 54.46 2.65 75.392 5.726l15.197 2.864V182.75l-69.633-5.595v-45.538l13.722.77zM280.076 178.08v-43.708c.133-2.746 6.45-2.48 7.328-2.535v45.852c-2.424.125-4.872.25-7.328.39M258.57 86.22c-25.35 2.355-40.477 19.357-40.477 45.484l.07 188.49 14.916-2.808c3.35-.478 31.226-3.264 34.717-3.468l12.28-.314v-84.28c2.423-.18 4.863-.354 7.327-.51v84.58l14.052-1.618c3.02-.235 30.38-1.263 34.993-1.263l13.26.73V81.945s-63.56 1.742-91.14 4.276M207.382 91.242s-57.746 8.662-74.898 12.515a41.537 41.537 0 0 0-11.243 4.354l-.015-1.992s-48.033 10.624-84.194 22.3C25.7 132.08 9.743 144.93 9.743 162.035v207.322l58.194-18.438V178.246c0-3.154 2.76-5.594 8.207-7.257.266-.08.612-.166 1.02-.26v140.725l61.582-14.594V162.155c.714-6.167 5.995-6.763 6.48-6.826v177.075s47.854-9.627 50.576-9.972l11.574-1.01.008-230.178z" fill="#0c1e24"/><path d="M669.145 285.502l-5.774 25.703c-9.28-2.746-13.832-4.04-20.516-5.782-6.52-1.703-10.428-5.453-11.652-11.173V162.736c2.166-7.438 11.84-1.145 23.915 1.31l5.916 37.818 37.11 11.424v-70.072s-46.118-15.692-77.925-23.32c-3.476-.838-35.213-8.307-35.958 29.47V293.67c0 21.42 10.906 35.15 32.427 40.798 31.086 8.168 81.55 23.326 81.55 23.326v-63.6l-29.092-8.692zM559.07 106.777l-46.763-7.257v214.64s37.802 5.705 40.187 6.27l6.6 1.672-.025-215.325zM425.65 124.22c.425 0 13.16.833 17.772 1.21l5.03 22.737 37.393 3.327V96.148s-77.455-6.724-87.435-6.316c-9.274.377-28.206 1.97-29.524 28.63v150.172c0 22.086 11.792 34.247 34.106 35.173 0 0 51.43 2.55 74.01 5.476l8.843 1.593V189.475l-56.577-4.56v30.467s7.57.55 9.423.683v57.518c-7.06-.478-21.89 1.138-22.47-11.172v-132.77c.51-2.432 2.4-5.42 9.43-5.42M294.296 184.248c-.243.008-14.272.698-21.106 1.16v-51.39c.518-5.39 4.214-8.372 10.93-8.874 0 0 6.834-.44 10.176-.643v59.748zM259.2 93.078c-21.567 2.118-34.027 15.888-34.207 38.115h-.016v180.7l.047-.007v.007l.777-.15 7.32-1.3c6.184-.746 32.005-3.32 34.382-3.414l5.688-.142v-83.952a1048.26 1048.26 0 0 1 21.106-1.46l.063 84.078 6.41-.628c2.204-.22 30.653-1.302 35.674-1.302l6.38.337V89.03s-55.378 1.278-83.623 4.048M199.992 99.856l-.032.008v-.008s-56.216 8.6-65.843 11.14c-7.642 2.018-13.26 5.046-19.96 12.563v-8.232s-39.018 8.576-74.842 20.15c-8.937 2.886-22.15 13.32-22.15 26.557v196.478l43.373-13.557-.024-166.71c-.235-14.014 20.062-15.803 24.064-16.485v140.317l46.69-11.054s.032-122.107.032-129.23c1.585-15.316 18.674-14.257 21.388-15.206l.04 176.235 22.847-3.97.016-.008 24.292-4.213v-.674l.11-.023V99.856z" fill="#fff"/><path d="M692.843 298.105l-19.772-5.9-5.773 25.695c-12.844-3.813-17.834-5.28-25.782-7.35-7.57-1.97-15.252-7.33-15.966-18.792V164.112c1.497-9.862 8.04-11.628 15.926-9.478.07-.14 8.434 2.307 18.36 5.288l5.923 37.85 27.083 8.34v-59.128c-14.993-5.225-44.384-14.86-73.86-21.937-18.88-4.527-29.424 5.037-29.424 24.322v144.294c0 19.333 9.634 30.733 28.472 35.676 38.477 10.113 74.898 21.278 74.898 21.278l-.087-52.513zM517.604 309.304c2.244.196 33.973 5.43 36.162 5.98V111.216c-10.86-1.93-20.525-3.57-36.162-5.65v203.737zM434.57 210.456c1.866.142 9.422.675 9.422.675v68.167a1384.3 1384.3 0 0 0-16.728-1.17c-8.167-.525-16.398-5.805-16.398-16.743l-.023-131.482c1.145-9.823 10.64-11.306 16.42-10.93 0-.15 9.534.58 20.495 1.507l5.013 22.697 27.768 2.487v-44.69h-.15v-.008c-50.448-4.904-78.647-5.75-78.647-5.75-5.914-.268-14.812-.252-20.932 5.656-3.883 3.703-6.622 9.902-6.622 17.59v150.172c0 19.317 9.777 29.077 29.03 29.877.04-.62 67.6 4.136 77.322 5.933V194.28c-16.162-1.585-25.42-2.526-45.97-3.735v19.913zM267.357 133.765c.322-3.954 2.573-13.417 16.382-14.437 5.46-.353 10.913-.706 16.382-.996v71.46c-10.898.558-21.85 1.013-32.765 1.892v-57.92zm-36.547-2.07l.07 173.167c2.237-.424 34.225-3.602 36.477-3.657v-83.637c10.914-.934 21.867-1.672 32.765-2.26v83.818c2.275-.26 34.624-1.45 36.868-1.326V95.022c-21.702.588-51.548 1.506-77.244 3.86-19.23 1.79-28.936 13.542-28.936 32.812M135.275 116.168c-13.393 3.013-23.483 15.74-26.417 31.03v-25.287s-31.918 6.984-67.915 18.612c-7.187 2.322-18.477 11.133-18.477 21.514V350.77c2.118-.824 30.568-9.588 32.75-10.074v-162.45c0-11.354 9.32-17.02 17.26-19.435 4.378-1.302 17.402-3.27 17.402-3.27v139.775l36.202-8.505V160.968c1.294-9.485 6.496-15.74 16.068-18.014 9.164-1.553 15.84-2.565 15.84-2.565l.032 175.6c2.197-.566 34.295-6.027 36.54-6.223 0-40.5.093-203.76.093-203.76s-42.478 6.364-59.378 10.16" fill="#0474bc"/><path d="M518.108 295.288c140.944 55.675 82.366 219.74-20.933 220.942-56.57.674-104.728-51.886-100.672-107.992C371.075 387.792 339 377.92 308.08 369.18c27.986-2.957 67.35 4.363 92.904 16.195l9.5-20.737c-47.28-17.363-122.255-20.36-168.263 1.852l12.625-29.454c-48.825 10.788-103.378 40.893-143.65 78.68 28.228-54.138 92.196-108.98 150.594-127.207l-4.293 12.764c37.598-13.683 76.812-21.144 116.685-23.42 42.368-2.432 76.64-.008 105.99 6.497-5.264-6.817-13.745-18.987-13.745-18.987s22.76 5.79 27.13 6.905c2.34-3.79 6.944-11.22 6.944-11.22l7.094-11.533s3.468 23.85 4.057 28.002c3.97 1.287 25.908 8.505 25.908 8.505l-19.45 9.266z" fill="#0c1e24"/><path d="M533.757 376.15c5.328 7.086 10.992 15.42 15.26 23.225 10.16-6.888 18.94-14.083 26.897-23.388-5.006-9.612-13.833-20.455-20.03-25.82-5.72 10.222-13.096 18.617-22.127 25.984m18.634 30.043a183.476 183.476 0 0 1 6.592 17.31c8.7-2.865 17.065-4.324 26.135-4.842.235-13.08-1.53-22.666-5.75-34.882-8.294 8.56-17.058 15.8-26.976 22.415m8.404 24.127c3.123 13.98 4.057 28.01 3.256 42.187 11.212-14.923 17.128-27.688 20.33-46.754-8.027.69-16.006 2.017-23.586 4.567m-6.033 3.24c-27.915 13.15-39.245 42.486-50.237 69.256 18.376-2.126 35.3-8.34 49.493-20.423 4.276-15.856 3.742-32.796.745-48.833m-2.227-7.36c-1.656-5.6-3.704-11.023-5.97-16.374-39.67 23.295-86.15 34.828-132.048 34.483 13.322 35.094 44.368 58.38 82.233 58.79 12.028-29.635 25.32-61.97 55.785-76.9m-9.22-23.208c-4.33-8.128-9.736-15.684-15.338-22.95-36.24 23.154-72.6 9.77-109.333-3.726-9.157 19.16-11.4 39.787-6.387 60.445 44.62 1.14 92.645-10.89 131.06-33.768m-19.334-28.67c-50.542-55.51-151.104-66.5-220.846-47.56 48.4-1.303 144.35 1.302 178.62 42.085-11.055-6.144-33.447-16.477-46.73-15.708-4.73 5.21-8.89 10.976-12.6 16.946 33.674 12.42 68.15 24.91 101.557 4.237m5.493-3.884c8.835-6.944 16.618-14.837 21.97-24.605-15.74-15.418-45.75-34.428-122.154-39.638 32.394 7.344 62.633 17.56 79.745 29.705-13.982-5.343-22.683-6.826-22.683-6.826-4.12.572-9.925 1.122-14.24 2.118 23.286 9.117 40.25 20.094 57.36 39.245" fill-rule="evenodd" fill="#c4ced4"/><path d="M482.375 302.91l15.684-5.485 11.917 13.518-1.397-17.645 15.19-6.622-16.53-5.43-2.56-17.606-8.826 14.295-16.743-4.268 11.103 14.264-7.838 14.98z" fill="#c4ced4"/><path d="M423.128 389.667c24.024 11.267 43.05 11.738 67.546 12.883l-39.497 11.683c19.85.95 43.17-1.036 62.62-4.998-42.573 21.247-94.16 19.685-94.16 19.685-3.853-13.063-2.04-29.344 3.49-39.253m4.622 65.427c26.322-.996 63.598-8.12 92.267-24.816-16.554 16.766-34.216 25.938-61.104 39.904 29.446-4.974 43.938-16.563 63.23-30.905-14.993 16.782-22.384 34.475-33.964 52.787 0 0-34.343 4.3-60.43-36.97m87.144 40.125c16.586-5.76 25.115-12.382 28.622-15.175 2.574-5.57 3.766-17.52 3.6-31.973l-10.55 17.693 3.34-17.214c-14.79 17.945-20.406 30.773-25.012 46.67" fill-rule="evenodd" fill="#0474bc"/><path d="M398.794 315.61l10.898-5.374 9.077 8.074-1.774-12.005 10.498-6.104-11.98-2.04-2.582-11.846-5.618 10.765-12.098-1.233 8.49 8.677-4.912 11.087zM276.284 339.712l7.17-3.547 5.964 5.32-1.16-7.893 6.888-4.025-7.878-1.358-1.694-7.784-3.704 7.054-7.955-.785 5.594 5.704-3.226 7.312z" fill="#fff"/><path d="M502.732 324.936a82.263 82.263 0 0 0-4.174-2.033c22.11 6.56 37.01 15.096 45.35 21.585-1.287 1.898-2.723 3.726-4.19 5.507a107.86 107.86 0 0 0-36.986-25.06m68.11 123.81l-.078-1.444a109.17 109.17 0 0 0 2.08-17.81c1.56-.415 3.16-.737 4.77-1.043-1.71 7.328-3.853 13.974-6.77 20.298m9.233-38.783c-2.88.377-5.555.792-8.2 1.365a108.077 108.077 0 0 0-2.533-12.67 190.654 190.654 0 0 0 8.403-7.486c1.593 6.16 2.268 11.927 2.33 18.792m-9.862-36.31a117.05 117.05 0 0 1-7.242 7.17c-2.683-5.767-5.814-11.29-9.438-16.508 1.89-2.283 3.72-4.637 5.43-7.1 4.62 5.115 8.63 11.094 11.25 16.437" fill-rule="evenodd" fill="#fff"/><path d="M502.016 61.638c0 1.577-.808 2.315-1.906 2.166-.902-.126-3.554-.4-5.327-.636-1.2-.157-1.923-.478-1.923-2.707V27.015c0-1.765.887-2.3 2.12-2.165 1.23.124 3.34.556 4.59.736 1.238.18 2.446.455 2.446 2.024v34.028zm3.696-45.585c-3.868-.682-17.803-2.98-18.69-2.95-7.468.228-8.37 6.214-8.363 8.136v39.92c0 8.497 7.272 10.513 9.46 10.75 4.324.46 15.693 2.03 19.514 2.423 4.04.424 8.474-2.307 8.474-7.885v-39.67c.008-1.922-.612-8.983-10.396-10.725M413.9 5.147c-7.705-.65-26.3-1.287-26.3-1.287v60.508l14.484.518v-49.9s2.87.086 5.806.227c2.926.14 3.805 1.35 3.805 2.832V65.23l14.366.872.01-50.6c0-3.333-2.347-9.53-12.17-10.355M365.424 31.036l-9.666.03V16.57c.03-1.153.94-2.715 4.04-2.715h5.626v17.183zM352.534 3.48c-7.078 0-11.205 3.25-11.205 10.71 0 3.578.038 49.8.038 49.8l14.39-.103V40.145l9.666-.04V64.02l14.507.055V3.763s-11.548-.282-15.353-.282h-12.044zM334.3 45.008l-11.526.322-2.833 10.027-3.85.15V4.49l-14.422.817V65.32s5.963-.305 16.28-.61a3023.24 3023.24 0 0 1 16.35-.432v-19.27zM276.96 33.282c-2.91.376-6.355.643-6.355.643V18.233a234.17 234.17 0 0 1 6.112-.65c2.958-.252 3.233 1.764 3.233 2.55 0 .674-.008 9.908 0 10.112v.055s-.08 2.605-2.99 2.982m17.465 8.238h-.015c.204-2.01-1.09-4.77-3.53-5.53 1.584-.817 3.38-3.06 3.396-5.627V14.97c0-3.798-2.99-8.733-9.666-8.38-7.642.4-28.34 2.7-28.34 2.7V68.61l14.335-1.208V43.097c1.656-.204 6.418-.698 6.795-.722 2.08-.14 2.667 1.114 2.667 1.703v22.627l14.358-.95V41.52zM232.953 60.925c-.918.156-3.64.517-5.398.666-1.35.11-1.993-1.458-1.993-2.164l-.023-33.65c0-.645.313-1.837 1.584-2.08 1.31-.236 4.072-.636 5.43-.887 1.247-.23 2.11.98 2.11 1.756 0 1.413.04 33.165.04 34.052 0 .88-.51 2.095-1.75 2.307m7.17-49.422c-1.67 0-14.758 1.655-18.626 2.393-2.958.573-10.27 3.123-10.066 11.023V65.6c0 3.437 1.914 7.894 7.916 7.266 1.82-.196 15.04-2.01 19.913-2.432 7.384-.644 9.81-6.34 9.652-10.404V19.42c.008-7.917-7.477-7.917-8.788-7.917M457.6 57.022c-.234 1.177-1.246 1.57-2.87 1.428l-6.708-.596v-39.16s3.562.37 6.05.652c2.345.267 3.23 1.083 3.53 2.244v35.432zm3.422-47.97c-3.38-.596-27.296-2.81-27.296-2.81V66.62s22.087 1.773 27.257 2.252c5.17.486 10.953-1.31 10.953-8.38V20.578c0-8.607-6.206-10.694-10.914-11.526" fill="#0c1e24"/></svg>