<svg xmlns="http://www.w3.org/2000/svg" xmlns:xlink="http://www.w3.org/1999/xlink" width="250" height="138" viewBox="0 0 250 138"><path fill-rule="evenodd" clip-rule="evenodd" fill="#C4CED4" d="M237.174 46.825l1.99-6.82-8.995-3.647c-.376-.152-.773-.305-1.164-.468l1.56-4.544-8.527-2.762c.664-2.26 1.058-3.6 1.076-3.647l.995-3.408-3.36-1.143C188.95 9.6 159.424 4.79 124.994 4.79S61.03 9.6 29.248 20.385l-3.36 1.142.99 3.408c.02.048.412 1.387 1.082 3.647l-8.532 2.762 1.564 4.544c-.388.163-.784.31-1.172.467l-8.993 3.647s1.215 4.15 2 6.82C10.29 47.734 5 49.644 5 49.644l19.294 58.825s5.143-1.836 7.988-2.868c1.157 3.05 2.576 6.76 2.576 6.76l10.2-4.204c.325-.142.648-.253.975-.394l1.05 3.328 3.74-1.653c3.064-1.315 12.42-5.123 25.19-8.488-4.538 6.753-9.347 13.93-9.347 13.93l29.197-9.55 11.59 27.88s7.705-26.462 8.42-28.932c2.148.554 33.295 8.565 33.295 8.565s-8.83-10.207-15.337-17.714c30.05.25 57.21 10.82 65.337 14.31l3.752 1.607 1.043-3.283c.323.14.646.26.966.394l10.202 4.205s1.42-3.71 2.585-6.76c2.838 1.03 7.972 2.866 7.972 2.866L245 49.644s-5.293-1.91-7.826-2.82"/><path fill-rule="evenodd" clip-rule="evenodd" fill="#0A1B23" d="M232.383 49.266l2.027-6.965-5.713-2.308a211.12 211.12 0 0 0-4.42-1.742l1.557-4.544-8.384-2.7c1.315-4.395 2.11-7.114 2.11-7.114-29.3-9.936-58.23-15.396-94.565-15.396-36.343 0-65.262 5.46-94.56 15.396 0 0 .8 2.72 2.103 7.113l-8.383 2.7 1.56 4.545c-1.484.57-2.958 1.14-4.424 1.742l-5.712 2.31s1.956 6.71 2.032 6.964c-.457.167-7.71 2.776-7.71 2.776l16.86 51.383s7.487-2.692 7.81-2.82c.004 0 2.51 6.61 2.51 6.61l6.484-2.676c1.583-.654 3.15-1.278 4.717-1.892.57 1.816.96 3.002 1.084 3.38 3.687-1.574 16.828-6.95 34.245-10.723-3.992 5.94-9.214 13.717-9.214 13.717s22.9-7.492 23.26-7.607l9.27 22.306s6.644-22.798 6.772-23.26c.576.143 26.47 6.814 26.47 6.814s-8.51-9.83-13.594-15.712c35.228-1.71 67.828 11.804 74.05 14.467.13-.38.513-1.564 1.09-3.38a265.41 265.41 0 0 1 4.72 1.89l6.478 2.675 2.512-6.608c.32.127 7.804 2.82 7.804 2.82l16.855-51.384s-7.24-2.61-7.7-2.777"/><path fill-rule="evenodd" clip-rule="evenodd" fill="#FFF" d="M225.295 52.872s1.687-5.778 2.1-7.17c-.436-.175-.866-.353-.866-.353-31.283-12.682-67.298-19.66-101.402-19.66-34.278 0-70.376 6.978-101.66 19.66 0 0-.434.177-.86.353.398 1.39 2.083 7.17 2.083 7.17s-6.058 2.18-7.53 2.707c.598 1.814 12.622 38.447 13.25 40.375 1.536-.546 7.55-2.715 7.55-2.715s1.875 4.91 2.417 6.348c.492-.204.982-.397.982-.397 17.108-7.057 33.462-11.848 49.924-14.574l3.865 2.72s-7.225 10.77-8.163 12.16c1.597-.517 13.593-4.438 13.593-4.438s4.853 11.686 5.488 13.204c.46-1.582 4.093-14.02 4.093-14.02s13.546 3.483 15.35 3.943c-1.216-1.396-10-11.544-10-11.544l5.56-4.738c1.308-.02 2.61-.045 3.928-.045 28.402 0 54.975 5.5 83.642 17.335 0 0 .49.193.974.397l2.426-6.35s6.014 2.17 7.55 2.716c.625-1.928 12.645-38.56 13.247-40.375-1.476-.528-7.542-2.708-7.542-2.708"/><path fill="none" stroke="#231F20" stroke-width=".266" stroke-miterlimit="3.864" d="M225.295 52.872s1.687-5.778 2.1-7.17c-.436-.175-.866-.353-.866-.353-31.283-12.682-67.298-19.66-101.402-19.66-34.278 0-70.376 6.978-101.66 19.66 0 0-.434.177-.86.353.398 1.39 2.083 7.17 2.083 7.17s-6.058 2.18-7.53 2.707c.598 1.814 12.622 38.447 13.25 40.375 1.536-.546 7.55-2.715 7.55-2.715s1.875 4.91 2.417 6.348c.492-.204.982-.397.982-.397 17.108-7.057 33.462-11.848 49.924-14.574l3.865 2.72s-7.225 10.77-8.163 12.16c1.597-.517 13.593-4.438 13.593-4.438s4.853 11.686 5.488 13.204c.46-1.582 4.093-14.02 4.093-14.02s13.546 3.483 15.35 3.943c-1.216-1.396-10-11.544-10-11.544l5.56-4.738c1.308-.02 2.61-.045 3.928-.045 28.402 0 54.975 5.5 83.642 17.335 0 0 .49.193.974.397l2.426-6.35s6.014 2.17 7.55 2.716c.625-1.928 12.645-38.56 13.247-40.375-1.476-.528-7.542-2.708-7.542-2.708z"/><path fill-rule="evenodd" clip-rule="evenodd" fill="#FFF" d="M23.464 45.35s-.43.18-.86.354c.403 1.393 2.084 7.17 2.084 7.17s-6.058 2.18-7.527 2.705c.595 1.817 12.62 38.452 13.247 40.38 1.536-.554 7.553-2.715 7.553-2.715s1.875 4.91 2.414 6.344c.492-.205.983-.398.983-.398 28.658-11.83 55.238-17.33 83.64-17.33 28.403 0 54.976 5.5 83.643 17.33 0 0 .487.193.974.397.55-1.435 2.422-6.345 2.422-6.345s6.018 2.16 7.55 2.715c.633-1.928 12.652-38.563 13.25-40.38-1.478-.527-7.54-2.705-7.54-2.705s1.687-5.778 2.096-7.17c-.432-.175-.862-.354-.862-.354-31.282-12.68-67.3-19.663-101.4-19.663-34.28 0-70.378 6.982-101.666 19.664"/><path fill-rule="evenodd" clip-rule="evenodd" fill="#C4CED4" d="M217.62 91.933c-2.157-.784-7.413-2.667-7.413-2.667s-1.675 4.387-2.384 6.248c-28.285-11.41-54.67-16.778-82.828-16.778-28.153 0-54.546 5.367-82.825 16.778-.708-1.86-2.39-6.248-2.39-6.248s-5.253 1.883-7.405 2.667l-11.3-34.442c2.126-.758 7.435-2.68 7.435-2.68s-1.517-5.203-2.11-7.242C56.914 35.47 91.88 28.805 125.13 28.805c33.077 0 67.955 6.666 98.458 18.756-.587 2.047-2.106 7.25-2.106 7.25s5.315 1.92 7.437 2.68c-1.084 3.296-10.162 30.974-11.3 34.443"/><path fill-rule="evenodd" clip-rule="evenodd" fill="#FFF" d="M177.238 73.06l4.755-26.903c.007-.007.09-.927.09-.927a5.827 5.827 0 0 0-1.097-3.454 5.825 5.825 0 0 0-3.818-2.396l-30.235-5.12-2.103 12.423s-4.03 23.798-4.23 24.99c1.7.285 12.087 2.038 13.773 2.328.305-1.75 2.14-12.407 2.14-12.407l8.535 1.445-.186 1.055s-1.166 7.128-1.226 7.586c-.216 1.682.126 2.157.616 2.878.498.73 1.36 1.237 2.393 1.526-.127-.033 14.285 3.484 14.285 3.484l-3.692-6.508zm-9.33-21.232l-11.04-1.848.316-1.898 11.043 1.848-.32 1.898zM72.463 72.373L64.376 47.49c-.995-3.088-4.32-4.78-7.416-3.78l.004-.004L34.27 51.08a5.805 5.805 0 0 0-3.422 2.93 5.83 5.83 0 0 0-.353 4.493l8.086 24.88c1 3.09 4.332 4.784 7.413 3.78 0 0-.07.038-.11.046.194-.068 1.88-.62 22.8-7.415a5.87 5.87 0 0 0 4.07-5.608c0-.61-.1-1.224-.29-1.814M45.07 62.22l-.6-1.828 9.995-3.282.602 1.833-9.996 3.278zm3.838 11.564l-.602-1.833 9.994-3.286.607 1.835-10 3.284z"/><path fill-rule="evenodd" clip-rule="evenodd" fill="#FFF" d="M105.768 53.268c.004.015-2.565-13.35-2.565-13.35a5.82 5.82 0 0 0-2.464-3.754 5.86 5.86 0 0 0-4.408-.92s-28.188 5.352-30.137 5.717c.264 1.403 5.72 30.162 5.72 30.162l.77 4.067.573 3.048L87 75.628c-.33-1.746-2.357-12.364-2.357-12.364l16.438-3.122a5.842 5.842 0 0 0 3.775-2.46 5.903 5.903 0 0 0 1.016-3.478l-.102-.936zm-24.85-1.176l-.365-1.89 11.01-2.107.367 1.89-11.01 2.107z"/><path fill-rule="evenodd" clip-rule="evenodd" fill="#FFF" d="M97.117 66.823c.043.962.834 11.64.834 11.64s-12.84.525-14.552.596c1.39.987 11.75 8.274 11.75 8.274s-7.223 10.772-8.163 12.16c1.597-.516 13.595-4.437 13.595-4.437s4.856 11.686 5.492 13.212c.46-1.59 4.09-14.03 4.09-14.03s13.544 3.484 15.345 3.944l-10-11.544s10.663-9.09 11.906-10.114c-1.475-.01-8.23-.104-8.23-.104l1.737-1.9h11.25l13.312-23.576v-16.9h-11.704l-5.1 9.03s-.564 4.554-.676 5.527c-.478.853-4.445 7.904-5.74 10.22h-1.876c1.97-3.488 4.548-8.036 4.548-8.036V34.044H112.88l-4.91 9.003s-.518 4.573-.627 5.56c-.503.89-10.226 18.216-10.226 18.216"/><g><defs><path id="a" d="M135.604 37.185l-3.89 6.888-.67 5.517-6.943 12.366h-9.09l6.782-11.996V37.185h-7.048l-3.727 6.834-.628 5.57-9.902 17.638 1.662 4.157h6.163l-2.807 7.1-5.254-5.677.62 8.338-9.105.38 7.243 5.095-5.158 7.68 8.326-2.724 3.426 8.246 2.617-8.977 9.278 2.38-5.99-6.916 7.37-6.096-7.607.472 8.236-9.3h10.835L142.34 50.12V37.185z"/></defs><clipPath id="b"><use xlink:href="#a" overflow="visible"/></clipPath><path clip-path="url(#b)" fill-rule="evenodd" clip-rule="evenodd" fill="#0A1B23" d="M135.607 37.183l-3.888 6.892-.68 5.515-6.936 12.37h-9.095l6.782-12.002V37.183h-7.048l-3.727 6.834-.628 5.573-9.898 17.637 1.658 4.158h6.163l-2.81 7.1-5.25-5.674.62 8.336-9.102.38 7.242 5.095-5.16 7.675 8.324-2.715 3.427 8.246 2.62-8.985 9.273 2.386-5.99-6.917 7.376-6.1-7.608.476 8.232-9.3h10.83l12.006-21.268V37.183z"/><path clip-path="url(#b)" fill="none" stroke="#231F20" stroke-width=".266" stroke-miterlimit="3.864" d="M135.607 37.183l-3.888 6.892-.68 5.515-6.936 12.37h-9.095l6.782-12.002V37.183h-7.048l-3.727 6.834-.628 5.573-9.898 17.637 1.658 4.158h6.163l-2.81 7.1-5.25-5.674.62 8.336-9.102.38 7.242 5.095-5.16 7.675 8.324-2.715 3.427 8.246 2.62-8.985 9.273 2.386-5.99-6.917 7.376-6.1-7.608.476 8.232-9.3h10.83l12.006-21.268V37.183z"/></g><g><path fill-rule="evenodd" clip-rule="evenodd" fill="#FFF" d="M219.033 53.87a5.897 5.897 0 0 0-3.425-2.924l-22.684-7.37a5.82 5.82 0 0 0-4.49.355 5.826 5.826 0 0 0-2.932 3.426l-8.086 24.886c-.193.6-.29 1.215-.29 1.824 0 .917.216 1.83.643 2.66a5.813 5.813 0 0 0 3.432 2.934l22.68 7.366a5.765 5.765 0 0 0 4.49-.354 5.844 5.844 0 0 0 2.932-3.417l8.09-24.894c.192-.595.286-1.22.286-1.82 0-.92-.216-1.83-.647-2.67m-17.495 19.67l-9.988-3.288.605-1.837 9.988 3.295-.605 1.83zm3.848-11.56l-9.99-3.282.594-1.833 9.99 3.285-.594 1.83z"/><path fill-rule="evenodd" clip-rule="evenodd" fill="#C4CED4" d="M136.56 39.025l-2.41 4.305h3.286l2.288-4.305zM119.277 39.025h-3.408l-2.385 4.312 3.536-.007zM125.36 63.625h-17.267l7.197-12.67h-3.39l-8.684 15.335h9.64l-7.053 16.078-3.172-3.43.32 4.328-4.736.2 3.767 2.652-2.68 3.99 4.326-1.412 1.777 4.29 1.36-4.68 4.828 1.248-3.114-3.604 3.83-3.164-5.375.33h-.373l11.138-16.828h9.654l8.538-15.335h-3.328l-7.2 12.672zm-20.57 23.32c-.645 0-1.186-.532-1.186-1.193 0-.646.54-1.182 1.187-1.182.655 0 1.19.535 1.19 1.182a1.19 1.19 0 0 1-1.19 1.192M116.13 45.072h-3.09l-.396 3.677 3.18.012zM133.238 48.75l3.195.01.296-3.688h-3.094z"/><path fill-rule="evenodd" clip-rule="evenodd" fill="#FFF" d="M43.503 31.592c.435 1.59 1.354 1.76 3.404 1.21l2.727-.73c3-.803 3.58-1.312 3.05-3.286-.573-2.145-1.44-2.138-4.94-1.198-2.42.665-2.696.72-2.87.074-.097-.39.196-.654.705-.795l2.5-.665c1.03-.278 1.15-.076 1.292.464l2.26-.602-.065-.236c-.35-1.29-.83-2.11-3.42-1.402l-3.145.836c-2.845.76-2.69 1.81-2.34 3.15.48 1.81.986 2.11 4.372 1.197 2.905-.774 3.18-.807 3.35-.165.15.57-.32.75-.798.87l-2.765.742c-.642.177-.972.203-1.19-.574l-2.256.602.13.507z"/><path fill="none" stroke="#231F20" stroke-width=".266" stroke-miterlimit="3.864" d="M43.503 31.592c.435 1.59 1.354 1.76 3.404 1.21l2.727-.73c3-.803 3.58-1.312 3.05-3.286-.573-2.145-1.44-2.138-4.94-1.198-2.42.665-2.696.72-2.87.074-.097-.39.196-.654.705-.795l2.5-.665c1.03-.278 1.15-.076 1.292.464l2.26-.602-.065-.236c-.35-1.29-.83-2.11-3.42-1.402l-3.145.836c-2.845.76-2.69 1.81-2.34 3.15.48 1.81.986 2.11 4.372 1.197 2.905-.774 3.18-.807 3.35-.165.15.57-.32.75-.798.87l-2.765.742c-.642.177-.972.203-1.19-.574l-2.256.602.13.507z"/><path fill-rule="evenodd" clip-rule="evenodd" fill="#FFF" d="M59.658 29.384l2.552-.544.38-1.46 4.625-.985.99 1.176 2.537-.55-5.665-6.566-2.977.63-2.442 8.3zm4.293-6.888l2.07 2.476-2.925.62.856-3.096z"/><path fill="none" stroke="#231F20" stroke-width=".266" stroke-miterlimit="3.864" d="M59.658 29.384l2.552-.544.38-1.46 4.625-.985.99 1.176 2.537-.55-5.665-6.566-2.977.63-2.442 8.3m4.293-6.888l2.07 2.476-2.925.62.856-3.096z"/><path fill-rule="evenodd" clip-rule="evenodd" fill="#FFF" d="M77.36 25.857l2.302-.37-.86-5.448h.018l5.19 4.768 3.574-.566-1.19-7.516-2.31.363.872 5.458-.028.007-5.187-4.77-3.57.56z"/><path fill="none" stroke="#231F20" stroke-width=".266" stroke-miterlimit="3.864" d="M77.36 25.857l2.302-.37-.86-5.448h.018l5.19 4.768 3.574-.566-1.19-7.516-2.31.363.872 5.458-.028.007-5.187-4.77-3.57.56z"/><path fill-rule="evenodd" clip-rule="evenodd" fill="#FFF" d="M101.64 22.858l2.598-.14.615-1.377 4.717-.243.79 1.31 2.6-.138-4.577-7.38-3.035.153-3.708 7.815zm5.313-6.127l1.662 2.774-2.98.152 1.318-2.925z"/><path fill="none" stroke="#231F20" stroke-width=".266" stroke-miterlimit="3.864" d="M101.64 22.858l2.598-.14.615-1.377 4.717-.243.79 1.31 2.6-.138-4.577-7.38-3.035.153-3.708 7.815m5.313-6.127l1.662 2.774-2.98.152 1.318-2.925z"/><path fill-rule="evenodd" clip-rule="evenodd" fill="#FFF" d="M119.675 22.05h2.33v-5.527h.017l4.38 5.527h3.612v-7.607h-2.333v5.535h-.014l-4.387-5.535h-3.605z"/><path fill="none" stroke="#231F20" stroke-width=".266" stroke-miterlimit="3.864" d="M119.675 22.05h2.33v-5.527h.017l4.38 5.527h3.612v-7.607h-2.333v5.535h-.014l-4.387-5.535h-3.605z"/><path fill-rule="evenodd" clip-rule="evenodd" fill="#FFF" d="M137.22 16.467l3.272.175-.294 5.716 2.33.116.293-5.713 3.277.18.092-1.9-8.874-.456z"/><path fill="none" stroke="#231F20" stroke-width=".266" stroke-miterlimit="3.864" d="M137.22 16.467l3.272.175-.294 5.716 2.33.116.293-5.713 3.277.18.092-1.9-8.874-.456z"/><path fill-rule="evenodd" clip-rule="evenodd" fill="#FFF" d="M152.79 20.538c-.227 2.22.96 2.872 3.054 3.09l3.714.398c2.088.217 3.388-.178 3.622-2.388l.233-2.26c.242-2.215-.95-2.867-3.045-3.084l-3.72-.397c-2.09-.214-3.39.178-3.616 2.392l-.242 2.248m2.55-1.277c.088-.935.393-1.498 1.61-1.36l2.712.284c1.226.126 1.396.72 1.3 1.67l-.09.81c-.118 1.097-.386 1.49-1.488 1.374l-2.96-.31c-1.1-.116-1.29-.55-1.17-1.653l.085-.814z"/><path fill="none" stroke="#231F20" stroke-width=".266" stroke-miterlimit="3.864" d="M152.79 20.538c-.227 2.22.96 2.872 3.054 3.09l3.714.398c2.088.217 3.388-.178 3.622-2.388l.233-2.26c.242-2.215-.95-2.867-3.045-3.084l-3.72-.397c-2.09-.214-3.39.178-3.616 2.392l-.242 2.248m2.55-1.277c.088-.935.393-1.498 1.61-1.36l2.712.284c1.226.126 1.396.72 1.3 1.67l-.09.81c-.118 1.097-.386 1.49-1.488 1.374l-2.96-.31c-1.1-.116-1.29-.55-1.17-1.653l.085-.814z"/><path fill-rule="evenodd" clip-rule="evenodd" fill="#FFF" d="M170.16 25.33l2.294.403.955-5.45.014.01 3.354 6.205 3.57.628 1.322-7.494-2.307-.403-.95 5.44h-.023l-3.358-6.21-3.55-.627z"/><path fill="none" stroke="#231F20" stroke-width=".266" stroke-miterlimit="3.864" d="M170.16 25.33l2.294.403.955-5.45.014.01 3.354 6.205 3.57.628 1.322-7.494-2.307-.403-.95 5.44h-.023l-3.358-6.21-3.55-.627z"/><path fill-rule="evenodd" clip-rule="evenodd" fill="#FFF" d="M187.743 28.613l2.284.49 1.586-7.443-2.288-.483z"/><path fill="none" stroke="#231F20" stroke-width=".266" stroke-miterlimit="3.864" d="M187.743 28.613l2.284.49 1.586-7.443-2.288-.483z"/><path fill-rule="evenodd" clip-rule="evenodd" fill="#FFF" d="M197.928 28.292c-.572 2.152.498 2.983 2.525 3.52l3.61.972c2.036.542 3.373.36 3.95-1.79l.59-2.194c.57-2.152-.498-2.98-2.526-3.52l-3.614-.974c-2.03-.544-3.376-.362-3.952 1.79l-.582 2.196m2.712-.87c.245-.918.624-1.41 1.81-1.097l2.633.704c1.192.318 1.27.942 1.02 1.85l-.21.796c-.29 1.066-.618 1.412-1.684 1.124l-2.884-.765c-1.065-.293-1.178-.758-.906-1.83l.22-.784z"/><path fill="none" stroke="#231F20" stroke-width=".266" stroke-miterlimit="3.864" d="M197.928 28.292c-.572 2.152.498 2.983 2.525 3.52l3.61.972c2.036.542 3.373.36 3.95-1.79l.59-2.194c.57-2.152-.498-2.98-2.526-3.52l-3.614-.974c-2.03-.544-3.376-.362-3.952 1.79l-.582 2.196m2.712-.87c.245-.918.624-1.41 1.81-1.097l2.633.704c1.192.318 1.27.942 1.02 1.85l-.21.796c-.29 1.066-.618 1.412-1.684 1.124l-2.884-.765c-1.065-.293-1.178-.758-.906-1.83l.22-.784z"/><path fill-rule="evenodd" clip-rule="evenodd" fill="#FFF" d="M43.503 31.592c.435 1.59 1.354 1.76 3.404 1.21l2.727-.73c3-.803 3.58-1.312 3.05-3.286-.573-2.145-1.44-2.138-4.94-1.198-2.42.665-2.696.72-2.87.074-.097-.39.196-.654.705-.795l2.5-.665c1.03-.278 1.15-.076 1.292.464l2.26-.602-.065-.236c-.35-1.29-.83-2.11-3.42-1.402l-3.145.836c-2.845.76-2.69 1.81-2.34 3.15.48 1.81.986 2.11 4.372 1.197 2.905-.774 3.18-.807 3.35-.165.15.57-.32.75-.798.87l-2.765.742c-.642.177-.972.203-1.19-.574l-2.256.602.13.507zM59.658 29.384l2.552-.544.38-1.46 4.625-.985.99 1.176 2.537-.55-5.665-6.566-2.977.63-2.442 8.3zm4.293-6.888l2.07 2.476-2.925.62.856-3.096zM77.36 25.857l2.302-.37-.86-5.448h.018l5.19 4.768 3.574-.566-1.19-7.516-2.31.363.872 5.458-.028.007-5.187-4.77-3.57.56zM101.64 22.858l2.598-.14.615-1.377 4.717-.243.79 1.31 2.6-.138-4.577-7.38-3.035.153-3.708 7.815zm5.313-6.127l1.662 2.774-2.98.152 1.318-2.925zM119.675 22.05h2.33v-5.527h.017l4.38 5.527h3.612v-7.607h-2.333v5.535h-.014l-4.387-5.535h-3.605zM137.22 16.467l3.272.175-.294 5.716 2.33.116.293-5.713 3.277.18.092-1.9-8.874-.456zM152.79 20.538c-.227 2.22.96 2.872 3.054 3.09l3.714.398c2.088.217 3.388-.178 3.622-2.388l.233-2.26c.242-2.215-.95-2.867-3.045-3.084l-3.72-.397c-2.09-.214-3.39.178-3.616 2.392l-.242 2.248m2.55-1.277c.088-.935.393-1.498 1.61-1.36l2.712.284c1.226.126 1.396.72 1.3 1.67l-.09.81c-.118 1.097-.386 1.49-1.488 1.374l-2.96-.31c-1.1-.116-1.29-.55-1.17-1.653l.085-.814zM170.16 25.33l2.294.403.955-5.45.014.01 3.354 6.205 3.57.628 1.322-7.494-2.307-.403-.95 5.44h-.023l-3.358-6.21-3.55-.627zM187.743 28.613l2.284.49 1.586-7.443-2.288-.483zM197.928 28.292c-.572 2.152.498 2.983 2.525 3.52l3.61.972c2.036.542 3.373.36 3.95-1.79l.59-2.194c.57-2.152-.498-2.98-2.526-3.52l-3.614-.974c-2.03-.544-3.376-.362-3.952 1.79l-.582 2.196m2.712-.87c.245-.918.624-1.41 1.81-1.097l2.633.704c1.192.318 1.27.942 1.02 1.85l-.21.796c-.29 1.066-.618 1.412-1.684 1.124l-2.884-.765c-1.065-.293-1.178-.758-.906-1.83l.22-.784z"/></g><g><defs><path id="c" d="M168.718 53.56l-13.613-2.3.88-5.366 13.603 2.3c.598.107 1.01.677.902 1.27l-.5 3.192c-.102.54-.565.92-1.086.92a.83.83 0 0 1-.186-.015m-24.523 15.55l7.63 1.29 2.14-12.412 9.827 1.673 3.78.64c.596.104 1.008.67.897 1.27l-1.613 9.34c-.33 1.975.807 2.102 1.297 2.198.557.104 6.545 1.158 6.545 1.158-.18-.186-.55-.86-.254-2.208l1.887-10.978c.164-1.08-.364-2.026-1.267-2.45 1.28-.143 1.868-1.137 2.047-2.186l.163-.947 1.64-9.854a2.76 2.76 0 0 0-2.267-3.185l-27.15-4.595-5.305 31.248z"/></defs><clipPath id="d"><use xlink:href="#c" overflow="visible"/></clipPath><path clip-path="url(#d)" fill-rule="evenodd" clip-rule="evenodd" fill="#0A1B23" d="M176.65 42.46l-27.154-4.595-5.3 31.246 7.628 1.29 2.136-12.41 9.832 1.677 3.778.635c.602.102 1.006.668.902 1.27l-1.612 9.34c-.334 1.973.803 2.092 1.297 2.196.55.104 6.537 1.158 6.537 1.158-.18-.186-.546-.86-.25-2.208l1.888-10.976c.164-1.08-.367-2.028-1.27-2.454 1.284-.14 1.87-1.14 2.05-2.184l.163-.947 1.642-9.854a2.768 2.768 0 0 0-2.266-3.183m-6.157 7.006l-.505 3.19c-.11.603-.68 1.01-1.27.903L155.1 51.26l.884-5.367 13.603 2.3c.6.107 1.01.677.906 1.27"/><path clip-path="url(#d)" fill="none" stroke="#231F20" stroke-width=".266" stroke-miterlimit="3.864" d="M176.65 42.46l-27.154-4.595-5.3 31.246 7.628 1.29 2.136-12.41 9.832 1.677 3.778.635c.602.102 1.006.668.902 1.27l-1.612 9.34c-.334 1.973.803 2.092 1.297 2.196.55.104 6.537 1.158 6.537 1.158-.18-.186-.546-.86-.25-2.208l1.888-10.976c.164-1.08-.367-2.028-1.27-2.454 1.284-.14 1.87-1.14 2.05-2.184l.163-.947 1.642-9.854a2.768 2.768 0 0 0-2.266-3.183zm-6.157 7.006l-.505 3.19c-.11.603-.68 1.01-1.27.903L155.1 51.26l.884-5.367 13.603 2.3c.6.107 1.01.677.906 1.27z"/></g><g><defs><path id="e" d="M78.71 48.723l13.57-2.578a1.107 1.107 0 0 1 1.293.886l.63 3.154c.11.6-.28 1.187-.885 1.296l-13.59 2.58-1.018-5.337zm18.2-10.417L69.843 43.44l5.91 31.14 7.585-1.44L81 60.777l19.492-3.703a2.76 2.76 0 0 0 2.21-3.23l-2.566-13.338a2.77 2.77 0 0 0-3.227-2.2"/></defs><clipPath id="f"><use xlink:href="#e" overflow="visible"/></clipPath><path clip-path="url(#f)" fill-rule="evenodd" clip-rule="evenodd" fill="#0A1B23" d="M79.727 54.06l13.595-2.575c.602-.115.997-.7.882-1.298l-.63-3.157c-.118-.6-.697-1-1.29-.886l-13.57 2.58 1.013 5.335M83.34 73.14l-7.588 1.438-5.906-31.14 27.06-5.13a2.77 2.77 0 0 1 3.23 2.194l2.564 13.342a2.755 2.755 0 0 1-2.206 3.226l-19.497 3.705 2.343 12.365z"/><path clip-path="url(#f)" fill="none" stroke="#231F20" stroke-width=".266" stroke-miterlimit="3.864" d="M79.727 54.06l13.595-2.575c.602-.115.997-.7.882-1.298l-.63-3.157c-.118-.6-.697-1-1.29-.886l-13.57 2.58 1.013 5.335M83.34 73.14l-7.588 1.438-5.906-31.14 27.06-5.13a2.77 2.77 0 0 1 3.23 2.194l2.564 13.342a2.755 2.755 0 0 1-2.206 3.226l-19.497 3.705 2.343 12.365z"/></g><g><defs><path id="g" d="M188.47 48.32l-3.877 11.95-.338 1.05a2.754 2.754 0 0 0 1.77 3.48l8.664 2.812 8.286 2.697c.59.185.865.914.68 1.5l-1.014 3.125a1.11 1.11 0 0 1-1.39.706l-11.214-3.646a1.104 1.104 0 0 1-.71-1.396l.65-1.973-7.332-2.383-2.258 6.97c-.47 1.445.32 3 1.775 3.47l22.688 7.377a2.756 2.756 0 0 0 3.478-1.773l3.866-11.886.428-1.312c.46-1.45-.327-3.01-1.775-3.475l-14.315-4.652-2.63-.855a1.115 1.115 0 0 1-.71-1.393l1-3.088c.2-.58.816-.897 1.396-.702l11.214 3.635c.575.188.888.82.71 1.393l-.625 1.76 7.354 2.385 2.178-6.697a2.758 2.758 0 0 0-1.775-3.477l-22.688-7.366a2.725 2.725 0 0 0-.862-.14 2.757 2.757 0 0 0-2.622 1.906"/></defs><clipPath id="h"><use xlink:href="#g" overflow="visible"/></clipPath><path clip-path="url(#h)" fill-rule="evenodd" clip-rule="evenodd" fill="#0A1B23" d="M202.98 70.312c.582.186.864.913.68 1.502l-1.022 3.122a1.106 1.106 0 0 1-1.39.706l-11.206-3.65a1.106 1.106 0 0 1-.717-1.394l.653-1.975-7.332-2.377-2.255 6.966c-.474 1.44.32 3 1.77 3.474l22.69 7.373a2.752 2.752 0 0 0 3.474-1.777L212.19 70.4l.432-1.31a2.773 2.773 0 0 0-1.775-3.48l-14.312-4.65-2.634-.857a1.112 1.112 0 0 1-.705-1.39l.996-3.09c.2-.582.814-.898 1.4-.703l11.207 3.636c.58.19.895.817.71 1.39l-.625 1.76 7.358 2.388 2.185-6.7a2.773 2.773 0 0 0-1.783-3.476l-22.684-7.367a2.754 2.754 0 0 0-3.484 1.77l-3.882 11.95-.342 1.055a2.76 2.76 0 0 0 1.775 3.48l8.658 2.81 8.296 2.697z"/><path clip-path="url(#h)" fill="none" stroke="#231F20" stroke-width=".266" stroke-miterlimit="3.864" d="M202.98 70.312c.582.186.864.913.68 1.502l-1.022 3.122a1.106 1.106 0 0 1-1.39.706l-11.206-3.65a1.106 1.106 0 0 1-.717-1.394l.653-1.975-7.332-2.377-2.255 6.966c-.474 1.44.32 3 1.77 3.474l22.69 7.373a2.752 2.752 0 0 0 3.474-1.777L212.19 70.4l.432-1.31a2.773 2.773 0 0 0-1.775-3.48l-14.312-4.65-2.634-.857a1.112 1.112 0 0 1-.705-1.39l.996-3.09c.2-.582.814-.898 1.4-.703l11.207 3.636c.58.19.895.817.71 1.39l-.625 1.76 7.358 2.388 2.185-6.7a2.773 2.773 0 0 0-1.783-3.476l-22.684-7.367a2.754 2.754 0 0 0-3.484 1.77l-3.882 11.95-.342 1.055a2.76 2.76 0 0 0 1.775 3.48l8.658 2.81 8.296 2.697z"/></g><g><defs><path id="i" d="M57.923 46.686l-22.688 7.368a2.768 2.768 0 0 0-1.77 3.48l3.886 11.95.343 1.046a2.753 2.753 0 0 0 3.48 1.775l8.66-2.806 8.296-2.703c.573-.182 1.23.236 1.425.815l1.012 3.125c.19.57-.13 1.194-.708 1.386l-11.21 3.64a1.1 1.1 0 0 1-1.392-.702l-.64-1.978-7.337 2.374 2.27 6.972a2.763 2.763 0 0 0 3.483 1.764l22.69-7.376a2.752 2.752 0 0 0 1.77-3.47L65.626 61.45l-.43-1.312a2.75 2.75 0 0 0-3.472-1.765L47.413 63.02l-2.634.854a1.095 1.095 0 0 1-1.388-.717l-1.005-3.076c-.19-.578.126-1.21.71-1.395l11.21-3.644a1.11 1.11 0 0 1 1.392.716l.573 1.764 7.305-2.374-2.173-6.693a2.754 2.754 0 0 0-3.482-1.767"/></defs><clipPath id="j"><use xlink:href="#i" overflow="visible"/></clipPath><path clip-path="url(#j)" fill-rule="evenodd" clip-rule="evenodd" fill="#0A1B23" d="M49.833 69.498l-8.66 2.808a2.75 2.75 0 0 1-3.477-1.777l-.347-1.046-3.888-11.95a2.77 2.77 0 0 1 1.773-3.48l22.69-7.368a2.756 2.756 0 0 1 3.48 1.768l2.172 6.7-7.306 2.373-.57-1.768a1.106 1.106 0 0 0-1.392-.716l-11.212 3.644c-.58.19-.897.817-.708 1.395l1.005 3.08c.186.586.81.9 1.39.712l2.625-.85 14.317-4.65a2.75 2.75 0 0 1 3.473 1.77l.43 1.31 3.864 11.89a2.76 2.76 0 0 1-1.768 3.477L45.03 84.195a2.765 2.765 0 0 1-3.483-1.768l-2.262-6.968 7.332-2.38.64 1.98c.19.584.814.896 1.392.702l11.207-3.638c.58-.186.9-.81.708-1.384l-1.01-3.124c-.196-.578-.853-1-1.423-.817l-8.3 2.698z"/><path clip-path="url(#j)" fill="none" stroke="#231F20" stroke-width=".266" stroke-miterlimit="3.864" d="M49.833 69.498l-8.66 2.808a2.75 2.75 0 0 1-3.477-1.777l-.347-1.046-3.888-11.95a2.77 2.77 0 0 1 1.773-3.48l22.69-7.368a2.756 2.756 0 0 1 3.48 1.768l2.172 6.7-7.306 2.373-.57-1.768a1.106 1.106 0 0 0-1.392-.716l-11.212 3.644c-.58.19-.897.817-.708 1.395l1.005 3.08c.186.586.81.9 1.39.712l2.625-.85 14.317-4.65a2.75 2.75 0 0 1 3.473 1.77l.43 1.31 3.864 11.89a2.76 2.76 0 0 1-1.768 3.477L45.03 84.195a2.765 2.765 0 0 1-3.483-1.768l-2.262-6.968 7.332-2.38.64 1.98c.19.584.814.896 1.392.702l11.207-3.638c.58-.186.9-.81.708-1.384l-1.01-3.124c-.196-.578-.853-1-1.423-.817l-8.3 2.698z"/></g></svg>