<svg xmlns="http://www.w3.org/2000/svg" width="361.417" height="441.142"><path d="M46.562 357.347L22.675 369.36c-1.282.545-2.055.947-2.237 1.197-.645.743-.493 1.752.387 3.064l-.683.782L9.8 365.165l.68-.773c1.222.758 2.223.705 2.98-.167.236-.243.608-1.145 1.23-2.684l11.943-31.925c.622-1.585.88-2.722.88-3.496 0-.72-.258-1.48-.864-2.253l.696-.743 11.155 9.972-.666.728c-1.19-.637-2.078-.637-2.738.083-.303.35-.63.986-.993 1.873l-8.812 22.667 22.13-10.943c.94-.47 1.538-.82 1.728-1.046.667-.736.554-1.67-.356-2.814l.712-.75 11.64 10.434-.65.758c-1.336-.69-2.33-.63-2.944.076-.258.273-.523.857-.895 1.782l-8.637 22.833 21.27-11.026c1.07-.545 1.806-1.045 2.147-1.44.622-.697.455-1.653-.447-2.858l.644-.774 11.042 9.88-.66.737c-1-.448-1.767-.668-2.38-.57-.615.03-1.707.48-3.3 1.298l-30.386 15.462c-1.456.736-2.32 1.274-2.654 1.676-.705.752-.577 1.737.37 2.913l-.643.75-10.487-9.35.675-.758c1.26.827 2.267.81 3.086-.1.22-.294.622-1.212 1.13-2.75l9.138-24.518" fill="#1a64b7"/><path d="M33.008 385.443l9.964 8.895.273-.288c-.47-.63-.705-1.244-.705-1.828 0-.477.167-.94.5-1.31.418-.44 1.297-.995 2.76-1.738l30.38-15.432c1.615-.827 2.69-1.29 3.36-1.372.143-.016.25-.016.363-.016.568 0 1.243.175 2.024.56l.273-.332-10.518-9.426-.288.296c.486.69.76 1.304.76 1.88 0 .448-.176.865-.44 1.198-.426.5-1.184.956-2.26 1.494L47.4 379.484l8.926-23.67c.364-.916.668-1.508.933-1.857.386-.477.947-.712 1.554-.705.493 0 1.03.144 1.577.394l.266-.295-11.124-9.964-.288.288c.417.592.644 1.16.644 1.714.038.493-.167.91-.485 1.267-.296.326-.872.66-1.843 1.152l-22.916 11.315 9.145-23.448c.355-.925.697-1.585 1.098-1.972.342-.477.865-.697 1.42-.697.438 0 .94.136 1.432.402l.28-.31-10.662-9.503-.265.303c.508.736.78 1.47.78 2.23-.022.857-.318 2.032-.894 3.617L14.997 361.64c-.615 1.584-.98 2.464-1.282 2.82-.447.493-1.024.804-1.683.804-.51 0-.948-.16-1.494-.432l-.274.303 9.858 8.78.227-.302c-.408-.72-.674-1.372-.674-2.002 0-.47.213-.932.5-1.288.35-.356 1.07-.705 2.344-1.297l23.895-11.966.78-.403-9.455 25.305c-.53 1.555-.895 2.465-1.22 2.874-.47.478-1.048.804-1.632.804-.546 0-1.06-.167-1.6-.485l-.28.288zm-.933.068l.212-.264.842-.986.257.167c.56.38 1.077.53 1.5.53.41 0 .76-.166 1.11-.56.22-.175.613-1.138 1.106-2.655l8.85-23.69-23.13 11.61c-1.273.53-2.024.98-2.153 1.13a1.15 1.15 0 0 0-.32.82c0 .492.214 1.06.745 1.85l.15.204-.173.19-.925.986-10.79-9.67.21-.234.835-.956.25.122c.516.318.986.47 1.38.47.433 0 .79-.182 1.184-.576.098-.122.583-1.054 1.145-2.586l11.982-31.896c.56-1.57.842-2.737.842-3.39 0-.65-.235-1.334-.796-2.054l-.16-.235.167-.182.895-1.032 11.678 10.435-.212.243-.827.956-.266-.13c-.508-.302-.993-.424-1.357-.424-.402 0-.675.107-.933.425-.273.296-.614.895-.963 1.767l-8.523 21.863L47.264 347.2c.933-.44 1.525-.818 1.623-.985.266-.243.334-.516.334-.827 0-.386-.204-.902-.69-1.554l-.15-.19.19-.243.87-.984 12.21 10.874-.266.235-.84.978-.2-.144c-.598-.304-1.106-.448-1.53-.448-.448.007-.75.16-1.016.47-.175.197-.47.758-.804 1.683l-8.334 22.007 20.49-10.647c1.054-.53 1.736-1.008 2.055-1.334.19-.22.235-.447.265-.758 0-.394-.235-.986-.758-1.653l-.182-.25.182-.23.895-.977 11.54 10.29-.22.274-.84.917-.213-.09c-.826-.426-1.5-.6-1.97-.6a.99.99 0 0 0-.252.023c-.508.053-1.6.478-3.2 1.266L46.12 389.78c-1.442.713-2.33 1.297-2.58 1.57-.25.29-.348.524-.355.872 0 .418.22.97.765 1.646l.182.205-.212.227-.88 1.016-10.965-9.805M90.387 401.828l.455-16.842-13.096 10.67 12.64 6.172zm-.174 6.484L72.65 399.72l-5.3 4.156c-.713.553-1.184 1.077-1.41 1.516-.373.827-.047 1.714 1.076 2.655l-.478.917-12.755-6.28.425-.88c.834.214 1.57.244 2.13.024.57-.144 1.366-.675 2.42-1.524l28.793-22.75c.91-.728 1.495-1.388 1.768-1.926.417-.887.197-1.774-.705-2.684l.432-.903 13.718 6.705-.477.917c-1.23-.235-2.063.07-2.442.85-.288.553-.402 1.25-.402 2.123l.114 37.02c0 1.58.16 2.7.394 3.384.22.69.743 1.34 1.47 1.857l-.462.902-14.226-6.963.433-.917c1.357.41 2.26.12 2.737-.842.212-.37.288-1.054.288-2.04l.023-6.726" fill="#1a64b7"/><path d="M78.345 395.554l11.694 5.756.454-15.63-12.15 9.874zm12.042 6.27l.13-.302-.13.303zm-13.255-6.11l14.044-11.452-.447 17.57-.032.524-13.566-6.643zm10.055 22.946l13.605 6.68.166-.34a4.386 4.386 0 0 1-1.327-1.836c-.28-.765-.378-1.918-.378-3.51l-.144-36.916c-.045-.068 0-.106 0-.106 0-.933.09-1.676.425-2.283.326-.744 1.092-1.108 2.025-1.108.242 0 .508.023.424.266l.304-.615-13.074-6.423-.205.425c.554.576.827 1.244.827 1.888 0 .342-.068.668-.197.97-.334.668-.925 1.328-1.88 2.056L58.96 400.543c-1.06.88-1.858 1.38-2.525 1.615-.31.097-.652.135-.986.135a3.97 3.97 0 0 1-1.045-.136l-.205.37 12.202 5.976.16-.394c-.7-.652-1.093-1.32-1.124-2.025 0-.326.076-.57.198-.857.257-.493.766-1.03 1.524-1.638l5.62-4.186 17.57 8.6-.137.31h.326l-.024 6.72c0 1.015-.076 1.72-.326 2.198-.37.774-1.092 1.214-1.956 1.19-.273 0-.57-.03-.903-.113l-.143.35zm-.895.31l.122-.28.59-1.16.214.084c.432.106.743.16 1.016.16.682-.04 1.07-.274 1.38-.828.12-.303.22-.955.22-1.91v-6.53l-17.002-8.53-5.255 4.162c-.713.56-1.13 1.054-1.327 1.395-.1.19-.13.357-.13.554 0 .463.327 1.062 1.1 1.69l.213.168-.114.243-.615 1.22-13.407-6.574.16-.304.583-1.137.29.068c.378.1.757.176 1.12.176.282 0 .578-.046.79-.114.508-.152 1.274-.652 2.328-1.502l28.763-22.742c.89-.69 1.42-1.334 1.692-1.805.122-.25.175-.47.175-.69 0-.508-.266-1.03-.834-1.592l-.167-.204.106-.197.56-1.207 14.35 7.007-.13.303-.842 1.077c-.258-.03-.508-.076-.682-.076-.804.046-1.206.266-1.456.75-.22.456-.342 1.123-.342 1.988h-.197l.197.015.144 37.006c0 1.555.152 2.662.364 3.292.228.606.637 1.183 1.335 1.675l.197.16-.114.273-.583 1.213-14.81-7.295M122.49 405.333l14.202 2.95c2.093.44 3.564.683 4.482.72.88.076 1.737 0 2.525-.28 1.743-.5 2.858-1.866 3.328-4.05.448-2.23-.015-3.882-1.41-5.05-.675-.57-1.403-1-2.207-1.29-.81-.287-2.25-.666-4.412-1.09l-14.21-2.997-2.3 11.087zm-1.48 6.924l-2.89 14.006c-.166.592-.075 1.1.137 1.486.213.416.683.78 1.358 1.137l-.22.97-13.142-2.775.212-.97c.804-.04 1.335-.205 1.707-.463.356-.282.62-.714.766-1.336l7.43-35.702c.145-.584.092-1.145-.143-1.532-.19-.37-.652-.743-1.357-1.13l.197-.963 26.344 5.506c3.2.66 5.724 1.38 7.537 2.146 1.805.78 3.314 1.743 4.527 2.97 1.395 1.404 2.313 3.15 2.722 5.135a13.783 13.783 0 0 1-.053 5.915c-1.403 6.856-6.074 10.094-13.953 9.67l5.748 13.353c1.01 2.313 1.767 3.86 2.328 4.573.554.735 1.312 1.236 2.29 1.48l-.25.992-15.212-3.162.197-.994c1.093.07 1.708-.204 1.814-.78.076-.388-.243-1.366-.895-3.004l-5.94-14.203-11.26-2.328" fill="#1a64b7"/><path d="M136.743 407.943c2.078.44 3.572.697 4.436.765.174 0 .325.016.507.016.66 0 1.305-.13 1.896-.304 1.63-.477 2.624-1.713 3.117-3.83a9.09 9.09 0 0 0 .13-1.455c0-1.41-.48-2.472-1.434-3.23a7.64 7.64 0 0 0-2.086-1.275c-.773-.273-2.244-.66-4.406-1.054l-13.854-2.912-2.184 10.39 13.877 2.89zm4.42 1.402c-.962-.06-2.456-.303-4.572-.75l-14.172-2.958-.333-.068 2.426-11.725 14.554 3.056c2.146.44 3.64.82 4.46 1.11a6.926 6.926 0 0 1 2.296 1.356c1.107.925 1.67 2.207 1.67 3.77 0 .492-.017 1.023-.146 1.606-.485 2.253-1.675 3.77-3.526 4.338a8.415 8.415 0 0 1-2.13.265h-.524m-20.18 3.24l.04-.328-.04.327zm16.517 20.708l14.57 3.02.044-.335a4.26 4.26 0 0 1-2.085-1.51c-.623-.788-1.39-2.342-2.39-4.67l-5.953-13.84.508.03c.47.016.895.03 1.328.03 6.984-.03 10.95-3.093 12.322-9.448.205-1.03.296-2.047.296-3.033 0-.925-.067-1.835-.28-2.723-.417-1.933-1.28-3.602-2.608-4.974-1.183-1.176-2.64-2.13-4.42-2.89-1.783-.75-4.255-1.47-7.456-2.153l-26.17-5.483-.174.334c.728.387 1.236.796 1.502 1.243.15.365.227.67.227 1.078 0 .25-.022.478-.03.736l-7.484 35.687c-.144.66-.424 1.168-.88 1.525-.432.35-1.06.5-1.562.265l-.144.66 12.596 2.654.197-.326c-.69-.364-1.213-.735-1.516-1.25a2.327 2.327 0 0 1-.243-1.063c0-.205.053-.462.083-.682l2.92-13.976.098-.31 11.792 2.6 5.93 14.188c.584 1.45.926 2.412.926 2.98v.205c-.197.76-.925 1.062-1.88 1.04l-.062.393zm-.818.53l.06-.332.555-1.258h.257c.873-.008 1.153-.213 1.22-.47v-.107c.024-.348-.287-1.28-.886-2.722l-5.68-14-10.897-2.28-2.88 13.694a2.5 2.5 0 0 0-.06.508c0 .296.06.523.158.76.197.287.584.628 1.41 1.318l-.288 1.327-13.778-2.92.06-.295.524-1.267c.75-.03 1.243-.197 1.516-.38.28-.22.463-.605.622-1.144l7.447-35.687c.024-.22.04-.447.04-.6 0-.302-.04-.552-.153-.712-.13-.31-.546-.644-1.418-1.372l.325-1.297 26.67 5.566c3.216.698 5.718 1.403 7.576 2.146 1.85.827 3.398 1.82 4.62 3.094 1.448 1.45 2.388 3.23 2.828 5.27.182.94.28 1.896.28 2.875 0 1.03-.12 2.1-.333 3.17-1.343 6.627-5.81 10.01-12.952 9.964h-.82l5.536 12.87c1 2.297 1.79 3.844 2.312 4.52.493.697 1.168 1.114 2.04 1.364l.326.076-.068.31-.288 1.298-15.88-3.284M172.994 412.528l14.492-.584c2.146-.068 3.662-.212 4.504-.364.918-.174 1.714-.455 2.412-.88 1.57-.94 2.32-2.517 2.23-4.777-.107-2.23-.926-3.776-2.564-4.58a7.586 7.586 0 0 0-2.472-.675c-.842-.09-2.366-.09-4.55 0l-14.492.554.44 11.306zm.273 7.06l.592 14.287c0 .645.196 1.107.5 1.456.31.335.864.562 1.576.73l.038 1.038-13.407.508-.053-1.024c.758-.25 1.282-.523 1.57-.872.265-.333.41-.81.37-1.463l-1.44-36.415c-.022-.66-.19-1.13-.5-1.47-.303-.32-.85-.585-1.608-.775l-.03-.978 26.898-1.07c3.29-.144 5.892-.084 7.826.25 1.918.303 3.61.887 5.096 1.774a10.042 10.042 0 0 1 3.905 4.323c.843 1.767 1.298 3.678 1.412 5.748.265 6.992-3.474 11.27-11.216 12.755l8.834 11.572c1.517 2.025 2.647 3.314 3.383 3.89.675.592 1.547.872 2.548.91v.97l-15.492.6-.06-.963c1.038-.236 1.56-.608 1.56-1.207 0-.38-.567-1.26-1.6-2.677l-9.212-12.33-11.49.432" fill="#1a64b7"/><path d="M187.068 401.01l-14.188.204.455 10.965 14.142-.577c2.154-.09 3.648-.212 4.49-.364a7.08 7.08 0 0 0 2.29-.828c1.342-.834 2.025-2.13 2.025-4.132v-.334c-.1-2.17-.918-3.557-2.382-4.277-.75-.357-1.54-.6-2.328-.66-.402-.06-.97-.092-1.714-.092-.803 0-1.698.03-2.79.09m-14.075 11.52h-.333l-.122-11.625 14.477-.6c1.115-.052 2.04-.052 2.843-.052.744 0 1.328.03 1.767.054a7.96 7.96 0 0 1 2.57.758c1.745.834 2.686 2.526 2.777 4.884v.334c0 2.138-.804 3.76-2.397 4.686-.735.47-1.592.79-2.495.94-.91.144-2.426.273-4.542.38l-14.545.546v-.304zm22.22 21.62v.015-.015m-32.67 3.124l13.12-.19.212-.697c-.79-.136-1.342-.41-1.737-.826-.424-.426-.614-.995-.644-1.685l-.54-14.264.312-.022v-.333l11.754-.28 9.19 12.29c1.002 1.313 1.503 2.117 1.526 2.92h.144c0 .835-.736 1.305-1.525 1.176l-.318.67 15.197-.29.326-.674c-1.1-.03-2.002-.342-2.79-.948-.736-.63-1.85-1.942-3.444-3.96l-9.13-11.973.53-.09c7.38-1.502 10.906-5.3 10.944-11.762 0-.22 0-.455-.038-.698-.084-2.017-.516-3.913-1.358-5.62-.85-1.79-2.13-3.146-3.738-4.155-1.426-.857-3.11-1.448-4.967-1.744-1.374-.212-3.073-.326-5.097-.326-.842 0-1.737.053-2.685.076l-26.602.72-.197.698c.795.174 1.34.455 1.774.82.363.416.568 1.007.568 1.713l1.45 36.468v.098c0 .6-.13 1.138-.456 1.547-.334.402-.918.743-1.487.652l-.296.69zm-.128-1c.712-.236 1.19-.53 1.372-.767.235-.235.35-.606.35-1.122 0-.015-.024-.083 0-.13l-1.457-36.414c-.015-.6-.174-1.017-.394-1.237-.25-.273-.743-.523-1.7-.993l.29-1.335 26.897-1.1a83.59 83.59 0 0 1 2.7-.037c2.024 0 3.738.083 5.15.296 1.993.31 3.715.917 5.254 1.857 1.76 1.04 3.094 2.55 4.042 4.43.84 1.828 1.303 3.792 1.387 5.907.022.243.022.486.022.706.022 6.574-3.724 10.768-10.99 12.285l8.517 11.132c1.555 2.025 2.707 3.3 3.337 3.814.66.554 1.403.82 2.684 1.16l-.303 1.373-15.872.273.205-1.335c1.03-.212 1.304-.53 1.304-.85.03 0 .03-.022 0-.037 0-.212-.508-1.122-1.51-2.472l-8.94-12.17-11.132.44.53 13.922c.03.583.198.97.456 1.236.235.257.667.5 1.66.925l-.25 1.394-13.816.19.205-1.343M218.998 429.415l-7.84-35.595c-.145-.615-.395-1.062-.744-1.305-.342-.273-.925-.44-1.744-.478l-.182-.985 13.11-2.89.228.97c-.69.357-1.175.73-1.387 1.123-.206.425-.23.933-.1 1.555l7.864 35.573c.106.66.394 1.092.774 1.373.356.288.932.424 1.668.455l.235.986-13.133 2.89-.22-.994c.697-.333 1.175-.743 1.395-1.145.197-.394.243-.895.076-1.532" fill="#1a64b7"/><path d="M219.407 430.108c0 .37-.06.728-.213 1.008-.28.486-.773.91-1.32.91l.13.645 12.588-2.775.053-.356c-.796-.03-1.426-.168-1.888-.494-.47-.34-.774-.91-.903-1.577l-7.818-35.597a2.594 2.594 0 0 1-.136-.758c0-.372.106-.728.235-1.017.28-.515.796-.887 1.365-.887l-.16-.636-12.58 2.745-.038.38c.826.044 1.47.173 1.888.53.47.348.743.864.88 1.478l7.848 35.626-.34.084.34-.084c.054.266.07.523.07.774m-1.988 3.063l-.046-1.38c.675-.317 1.062-.704 1.236-.985.09-.19.137-.432.137-.697 0-.182-.023-.41-.046-.607l-7.87-35.64c-.114-.54-.35-.903-.607-1.085-.295-.197-.788-.364-1.873-.667l-.265-1.327 13.77-3.032.092.318.008 1.373c-.63.317-1.04.69-1.22.985-.107.182-.145.424-.145.69 0 .16.015.37.06.584l7.864 35.61c.137.583.357.963.66 1.16.28.235.78.394 1.805.667l.31 1.304-13.78 3.05-.09-.32M249.366 385.47c-3.8 1.6-6.453 4.065-8.008 7.386-1.835 3.92-1.835 8.04-.053 12.33 1.85 4.293 4.808 7.1 8.925 8.48 3.466 1.16 7.098.916 10.913-.714 3.822-1.6 6.52-4.057 8.046-7.386a14.222 14.222 0 0 0 1.326-6.362c-.023-1.995-.44-3.92-1.22-5.78-1.905-4.458-4.9-7.347-8.965-8.674-3.517-1.092-7.127-.88-10.964.72m-2.897-6.718c6.877-2.943 13.156-3.405 18.836-1.41 5.907 2.092 10.207 6.202 12.846 12.39 1.63 3.807 2.093 7.773 1.448 11.967-1.274 8.12-6.49 14.134-15.598 18.024-6.84 2.92-13.12 3.337-18.723 1.357-3.042-1.053-5.68-2.75-7.97-5.026-2.057-2.078-3.64-4.452-4.817-7.15-1.69-3.952-2.214-8.01-1.577-12.18 1.206-7.925 6.393-13.93 15.553-17.972" fill="#1a64b7"/><path d="M241.642 393.008c-.926 1.91-1.335 3.883-1.335 5.9 0 1.98.41 4.01 1.32 6.15 1.78 4.186 4.7 6.923 8.69 8.288 1.448.486 2.88.72 4.353.72 2.047 0 4.148-.5 6.362-1.41 3.754-1.607 6.362-4.004 7.85-7.242.9-1.865 1.31-3.86 1.31-6.036v-.182c-.03-1.956-.41-3.837-1.22-5.634-1.896-4.4-4.778-7.19-8.744-8.478a14.094 14.094 0 0 0-4.292-.683c-2.1 0-4.262.464-6.46 1.374-3.702 1.607-6.303 3.98-7.834 7.234m8.47 20.96c-4.193-1.387-7.25-4.307-9.107-8.652-.948-2.177-1.388-4.307-1.388-6.408 0-2.123.47-4.178 1.448-6.203 1.578-3.375 4.315-5.915 8.13-7.553l.16.31-.16-.31c2.274-.97 4.534-1.418 6.74-1.418 1.495 0 3.012.25 4.46.705 4.186 1.334 7.265 4.314 9.206 8.856a15.2 15.2 0 0 1 1.245 5.99v.092c0 2.252-.44 4.39-1.343 6.317-1.554 3.397-4.314 5.938-8.19 7.576-2.29.964-4.504 1.45-6.642 1.45-1.57 0-3.094-.266-4.558-.752m-3.496-34.913c-9.115 4.042-14.188 9.91-15.356 17.707-.22 1.092-.28 2.237-.28 3.3 0 2.98.614 5.86 1.82 8.704 1.13 2.654 2.7 5.028 4.73 7.037 2.276 2.238 4.893 3.92 7.85 4.93 2.252.81 4.618 1.22 7.098 1.22 3.572 0 7.38-.84 11.375-2.54 9.092-3.883 14.15-9.782 15.386-17.79.197-1.206.28-2.374.28-3.52 0-2.843-.554-5.588-1.676-8.242-2.61-6.11-6.832-10.13-12.702-12.193-2.26-.826-4.588-1.22-7.037-1.22-3.61 0-7.432.894-11.49 2.585v.023zm-1.448 42.33c-3.064-1.062-5.77-2.783-8.122-5.134a22.922 22.922 0 0 1-4.86-7.196c-1.237-2.942-1.88-5.915-1.88-8.993 0-1.107.097-2.236.287-3.39 1.19-8.06 6.5-14.165 15.735-18.244 4.14-1.767 8.07-2.655 11.777-2.655 2.517 0 4.974.41 7.257 1.245 6.036 2.108 10.427 6.34 13.104 12.58 1.13 2.738 1.752 5.574 1.752 8.51 0 1.182-.114 2.373-.29 3.624-1.28 8.242-6.58 14.37-15.78 18.282-4.125 1.76-8.015 2.64-11.67 2.64-2.556 0-4.997-.433-7.31-1.267M289.077 377.376l11.458-8.85c1.722-1.304 2.875-2.29 3.504-2.927.598-.66 1.106-1.35 1.425-2.132.743-1.653.41-3.367-.94-5.164-1.388-1.774-2.966-2.51-4.763-2.222a6.93 6.93 0 0 0-2.42.85c-.712.447-1.948 1.31-3.692 2.654l-11.474 8.842 6.9 8.948zm4.3 5.612l8.76 11.33c.34.47.795.78 1.22.87.47.092 1.03-.022 1.744-.317l.615.797-10.64 8.197-.62-.766c.47-.675.72-1.198.742-1.638.06-.44-.152-.917-.508-1.44l-22.296-28.824c-.38-.53-.796-.827-1.236-.933-.448-.038-1.047.038-1.752.318l-.622-.787 21.317-16.448c2.625-2.018 4.81-3.458 6.53-4.33 1.767-.857 3.48-1.38 5.202-1.494a10.18 10.18 0 0 1 5.657 1.237c1.713.948 3.23 2.267 4.504 3.882 4.246 5.573 3.693 11.223-1.775 16.918l13.907 4.322c2.434.713 4.095 1.145 4.997 1.206.895.038 1.775-.205 2.586-.743l.614.78-12.292 9.518-.607-.818c.744-.76.926-1.403.562-1.866-.228-.318-1.206-.728-2.86-1.25l-14.665-4.725-9.085 7.008" fill="#1a64b7"/><path d="M299.796 356.432c-.79.12-1.555.356-2.245.773-.727.425-2 1.305-3.684 2.64l-11.23 8.614 6.475 8.424 11.247-8.645c1.684-1.283 2.83-2.268 3.413-2.905a6.754 6.754 0 0 0 1.395-2.01c.197-.546.34-1.062.34-1.63 0-.994-.4-2.063-1.242-3.178-1.16-1.456-2.382-2.153-3.8-2.153-.197 0-.432 0-.667.068m-10.73 20.922l.25-.174-.25.174zm-7.37-8.98l11.73-9.098c1.752-1.297 3.003-2.215 3.746-2.624a6.39 6.39 0 0 1 2.533-.872c.28-.084.546-.1.758-.1 1.67 0 3.094.82 4.323 2.428.895 1.205 1.403 2.388 1.403 3.587 0 .682-.138 1.327-.418 1.91a7.824 7.824 0 0 1-1.51 2.23c-.644.637-1.804 1.638-3.518 2.95l-11.474 8.872-.295.198-7.28-9.48zm13.452 35.006l10.116-7.78-.273-.342c-.5.182-.917.266-1.32.266-.113 0-.22 0-.378-.03-.554-.092-1-.433-1.41-.97l-8.744-11.338-.235-.28 9.684-7.243 14.658 4.686c1.684.583 2.61.94 2.988 1.387.182.212.258.448.258.705 0 .463-.257.918-.644 1.388l.22.326 11.784-9.07-.242-.303c-.713.387-1.48.607-2.26.607-.06 0-.144.008-.25 0-.97-.046-2.616-.432-5.096-1.206l-14.408-4.48.38-.365c3.01-3.194 4.473-6.265 4.473-9.29 0-2.39-.91-4.77-2.738-7.16-1.267-1.615-2.746-2.896-4.33-3.83a9.583 9.583 0 0 0-4.793-1.243h-.706c-1.697.16-3.358.63-5.08 1.517-1.75.842-3.897 2.245-6.498 4.254l-21.044 16.266.25.32c.5-.19.91-.26 1.32-.26.144 0 .273.024.387.03.576.107 1.023.48 1.486 1.032l22.258 28.87c.364.485.59 1.024.59 1.547v.076c-.02.53-.287 1.015-.666 1.606l.266.304zm-.327.728l-.772-1.024.13-.22c.47-.6.666-1.1.704-1.41v-.06c0-.327-.144-.73-.493-1.146l-22.22-28.854c-.38-.493-.766-.744-1.092-.812-.068 0-.136-.023-.25-.023-.34 0-.79.09-1.32.325l-.235.09-.128-.18-.82-1.055 21.582-16.66c2.61-2.017 4.778-3.473 6.583-4.36 1.79-.903 3.57-1.434 5.308-1.54.265-.015.538-.015.79-.015 1.766-.023 3.464.41 5.064 1.304a14.957 14.957 0 0 1 4.58 3.98c1.904 2.465 2.882 5.028 2.882 7.6 0 3.116-1.448 6.255-4.27 9.326l13.385 4.18c2.41.72 4.072 1.13 4.89 1.182h.228c.774-.008 1.494-.205 2.16-.69l.305-.16.174.228.842 1.054-12.878 9.927-.19-.258-.803-1.07.19-.19c.484-.485.696-.887.696-1.138 0-.098-.083-.182-.114-.273-.083-.145-1.054-.66-2.684-1.146l-14.363-4.792-8.82 6.825 8.51 11.04c.363.463.697.683 1.076.774.016.01.107.01.22.01.327 0 .782-.1 1.305-.32l.236-.113.152.22.827 1.076-11.164 8.607-.205-.242M332.635 312.746l4.61 10.397-.925.37a2.905 2.905 0 0 1-.35-.347c-.568-.455-1.56-.463-2.98-.023-4.382 1.243-8.16 3.852-11.328 7.757-1.396 1.76-2.427 3.436-3.04 5.112a6.81 6.81 0 0 0-.47 3.556c.18 1.107.628 1.987 1.424 2.6 1.25 1.04 2.7.934 4.4-.196.855-.59 2.524-2.093 4.82-4.467l3.535-3.54c2.094-2.086 3.907-3.648 5.47-4.71 1.584-1.07 3.184-1.858 4.822-2.313 1.736-.47 3.503-.485 5.338-.068 1.836.38 3.466 1.213 4.945 2.404 2.388 1.88 3.83 4.352 4.46 7.363.537 2.716.03 5.833-1.518 9.38-1.138 2.656-2.715 5.188-4.71 7.66-3.57 4.43-8.174 7.933-13.786 10.556-1.19.546-1.834.956-1.978 1.1-.16.235-.265.72-.265 1.448l-.948.44-5.272-10.267.903-.455c.145.106.266.197.312.257.758.614 1.73.78 2.912.614 1.82-.32 3.935-1.297 6.43-2.996 2.495-1.653 4.543-3.435 6.15-5.445 1.737-2.19 2.89-4.345 3.413-6.498.28-1.176.31-2.275.015-3.33-.28-1.03-.773-1.857-1.5-2.464-1.116-.886-2.398-.917-3.808-.135-1.024.56-2.692 1.986-5.013 4.337l-3.45 3.443c-2.327 2.29-3.996 3.89-5.057 4.77a19.938 19.938 0 0 1-3.693 2.214c-1.957.886-4.027 1.175-6.188.803-1.926-.288-3.76-1.13-5.483-2.525-2.83-2.29-4.384-5.157-4.634-8.615-.364-4.527 1.516-9.32 5.642-14.438 1.72-2.124 3.533-3.93 5.467-5.415 1.957-1.524 4.596-3.177 8.023-4.982 1.1-.667 1.782-1.077 1.926-1.29.28-.333.44-.91.44-1.652l.94-.41" fill="#1a64b7"/><path d="M329.33 357.097l5.013 9.752.425-.062c.015-.78.083-1.29.364-1.668.242-.288.834-.607 2.07-1.175 5.574-2.617 10.11-6.075 13.673-10.465 1.98-2.45 3.55-4.967 4.67-7.584 1.123-2.585 1.654-4.93 1.654-7.044 0-.736-.03-1.456-.183-2.17-.622-2.904-2.032-5.292-4.307-7.158a12.24 12.24 0 0 0-4.86-2.35c-.843-.175-1.662-.29-2.443-.29-.91 0-1.805.13-2.662.365a17.41 17.41 0 0 0-4.74 2.274c-1.554 1.054-3.396 2.624-5.467 4.71l-3.48 3.518c-2.366 2.366-3.96 3.86-4.884 4.504-.94.622-1.828.956-2.7.956a3.16 3.16 0 0 1-2.108-.79c-.857-.666-1.372-1.637-1.524-2.82a4.35 4.35 0 0 1-.1-.986c0-.864.19-1.797.54-2.714.644-1.69 1.706-3.436 3.124-5.202 3.215-3.974 7.037-6.598 11.51-7.88.684-.227 1.29-.326 1.852-.326.56-.015 1.024.107 1.38.41.136.09.25.22.023.28l.638-.257-4.4-9.82-.393.052c0 .773-.13 1.395-.478 1.873-.28.31-.91.667-2.07 1.35-3.405 1.827-6.044 3.472-7.97 4.906a37.875 37.875 0 0 0-5.422 5.436c-3.76 4.626-5.627 8.994-5.627 13.104 0 .31.038.713.06 1.07.29 3.396 1.79 6.11 4.55 8.38 1.654 1.364 3.436 2.152 5.324 2.478.57.076 1.176.122 1.722.122 1.47 0 2.88-.32 4.23-.926a17.466 17.466 0 0 0 3.64-2.2c1.033-.818 2.74-2.395 5.044-4.7l3.458-3.473c2.313-2.312 3.99-3.76 5.058-4.36.705-.41 1.426-.622 2.13-.622.744-.015 1.434.266 2.056.79.796.628 1.35 1.523 1.638 2.646a7.39 7.39 0 0 1 .167 1.645c0 .583-.046 1.197-.197 1.85-.508 2.214-1.684 4.398-3.443 6.597-1.668 2.047-3.76 3.867-6.25 5.528-2.51 1.714-4.685 2.715-6.566 3.026-.335.046-.63.077-.91.077-.903 0-1.64-.25-2.253-.72-.053-.046-.137-.145-.008-.206l-.57.267zm-.902-.326l.31-.128 1.283-.432c.122.16.25.235.32.273.5.41 1.068.614 1.82.614.25 0 .53-.053.818-.06 1.706-.297 3.807-1.26 6.272-2.928 2.456-1.63 4.504-3.413 6.112-5.393 1.698-2.146 2.82-4.254 3.32-6.332.138-.59.19-1.16.19-1.706 0-.54-.052-1.025-.16-1.502-.256-.994-.75-1.722-1.4-2.268-.555-.44-1.078-.644-1.647-.644-.546 0-1.16.15-1.782.53-.94.54-2.64 1.972-4.914 4.27l-3.49 3.45c-2.312 2.343-4.003 3.898-5.08 4.785a17.05 17.05 0 0 1-3.777 2.254c-1.456.69-2.934 1-4.52 1-.63 0-1.22-.053-1.804-.136-2.018-.334-3.914-1.198-5.666-2.624-2.904-2.328-4.52-5.3-4.785-8.827-.016-.386-.07-.773-.07-1.137 0-4.307 1.95-8.827 5.772-13.536 1.752-2.162 3.594-4.012 5.55-5.498 1.972-1.51 4.62-3.17 8.07-5.02 1.1-.615 1.797-1.077 1.835-1.183.22-.235.34-.698.53-1.76l.956-.386.303-.13 4.884 10.966-.296.137-1.29.356c-.204-.197-.272-.28-.348-.356-.22-.16-.538-.273-.978-.273-.47 0-1.047.098-1.653.288-4.323 1.274-8.054 3.814-11.178 7.704-1.388 1.683-2.412 3.374-3.07 4.997-.282.864-.456 1.706-.456 2.48 0 .31.023.6.084.894.152 1.063.607 1.806 1.26 2.367.56.448 1.13.652 1.72.652.668 0 1.456-.274 2.29-.842.857-.57 2.473-2.033 4.778-4.43l3.526-3.518c2.086-2.1 3.96-3.677 5.544-4.77 1.622-1.084 3.253-1.873 4.936-2.38a11.33 11.33 0 0 1 2.86-.372c.864 0 1.713.083 2.6.288 1.88.41 3.58 1.274 5.096 2.502 2.442 1.95 3.943 4.49 4.543 7.538.174.743.227 1.524.227 2.306 0 2.26-.576 4.656-1.714 7.325-1.145 2.64-2.73 5.232-4.77 7.72-3.602 4.46-8.258 8.015-13.915 10.63-1.145.563-1.843 1.002-1.858 1.025-.09.046-.174.54-.38 1.555l-1.25.538-5.56-10.874" fill="#1a64b7"/><path d="M349.645 209.836c0 95.29-77.236 172.55-172.535 172.55-95.33 0-172.564-77.26-172.564-172.55S81.78 37.264 177.11 37.264c95.3 0 172.535 77.28 172.535 172.572" fill="#1a64b7"/><path d="M177.032 353.1c-82.15 0-148.745-66.595-148.745-148.767 0-82.157 66.596-148.77 148.745-148.77 82.165 0 148.753 66.62 148.753 148.77 0 82.172-66.588 148.768-148.753 148.768m-.015-307.477c-87.678 0-158.763 71.047-158.763 158.755 0 87.686 71.085 158.748 158.763 158.748 87.685 0 158.77-71.062 158.77-158.748 0-87.708-71.085-158.755-158.77-158.755" fill="#fbbf16"/><path d="M89.75 129.162s88.45 118.193 229.105 145.09l-25.373 7.273S205.57 261.18 90.432 132.628" fill="#fbbf16"/><path d="M48.034 295.58s114.447-18.858 240.61-15.787l25.267-5.422-13.634 29.773s-133.132-4.558-231.73 5.778c-17.57-2.41-15.264-8.84-15.264-8.84l-5.248-5.5" fill="#fbbf16"/><path d="M64.98 311.8s149.18-6.498 224.89 3.557c2.002.266 6.143-6.817 6.143-6.817s-54.95-7.59-223.145-1.73c-27.277.956-7.887 4.99-7.887 4.99M82.504 141.932c-27.217 64.443-59.34 90.158-59.34 90.158l1.85 12.99s35.43-45.94 57.49-97.293c12.186-28.346 0-5.855 0-5.855" fill="#fbbf16"/><path d="M84.91 124.238l-3.844.948s-3.754 183.81-1.312 204.278c.228 1.813 9.146.167 9.146.167s3.04 12.46 8.902 7.273c-5.156-65.14-6.4-216.47-6.4-216.47H85.01l-.1 3.805M93.76 127.513l4.323-3.74 4.618 2.08s4.612 173.26 12.908 221.847l-4.497-.356s-9.023-.523-9.637-6.196c-3.625-32.44-7.713-213.635-7.713-213.635" fill="#fbbf16"/><path d="M69.245 299.37l-3.116-.546L78.95 226.51l3.1.554-12.807 72.306zM57.836 297.997l-3.07-.576L80.593 151.68l3.116.53L57.836 298zM48.62 288.45l-2.39-3.086 17.89-102.23 4.428-6.954L48.62 288.45zM123.704 291.414l2.996-.933-28.58-90.84 2.455 19.02 23.13 72.754zM134.803 288.61l3.003-.94-38.592-124.146.266 12.49 35.323 112.595zM147.712 286.247l3.002-.925-41.723-133.208-5.155-5.437 43.877 139.57zM122.03 165.964l38.24 119.975 3.004-.972-35.816-113.848-1.896-1.895M140.868 183.775l32.41 102.23 3.004-.948-30.712-97.233-4.216-4.05M185.027 283.858l3.003-.948-25.798-80.845-4.2-3.238 26.995 85.03zM198.367 283.28l3.01-.956-20.694-65.534-4.846-4.368 22.53 70.858zM192.5 225.21l18.45 57.74 2.994-.933-16.743-53.25-2.92-1.69M209.82 238.32l14.128 44.72 2.987-.933-13.066-41.193-3.603-1.107M242.04 298.263l3.012-.94-14.135-45.69-5.278-6.316 16.4 52.946zM241.262 254.95l12.543 40.047 2.995-.97-10.76-34.406-4.778-4.67zM257.367 264.853l9.176 28.914 3.018-.947-7.658-24.055-4.535-3.912zM33.307 260.167l-3.73-2.927 9.683-37.803 3.094.357-9.047 40.373zM41.568 270.783l-2.396-3.1 11.147-63.215 4.018-5.817-12.77 72.133z" fill="#fbbf16"/><path d="M20.043 86.568l-.812.63a1.918 1.918 0 0 0-.423-.433c-.395-.296-.933-.303-1.616-.053-.673.258-1.41.682-2.175 1.274-.773.59-1.54 1.29-2.298 2.093a28.91 28.91 0 0 0-2.01 2.41 12.56 12.56 0 0 0-1.713 3.23 9.393 9.393 0 0 0-.607 3.527c.03 1.183.342 2.343.925 3.48.584 1.146 1.555 2.2 2.875 3.17 1.296.948 2.578 1.54 3.867 1.76 1.266.227 2.48.174 3.617-.144a9.422 9.422 0 0 0 3.18-1.646 13.042 13.042 0 0 0 2.554-2.616c1.107-1.5 1.98-2.95 2.61-4.344.62-1.388 1.106-2.616 1.44-3.686l-3.413-2.495-3.73 5.096c-.273.365-.394.707-.364 1.01.015.296.273.667.766 1.107l-.53.713-5.082-3.723.524-.706c.5.267.864.358 1.114.26.258-.1.524-.327.79-.706l7.27-9.927.714.524c-.303.592-.455.986-.44 1.2 0 .204.175.43.524.696l4.49 3.284c.264.19.5.243.697.137.19-.1.424-.213.675-.35l.644.463a18.33 18.33 0 0 1-.516 3.868 23.025 23.025 0 0 1-1.213 3.617 21.576 21.576 0 0 1-1.767 3.283 66.17 66.17 0 0 1-2.062 2.98c-1.35 1.86-2.82 3.383-4.406 4.566-1.585 1.183-3.223 1.98-4.93 2.396a11.7 11.7 0 0 1-5.18.076c-1.75-.364-3.457-1.153-5.117-2.374-1.675-1.22-2.95-2.608-3.82-4.17a11.945 11.945 0 0 1-1.51-4.967c-.137-1.767.113-3.602.735-5.483.622-1.866 1.623-3.746 2.98-5.597a29.46 29.46 0 0 1 2.677-3.17c.94-.94 1.805-1.744 2.6-2.426a45.51 45.51 0 0 1 2.056-1.63c.57-.41.903-.7 1.01-.82.166-.243.242-.47.234-.675-.008-.213 0-.425.023-.615l.622-.273 3.526 6.18M36.257 64.776a11.725 11.725 0 0 0-1.35 3.526 8.9 8.9 0 0 0 .045 3.663c.266 1.22.865 2.335 1.797 3.36.925 1.015 1.98 1.72 3.177 2.1a8.74 8.74 0 0 0 3.647.37c1.23-.12 2.442-.47 3.633-1.015a11.865 11.865 0 0 0 3.162-2.085 12.296 12.296 0 0 0 2.373-2.958 11.61 11.61 0 0 0 1.334-3.526 8.86 8.86 0 0 0-.038-3.654c-.26-1.22-.865-2.35-1.798-3.36-.925-1.008-1.987-1.73-3.177-2.108a8.974 8.974 0 0 0-3.64-.37c-1.236.12-2.45.46-3.64 1.015a12.308 12.308 0 0 0-3.163 2.085 12.804 12.804 0 0 0-2.365 2.958m3.943-9.42a17.082 17.082 0 0 1 5.43-1.644 13.013 13.013 0 0 1 5.566.485c1.842.554 3.526 1.676 5.05 3.344 1.524 1.677 2.487 3.46 2.874 5.34.394 1.896.38 3.754-.03 5.596a15.583 15.583 0 0 1-2.2 5.195c-1.046 1.63-2.236 3.057-3.564 4.27-1.342 1.214-2.874 2.26-4.58 3.17a15.96 15.96 0 0 1-5.37 1.7c-1.88.234-3.737.075-5.58-.487-1.843-.553-3.526-1.675-5.05-3.35-1.532-1.677-2.48-3.452-2.875-5.34a13.098 13.098 0 0 1 .04-5.59 16.95 16.95 0 0 1 2.138-5.254 19.677 19.677 0 0 1 3.526-4.324 19.92 19.92 0 0 1 4.626-3.11M91.413 50.552c-.303.114-.66.296-1.076.553L70.423 63.46l-.47-.76c.826-.523 1.1-1.023.788-1.532L58.958 42.18c-.303-.508-.887-.493-1.72.023l-.464-.76 7.19-4.45.477.75c-.79.486-1.024.98-.706 1.48l10.33 16.652 13.89-8.614c.41-.265.69-.576.836-.932.144-.364.106-.705-.1-1.046l.76-.463 3.556 5.732-.758.462c-.258-.41-.546-.576-.835-.462M108.442 38.42c1.426-.568 2.632-1.182 3.61-1.857.97-.667 1.683-1.456 2.138-2.358.448-.903.645-1.95.584-3.117-.053-1.175-.41-2.556-1.04-4.148-.628-1.585-1.326-2.82-2.084-3.723-.766-.895-1.623-1.525-2.57-1.874-.956-.34-2.01-.417-3.178-.235-1.16.175-2.457.554-3.898 1.123l-7.09 2.814 6.446 16.198 7.082-2.82zm-6.165-20.853c1.676-.667 3.337-1.046 4.982-1.137 1.63-.084 3.184.16 4.655.72 1.456.57 2.8 1.486 4.004 2.745 1.205 1.274 2.22 2.927 3.033 4.967.804 2.055 1.213 3.95 1.19 5.703-.007 1.75-.34 3.336-1.016 4.754-.667 1.41-1.638 2.646-2.88 3.715-1.268 1.062-2.73 1.926-4.407 2.594l-15.19 6.035-.326-.82c.698-.28.94-.69.728-1.235l-8.25-20.786c-.228-.53-.698-.675-1.388-.394l-.334-.834 15.197-6.03M150.534 10.3c-.076-.35-.265-.6-.57-.714-.302-.13-.795-.13-1.477.015l-15.645 3.05 1.168 5.998 9.464-1.858c.645-.12 1.13-.31 1.456-.553.31-.258.394-.743.258-1.494l.872-.16 1.456 7.538-.865.176c-.135-.743-.4-1.183-.81-1.327-.394-.145-.91-.145-1.555-.024l-9.464 1.85 1.29 6.666 16.145-3.147c.486-.09.85-.28 1.115-.57.273-.287.357-.62.288-1.015l.857-.152 1.297 6.613-.872.168c-.09-.478-.296-.72-.614-.728-.32-.015-.728.038-1.206.13l-22.507 4.397-.175-.872c.22-.046.41-.152.57-.334.136-.188.18-.416.12-.704l-4.277-21.93c-.052-.296-.188-.5-.385-.607a.96.96 0 0 0-.645-.1l-.174-.872 22.037-4.3c.675-.13 1.13-.326 1.365-.59.235-.267.31-.57.25-.926l.864-.175 1.244 6.385-.872.167M163.097 28.538c.622 0 .933-.296.94-.88V5.303c0-.592-.318-.888-.932-.88l-.008-.895h8.418v.887c-.266.008-.387.16-.387.493 0 .273.326.728.993 1.38l14.12 14.674V5.31c0-.59-.423-.887-1.288-.887v-.887h7.44v.887c-.622 0-.933.296-.933.88l-.01 22.355c0 .6.32.887.934.887v.88h-7.97v-.88c.424-.007.644-.15.644-.447-.007-.235-.265-.614-.78-1.13L169.254 11.3l.007 16.35c-.007.6.364.888 1.123.895v.88h-7.295l.007-.887M220.135 25.715l.402.364c-.076.287-.09.56-.022.818.113.44.447.933 1 1.48a13.36 13.36 0 0 0 1.95 1.584c.765.523 1.57.993 2.44 1.425.873.433 1.67.744 2.398.948.538.16 1.25.304 2.123.455.864.175 1.76.235 2.64.213.91-.023 1.705-.175 2.426-.455.735-.266 1.19-.766 1.395-1.51.205-.712.076-1.334-.38-1.835-.454-.5-1.122-.955-1.97-1.357a22.676 22.676 0 0 0-2.996-1.175 100.017 100.017 0 0 1-3.472-1.197 32.495 32.495 0 0 1-3.398-1.464c-1.092-.532-2.025-1.192-2.783-1.965a6.555 6.555 0 0 1-1.577-2.745c-.303-1.054-.25-2.313.16-3.77.272-.985.765-1.872 1.485-2.7.728-.818 1.66-1.455 2.814-1.925 1.144-.455 2.51-.72 4.1-.773 1.586-.054 3.353.197 5.31.743 1.676.47 3.1 1 4.26 1.592 1.162.592 2.155 1.16 2.982 1.706.81.53 1.494 1.01 2.04 1.434.553.424 1.023.69 1.44.81.44.13.78.115 1.024-.014l.463.523-4.923 5.02-.425-.326c.06-.447.046-.857-.068-1.19-.15-.44-.462-.933-.948-1.464-.477-.53-1.077-1.046-1.79-1.547-.705-.51-1.5-.972-2.365-1.404a16.47 16.47 0 0 0-2.684-1.03 16.362 16.362 0 0 0-2.2-.426c-.772-.098-1.508-.12-2.16-.068-.66.053-1.244.212-1.73.463-.507.25-.826.644-.977 1.19-.214.75-.092 1.395.347 1.934.448.537 1.108 1.015 1.95 1.462.856.44 1.842.857 2.972 1.236 1.136.387 2.29.79 3.48 1.22 1.16.434 2.305.927 3.39 1.488 1.084.56 2.01 1.22 2.76 1.994a6.44 6.44 0 0 1 1.6 2.722c.296 1.04.25 2.268-.144 3.686-.448 1.653-1.26 2.874-2.435 3.663a9.356 9.356 0 0 1-3.92 1.57c-1.463.243-2.98.258-4.54.038-1.548-.212-2.982-.5-4.278-.857-1.813-.507-3.292-1.022-4.452-1.576-1.16-.538-2.085-1.07-2.813-1.6a19.497 19.497 0 0 1-1.7-1.35c-.416-.364-.787-.6-1.13-.682-.226-.07-.47.007-.727.197l-.56-.562 4.215-5.013M261.18 48.15l-.387.803-6.84-3.26.372-.798c.204.107.424.122.66.06.227-.044.394-.21.538-.47l8.38-17.714-7.334-3.48c-.28-.12-.57-.174-.896-.15-.318.037-.576.257-.78.666l-.797-.38 2.958-6.225.796.388c-.19.41-.196.758-.022 1.024.182.273.41.47.667.584l19.762 9.365c.266.138.554.176.88.153.31-.03.584-.258.78-.668l.805.38-2.95 6.226-.804-.386c.19-.41.19-.75.015-1.016a1.795 1.795 0 0 0-.667-.6l-7.348-3.465-8.387 17.7c-.25.523-.052.955.6 1.266M289.634 54.47l1.698-9.895-8.963 4.99 7.264 4.906zm-20.505-2.79c.385.182.78.197 1.19.038.4-.167.833-.38 1.28-.63l18.27-10.775c.424-.22.81-.432 1.167-.637.348-.197.606-.41.75-.614.182-.28.213-.54.107-.766-.122-.25-.28-.463-.463-.66l.51-.736 6.892 4.65-.493.735a4.027 4.027 0 0 0-.73-.16c-.25-.03-.484.107-.68.395-.145.227-.25.477-.304.75-.046.29-.1.668-.145 1.153l-2.73 22.34c-.06.387-.02.728.115 1.024.144.288.31.607.523.94l-.508.736-7.173-4.846.5-.735c.106.076.266.13.485.15.22.032.38-.044.486-.196.182-.273.326-.697.402-1.29l.485-4.056-9.957-6.72-3.427 1.905c-.66.38-1.06.697-1.228.94-.197.303-.045.63.47.978l-.493.736-5.794-3.914.493-.736M306.63 80.234l-.6.66-5.58-5.142.606-.652c.166.144.37.235.6.25.234.015.446-.09.65-.303l13.28-14.41-5.97-5.504a1.62 1.62 0 0 0-.803-.402c-.326-.067-.63.07-.94.403l-.66-.6 4.672-5.065.652.592c-.31.34-.417.66-.32.978.085.303.244.56.464.758l16.07 14.818c.22.205.485.34.804.41.318.068.63-.07.947-.41l.646.6-4.664 5.072-.66-.6c.32-.34.425-.66.327-.97a1.633 1.633 0 0 0-.464-.773l-5.976-5.505-13.278 14.415c-.394.433-.333.895.197 1.38M348.17 98.562c.28-.22.41-.5.387-.826-.023-.342-.258-.766-.675-1.32l-9.73-12.626-4.83 3.716 5.877 7.65c.4.517.788.866 1.152 1.04.364.182.85.038 1.433-.424l.554.697-6.098 4.693-.538-.705c.6-.455.88-.895.834-1.32-.06-.41-.288-.887-.69-1.41l-5.893-7.636-5.376 4.14 10.032 13.028c.303.395.63.645 1.008.75.372.115.713.04 1.03-.196l.54.705-5.34 4.11-.552-.698c.394-.304.523-.6.386-.88-.136-.296-.348-.63-.66-1.024l-13.998-18.17.705-.545a.917.917 0 0 0 .547.35c.22.06.47-.01.698-.183l17.692-13.635c.25-.182.37-.395.37-.622 0-.243-.06-.447-.196-.637l.7-.53 13.694 17.782c.425.553.804.864 1.145.963.34.084.65.016.932-.204l.546.705-5.157 3.975-.53-.713" fill="#1a64b7"/></svg>