<svg xmlns="http://www.w3.org/2000/svg" width="203" height="250" viewBox="0 0 203 250"><path fill="#23375B" d="M47.414 165.37v33.47c1.886 0 21.42-.026 21.42-.026v-4.128l-17.24.04v-30.562h17.24v-4.332l-23.457.035 2.037 5.502zm48.5 0s-2.535-.02-5.702-.022v33.604h3.576v-29.766l1.28-.03c.748 0 1.344.81 1.344 1.797l-.01 28.04h3.826v-28.316c0-3.653-1.993-5.308-4.314-5.308M78.14 198.99h3.62v-29.805h2.99v29.766h3.736v-33.603c-4.492-.022-9.5-.036-10.346-.04v33.684zm-45.2-43.98s-2.847 0-6.387-.017v43.727h4.04v-39.395l1.422-.03c.81 0 1.477.88 1.477 1.97l-.027 37.486h4.466v-37.793c0-3.892-2.32-5.946-4.99-5.946m20.372 23.503h11.262v-3.958h-7.597v-4.657h11.858v-4.012H53.312v12.627zm43.197-18.498H70.542l2.188 5.902v33.074h3.684v-35.408l19.5.053c3.247 0 6.05 2.42 6.05 7.04v28.316h3.468l-.035-30.707c0-5.21-4.413-8.268-8.888-8.268m50.376 15.158h-4.6v-15.438l-3.566.01v18.413h12.143v-18.432h-3.977v15.447zm-89.91 9.23h7.598v-4.174H53.312V193c1.388-.005 12.997-.03 15.523-.04v-3.692l-11.858-.013v-4.853zM13.255 198.75h4.074v-39.425h3.31v39.395h4.19v-43.727c-5.036-.02-10.71-.027-11.574-.036v43.794zM33.6 149.207H4.97l2.41 6.507v43.038h4.146v-45.52l21.412.064c3.532 0 6.716 2.642 6.716 7.663v37.794h3.772l-.036-40.426c0-5.738-4.856-9.118-9.793-9.118m132.68 10.612v39.253h4.224l-.01-39.252h-4.215zm-5.953 6.4l.01 32.854h4.225V159.82h-6.592l2.357 6.4zm23.877 12.33c3.665 0 3.104 2.336 3.104 4.742v4.083c0 .975-.658 1.762-1.46 1.762h-.586c-.8 0-1.46-.787-1.46-1.762v-4.804h-4.42v4.247c0 2.598 0 6.524 5.96 6.524 6.21 0 6.44-4.664 6.45-4.838v-8.923c0-4.222-2.207-4.605-5.792-4.866-1.077-.085-2.18-.17-3.158-.432-4.226-1.17-4.74-4.105-4.938-5.21-.133-.728-.09-6.532-.07-8.388-.01-.195-.17-2.89 1.698-4.928 1.308-1.437 3.247-2.157 5.765-2.157 2.687 0 4.76.786 6.174 2.343 1.735 1.904 1.913 4.377 1.913 5.32 0 .187-.01.29-.01.355v3.705h4.547v-6.294c0-5.97-4.813-9.955-11.102-9.955h-2.046c-6.19 0-11.787 3.256-11.787 10.105v9.163c0 6.754 6.264 10.206 11.22 10.206m-62.058-18.518h-15.292l2.117 5.854v33.19h3.47v-35.562h9.126c3.256 0 6.565 2.304 6.565 6.45v4.207c0 4.138-3.31 6.304-6.565 6.304h-7.4v18.6h3.958v-15.437l4.9-.093c5.437 0 8.372-4.817 8.372-9.372l.106-5.773c0-5.437-4.83-8.368-9.357-8.368m66.273 9.212l-1.93-.1c-1.762 0-2.775-.75-2.775-2.587v-5.195c0-.98.65-1.762 1.44-1.762h.588c.8 0 1.458.783 1.458 1.762v3.963h4.494v-3.8c.01-.025.17-2.64-1.468-4.434-1.086-1.182-2.74-1.787-4.93-1.787-2.027 0-3.55.543-4.527 1.602-1.39 1.513-1.255 3.63-1.255 3.66v.072c-.018 3.585-.018 7.646.045 8.13.178.97.542 2.985 3.727 3.866.81.223 1.797.298 2.83.374 3.103.222 7.355.542 7.355 6.573v8.944c0 .066-.258 6.516-8.13 6.516-7.642 0-7.642-5.76-7.642-8.224v-4.248h-4.617v6.27c0 7.474 5.693 10.32 10.924 10.32h2.678c6.557 0 11.342-4.048 11.342-10.56v-9.74c0-7.084-4.767-9.614-9.607-9.614m-55.43-3.443v33.516h4.03v-39.572l-6.19.01 2.16 6.047zm-6.582 8.372v-4.208c0-3.153-2.51-4.724-4.84-4.724h-7.4v13.513h7.4c2.33 0 4.84-1.432 4.84-4.58m-8.282 1.022v-6.663h2.438c1.228 0 2.215 1.2 2.215 2.678v1.312c0 1.5-.97 2.674-2.216 2.674h-2.438zm34.462 24.12h3.63v-39.59h-3.63v39.59zm-13.868 0h3.567v-15.607h4.6v15.607h3.976v-19.44H138.72v19.44z"/><path fill="#6189B9" d="M76.414 198.99v-35.408l19.5.053c3.242 0 6.05 2.42 6.05 7.04v28.316h-1.735v-28.314c0-3.65-1.994-5.307-4.315-5.307 0 0-2.535-.02-5.702-.022v33.604h-1.726v-33.604c-4.492-.022-9.5-.036-10.346-.04v33.684h-1.726zm-7.58-33.104H53.313v12.627h11.262v1.717H53.312V193c1.388-.005 12.997-.03 15.523-.04v1.726l-17.24.04v-30.562h17.24v1.722zM11.53 198.75v-45.52l21.412.064c3.532 0 6.716 2.642 6.716 7.663v37.794H37.93v-37.793c0-3.892-2.322-5.946-4.99-5.946 0 0-2.848 0-6.388-.017v43.727h-1.726v-43.727c-5.035-.02-10.71-.027-11.573-.036v43.794h-1.725zm153.034-38.932h1.718v39.253h-1.718V159.82zm-52.12 39.257v-35.56h9.126c3.256 0 6.565 2.303 6.565 6.448v4.208c0 4.138-3.31 6.304-6.565 6.304h-7.4v18.6h-1.727zm66.94-16.506v4.247c0 2.598 0 6.524 5.96 6.524 6.21 0 6.44-4.664 6.45-4.838v-8.923c0-4.222-2.206-4.605-5.79-4.866-1.078-.085-2.18-.17-3.16-.432-4.225-1.17-4.74-4.105-4.937-5.21-.133-.728-.09-6.532-.07-8.388-.01-.195-.17-2.89 1.698-4.928 1.308-1.437 3.247-2.157 5.765-2.157 2.687 0 4.76.786 6.174 2.343 1.734 1.904 1.912 4.377 1.912 5.32 0 .187-.01.29-.01.355v3.705h-1.68v-3.8c.01-.025.17-2.64-1.468-4.434-1.086-1.184-2.74-1.79-4.93-1.79-2.027 0-3.55.544-4.527 1.603-1.39 1.513-1.255 3.63-1.255 3.66v.07c-.018 3.585-.018 7.646.045 8.13.178.97.542 2.985 3.727 3.866.81.223 1.797.298 2.83.374 3.103.222 7.355.542 7.355 6.573v8.945c0 .066-.258 6.516-8.13 6.516-7.642 0-7.642-5.76-7.642-8.224v-4.248h1.682zm-52.974-8.398v-4.208c0-3.153-2.51-4.724-4.84-4.724h-7.4v13.513h7.4c2.33 0 4.84-1.432 4.84-4.58m10.613 25.142v-39.572h1.7v18.414h12.143v-18.432h1.726v39.59h-1.727v-19.44H138.72v19.44h-1.7z"/><path fill="#23375B" d="M170.255 40.573a68.656 68.656 0 0 0-1.868-2.708c15.62-25.615-21.242-45.255-34.595-23.516-16.44-3.025-30.175 2.98-32.025 3.847-1.842-.86-15.425-6.79-31.696-3.908-16.127-22.683-49.388.76-34.72 23.282a83.997 83.997 0 0 0-2.09 3.002c-20.833 31.723-5.185 53.22-5.185 53.22l3.202-3.202s4.555 22.117 28.626 36.648l.872-4.768c14.82 15.828 28.546 15.458 41.338 29.923 11.823-13.7 29-13.7 42.37-30.79v6.07c24.73-12.038 26.99-38.058 26.99-38.058l2.286 4.22c0 .002 17.346-21.54-3.505-53.264"/><path fill="#FDB827" d="M117.833 63.044c1.165-.422 3.21.8 4.305 2.93 5.01-1.458 4.742-8.21 4.71-8.688-3.985 1.546-7.263 4.21-9.015 5.758"/><path fill="#6189B9" d="M101.962 95.696c1.38-.218 23.342-1.012 9.892 12.64 9.376-12.422-7.632-12.513-9.892-12.64m37.994-70.848s4.938-12.348 20.07-9.363c0 0-13.888-9.147-23.558 7.392 0 0-13.717-6.514-34.408 2.426 0 0-19.598-6.832-34.373-2.96 0 0-8.61-14.954-20.745-8.79-12.125 6.152-5.81 20.395-3.692 24.084 0 0-20.113 20.482-12.552 45.815l4.048-5.046s5.764 27.577 20.683 36.272l.888-6.78s15.56 18.77 33.857 26.744c1.726.814 11.45 5.63 11.742 8.01v-13.136s-12.712 1.057-16.057-4.8c-2.277-3.984-16.857-30.013-9.652-57.28 0 0-7.02-1.042-8.344-12.89 0 0-5.24-2.543-11.742-2.016 0 0 11.635-3.643 22.55.565 10.897 4.228 13.815 14.97 21.208 10.22l2.18-30.27 2.08 30.27c7.394 4.75 10.312-5.993 21.21-10.22 10.914-4.208 22.54-.565 22.54-.565s-4.643-3.285-12.124-4.777c-6.254-1.252-15.435 2.765-15.435 2.765s1.273-8.59 5.445-13.177c3.578-3.932 11.672-4.8 14.18-12.492m-94.09 10.43c-.444-4.12 4.77-8.202 4.77-8.202-2.145-2.222-5.9-.295-5.9-.295 3.4-6.653 11.023-3.402 11.023-3.402-2.882-3.534-9.012-3.312-9.012-3.312 7.58-7.497 16.707 3.972 16.707 3.972-8.14 1.83-17.587 11.24-17.587 11.24M120.786 67.043c12.15 32.694-3.327 53.69-3.327 53.69 9.535-24.94 3.406-45.693-.774-53.403-2.127.21-4.697.096-4.697.096s3.21-1.995 5.3-3.89c.16-.145.348-.313.562-.5 0 .004-.018.004-.018.01 1.165-.423 3.21.8 4.305 2.928 5.008-1.452 4.74-8.187 4.714-8.687a17.64 17.64 0 0 1 4.617-1.143s-1.148 10.748-10.684 10.9"/><path fill="#FDB827" d="M77.722 57.27c-.027.497-.29 7.25 4.715 8.7 1.076-2.09 3.007-3.297 4.18-2.94-2.695-2.08-6.04-4.398-8.895-5.76"/><path fill="#BBD1E4" d="M101.918 126.377c-15.318 0-13.263-3.37-13.263-3.37 1.663-1.033 12.383-1.247 13.246-1.247.855 0 11.61.214 13.273 1.246 0 0 2.063 3.37-13.255 3.37m-24.188-69.1s-.013-.003-.013-.008c0 .005.013.01.013.01m24.188 54.92v6.213l-4.225.224c-4.44.13-10.23 1.935-10.23 1.935-10.746-26.617-4.786-46.76-1.92-53.945-10.658 2.313-12.38-10.48-12.38-10.48 1.108-.224 2.728.254 4.556 1.124-.023.5-.28 7.25 4.718 8.704 1.076-2.09 2.998-3.303 4.163-2.95.793.617 1.54 1.215 2.19 1.76 7.23 6.1 12.862 4.857 12.862 4.857s.08 23.206.08 26.057c0 0-20.958-1.64-9.706 12.63 0 0 1.815-5.215 3.736-3.57 2.66 2.29 6.156 6.95 6.156 7.44"/><path fill="#6189B9" d="M54.993 222.636l-.24.676c-.276.78-1.023 1.197-1.69.952l-1.352-.498 1.247-3.43 1.37.494c.648.235.95 1.05.666 1.806m1.76-5.894l-8.165-2.967.018 3.425-6.218 17.138 4.83 1.762 2.9-7.966 1.47.53c.426.154.595.715.4 1.258l-2.545 7 4.794 1.735 2.625-7.206c.41-1.128.275-2.178-.356-2.947 0 0 1.62-.28 2.482-2.674l1.14-2.963c1.02-2.81-.963-5.248-3.374-6.125M156.707 218.94l-1.69-4.854-12.07 4.217 2.02 2.49 6.048 17.374c.96-.338 11.084-3.865 11.084-3.865l-1.727-4.81-6.11 2.123c-.17-.498-.997-2.86-.997-2.86l3.914-1.36-1.69-4.906-3.923 1.355-.97-2.78 6.11-2.126zM122.858 239.02l-1.583-16.437-6.45.613 1.61 3.28 1.71 17.848 12.64-1.175-.463-4.853zM66.584 223.232l-.436-3.666 6.183 1.318-4.35 20.984-5.052-1.085zM133.48 224.117l-1.885-3.172 6.2-1.29 4.492 20.942-5.044 1.058zM91.127 223.388L78.29 222.04l-.568 5.95 3.593-.897 2.073.214-7.33 16.016 12.837 1.277.444-4.85-5.534-.58zM108.945 223.672l-12.916-.067.026 5.983 3.478-1.26h2.11L95.92 245h12.926l-.044-4.875-5.56-.018zM172.648 221.105l1.014 1.526c.24.37.196.814-.098 1.02l-.65.427c-.302.195-.737.07-.978-.298l-1.192-1.803-4.003 2.66 1.55 2.35c1.85 2.792 4.687 2.445 6.645 1.146l1.414-.943c2.473-1.628 3.237-4.323 1.627-6.752l-2.42-3.647c-1.752-2.64-4.163-2.41-5.97-1.208l-1.173.725c-.658.436-1.228.404-1.673-.27l-1.29-1.95c-.248-.363-.194-.817.1-1.02l.658-.42c.293-.195.73-.07.97.29l.987 1.48 4.012-2.655-1.584-2.344c-1.468-2.242-4.252-2.53-6.6-.97l-1.184.792c-2.314 1.53-3.604 4.132-1.904 6.69l2.276 3.424c1.664 2.52 4.866 2.26 6.717 1.036 1.68-1.125 2.162-.183 2.748.715M35.59 226.986c-1.733 2.58-4.812 2.713-6.91 1.303l-2.154-1.464c-2.1-1.4-3.123-4.306-1.397-6.89l7.027-10.51c1.735-2.585 4.82-2.732 6.912-1.326l2.16 1.445c2.1 1.4 3.15 4.306 1.424 6.898l-1.397 2.09-4.28-2.872.882-1.298c.32-.485.3-1.077-.045-1.308l-.685-.46c-.347-.23-.898-.017-1.228.47 0 0-.338.523-.863 1.307-.962 1.43-5.134 7.66-5.134 7.66-.32.49-.312 1.076.036 1.308l.685.467c.338.227.898.022 1.228-.467l1.574-2.33-.74-.503 1.985-2.972 5.026 3.354-4.11 6.1z"/></svg>