<svg xmlns="http://www.w3.org/2000/svg" width="250" height="222" viewBox="0 0 250 222"><path fill="#FFF" d="M232.225 113c-4.847 3.257-10.377 6.344-16.392 9.168a152.475 152.475 0 0 1-19.855 7.68c.25-2.682.353-5.378.353-8.084 0-2.077-.068-4.158-.207-6.232l10.44-2.3v-.025a99.06 99.06 0 0 0-3.36-18.438c-1.667-5.864-3.858-11.612-6.59-17.084-1.872-3.768-4.03-7.436-6.366-10.95-.317-.478-.636-.952-.96-1.422l3.4-18.544s-10.335 1.42-17.456 2.396a1.27 1.27 0 0 0-.24-.214 93.394 93.394 0 0 0-6.34-5.382c-.104-7.328-.242-18.248-.242-18.248s-9.595 4.684-16.142 7.885a101.603 101.603 0 0 0-7.784-3.495c0-.003-.042-.01-.042-.014-2.012-7.245-5.06-18.022-5.06-18.022s-7.682 7.435-13.165 12.73a96.57 96.57 0 0 0-9.025-1.272c-3.857-6.72-9.347-16.277-9.347-16.277s-5.45 9.537-9.298 16.253a97.538 97.538 0 0 0-9.098 1.258c-5.472-5.29-13.135-12.692-13.135-12.692s-3.007 10.674-5.054 17.92c-.076.037-.163.068-.24.1a97.24 97.24 0 0 0-7.7 3.46L47.286 25.32s-.142 10.757-.242 18.085a99.553 99.553 0 0 0-6.488 5.49c-.09.085-.173.16-.263.248-7.1-.978-17.314-2.375-17.314-2.375l3.414 18.382a99.43 99.43 0 0 0-7.387 12.46 98.85 98.85 0 0 0-6.612 17.084A99.477 99.477 0 0 0 9 113.14l-.003.018 10.394 2.304a91.5 91.5 0 0 0-.224 6.302c0 3.64.225 7.272.664 10.864-.536.007-1.047.052-1.462.17a.917.917 0 0 0-.197.058c-.38.135-.943.747-1.65 1.51-1.093 1.177-2.593 2.787-4.31 3.596-1.214.57-1.806 1.942-1.806 3.284 0 .483.073.96.225 1.393-.004.01-.004.027-.004.04l-.024.084a.294.294 0 0 1-.018.052c-.003.014-.01.024-.017.04a.195.195 0 0 1-.02.064.3.3 0 0 1-.036.07l-.023.064c-.042.107-.1.23-.16.373-.504 1.155-1.448 3.305-1.482 5.817-.003.056-.003.104-.003.163 0 1.02.152 1.987.453 2.917-.353.702-.667 1.43-.947 2.174-.003.004-.003.01-.007.024a1.35 1.35 0 0 0-.18.49 22.57 22.57 0 0 0-1.233 8.445c.052 1.358.228 2.696.52 4.01a1.36 1.36 0 0 0 .286 1.158 22.096 22.096 0 0 0 1.355 3.656 22.675 22.675 0 0 0 5.192 7.066 22.638 22.638 0 0 0 2.738 2.16c.187.246.456.426.77.502a22.83 22.83 0 0 0 12.928 3.373 22.72 22.72 0 0 0 8.822-2.16 22.48 22.48 0 0 0 2.883-1.62c.88.96 1.778 1.9 2.694 2.817a89.472 89.472 0 0 0 9.46 8.216c-.073.087-.145.177-.214.263-1.04 1.275-1.76 2.523-2.24 3.837-.747 2.057-.91 4.308-.91 7.038v.184c.018.547.222 1.428.54 2.38.024.074.056.165.083.24.03.09.06.173.09.256.083.21.16.42.25.62.628 1.517 1.34 2.626 1.956 3.05l.01.008.01-.01c.013-.01 1.11-1.124 2.944-2.966.214.22.44.442.688.643.024.018.05.045.08.065l.003.004c.813.653 1.88 1.262 3.44 1.978.535 2.443 2.125 3.813 3.583 4.9l.014.018.01-.023.008-.015c.104-.193 1.07-2.108 1.756-2.706.08.03.975.45.975.45.202.058.416.124.627.18.08.017.16.037.242.064.023.008.047.01.068.018 3.076.77 6.457.813 10.076.125 3.343-.64 6.253-1.777 8.18-2.523.182-.073.362-.146.53-.208.402-.155.765-.29 1.065-.394.953-.312 2.384-.294 4.033-.26h.08c1.307.024 2.828.05 4.445-.104.03-.007.062-.007.097-.014h.02a89.533 89.533 0 0 0 28.5-1.165 88.307 88.307 0 0 0 16.635-5.16 89.25 89.25 0 0 0 15.044-8.172c.104-.083.242-.173.353-.252a17.355 17.355 0 0 0-.532 3.298v.657c0 1.362.18 2.706.567 3.923.497 1.542 1.244 2.87 2.232 3.948v.021l.035-.024c.316-.56.952-1.452 1.665-2.185.283-.28.566-.54.885-.743 0 .007 4.03 1.106 4.03 1.113.076.287.317.975.78 1.73.035.04.07.074.07.112.034.01.034.02.034.03.566.852 1.383 1.743 2.51 2.206v.007-.014c.463-1.228 1.382-2.6 2.232-3.343 2.98.63 5.772.736 8.248.31 2.447-.417 4.64-1.34 6.478-2.747 4.424-3.328 7.044-9.333 7.61-17.376.105-.857.43-2.03.852-3.39.85-2.964 2.012-7.025 2.012-11.557v-.152a11.02 11.02 0 0 0-.422-2.523c-.353-1.137-.81-2.288-1.41-3.08 0-.01-.042-.02-.042-.03-.456-.54-3.29-1.62-5.55-2.133-.68-.668-1.772-1.225-2.974-1.525.843-1.73 1.66-3.484 2.405-5.258a83.228 83.228 0 0 0 2.827-7.636c5.56-2.5 10.474-5.21 15.93-8.43 5.163-3.034 9.87-6.177 14.054-9.312"/><path fill="#FFF" d="M231.16 111.413c-4.813 3.223-10.232 6.265-16.143 9.03a151.185 151.185 0 0 1-15.285 6.178c-.532.194-1.1.378-1.666.558.11-1.8.18-3.608.18-5.41a72.16 72.16 0 0 0-.146-4.73c2.302-.5 8.85-1.947 8.85-1.947.884-.186 1.527-.965 1.527-1.85 0-.06 0-.104-.042-.156v-.034a99.216 99.216 0 0 0-3.394-18.794c-1.7-5.987-3.968-11.84-6.726-17.415a105.91 105.91 0 0 0-6.48-11.167c-.172-.263-.386-.525-.565-.785.282-1.428 3.29-17.774 3.29-17.774.034-.107.034-.225.034-.342 0-.484-.173-.958-.532-1.313a1.9 1.9 0 0 0-1.625-.575s-14.974 2.057-16.563 2.278c-1.7-1.56-3.505-3.076-5.31-4.525-.034-1.638-.25-17.338-.25-17.338 0-.646-.352-1.248-.884-1.59a1.908 1.908 0 0 0-1.84-.09s-13.805 6.733-15.325 7.47a104.706 104.706 0 0 0-6.23-2.8c-.462-1.625-4.81-17.127-4.81-17.127a1.874 1.874 0 0 0-1.35-1.32c-.635-.183-1.306 0-1.804.47 0 0-11.22 10.826-12.458 12.05a101.03 101.03 0 0 0-7.293-1.027c-.848-1.528-8.826-15.42-8.826-15.42-.34-.59-.97-.958-1.652-.958"/><path fill="#FFF" d="M107.844 4.957a1.91 1.91 0 0 0-1.652.96S98.266 19.78 97.388 21.31a102.8 102.8 0 0 0-7.318 1.01c-1.258-1.21-12.43-12.008-12.43-12.008a1.885 1.885 0 0 0-1.825-.47 1.904 1.904 0 0 0-1.334 1.317s-4.334 15.398-4.793 17.023a98.573 98.573 0 0 0-6.374 2.848L48.12 23.62a1.903 1.903 0 0 0-2.737 1.68s-.207 15.534-.227 17.176a101.998 101.998 0 0 0-5.493 4.663c-1.594-.22-16.42-2.255-16.42-2.255-.61-.08-1.22.13-1.64.574-.34.355-.526.83-.526 1.312 0 .118.01.235.035.346l3.27 17.61a102.42 102.42 0 0 0-7.08 12.037 101.21 101.21 0 0 0-10.195 36.212l-.003.014c-.003.053-.007.115-.007.17 0 .885.616 1.66 1.494 1.858 0 0 6.523 1.444 8.8 1.953-.08 1.6-.12 3.212-.12 4.798 0 3.07.156 6.167.467 9.233-.083.024-.197.06-.197.06s.004 0-.01.007c-.82.297-1.448.975-2.402 2.005-.985 1.058-2.336 2.513-3.73 3.173 0 0 .004 0 .008-.003-.954.45-1.73 1.21-2.243 2.208-.43.83-.653 1.805-.653 2.8 0 .442.042.878.135 1.293-.035.073-.055.12-.055.12-.56 1.28-1.597 3.658-1.642 6.555v.19c0 .937.11 1.855.33 2.74a26.4 26.4 0 0 0-.672 1.594 3.444 3.444 0 0 0-.276.754 24.436 24.436 0 0 0-1.306 9.044c.055 1.348.225 2.696.49 4.013-.002.063-.006.14-.006.204 0 .595.166 1.176.48 1.69a24.605 24.605 0 0 0 7.003 11.295 23.9 23.9 0 0 0 2.77 2.21c.346.358.77.635 1.237.805a24.64 24.64 0 0 0 4.075 1.967 24.513 24.513 0 0 0 9.72 1.56 24.77 24.77 0 0 0 9.56-2.338c.592-.28 1.17-.584 1.732-.908a68.708 68.708 0 0 0 1.684 1.72 89.517 89.517 0 0 0 8.154 7.23c-.677 1.01-1.21 2.028-1.593 3.093-.844 2.335-1.02 4.768-1.02 7.695l.002.184v.033c.017.944.356 2.123.632 2.95 0-.005.093.275.093.275l.097.276c.094.23.184.47.28.694.798 1.92 1.683 3.22 2.627 3.88 0-.005.015.006.015.006.754.52 1.787.432 2.437-.23l.01-.012c.007-.003.62-.62 1.697-1.704.673.48 1.482.943 2.5 1.438.793 2.367 2.397 3.84 4.04 5.08a1.922 1.922 0 0 0 1.604.346 1.924 1.924 0 0 0 1.268-1.01l.014-.024c.22-.442.456-.875.674-1.224.163.045.322.083.48.135l.266.062.076.02c3.346.84 7.007.885 10.892.145 3.52-.663 6.526-1.835 8.517-2.613l.53-.207c.315-.124.68-.263.975-.355.653-.218 2.053-.197 3.405-.17l.076.004c1.286.02 2.883.048 4.583-.107a91.433 91.433 0 0 0 28.905-1.217 91.174 91.174 0 0 0 16.99-5.272 90.65 90.65 0 0 0 12.208-6.32v.098c0 1.545.242 3.1.67 4.486.567 1.815 1.453 3.388 2.655 4.68-.034-.003 0 .02 0 .02.43.448 1.023.67 1.625.593a1.998 1.998 0 0 0 1.46-.988v-.008a9.44 9.44 0 0 1 1.34-1.742c.034.01 1.203.335 2.122.577.18.39.388.795.644 1.176l.067.135c0 .003.035.04.035.055.636.947 1.735 2.223 3.36 2.903v.008c.497.203 1.03.203 1.485-.008.498-.2.85-.594 1.064-1.07v-.022c.25-.65.638-1.383 1.094-1.946 2.834.49 5.49.53 7.937.114 2.725-.47 5.165-1.514 7.287-3.1 4.847-3.654 7.715-10.115 8.323-18.677.104-.716.422-1.867.774-3.073.885-3.08 2.122-7.293 2.122-12.09v-.21c-.034-.894-.207-1.928-.525-3-.254-.846-.78-2.446-1.706-3.687 0-.003-.14-.15-.14-.15-.18-.226-.67-.758-2.833-1.6-1.022-.39-2.19-.76-3.248-1.015-.36-.3-.78-.57-1.244-.816a120.373 120.373 0 0 0 1.555-3.483 92.39 92.39 0 0 0 2.627-6.988c5.73-2.627 10.757-5.473 15.327-8.172 5.233-3.076 10.017-6.256 14.22-9.437"/><path fill="#FFF" d="M18.82 134.65s-.008 0-.02.003l.015-.004h.004zM6.704 153.547c-.03.05-.056.107-.086.16.024-.053.055-.11.086-.16M6.565 153.827v.007-.007zM6.32 154.546c-.014.056-.028.11-.035.173.007-.064.02-.118.035-.174M15.508 182.665"/><path fill="#FFF" d="M221.04 129.36c-4.107 3.098-8.78 6.19-13.91 9.192-4.674 2.77-9.81 5.69-15.72 8.333-.492.218-.887.644-1.024 1.162a91.168 91.168 0 0 1-2.76 7.466 97.673 97.673 0 0 1-2.37 5.144 1.808 1.808 0 0 0-.214.857c0 .272.068.546.173.79.256.533.712.92 1.278 1.056 1.023.256 1.77.7 2.088 1.033.25.25.568.422.92.505 2.02.446 3.996 1.24 4.605 1.597.353.554.705 1.38.99 2.31v.007c.213.75.352 1.476.352 2.036v.11c0 4.262-1.127 8.168-1.95 11.033-.42 1.43-.773 2.67-.912 3.66v.122c-.532 7.474-2.87 13.008-6.83 15.99-1.632 1.217-3.505 2.022-5.67 2.386-2.232.39-4.776.29-7.54-.294a1.888 1.888 0 0 0-1.66.438c-.567.484-1.1 1.165-1.598 1.915a5.17 5.17 0 0 1-.283-.394v-.007l-.027-.024c0 .003-.042-.072-.042-.072-.353-.554-.49-.996-.532-1.086v.045c-.138-.71-.67-1.335-1.375-1.525l-4.038-1.106a1.85 1.85 0 0 0-1.59.283c-.387.25-.746.577-1.134.95v.007c-.11.097-.18.187-.283.283-.173-.404-.353-.822-.498-1.27-.317-1.025-.456-2.187-.456-3.358v-.57c.033-.98.213-1.94.455-2.87.07-.168.07-.338.07-.51 0-.603-.284-1.183-.775-1.546-.678-.475-1.52-.484-2.19-.035l-.36.252a87.69 87.69 0 0 1-14.718 7.992 86.615 86.615 0 0 1-16.286 5.045 87.063 87.063 0 0 1-17.466 1.763c-3.47 0-6.972-.207-10.415-.618a1.863 1.863 0 0 0-.422-.004l-.104.01c-1.52.147-2.96.122-4.235.102h-.08c-1.822-.03-3.398-.063-4.66.353 0 0-.003.004-.007.004a31.86 31.86 0 0 0-1.144.422l-.542.21c-1.86.72-4.673 1.822-7.85 2.428-3.335.63-6.446.602-9.25-.104l-.283-.068c-.15-.042-.298-.09-.45-.128-.2-.1-.83-.395-.83-.395a1.914 1.914 0 0 0-2.06.29c-.346.3-.7.743-1.02 1.227-.575-.64-1.027-1.386-1.25-2.382a1.888 1.888 0 0 0-1.067-1.316c-1.424-.647-2.357-1.184-3.035-1.723v-.003s-.014-.01-.018-.01l.01.006-.055-.052a5.455 5.455 0 0 1-.498-.467 1.927 1.927 0 0 0-1.362-.61 1.915 1.915 0 0 0-1.39.56c-.536.543-1.01 1.017-1.41 1.42a13.018 13.018 0 0 1-.408-.888c-.076-.18-.148-.363-.218-.553l-.08-.23-.08-.21c-.33-.98-.425-1.59-.432-1.813v-.142c0-2.53.135-4.58.795-6.397.404-1.127 1.016-2.175 1.922-3.28l.193-.242a1.92 1.92 0 0 0 .432-1.44 1.91 1.91 0 0 0-.743-1.3 88.127 88.127 0 0 1-9.264-8.045 77.547 77.547 0 0 1-2.634-2.754 1.913 1.913 0 0 0-2.455-.304 20.848 20.848 0 0 1-10.726 3.47 20.9 20.9 0 0 1-8.23-1.313 21.274 21.274 0 0 1-3.624-1.778 1.706 1.706 0 0 0-.384-.18 1.608 1.608 0 0 0-.32-.276 20.9 20.9 0 0 1-2.514-1.99 20.784 20.784 0 0 1-4.763-6.475 21.044 21.044 0 0 1-1.24-3.35 1.916 1.916 0 0 0-.23-.51c.004-.042.01-.09.01-.147 0-.135-.016-.27-.044-.4a20.9 20.9 0 0 1-.473-3.685 20.603 20.603 0 0 1 1.133-7.743c.024-.072.045-.152.055-.23.042-.07.08-.14.104-.217l.01-.02c.248-.682.54-1.35.867-2.002.128-.26.193-.55.193-.844 0-.204-.024-.397-.09-.588a7.636 7.636 0 0 1-.36-2.33v-.13c.04-2.134.848-3.98 1.328-5.085l.176-.402.028-.08.045-.097.03-.082c0-.007.025-.08.025-.08l.038-.106.073-.252.035-.245c.017-.087.024-.177.024-.253 0-.2-.038-.373-.117-.58a2.496 2.496 0 0 1-.118-.765c0-.722.29-1.368.702-1.56l.006-.003c2.057-.975 3.695-2.74 4.89-4.023.343-.368.793-.85 1.02-1.042.153-.042.447-.08.93-.09a1.908 1.908 0 0 0 1.404-.65 1.92 1.92 0 0 0 .452-1.48 88.067 88.067 0 0 1-.646-10.633c0-2.042.076-4.123.218-6.17.003-.052.007-.093.007-.135 0-.885-.614-1.67-1.492-1.86 0 0-6.412-1.425-8.745-1.94a98.02 98.02 0 0 1 3.17-16.453A97.002 97.002 0 0 1 27.956 66.24a1.9 1.9 0 0 0 .34-1.085c0-.118-.008-.235-.03-.356l-2.934-15.79c3.764.522 14.697 2.022 14.697 2.022.57.072 1.14-.107 1.555-.495l.048-.045.214-.193a97.88 97.88 0 0 1 6.36-5.394 1.88 1.88 0 0 0 .736-1.48s.146-10.9.204-15.073l13.335 6.505a1.858 1.858 0 0 0 1.687-.01 102.55 102.55 0 0 1 7.548-3.392l.238-.09a1.91 1.91 0 0 0 1.137-1.25l4.18-14.864c3.127 3.024 10.85 10.48 10.85 10.48.44.43 1.06.62 1.668.508"/><path fill="#FFF" d="M89.797 26.242a97.146 97.146 0 0 1 8.928-1.24 1.877 1.877 0 0 0 1.48-.945s5.412-9.46 7.642-13.37c2.236 3.91 7.677 13.39 7.677 13.39.318.54.85.89 1.486.948 2.938.277 5.95.698 8.85 1.255a1.94 1.94 0 0 0 1.696-.5s7.76-7.492 10.87-10.523c1.168 4.234 4.175 14.96 4.175 14.96a1.99 1.99 0 0 0 1.135 1.248l.034.01a98.928 98.928 0 0 1 7.645 3.433 1.878 1.878 0 0 0 1.66.014s9.732-4.743 13.486-6.567c.043 4.19.18 15.236.18 15.236.036.582.285 1.128.748 1.484a94.472 94.472 0 0 1 6.222 5.27l.146.15.104.068c.394.384.954.567 1.52.49 0 0 11.083-1.517 14.87-2.042a14266.47 14266.47 0 0 0-2.937 15.952c-.035.118-.035.24-.035.353 0 .38.104.764.318 1.085.318.457.636.927.954 1.393a100.345 100.345 0 0 1 6.27 10.74c2.655 5.368 4.847 11.002 6.437 16.758a95.09 95.09 0 0 1 3.152 16.444c-2.337.515-8.814 1.936-8.814 1.936-.85.193-1.486.97-1.486 1.854v.14a85.9 85.9 0 0 1 .214 6.103 82.21 82.21 0 0 1-.36 7.913v.17c0 .57.257 1.12.713 1.475a1.9 1.9 0 0 0 1.77.346 157.456 157.456 0 0 0 20.104-7.777c6.05-2.853 11.684-5.99 16.64-9.308M17.202 183.816l.155.045c-.055-.012-.107-.03-.155-.044M52.88 191.697v.004-.003M63.206 214.293c-.007.01-.01.024-.01.024 0-.004.002-.014.006-.024h.004zM158.778 205.1c-.214.293-.394.556-.498.776v.015c.18-.322.32-.594.498-.79M204.654 113.383v-.01.014zM12.487 143.09l-.003.004v.015c0 .005.013-.068.003-.02M12.352 143.526l-.003.007.002-.007zM196.897 163.906v.004c0 .003.035.003.035.003 0 .018-.035-.007-.035-.007M197.036 164.052v.012zM198.743 167.754v-.007.007zM59.058 206.762s0-.004-.007-.004c.008 0 .008.004.008.004M165.823 207.923v-.004.003z"/><path fill="#D31245" d="M19.19 121.767c0-48.92 39.643-88.573 88.564-88.573 48.937 0 88.577 39.654 88.577 88.573 0 48.932-39.64 88.575-88.576 88.575-48.92 0-88.565-39.644-88.565-88.575"/><path fill="#141006" d="M26.725 121.854c0-44.754 36.29-81.045 81.033-81.045 44.792 0 81.04 36.29 81.04 81.044 0 44.76-36.247 81.036-81.04 81.036-44.743 0-81.033-36.277-81.033-81.036"/><path fill="#141006" d="M56.455 123.65a35.82 35.82 0 0 1-.038-1.74c.038-28.337 22.858-51.244 51.362-51.244 28.49 0 51.352 22.97 51.352 51.187 0 .515.035 1.282 0 1.783l47.39-10.427c-4.278-50.668-46.892-90.494-98.763-90.494-51.988 0-94.266 39.73-98.738 90.42l47.433 10.515z"/><path fill="#D31245" d="M107.847 30.397c32.84 0 63 18.123 79.35 45.962l5.49-29.565-23.96 3.284-.326-24.72-22.148 10.8-6.872-24.45-18.508 17.91-13.025-22.724L94.854 29.62 76.327 11.71l-6.893 24.45-22.13-10.8-.324 24.72-23.975-3.285 5.492 29.564c16.347-27.84 46.51-45.963 79.35-45.963"/><path fill="#A7A9AC" d="M35.895 61.75l-.128-.126c.238-.304.2-.418.093-.52l-4.22-3.964-1.747 2.02c-.11.12-.09.234.128.503l-.103.146-2.022-1.885.124-.138c.29.204.386.204.497.073l5.046-5.772c.11-.125.083-.22-.125-.498l.114-.138 1.988 1.874-.12.142c-.288-.2-.378-.218-.488-.083l-1.77 2.016 4.214 3.955c.09.107.21.145.487-.13l.138.124-2.105 2.4zM59.576 36.56c1.403 2.357.304 4.78-1.895 6.194-2.177 1.4-4.77 1.33-6.162-1.002-1.396-2.35-.314-4.8 1.874-6.21 2.21-1.418 4.78-1.33 6.184 1.018m-6.146 3.95c.753 1.263 2.17 1.338 3.284.613 1.124-.723 1.7-2.07.94-3.335-.747-1.255-2.164-1.334-3.277-.605-1.127.715-1.693 2.07-.947 3.328M80.074 31.62c.024.157.1.243.456.164l.073.183-3.028.885-.045-.176c.377-.142.377-.256.335-.39l-1.925-7.073c-.052-.135-.1-.232-.512-.146l-.042-.193 5.35-1.58c2.154-.643 3.305-.128 3.772 1.61.384 1.39-.29 2.393-1.4 3.094l2.43 2.02c.17.15.325.192.477.134l.055.183-3.04.902-.044-.176c.197-.08.28-.186.252-.37-.048-.14-2.18-1.77-2.44-2.035l-1.435.425.71 2.54zm-1.155-4.15l2.44-.73c.88-.25 1.026-.723.898-1.168-.12-.432-.49-.747-1.338-.494l-2.468.726.467 1.665zM112.586 23.67c.02 2.75-2.143 4.238-4.74 4.238-2.58.018-4.738-1.465-4.738-4.224 0-2.75 2.15-4.24 4.74-4.248 2.58-.003 4.738 1.473 4.738 4.234m-7.224.015c0 1.49 1.165 2.31 2.485 2.31 1.317 0 2.48-.834 2.48-2.324 0-1.485-1.163-2.31-2.48-2.31-1.32.002-2.485.842-2.485 2.325M131.7 22.72c.034-.138.034-.252-.318-.39l.034-.177 3.54 1.013-.07.18c-.317-.08-.42-.007-.463.083-.034.168 1.777 3.694 2.447 5.163l1.1-4.058c.034-.18-.076-.297-.25-.363l.07-.19 2.654.78-.034.185c-.36-.083-.463.014-.498.145l-1.873 7.086c-.036.142-.036.26.316.39l-.034.184-2.766-.798.035-.187c.25.086.36.03.395-.063.035-.2-.25-.515-2.938-6.104l-1.237 4.77c-.076.142-.042.256.317.394l-.04.187-2.794-.804.034-.176c.388.07.463-.024.498-.16l1.874-7.09zM156.87 41.652l.104-.17c.317.188.42.112.497 0l2.974-5.04-2.198-1.427c-.173-.08-.25-.045-.456.23l-.18-.09 1.41-2.394.146.094c-.104.332-.104.446.04.532l6.368 4.068c.18.09.25.052.463-.218l.173.093-1.45 2.395-.147-.104c.146-.334.11-.428 0-.52l-2.227-1.408-2.973 5.016c-.068.128-.068.246.215.477l-.07.16-2.688-1.693zM184.903 60.88c-1.95 1.868-4.46 1.225-6.235-.752-1.73-1.963-2.157-4.618-.18-6.485 1.956-1.873 4.466-1.23 6.194.747 1.77 1.973 2.164 4.624.22 6.49m-4.886-5.523c-1.064 1-.85 2.47.035 3.467.886 1.013 2.26 1.334 3.326.335 1.064-.997.85-2.462-.07-3.468-.85-1.01-2.26-1.334-3.29-.335"/><path fill="#141006" d="M245 104.583c-4.915 10.95-15.568 23.05-36.917 35.598-11.254 6.647-22.544 12.628-43.532 17.308l-21.52-26.29c5.378 2.446 30.653 4.03 43.11 1.274 17.346-3.795 42.647-14.116 57.518-28.563"/><path fill="#A7B1B7" d="M28.888 141.03c-11.85.487-21.103 10.498-20.6 22.368.49 11.884 10.493 21.1 22.374 20.622 11.877-.484 21.088-10.498 20.62-22.375-.496-11.87-10.513-21.105-22.394-20.615"/><path fill="#141006" d="M28.847 139.932a22.45 22.45 0 0 0-8.73 2.143 22.6 22.6 0 0 0-6.99 5.147 22.442 22.442 0 0 0-4.535 7.373 22.305 22.305 0 0 0-1.403 8.85 22.55 22.55 0 0 0 2.135 8.727 22.534 22.534 0 0 0 5.133 6.986 22.632 22.632 0 0 0 7.376 4.545 22.496 22.496 0 0 0 8.873 1.417 22.363 22.363 0 0 0 8.72-2.136 22.47 22.47 0 0 0 6.987-5.133 22.57 22.57 0 0 0 4.545-7.38 22.44 22.44 0 0 0 1.413-8.865 22.486 22.486 0 0 0-2.133-8.73 22.704 22.704 0 0 0-5.137-6.98 22.617 22.617 0 0 0-7.383-4.55 22.505 22.505 0 0 0-8.873-1.413m8.102 3.473a20.424 20.424 0 0 1 6.663 4.106 20.346 20.346 0 0 1 4.632 6.306 20.34 20.34 0 0 1 1.932 7.874 20.43 20.43 0 0 1-1.28 8.006 20.507 20.507 0 0 1-4.105 6.668 20.39 20.39 0 0 1-6.3 4.632c-2.473 1.165-5.12 1.814-7.875 1.925s-5.448-.316-8.005-1.277a20.42 20.42 0 0 1-13.226-18.29c-.01-.298-.02-.59-.02-.885a20.283 20.283 0 0 1 5.382-13.758 20.247 20.247 0 0 1 6.312-4.646 20.128 20.128 0 0 1 7.873-1.932c2.758-.116 5.45.312 8.016 1.273"/><path fill="#141006" d="M18.847 158.756c-.276 3.72.02 7.287.885 10.59.905 3.48 2.402 6.527 4.448 9.078 2.192 2.728 4.96 4.81 8.227 6.177l.85-2.027a18.576 18.576 0 0 1-7.362-5.527c-1.85-2.306-3.208-5.085-4.038-8.254-.798-3.073-1.075-6.396-.815-9.872.25-3.47 1.03-6.92 2.298-10.263l-2.06-.78a38.796 38.796 0 0 0-2.433 10.88"/><path fill="#141006" d="M31.965 153.23c-1.127 2.513-2.29 5.108-4.162 7.03a10.12 10.12 0 0 1-3.367 2.302c-1.472.615-3.16.937-5.136.992-2.458.056-4.234-.584-5.59-2.02-1.26-1.333-2.228-3.376-3.14-6.615l-2.124.594c1.02 3.605 2.15 5.92 3.664 7.528 1.787 1.897 4.155 2.783 7.242 2.714 4.262-.11 7.54-1.403 10.024-3.954 2.154-2.202 3.395-4.984 4.594-7.678.847-1.887 1.645-3.67 2.7-5.126 1.116-1.55 2.377-2.506 3.964-3.007l-.667-2.104c-4.466 1.424-6.264 5.444-8.002 9.343"/><path fill="#141006" d="M38.605 162.763c-3.39 2.733-7.508 4.783-11.9 5.91-3.496.898-7.004 1.183-10.16.826-2.983-.333-5.49-1.252-7.062-2.583l-1.417 1.673c1.925 1.635 4.773 2.71 8.237 3.098 3.415.387 7.197.08 10.95-.885 4.698-1.203 9.102-3.395 12.73-6.326 4.218-3.404 7.333-7.688 9.25-12.737l-2.056-.785c-1.78 4.68-4.666 8.654-8.572 11.808M34.377 173.63c-3.204-.142-6.516-.287-10.193.626-2.147.528-3.765 1.29-4.936 2.32-1.158 1.012-1.884 2.28-2.223 3.877l2.15.463c.353-1.652 1.286-3.477 5.538-4.524 3.374-.837 6.522-.698 9.568-.566 2.876.124 5.59.245 8.38-.408a15.138 15.138 0 0 0 4.254-1.69c1.48-.854 2.865-1.97 4.23-3.4l-1.593-1.52c-5.02 5.264-9.725 5.057-15.173 4.822"/><path fill="#A7A9AC" d="M28.888 141.03c-11.85.487-21.103 10.498-20.6 22.368.49 11.884 10.493 21.1 22.374 20.622 11.877-.484 21.088-10.498 20.62-22.375-.496-11.87-10.513-21.105-22.394-20.615"/><path fill="#141006" d="M28.83 139.672a22.8 22.8 0 0 0-8.825 2.16 22.888 22.888 0 0 0-7.07 5.213 22.786 22.786 0 0 0-4.586 7.452 22.612 22.612 0 0 0-1.42 8.96 22.74 22.74 0 0 0 2.16 8.824 22.738 22.738 0 0 0 5.19 7.066 22.89 22.89 0 0 0 7.464 4.6 22.856 22.856 0 0 0 8.973 1.436 22.745 22.745 0 0 0 8.825-2.16 22.832 22.832 0 0 0 7.062-5.19 22.806 22.806 0 0 0 4.597-7.468 22.957 22.957 0 0 0 1.44-8.977 22.73 22.73 0 0 0-2.165-8.817 22.636 22.636 0 0 0-5.195-7.065 22.823 22.823 0 0 0-7.47-4.604 22.733 22.733 0 0 0-8.98-1.428m8.026 3.978a20.112 20.112 0 0 1 6.578 4.055 20.06 20.06 0 0 1 6.48 13.996 20.044 20.044 0 0 1-1.26 7.905 20.16 20.16 0 0 1-4.054 6.574 19.95 19.95 0 0 1-6.22 4.576 19.928 19.928 0 0 1-7.78 1.9 20.058 20.058 0 0 1-14.477-5.312 20.112 20.112 0 0 1-4.573-6.226 20.174 20.174 0 0 1-1.908-7.78c-.007-.294-.014-.585-.014-.875 0-2.405.425-4.76 1.27-7.01a20.028 20.028 0 0 1 4.04-6.57 20.15 20.15 0 0 1 6.225-4.584 19.996 19.996 0 0 1 7.78-1.913 20.023 20.023 0 0 1 7.913 1.263"/><path fill="#141006" d="M160.866 189.333c-1.486.132-3.505 1.04-5.876 2.752-.422-1.26-.49-3.07-.035-4.843v-.06l.464-3.833c-2.8-.672-5.67-1.66-8.926-2.78l-4.176.94c-7.535-7.27-19.04-12.412-21.06-12.398-3.785-.014-13.25 2.066-21.23 6.256l-1.15-1.676-.616.027c1.127 3.1-.46 5.26-.34 6.746 3.776.806 5.03 4.45 3.986 8.88 1.5 1.888 3.132 8.144 1.925 10.433.892 2.898.546 5.622-.193 7.98-6.063 3.366-12.41 1.395-15.212 2.333-3.066 1.033-11.86 5.458-20.77 2.737l-.98-.463c-.732.63-1.78 2.74-1.78 2.74-1.606-1.21-3.065-2.547-3.577-4.908-1.78-.816-3.23-1.618-4.223-2.696-1.87 1.88-2.96 2.98-2.96 2.98-1.36-.94-2.868-4.98-2.9-6.53-.013-5.835.668-8.957 5.286-13.35.456-5.67 13.595-4.822 18.02-3.626 0 0-.543-2.292-1.072-4.445-.49-2.14 1.857-3.356 1.857-3.356-1.524-7.187-5.71-9.77-5.786-16.958-9.626-.865-15.377-6.77-16.743-8.017 0 0 .1 1.707-.68 3.67-3.22 8.338-12.65 9.37-12.65 9.37l-.403-.448c3.446-2.97 3.56-7.953 3.315-10.12-2.24-1.504-1.926-5.33-1.238-6.236-.252-1.653-1.995-3.3-2.907-4.778-1.403-1.134-3.923-2.84-3.923-2.84s-2.997.835-3.536 1.06c-.453 1.573-2.226 3.6-4.286 3.664 0 0-1.186.8-2.585 2.67-1.63 2.2-1.825 3.03-2.496 4.514-.257.58-1.715 1.797-1.715 1.797l-.58-.452c-1.712-2.192-2.11-4.49-2.013-6.108-2.52.768-4.08 7.294-4.08 7.294l-.224-.072c-7.293-6.02-2.233-13.67-2.146-14.55-.588-1.672-.045-3.904 1.566-4.658 2.827-1.33 4.99-4.753 5.962-5.105 1.635-.566 5.14.09 5.14.09 3.09-1.666 7.56-2.333 8.973-2.734 1.874-.278 8.936 1.512 16.305 5.225 3.426-.34 12.23.988 13.75 1.586-.17-6.142 2.758-11.555 6.4-14.714 1.53-1.683 3.465-4.058 6.41-5.523 3.02-1.466 35.693-8.07 40.155-8.007 5.233-.353 11.293.674 14.223 2.983 1.88.818 6.98 8.83 6.664 18.54 1.34.486 2.93 1.443 3.076 2.46 9.236.097 20.602 11.963 22.02 14.856 1.443 2.894 5.024 7.51 10.507 9.616-.283 1.987-.815 3.557-1.486 4.718 3.644-4.354 9.596-2.475 12.852-.283 1.873-.902 5.24-.114 6.76 1.372 2.372.532 5.165 1.63 5.552 2.156 1.064 1.4 1.88 4.075 1.88 5.745 0 6.638-2.55 12.255-2.903 14.947-1.023 14.684-8.89 22.627-22.337 19.79-.85.76-1.735 2.14-2.19 3.355-2.2-.913-3.257-3.45-3.368-4.075l-4.064-1.124c-1.063.73-2.13 2.168-2.592 2.94-4.28-4.624-3.284-13.255.712-16.84v-.086l.246-.534z"/><path fill="#141006" d="M21.042 147.785a39.092 39.092 0 0 0-2.458 10.954c-.276 3.738.02 7.34.892 10.67.913 3.51 2.434 6.598 4.5 9.177 2.22 2.758 5.022 4.866 8.33 6.256.69.29 1.49-.034 1.78-.73a1.354 1.354 0 0 0-.733-1.778 18.36 18.36 0 0 1-7.255-5.45c-1.825-2.28-3.17-5.023-3.985-8.155-.795-3.046-1.068-6.34-.815-9.796.255-3.437 1.03-6.865 2.288-10.184a1.366 1.366 0 0 0-.785-1.756 1.367 1.367 0 0 0-1.758.79"/><path fill="#141006" d="M39.887 143.644c-4.577 1.455-6.405 5.53-8.168 9.48-1.107 2.49-2.258 5.066-4.107 6.96a9.633 9.633 0 0 1-3.28 2.233c-1.44.602-3.094.927-5.04.98-2.375.047-4.096-.564-5.393-1.94-1.23-1.303-2.178-3.314-3.083-6.505a1.37 1.37 0 0 0-1.68-.947c-.726.21-1.147.96-.937 1.687 1.026 3.637 2.17 5.994 3.723 7.636 1.842 1.95 4.276 2.862 7.435 2.786 4.334-.107 7.667-1.428 10.208-4.027 2.18-2.236 3.432-5.04 4.642-7.75 1.656-3.716 3.087-6.91 6.5-8.002a1.35 1.35 0 0 0 .884-1.707 1.35 1.35 0 0 0-1.705-.884"/><path fill="#141006" d="M7.74 166.872a1.353 1.353 0 0 1 1.916-.155c1.53 1.3 3.99 2.198 6.917 2.523 3.128.355 6.606.065 10.07-.82 4.354-1.12 8.437-3.145 11.8-5.858 3.87-3.124 6.727-7.058 8.493-11.697a1.353 1.353 0 0 1 1.752-.79 1.355 1.355 0 0 1 .788 1.755c-1.936 5.095-5.078 9.423-9.33 12.852-3.66 2.955-8.098 5.157-12.83 6.377-3.774.97-7.594 1.278-11.044.892-3.512-.4-6.412-1.486-8.378-3.16l-.153-1.92zM16.77 180.397c.705-3.304 3.05-5.34 7.355-6.395 3.71-.92 7.038-.777 10.263-.636 2.707.117 5.254.23 7.712-.346 2.696-.633 4.998-2.03 7.266-4.394a1.358 1.358 0 0 1 1.925-.045c.543.52.564 1.38.043 1.923-1.383 1.448-2.786 2.58-4.29 3.45a15.48 15.48 0 0 1-4.324 1.718c-2.825.66-5.556.54-8.446.412-3.03-.128-6.163-.267-9.5.563-1.758.43-3.04 1.01-3.9 1.773-.75.663-1.214 1.47-1.442 2.55a1.36 1.36 0 0 1-1.618 1.045l-1.044-1.616zM166.846 188.36c-.773-1.243-7.217-1.005-10.832 1.637-.844-2.51 2.585-7.905 8.46-8.825 7.184-1.13 3.824 7.438 2.372 7.19"/><path fill="#141006" d="M164.302 179.917a12.113 12.113 0 0 0-5.205 2.116c-1.383.964-2.55 2.188-3.36 3.536-1.03 1.748-1.382 3.514-.92 4.84l.56 1.63 1.384-1.017c1.35-.972 3.326-1.69 5.455-1.984 1.943-.264 3.257-.066 3.644.113.068.124.214.366.214.366l.566.09c.567.106 1.41-.042 2.295-1.328.532-.826.96-1.97 1.134-3.056.248-1.424.034-2.68-.567-3.626-.673-1.04-2.09-2.177-5.2-1.683m-6.375 6.966c1.1-1.815 3.437-3.934 6.762-4.45.92-.145 1.63-.11 2.122.095.318.135.532.342.678.653.104.25.138.57.138.93a5.1 5.1 0 0 1-.214 1.415 5.215 5.215 0 0 1-.567 1.282 4.975 4.975 0 0 0-1.022-.298c-1.35-.25-3.188-.184-5.06.193-.92.187-2.09.494-3.257.998.102-.247.247-.527.42-.817"/><path fill="#FFF" d="M77.567 185.036a124.31 124.31 0 0 1 1.307 4.15c2.21 1.51 2.94 4.042 2.285 5.874-1.38-3.366-4.788-4.822-5.752-5.164-2.036-.37-4.238-.543-6.43-.656-2.187-.12-6.646-.305-7.75.84 1.104.58 3.268 2.416 3.45 6.305.962-1.46 2.742-1.94 3.693-2.133.824-.152 3.057 2.93 3.58 3.944.794 1.48 2.367 4.904 2.367 4.904 1.33.318 3.252.992 5.783.418 2.54-.56 4.922-1.814 8.776-2.53 1.006-.19 5.797-.135 6.775-.362 2.593-.577 3.627-.415 4.66-1.282 1.747-2.71-1.76-10.33-1.76-10.33.924-2.878-.013-4.378-1.572-5.073-1.286 1.332-5.09 2.324-6.695 2.252-7.317-.325-8.116-.567-11.26-2.04-.003 0-2.095-.968-1.456.884"/><path fill="#141006" d="M77.533 183.962c-.228.196-.245.57-.06 1.11a99.77 99.77 0 0 1 1.3 4.14l.015.028.028.023c1.03.698 1.79 1.66 2.18 2.77.205.553.298 1.11.298 1.648 0 .385-.05.754-.152 1.104-.608-1.355-1.6-2.537-2.962-3.52a11.278 11.278 0 0 0-2.737-1.462l-.007-.003h-.007c-2.234-.402-4.622-.564-6.447-.654-2.852-.16-6.76-.235-7.822.864l-.09.09.115.063c.536.28 3.197 1.89 3.398 6.225l.014.294.156-.245c.688-1.03 1.908-1.74 3.636-2.095.7-.128 2.872 2.737 3.473 3.896.788 1.462 2.347 4.867 2.364 4.9l.02.043.558.143c1.3.34 3.073.795 5.313.29 1.078-.235 2.132-.598 3.25-.98 1.547-.533 3.3-1.135 5.526-1.55.474-.09 1.843-.124 3.17-.16 1.52-.04 3.083-.078 3.61-.2.83-.186 1.513-.296 2.062-.387 1.196-.196 1.918-.31 2.64-.92l.01-.006.008-.014c.335-.52.5-1.245.5-2.16 0-1.093-.234-2.462-.714-4.097a34.262 34.262 0 0 0-1.524-4.128c.238-.757.356-1.438.356-2.06 0-.488-.073-.934-.225-1.328-.3-.788-.896-1.38-1.77-1.77l-.06-.027-.05.052c-1.23 1.277-5.003 2.287-6.624 2.218-7.39-.328-8.12-.577-11.224-2.032-.044-.018-1.092-.502-1.527-.104m.124 1.047a1.667 1.667 0 0 1-.117-.57c0-.14.034-.257.12-.336.285-.26 1.048.01 1.318.135 1.52.71 2.537 1.164 4.085 1.457 1.58.298 3.754.436 7.21.588.826.038 2.198-.197 3.5-.602.865-.263 2.403-.822 3.22-1.628.79.37 1.336.92 1.61 1.635.145.377.214.8.214 1.266 0 .604-.12 1.286-.36 2.032l-.007.035.014.037c.027.06 2.236 4.905 2.236 8.19 0 .804-.135 1.517-.463 2.034-.68.557-1.34.67-2.537.86-.553.09-1.24.205-2.074.392-.505.114-2.06.16-3.574.193-1.39.037-2.71.068-3.197.158-2.244.422-4 1.023-5.55 1.56-1.118.383-2.172.742-3.226.978-2.203.494-3.956.04-5.224-.287l-.477-.122c-.184-.387-1.608-3.49-2.35-4.87-.253-.498-.938-1.514-1.688-2.427-.92-1.108-1.597-1.64-1.995-1.564-1.66.346-2.862 1.002-3.598 1.956-.288-3.98-2.638-5.638-3.364-6.053 1.282-1.068 6.004-.813 7.584-.723 1.82.093 4.193.248 6.408.653.43.148 1.528.584 2.696 1.43 1.403 1.018 2.413 2.25 2.997 3.68l.095.228.086-.23c.156-.444.24-.925.24-1.415a5.04 5.04 0 0 0-.312-1.715c-.404-1.134-1.175-2.12-2.226-2.84-.078-.278-.676-2.298-1.295-4.12"/><path fill="#FFF" d="M67.657 209.088c1.258-1.933 3.616-3.53 3.616-3.53 1.124.57 5.88 1.445 9.157.668 3.294-.774 8.157-3.042 11.673-3.063 3.418-.03 6.554.128 8.71-1.355l-.204 3.22s-1.723 1.07-3.195 1.198c-1.918.152-5.745-.308-8.34.18-2.596.512-5.105 1.66-7.32 2.434-1.802.61-4.543 1.307-9.26 1.158-1.62-.063-4.838-.91-4.838-.91M60.796 205.728s-.127-.525.03-1.496c.222-1.33.312-1.7.312-1.7-1.355 1.067-1.517 1.067-2.025 1.813.356.726 1.182.913 1.683 1.383M101.25 158.92c2.205 1.724 4.493 4.862 6.404 8.927 5.572-1.846 11.625-2.42 12.717-2.6 1.598-.238 8.572 1.946 16.605 7.595 3.4.16 10.445-2.437 13.308-4.694-3.083-1.97-3.823-8.99-9.7-11.725-9.596 6.104-21.236 9.035-39.334 2.496"/><path fill="#141006" d="M140.55 156.347c-2.58 1.64-5.097 2.907-7.647 3.87a34.725 34.725 0 0 1-8.813 2.096c-3.26.353-6.758.263-10.404-.26-3.86-.562-8.047-1.654-12.406-3.224l-.093.164c2.24 1.76 4.51 4.916 6.374 8.895l.043.078.08-.027c4.707-1.555 9.72-2.2 11.845-2.478.387-.06.67-.094.843-.117.744-.11 2.835.33 5.846 1.583 2.407 1 6.23 2.852 10.724 5.986v.014l.035.004c1.597.08 4.106-.453 6.906-1.438 2.655-.96 5.096-2.18 6.472-3.27l.104-.08-.104-.08c-1.237-.78-2.088-2.37-3.076-4.202-.67-1.32-1.486-2.817-2.51-4.154-1.21-1.54-2.558-2.635-4.142-3.367l-.04-.02-.035.027zm-16.422 6.16a34.816 34.816 0 0 0 8.85-2.116c2.545-.96 5.062-2.228 7.605-3.86 3.47 1.625 5.102 4.705 6.554 7.42.954 1.81 1.805 3.37 3.007 4.205-1.417 1.055-3.754 2.227-6.34 3.152-2.758.985-5.198 1.508-6.795 1.438-4.46-3.14-8.283-4.995-10.73-5.997-2.654-1.106-4.983-1.732-5.94-1.594-.143.027-.46.065-.855.11-2.12.276-7.086.927-11.787 2.468-1.756-3.72-3.857-6.727-5.973-8.544 4.19 1.48 8.213 2.506 11.96 3.052 3.647.526 7.145.62 10.443.267"/><path fill="#FFF" d="M150 148.186c7.292 4.193 5.84 9.04 9.947 11.27 0 0 .566-.533 1.34-1.843.782-1.283.962-2.838.962-2.838-3.257-3.19-5.027-8.424-8.283-10.622L150 148.186z"/><path fill="#141006" d="M149.826 148.203l.104.063c4.14 2.374 5.447 4.915 6.58 7.158.852 1.687 1.598 3.14 3.368 4.117l.07.032.067-.05c0-.02.567-.552 1.383-1.862.74-1.286.92-2.81.954-2.872v-.045l-.034-.035c-1.452-1.417-2.62-3.26-3.72-5.036-1.41-2.243-2.758-4.365-4.597-5.596l-.068-.042-4.106 4.17zm4.14-3.92c1.77 1.21 3.077 3.29 4.46 5.492 1.134 1.773 2.26 3.605 3.713 5.037-.036.263-.243 1.617-.92 2.75-.672 1.065-1.135 1.615-1.308 1.774-1.7-.95-2.405-2.364-3.222-4-.566-1.085-1.168-2.315-2.198-3.546-1.092-1.386-2.544-2.568-4.35-3.63.174-.16 3.714-3.77 3.825-3.877"/><path fill="#FFF" d="M184.19 164.287c-.6.04-1.45.28-1.45.28-3.326-2.458-8.92-3.986-10.972-.31l.746.322c4.142-1.888 6.367 2.63 6.153 7.14-.07 1.155-.844 4.004-2.19 5.79-1.667 2.272-5.097 4.395-5.097 4.395.532.805.67 1.064.457 1.386 2.447-.078 6.795.92 8.71 2.88-8.033-1.282-13.557-1.112-16.675 3.73 1.667.577 3.97 2.23 4.106 5.012 1.065-2.074 2.8-3.188 4.604-3.298 1.52-.07 4.742 1.39 5.593 4.663 6.934-.94 7.218-9.416 7.93-11.998.774-2.563 2.973-9.65 2.793-13.692-.173-4.013-1.556-5.717-3.54-6.226 0 0-.565-.13-1.167-.075"/><path fill="#141006" d="M174.603 162.1c-1.313.275-2.31.987-2.938 2.11l-.035.09.885.38.035-.017c1.34-.615 2.544-.577 3.567.125.822.56 1.486 1.534 1.914 2.813.43 1.235.603 2.66.534 4.118-.076 1.06-.774 3.923-2.157 5.74-1.632 2.227-5.06 4.342-5.103 4.363l-.068.056.034.083c.567.808.678 1.02.498 1.274l-.104.152.173-.007c1.278-.04 2.973.21 4.534.67 1.66.497 3.002 1.188 3.887 1.977-4.425-.69-7.5-.81-9.906-.38-1.45.252-2.688.698-3.746 1.362a8.793 8.793 0 0 0-2.8 2.84l-.076.1.11.042c1.77.612 3.893 2.268 4.072 4.926v.35l.18-.312c.49-.992 1.168-1.783 1.977-2.35a4.882 4.882 0 0 1 2.51-.903c.643-.027 1.77.235 2.98 1.064.884.62 2.046 1.73 2.51 3.53l.04.082.07-.015c1.375-.184 2.585-.68 3.607-1.47.844-.68 1.59-1.596 2.19-2.727 1.1-2.06 1.564-4.445 1.875-6.19.145-.67.255-1.252.358-1.67l.104-.3c.85-2.85 2.835-9.52 2.655-13.423-.14-3.67-1.307-5.734-3.61-6.315 0-.003-.565-.135-1.2-.083-.534.035-1.204.222-1.384.267-2.156-1.585-5.515-2.926-8.17-2.355m.035.182c2.62-.56 5.903.78 8.067 2.357l.034.026.034-.01c0-.004.815-.24 1.417-.277a4.292 4.292 0 0 1 1.135.075c1.03.266 1.84.84 2.405 1.756.602 1.02.996 2.497 1.065 4.384v.494c0 3.924-1.88 10.146-2.69 12.87l-.075.3c-.14.425-.242 1.013-.353 1.687-.318 1.735-.774 4.104-1.84 6.14-.6 1.103-1.348 1.997-2.156 2.66a7.28 7.28 0 0 1-3.435 1.418c-.885-3.222-4.106-4.722-5.67-4.646a5.098 5.098 0 0 0-2.612.934c-.78.53-1.417 1.252-1.915 2.144-.276-2.513-2.295-4.106-4.03-4.738.74-1.134 1.625-2.016 2.683-2.68 1.072-.653 2.233-1.09 3.686-1.344 2.447-.426 5.56-.298 10.155.432l.292.045-.215-.208c-1.134-1.14-2.903-1.843-4.21-2.227-1.486-.453-3.152-.705-4.425-.685.028-.055.028-.117.028-.176 0-.273-.173-.584-.525-1.082.566-.335 3.573-2.3 5.095-4.362 1.383-1.846 2.13-4.764 2.164-5.842.027-.225.027-.442.027-.667 0-1.247-.172-2.45-.56-3.52-.42-1.324-1.133-2.327-1.983-2.91-1.058-.724-2.337-.775-3.713-.156-.076-.028-.463-.2-.602-.263.603-1.016 1.523-1.665 2.726-1.928"/><path fill="#FFF" d="M191.098 166.96c.602 1.54.885 3.137.885 5.3 0 1.356-.85 5.815-1.39 6.96-.49 1.13-1.624 4.832-1.73 5.357-.137.546-.565 6.03-2.267 8.783-1.77 2.758-4.064 5.766-8.807 5.914-1.453.5-4.15 3.184-4.15 3.184s4.89.532 7.827-.516c4.003-1.424 6.23-4.78 7.432-7.203 1.312-2.652 2.267-8.698 2.404-10.077.318-3.353 2.62-7.922 2.73-11.82.07-3.44-.463-3.87-1.168-5.39l-1.768-.494zM164.44 200.56l1.452.287c-.14-.97.068-1.817.068-1.817s-1.022.8-1.52 1.53M107.298 157.59c4.165.402 13.325-1.205 17.217-2.346-3.363 3.305-8.424 3.792-8.424 3.792 8.497 1.123 23.925-2.25 34.046-16.453l-.595-2.153c-2.902-4.366-3.933-5.904-5.882-6.513l-1.41 2.475c-3.014 4.712-9.63 7.86-15.608 8.085-6.654.235-11.645-1.742-15.547-4.756-4.383-3.36-12.13-11.582-7.892-27.43-.977.14-.486.042-1.174.468-.1.477-1.103 3.76-1.66 5.72-1.55 5.578-.265 10.36-.77 13.158-.78 4.317-3.768 8.182-5.924 9.392-15.486-.356-18.666-20.553-18.666-20.553-1.995 3.193-.584 9.765-.584 9.765s-.045.905 1.037 3.366c5.685 13.077 13.096 13.886 25.8 22.34 1.98.84 6.038 1.645 6.038 1.645"/><path fill="#141006" d="M127.595 151.445s-6.865 1.99-10.546 2.233l-6.786-4.726-1.75 2.122 5.064 3.4c-4.625 1.107-11.123.315-11.123.315l.08-1.283-12.734-8.6-4.534-1.688c10.48 1.033 19.24-3.336 19.24-3.336l4.52.847 4.484 3.703-1.15 1.86 4.26.234 5.667 3.954 5.308.965zm-20.937-5.195l-1.74-1.7s-.372.266-.725.445c-.716.36-2.206.854-3.495.9l3.992 2.937 1.968-2.582zM84.757 195.244c4.01-.74 9.848 3.965 13.235 1.48-.22 1.478-5.2 3.684-8.15 1.834-1.438-.888-3.315-2.945-5.085-3.314"/><path fill="#141006" d="M84.706 194.978l-.007.525c1.112.238 2.322 1.217 3.387 2.074.574.467 1.117.902 1.614 1.21 1.96 1.227 4.68.74 6.406-.06 1.248-.57 2.053-1.306 2.153-1.966l.096-.636-.522.377c-.816.6-1.832.8-3.194.62-1.234-.166-2.606-.622-3.934-1.068-2.063-.69-4.2-1.406-6-1.074m5.277 3.353c-.47-.29-1-.715-1.555-1.168-.757-.608-1.58-1.27-2.42-1.718 1.407.072 2.99.602 4.528 1.123 2.323.778 4.71 1.57 6.626.896-.3.253-.726.522-1.283.78-1.607.737-4.113 1.2-5.897.088M66.766 191.96c2.596 1.08 7.515 4.9 7.736 11.376l-2.986-.197s.56-3.06-4.75-11.18"/><path fill="#141006" d="M88.103 195.76c2.962-4.446-.23-7.65-.23-7.65 7.168-.474 8.205 6.95 7.648 9.315-.1.525-5.85.833-7.417-1.666"/><path fill="#141006" d="M87.803 187.048l-2.316.152 1.628 1.652c.01.007.664.69 1 1.814.123.433.186.864.186 1.3 0 1.055-.358 2.126-1.078 3.2l-.38.57.363.582c1.673 2.668 6.405 2.688 7.943 2.402.308-.06 1.254-.24 1.414-1.1l-.01.045c.43-1.812.076-5.5-2.06-8.016-1.59-1.89-3.907-2.782-6.69-2.602m2.617 4.92c0-.782-.132-1.463-.312-2.02a5.79 5.79 0 0 0-.252-.678c1.228.242 2.24.826 3.014 1.746.937 1.103 1.355 2.447 1.542 3.377.13.643.18 1.234.18 1.718 0 .205-.01.39-.028.554-.52.073-1.47.107-2.547-.052-1.14-.17-2.046-.51-2.603-.968.753-1.36 1.005-2.605 1.005-3.677M145.505 137.653c.215 3.678.567 6.098 1.84 10.23 1.624 2.107 6.512 5.02 7.473 5.02 1.942 0 5.945-1.178 5.945-1.178s.774.106 2.26-.21c4.39-.948 6.838-3.807 6.838-3.807 2.054.874 4.847-2.047 4.847-2.047 1.52-1.52 3.29-7.786 3.72-9.74.422-1.938-1.632-3.573-1.632-3.573.996-8.734-5.986-12.226-8.357-13.094.856 1.732.856 7.36-.208 8.224-1.52-4.328-4.956-6.49-7.155-7.355.678 2.274.464 5.83 0 7.355-2.544-8.307-6.9-13.296-7.888-14.28-.387-.4-2.51-1.667-3.574-1.954-7.86-2.133-13.806-1.59-23.36-.11-2.832-1.512-11.68-.972-15.593-.1-3.2 6.17-1.95 12.54 3.453 19.697 5.485 7.248 14.934 7.282 19.006 3.57 4.99.898 7.714-.87 7.714-.87.392.69 3.33 3.484 4.67 4.223"/><path fill="#A7A9AC" d="M163.134 129.216c.353-.874.885-2.924.67-4.445 1.418 1.2 2.372 2.605 3.042 6.714 0 0-1.624-1.4-3.712-2.268M170.282 129.43c.988.11 3.29 1.007 3.892 1.73 0 0 .457-5.192-3.146-7.68.457 1.827-.11 4.975-.746 5.95"/><path fill="#141006" d="M74.422 115.776c3.66 7.076 1.296 17.954 18.617 23.46 0 0 6.376-8.814 6.63-20.722 2.61 2.126 8.05 4.448 11.973 4.69 3.92.235 11.884-1.53 13.052-7.535l-2.444-2.032s2.054-3.25 1.77-6.827c0 0-3.08 2.718-4.423 2.6 0 0 .816-3.97.602-6.138 0 0-3.93 2.876-5.31 2.828 0 0 1.734-3.49 1.77-6.015 0 0-2.303 1.76-3.845 2.015l-.792-3.543 3.18-3.36v2.472s4.607-1.546 5.596-3.482c0 0 .39 3.142.14 4.55 0 0 2.514-.962 5.34-3.475 0 0 .284 2.157.464 4.41 0 0 6.09-2.498 8.246-8.074 0 0 1.908-.54 3.436-1.767 0 0-1.27-9.682-2.87-13.446 0 0-14.082-3.778-15.96-4.48-.493-2.368.25-1.42-.493-2.368-.816-.944-8.66-3.537-10.49-4.235-1.826-.705-3.897.698-4.95 1.646-2.89-.946-9.956-2.35-11.518-1.41-1.566.93-3.65 2.35-3.65 2.35-3.13.47-22.952 6.61-22.952 23.838 0 3.757-.06 8.476 3.052 13.664 2.88 4.838 4.24 7.33 5.827 10.384"/><path fill="#141006" d="M105.752 65.285c-.926.41-1.714 1.02-2.15 1.4-1.352-.432-3.73-1.013-6.16-1.383-1.957-.297-4.483-.53-5.42.035-1.43.854-3.315 2.123-3.62 2.326-1.354.225-7.11 1.75-12.695 5.672-3.06 2.14-5.49 4.61-7.22 7.338-2.113 3.325-3.18 7.044-3.18 11.054v.394c0 3.727.047 8.332 3.085 13.395 2.876 4.836 4.214 7.283 5.814 10.365.906 1.75 1.438 3.736 2.005 5.838.865 3.225 1.76 6.557 4.104 9.686 2.668 3.567 6.806 6.2 12.65 8.057l.163.057.1-.14c.015-.026 1.63-2.27 3.247-5.94a41.678 41.678 0 0 0 2.28-6.6 37.136 37.136 0 0 0 1.13-7.853c2.697 2.016 7.86 4.217 11.743 4.46 1.773.103 4.853-.215 7.65-1.452 2.228-.976 4.99-2.86 5.66-6.277l.036-.14s-2.157-1.764-2.44-1.984c.176-.307.567-.998.92-1.935.39-1.023.815-2.523.815-4.148 0-.235 0-.474-.038-.712l-.035-.47-.353.31c-.743.68-2.83 2.33-3.964 2.52.176-.835.6-3.245.6-5.084 0-.292 0-.566-.033-.818l-.038-.412-.353.246c-.954.695-3.505 2.402-4.777 2.727.46-.995 1.59-3.65 1.59-5.724v-.485l-.353.297c-.035.017-2.053 1.566-3.505 1.918-.105-.384-.685-2.976-.733-3.194.142-.156 2.115-2.21 2.717-2.838v2.208l.318-.104c.142-.06 3.857-1.32 5.31-3.038.072.65.142 1.7.142 2.62 0 .463 0 .892-.07 1.22l-.07.412.39-.15c.104-.044 2.406-.936 5.095-3.224.07.747.248 2.336.39 3.958l.034.325.284-.125c.068-.028 1.593-.65 3.36-1.974 1.667-1.217 3.824-3.253 4.992-6.125.463-.134 2.088-.687 3.4-1.775l.105-.086v-.132c-.07-.394-1.313-9.754-2.903-13.505l-.035-.11-.104-.028c-.145-.035-13.596-3.637-15.822-4.425-.144-.608-.18-.97-.18-1.192 0-.152.036-.242.036-.304 0-.06.038-.104.038-.145 0-.18-.107-.302-.425-.696-.603-.73-4.425-2.112-8.584-3.59-.885-.316-1.586-.564-1.998-.724-.865-.33-1.86-.262-2.946.205m-1.935 1.842c.63-.56 2.82-2.333 4.71-1.604.42.16 1.117.412 2.013.726 1.455.51 3.463 1.226 5.126 1.88 2.375.936 3.08 1.368 3.222 1.565.176.207.318.356.318.404v.047c-.035.09-.035.2-.035.387 0 .273.036.702.212 1.428v.124l.142.045c1.77.672 14.443 4.066 15.86 4.453 1.452 3.522 2.655 11.984 2.793 13.146-1.45 1.126-3.22 1.634-3.22 1.64l-.14.028-.034.114c-1.1 2.82-3.257 4.83-4.854 6.015a19.233 19.233 0 0 1-2.972 1.79c-.177-2.1-.46-4.067-.46-4.088l-.04-.443-.35.297c-2.123 1.897-4.107 2.907-4.885 3.273 0-.273.035-.578.035-.896 0-1.46-.21-3.2-.245-3.296l-.073-.764-.353.688c-.816 1.538-4.106 2.862-5.133 3.246v-2.727l-3.69 3.875.87 3.89.218-.04c1.22-.193 2.813-1.233 3.522-1.755-.176 2.382-1.697 5.386-1.697 5.413l-.176.335.388.014c.602.02 1.735-.46 3.29-1.432.744-.457 1.418-.92 1.843-1.196v.353c0 2.167-.64 5.26-.64 5.295l-.068.26.25.023c.635.055 1.586-.377 2.865-1.296.567-.383 1.06-.78 1.375-1.044v.208c0 3.185-1.728 5.977-1.766 6.005l-.104.183.142.128s2.157 1.77 2.37 1.938c-.673 3.132-3.255 4.88-5.343 5.797-2.727 1.204-5.7 1.512-7.445 1.41-3.975-.244-9.33-2.595-11.84-4.634l-.375-.308-.01.483a36.427 36.427 0 0 1-1.137 8.2 40.627 40.627 0 0 1-2.247 6.526c-1.37 3.114-2.73 5.18-3.104 5.724-5.658-1.828-9.665-4.39-12.25-7.84-2.29-3.055-3.17-6.343-4.023-9.526-.57-2.122-1.114-4.134-2.04-5.928-1.608-3.092-2.95-5.55-5.825-10.392-2.976-4.957-3.028-9.485-3.028-13.152v-.394c0-3.917 1.047-7.553 3.11-10.802 1.698-2.672 4.086-5.1 7.09-7.207 2.876-2.013 5.77-3.344 7.694-4.104 2.428-.964 4.197-1.39 4.86-1.49l.056-.01.042-.03c.02-.015 2.098-1.422 3.64-2.345.625-.375 2.485-.365 5.102.032 2.482.377 4.905.975 6.215 1.4l.13.042.102-.087z"/><path fill="#FFF" d="M101.17 88.928c.912.474 4.054 1.186 4.054 1.186s-.404 1.99-3.53 3.418c0 0 .263-3.294-.525-4.604M106.98 90.694c1.105.114 3.518-.48 3.518-.48s-.643 3.356-2.807 4.432c.002 0-.195-3.136-.71-3.952M112.023 89.95l3.892-.766s-.636 3.615-3.1 4.8c.127-.946-.14-3.238-.792-4.033M117.616 88.59c.88.293 3.18 1.123 3.18 1.123s-1.027 3.184-3.256 4.124c.356-.886.356-4.425.076-5.248M122.783 90.393s1.98 1.034 3.433 1.207c0 0-1.594 2.475-3.433 3.3.284-.825.21-3.594 0-4.507M127.913 91.866c.813.2 3.185.2 4.07.083-1.134 1.18-2.157 3.186-3.715 4.254 0 0 .21-3.125-.355-4.338M95.424 100.324c.96-.54 3.073-2.005 3.712-2.713.03 1.46.225 2.48-.17 3.54-.973-.432-1.883-.608-3.542-.826M100.82 103.162c.902-.37 2.62-1.313 3.284-2.008.135 1.638-.664 4.01-1.182 4.594-.52-.94-1.84-2.233-2.102-2.586M104.49 107.99c.637-.18 2.52-1.23 3.302-2.204.266 1.19.363 3.14-.813 4.684-.667-.478-2.09-1.763-2.49-2.48M109.07 112.47c.606-.376 2.877-2 3.4-3.058.473 1.663.217 3.384-.126 4.473-.67 0-2.49-.464-3.273-1.414M115.172 114.244c1.134-1.172 2.16-2.71 2.724-3.758.425.702.598 2.703.567 3.758-1.38.344-2.157.228-3.29 0"/><path fill="#A7A9AC" d="M96.63 94.075c-.87.975-2.364 3.318-2.747 5.32 0 0 3.71-2.324 5.838-4.273 0 0 1.54 3.166 1.4 5.956 0 0 2.334-1.096 4.042-2.285.097.712 1.013 3.747-.15 6.84 1.1-.446 3.48-1.925 3.966-2.195.214.65 1.068 3.305.418 6.34.65-.33 3.073-1.94 3.723-2.49.53 1.027 1.133 2.994 1.306 4.767 0 0 1.915-1.566 2.447-2.745-.142-.55-.498-.76-1.842-1.72-.812-.588-1.98-.554-3.916-2.63-1.69-1.774-1.787-5.093-4.417-7.398-2.075-1.818-5.794-3.37-10.066-3.487"/><path fill="#141006" d="M96.555 94c-.926 1.033-2.392 3.383-2.78 5.377l-.044.238.21-.13c.034-.028 3.622-2.275 5.75-4.187.267.59 1.332 3.097 1.332 5.423 0 .122-.003.236-.01.354l-.007.183.162-.076c.018-.01 2.23-1.06 3.92-2.204.014.076.03.166.052.273.127.614.348 1.707.348 3 0 1.025-.138 2.184-.574 3.345l-.086.23.228-.09c.826-.34 2.368-1.252 3.288-1.795.23-.142.44-.26.574-.342.276.847.615 2.226.615 3.85a11.3 11.3 0 0 1-.24 2.303l-.047.222.197-.097c.598-.304 2.848-1.787 3.643-2.413.49 1.027 1.06 2.883 1.234 4.604l.038.193.146-.13c.07-.058 1.946-1.59 2.47-2.775l.04-.038-.04-.035c-.1-.525-.455-.778-1.517-1.507l-.353-.27c-.283-.183-.567-.308-.885-.446-.748-.333-1.702-.737-3.025-2.175-.72-.747-1.15-1.797-1.607-2.907-.608-1.486-1.307-3.167-2.82-4.494-1.84-1.614-5.462-3.388-10.135-3.52l-.045-.002-.033.037zm.128.185c4.583.138 8.14 1.874 9.94 3.463 1.48 1.293 2.165 2.95 2.767 4.414.466 1.127.91 2.2 1.645 2.973 1.355 1.462 2.368 1.9 3.11 2.216.316.14.568.26.817.43l.384.273c.996.695 1.313.92 1.42 1.348-.46.948-1.804 2.15-2.264 2.538-.214-1.752-.816-3.616-1.314-4.594l-.07-.125-.068.092c-.608.5-2.675 1.888-3.5 2.36.14-.735.193-1.45.193-2.12 0-1.736-.374-3.195-.66-4.05l-.046-.12-.107.066c-.128.062-.38.214-.698.404-.843.498-2.19 1.296-3.042 1.684a9.673 9.673 0 0 0 .515-3.187c0-1.314-.23-2.414-.356-3.046-.04-.183-.07-.328-.08-.425l-.025-.177-.142.1c-1.43.996-3.325 1.933-3.87 2.203l.002-.183c0-2.696-1.4-5.614-1.414-5.648l-.065-.125-.104.093c-1.804 1.65-4.783 3.595-5.606 4.117.436-1.868 1.768-3.99 2.64-4.975"/><path fill="#D31245" d="M237.423 112.976c-5.025 6.168-16.882 17.522-32.77 26.103-5.882 3.18-20.11 11.095-38.623 14.744l-2.295-2.492c3.927-1.078 6.118-3.622 6.118-3.622 2.06.874 4.853-2.05 4.853-2.05 1.383-1.37 2.938-6.626 3.54-9.066v.007c3.042-.21 5.73-.528 7.646-.926 17.588-3.637 35.43-11.414 49.94-22.183"/><path fill="#141006" d="M174.285 150.446l5.344-8.534 5.273 4.352 4.176-7.02 4.596 3.155 3.65-5.895 3.857 2.51 3.188-5.054 2.897 1.494 2.517-4.006 2.69.698 1.838-2.842 2.302.63c-4.32 3.238-12.706 8.654-22.088 12.688-6.51 2.82-12.844 5.83-20.24 7.824"/><path fill="#D31245" d="M174.672 174.474c-.815 1.52-2.8 3.46-2.8 3.46-5.662 4.51-9.976 3.69-19.605.573 6.194-2.72 13.84-8.364 16.246-13.007 2.44.943 3.22 1.897 3.892 1.604v-.083c1.237-.98 3.007-.21 3.152 3.71 0 .84-.104 2.208-.885 3.744M139.13 175.227l4.605 2.855c4.673-.422 11.856-3.965 16.073-7.418 4.383-3.574 7.183-7.663 8.704-11.853l-3.68-2.26c-.565 2.04-2.8 6.004-4.423 7.342-6.59-3.823-5.24-9.92-12.217-12.952l-4.88 3.82c7.25 4.233 4.63 8.323 11.676 13.705-2.406 2.486-10.508 6.413-15.86 6.762M75.5 152.27l.598.102c4.175.715 8.047 2.357 12.935 5.496 4.663 3.12 8.472 7.48 11.638 13.34l.136.258 4.635-2.333-.137-.273c-1.646-3.252-3.526-6.05-5.745-8.552-2.078-2.35-4.452-4.424-7.26-6.353-2.68-1.83-5.014-3.177-7.14-4.12-1.763-.788-3.418-1.317-5.202-1.66l-.16-.027-4.296 4.123z"/><path fill="#D31245" d="M89.576 166.63c.944.885 5.43 4.37 5.385 8.064-.05 4.08-1.582 4.995-.528 7.01-1.445.727-3.187.958-4.59 1.006-1.628.042-7.978-.52-10.06-1.76-.815-3.33-4.01-12.02-5.98-14.69-1.976-2.7-1.295-9.75 1.12-11.382 0 0 2.908.826 5.255 1.56 5.772 1.83 11.957 6.183 16.433 13.317l-.432.314c-.56-.664-1.607-1.61-2.554-2.348-1.258-.913-3.878-1.497-3.878-1.497a1.828 1.828 0 0 0-.17.405M53.16 150.985c1.943 1.266 8.18 5.91 15.842 7.083 0 0 .07-1.632 1.307-3.958 1.164-2.153 3.065-5.112 7.676-9.084-4.29-4.01-7.753-11.172-7.836-18.942-2.866 2.01-4.978 7.74-4.4 10.826 0 0 4.106 3.43 3.792 8.393 0 0-3.536-3.588-5.524-4.542-3.19-.766-10.536-2.48-16.464-2.218-2.022-1.48-10.1-4.014-10.1-4.014s-3.173-.85-4.85-1.137c-2.07.416-5.897 1.937-8.175 2.348-1.346.253-3.064 3.392-3.15 4.353 0 0 .695-.61 1.607-.535 1.563.314 2.672 1.994 3.46 3.743.933-.404 1.663-1.334 2.164-2.944 2.673-.37 4.885-1.85 6.39-1.432 0 0 5.253 3.395 6.916 5.085.678 2.06 2.326 4.55 2.693 5.4 0 0-.965 2.716-.212 4.067 0 0 1.936.546 4.735-1.327 1.832-2.337.28-6.906-.086-8.345 0 0 3.71 2.91 4.214 7.183M20.513 135.86s-2.33 3.128-2.254 4.137c.092 1.006.085 1.62.085 1.62l-.636 1.242s-1.854-2.507-2.752-2.282c-.81.214-1.116.355-1.116.355s-.384-.225 1.255-1.175c2.164-1.192 2.71-2.243 3.138-2.755.34-.41 1.3-1.303 2.278-1.144"/><path fill="#D31245" d="M18.003 136.807c-.076.087-.152.193-.238.305-.425.563-1.065 1.413-2.817 2.38l-.003.005c-1.28.74-1.445 1.096-1.445 1.352v.002c0 .17.097.294.19.343l.13.086.147-.068c.003 0 .308-.135 1.068-.338.066-.015.442-.038 1.414.975.552.57 1.008 1.187 1.012 1.194l.293.397.896-1.748v-.106c0-.148-.006-.73-.082-1.607v-.036c0-.663 1.272-2.66 2.19-3.898l.305-.404-.498-.083c-1.075-.177-2.116.7-2.562 1.247m.253.67l.218-.28.003-.003c.208-.255.778-.802 1.41-.988-.22.314-.504.733-.788 1.18-1.045 1.658-1.152 2.29-1.152 2.547 0 .038.003.063.003.09v.003c.074.792.084 1.335.084 1.52l-.38.747c-.193-.24-.463-.557-.764-.87-.868-.902-1.504-1.27-2.005-1.145l-.007.003-.083.02c.128-.077.276-.17.453-.274l-.003.004c1.867-1.028 2.582-1.98 3.01-2.552M18 136.81c0-.003.003-.003.003-.003l-.003.004zM122.994 112.543c-.356.78-.567 1.04-.567 1.04l2.48 2c-1.17 5.493-7.294 7.584-11.86 7.847l-.357.024c.356.864.678 1.563 1.137 2.357 2.547 4.273 6.194 7.105 9.132 7.453 2.512.342 7.356.69 8.85-3.06 3.04 1.297 7.396.886 10.155-.773 1.45 3.072 5.662 4.79 6.796 5.962.637 9.51 3.118 14.142 3.962 14.35 2.337.576 5.102-.61 5.102-.61l-.566-4.26 4.846 3.888c1.95-.426 4.286-2.012 4.286-2.012-.602-.733-2.37-4.6-2.37-4.6 2.826 1.284 5.98 2.498 5.98 2.498s1.7-.823 2.79-1.908c1.1-1.078 2.234-6.92 2.234-6.92-.74-1.697-4.846-2.855-4.846-2.855l-.43 1.3c1.632 1.998.747 5.296.747 5.296-3.436-5.912-9.982-8.263-9.982-8.263-.566.467-2.337 1.763-2.337 1.763-.104-3.45-.145-3.81-.145-3.81-1.485-5.277-6.546-13.636-8.523-14.375-5.523-2.056-14.518-2.024-17.456-.54 0 0 2.414 2.9 1.53 5.285 0 0-1.847-2.896-4.82-4.64-2.756-1.63-4.388-2.258-5.66-2.61l-.106.173z"/><path fill="#D31245" d="M88.355 74.054s3.398-4.168 4.836-5.703c2.8-.12 8.508.513 10.33 1.446 1.84.954 2.878 3.512 5.88 4.338 0 0 .158-.197.147-.204-.453-.394-2.136-2.174-2.226-2.758-.13-.823-.683-2.178-1.208-2.54l1.628-.727s5.447 2.437 6.865 2.807c1.345.353 1.026 1.528 1.026 1.528s-2.58-.37-3.48-1.19c0 0-.213 2.237 5.006 3.32 4.705.984 13.762 2.792 15.747 3.988.43.933 1.134 3.073 1.134 3.073s-1.486 2.486-1.486 4.83l.215.083c.318-.52.954-1.64 1.694-1.808 0 0 .572 1.99.607 3.682-1.28.712-3.015.864-4.32 1.013-4.178.474-11.22-3.395-12.674-3.29-1.448.127-8.983 2.11-10.684 1.997-1.705-.128-4.37-1.635-5.933-1.635-1.047 0-10.073 5.64-11.908 16.49 0 0 6.418.19 8.215 1.097 1.33.67 6.495 8.668 9.357 10.552 2.883 1.89 7.127 2.882 14.207 2.173 0 0-3.36 3.857-7.996 3.857-4.84 0-9.395-2.762-13.107-7.782-.78-1.072-4.3-3.564-5.275-4.13-2.413-1.35-8.904-1.207-12.36-5.037-2.974-3.318-2.998-6.543-2.393-8.51 0 0-2.344 1.545-2.2 4.87.108 2.707 1.138 4.66 2.435 6.19 3.03 3.582 8.21 4.588 11.407 5.92 2.845 1.178 3.2 2.728 3.2 2.728s-5.63 1.972-14.254-2.92c0 0 3.166 9.19 15.043 7.416l.292-.045s-2.496 5.66-13.955 2.38c0 0 2.74 4.14 7.048 4.478 2.17.163 4.494.2 6.965-1.504 0 .118-.11 1.196-1.27 2.838-.99 1.438-3.594 3.156-7.382 2.03 3.235 4.2 7.912 3.238 7.912 3.238-.584 1.3-1.984 3.732-2.966 4.424-2.61-.12-6.05-1.932-9.626-6.736-3.878-5.21-3.488-12.447-5.71-16.573-2.592-4.808-4.71-7.808-6.097-10.84-2.322-5.198-2.052-10.124-2.052-11.655s1.32-8.842 5.645-13.222c4.048-4.09 6.384-5.337 13.325-7.37-.003-.002-.356 2.255.397 3.396"/><path fill="#141006" d="M124.373 82.813l1.556-1.355s2.37 1.652 2.48 4.898c0 0-2.018-2.83-4.037-3.543M86.506 77.8c-3.405.696-12.17 4.004-13.346 11.318-.892 5.596.913 7.083 1.95 9.326 0 0-2.295-12.7 12.32-14.28l-4.19-1.645 3.266-4.72zM95.072 87.822s-6.125 5.364-8.002 13.45c0 0-1.995-1.01-2.454-2.593 0 0 3.13-6.728 10.456-10.858M110.89 77.085c-.65.587-2.846.913-3.91.48-1.66-.66-2.742-4.822-6.406-5.306-4.452-.6-6.55.933-7.076 1.3 0 0 2.624-.184 3.54.23 0 0-4.25 1.473-5.745 4.96 0 0 1.424-.484 2.29-.657.842.4 1.983 1.797 4.333 1.977 0 0-1.604-1.026-1.604-2.8.8-.885 2.72-1.97 4.515-1.714 3.384.47 3.792 3.602 5.883 3.412-.19.418-1.445 1.248-2.292 1.663 0 .002 5.486-.36 6.47-3.545"/><path fill="#141006" d="M99.85 75.205c-.322.657-1.59 3.294.56 5.586-.26-1.485.55-4.403 2.318-4.87 0 0-1.175-.78-2.88-.715"/><path fill="#A7A9AC" d="M16.327 144.91c-.225-.9-1.37-2.124-1.552-2.22 0 0-1.656.798-2.298 1.748-.52.778-2.5 4.297-.418 8.307.396-1.23 1.26-4.625 3.736-5.658-.368.155 1.057.11.53-2.178M24.198 144.29c-.28-1.334-1.63-2.178-1.63-2.178-.686-.08-1.94.985-2.386 1.808-.587 1.104-2.153 4.474-.214 8.625.422-1.418 1.58-5.36 4.33-6.388.266-.094-.017-1.497-.1-1.867M54.53 205.054c1.402-2.392 5.053-5.54 7.79-6.588-.636-2.797-1.375-5.666-3.225-5.624-.674.014-1.303.954-2.282 1.604-1.624 2.388-4.016 6.477-2.284 10.608M64.066 209.658c1.04-2.402 5-6.178 7.525-7.353-1.09-3.795-2.76-5.348-3.645-5.274-.574.04-2.375 1.49-2.748 2.154-1.13 2.015-3.26 6.63-1.13 10.474M89.396 195.617c2.04-3.404.404-6.356.404-6.356 4.11.706 4.957 5.362 4.756 7.42 0 .112-3.864.18-5.16-1.063M167.593 184.13c-1.7.516-3.685 1.647-4.425 2.272-.497-.07-3.4.263-5.668 1.32.712-1.718 2.267-3.077 2.938-3.526 1.528.114 3.54.308 7.155-.663v.598M160.368 201.704c.85-2.247 3.927-4.967 5.24-5.555.215-3.405-2.405-3.786-3.43-4.094-1.664 1.664-3.863 5.618-1.81 9.648M169.293 204.176c.886-1.97 4.28-5.417 6.437-6.478-.276-2.198-2.26-4.196-3.464-3.996-.532.045-1.1.305-1.77.826-1.134 2.04-3.117 5.883-1.203 9.648M49.9 154.73s.01.794-.37 1.8c-.396 1.013-1.935 4.73-5.706 6.26.685-1.13 2.164-4.618 1.497-6.67 0 0 3.475-.42 4.58-1.39"/><path fill="#141006" d="M58.833 136.285c1.676.27 2.997.56 3.515.753-.173-6.143 2.755-11.556 6.4-14.71 1.408-1.55 3.143-3.686 5.74-5.15l.237-.143c-.187-.388-.335-.754-.54-1.106-1.565-3.068-2.85-5.412-5.727-10.255-2.75-4.607-3.1-9.066-3.135-12.658l-.238.304c-5.285 8.104-8.687 17.958-8.604 28.828.028 4.798.81 9.65 2.06 14.078l.293.06zM158.924 121.88c-2.37-4.952-4.99-7.943-5.738-8.69-.387-.387-2.51-1.66-3.574-1.946-7.293-1.978-12.92-1.65-21.308-.418l-.284-.014c-1.06-.546-2.37-.992-3.788-1.32l-.18-.04c.18-.787.218-2.246.142-3.14 0 0-3.003 2.892-4.283 2.56 0 0 .713-3.923.537-6.1 0 0-3.716 2.806-5.168 2.968 0 0 1.73-3.488 1.627-6.153 0 0-2.337 1.808-3.93 2.22l-.667-3.18 2.686-2.894v2.264s4.532-1.524 5.593-3.232c0 0 .317 2.938.034 4.362 0 0 2.654-.923 5.482-3.446 0 0 .18 2.137.355 4.39 0 0 6.69-2.778 8.744-8.33 0 0 2.054-.653 3.506-1.766 0 0-.886-5.894-1.908-10.387h.068c13.205 9.202 22.123 24.58 22.123 42.248l-.07.046z"/><path fill="#A7A9AC" d="M68.003 79.018c3.333-3.24 8.663-6.654 8.663-6.654l-2.942-.37L59.638 57.4l-6.675.02c-3.688 3.046-9.57 8.822-14.044 15.286l4.413.487 14.1 14.307.5 3.785c.965-1.677 5.124-7.383 7.007-9.22.028-.027-4.915-4.98-4.915-4.98.708-1.307 3.128-3.066 3.128-3.066s4.85 5.01 4.85 4.998m-12.05-6.074l-5.167-5.406 2.437-2.423 1.41.138 4.435 4.635s-1.818 1.494-3.114 3.056"/><path fill="#A7A9AC" d="M58.328 90.694s-3.125 4.71-5.078 10l-11.773-4.106 1.43 5.08s8.926 3.033 8.92 3.084c-1.086 3.312-2.07 8.752-2.282 11.45l-3.083-3.787-24.842-8.652-4.884 1.424c2.233-11.863 6.42-20.87 6.42-20.87l4.617-1.743 10.78 3.688 1.097 4.05 3.336-2.657L55 91.59l3.328-.896zm-23.48 3.612l-8.026-2.662s-.366 1.01-.726 1.95c-.25.622-.708 2.17-.708 2.17l10.632 3.633-1.172-5.09zM84.484 61.037l1.1 3.24s4.008 1.976 3.95 1.997c-4.957 1.673-9.748 4.003-13.4 6.46l1.14-5.008-6.125-16.82-4.463-3.045c5.804-3.432 15.27-6.815 19.36-7.808l4.788 1.082 4.532 11.99-3.374 4.664-7.51 3.25zm.906-6.126l1.186-1.55-2.19-6.016-1.632-.363-3.273 1.173 2.853 8.026 3.057-1.27zM113.05 42.955l7.396 4.055.034-8.82c-6.263-1.055-15.91-1.342-23.926-.153-.035 0-.055 8.804-.055 8.804l7.455-3.954-.125 17.394-2.796 3.588s3.605-.515 7.148-.5c3.54.027 7.445.524 7.445.524l-2.72-3.557.142-17.38zM140.73 69.267l-6.41.512s-6.652-3.074-10.758-4.287l-4.248-4.777 7.428-18.59 6.48-.8c2.197.635 9.027 3.18 11.046 4.344l3.96 5.04-7.5 18.557zm-7.295-5.528l5.628-14.26-4.708-1.87-5.628 14.252 4.708 1.877zM158.778 93.28s-3.042-5.52-7.113-9.983l6.58-5.99-5.695-1.365s-4.148 3.916-4.148 3.885c-2.717-2.64-6.436-5.444-8.986-7.124l4.64-.847 14.122-12.938.07-4.812c8.28 6.108 15.79 15.517 15.79 15.517l-.43 4.8-5.38 5.082-3.82-.792.067 4.51-5.344 5.338-.352 4.72zm3.256-19.803l4.286-4.158-3.256-3.38-6.443 6 5.414 1.537z"/><path fill="#A7A9AC" d="M165.608 113.715l15.576-5.278 3.22-15.32 4.246-1.344 1.846 5.316-5.986 2.024 2.585 9.018 2.69-2.84 8.426-2.756c-1.803-8.406-4.887-16.768-8.246-23.34l-2.337 3.765-9.77 3.18-3.538 16.306-4.89 1.708-1.804-5.278 5.49-1.9-3.333-9.752-2.26 2.506-9.03 3.07c3.646 6.14 6.445 14.793 7.115 20.915M102.458 75.93c-1.545.713-2.288 3.46-2.05 4.86-1.874-1.98-1.165-4.033-.726-5.226l-.104.014c-1.348.214-2.724.726-3.267 1.694 0 1.773 1.605 2.8 1.605 2.8v-.014c.747.432 1.61.767 2.672.926 1.34.19 2.63 0 3.854-.408h.043c.85-.415 2.136-1.186 2.34-1.594-1.69.156-2.143-1.84-4.366-2.91v-.14z"/></svg>